<svg xmlns="http://www.w3.org/2000/svg" viewBox="0 -1000 1000 1000">
	<path fill="#854e28" d="M536.634765625 76.0107421875C548.5400390625 78.6767578125 557.994140625 75.4609375 565.6943359375 66.119140625C572.9609375 57.30078125 575.0634765625 46.431640625 573.9970703125 23.185546875C572.9990234375 1.392578125 570.490234375 -9.00390625 555.6083984375 -53.048828125C540.88671875 -96.6103515625 534.32421875 -111.765625 517.439453125 -141.146484375C509.1787109375 -155.525390625 498.2685546875 -176.826171875 493.189453125 -188.4853515625C471.4814453125 -238.3330078125 449.1279296875 -278.9931640625 429.994140625 -303.4384765625C418.732421875 -317.82421875 417.6142578125 -320.2822265625 419.6689453125 -326.177734375C420.615234375 -328.892578125 429.7587890625 -343.390625 439.9921875 -358.3994140625C450.2216796875 -373.408203125 464.7138671875 -395.1357421875 472.1962890625 -406.685546875C479.677734375 -418.23828125 490.4345703125 -434.111328125 496.09765625 -441.958984375C501.76171875 -449.8095703125 512.900390625 -468.33203125 520.8505859375 -483.1171875C528.80078125 -497.9072265625 541.583984375 -520.591796875 549.2578125 -533.525390625C571.16015625 -570.443359375 584.8662109375 -605.521484375 587.9794921875 -632.61328125C590.1572265625 -651.548828125 588.947265625 -655.970703125 578.720703125 -666.529296875C568.671875 -676.90234375 562.7177734375 -678.068359375 552.3232421875 -671.697265625C545.9111328125 -667.7666015625 493.859375 -614.703125 467.8720703125 -585.60546875C459.62109375 -576.3671875 447.826171875 -563.515625 441.6669921875 -557.048828125C431.34765625 -546.216796875 404.6435546875 -508.87890625 366.4814453125 -451.91796875C349.7607421875 -426.9609375 347.6826171875 -424.609375 343.6904296875 -426.140625C342.2109375 -426.7109375 335.580078125 -434.767578125 328.9521484375 -444.046875C314.908203125 -463.716796875 290.3466796875 -496.830078125 273.7353515625 -518.490234375C267.3193359375 -526.853515625 257.263671875 -541.595703125 251.388671875 -551.251953125C230.5595703125 -585.4755859375 214.2724609375 -608.57421875 193.8232421875 -632.88671875C189.0478515625 -638.5634765625 182.615234375 -646.7255859375 179.529296875 -651.021484375C175.08203125 -657.21484375 170.8779296875 -660.359375 159.263671875 -666.173828125C151.2041015625 -670.20703125 140.3662109375 -674.458984375 135.1806640625 -675.6171875C126.5166015625 -677.55859375 125.3818359375 -677.45703125 121.1943359375 -674.38671875C109.6962890625 -665.9619140625 108.3154296875 -651.876953125 116.43359375 -625.9140625C118.740234375 -618.52734375 121.7724609375 -606.369140625 123.1669921875 -598.89453125C124.5615234375 -591.419921875 126.6875 -583.1103515625 127.890625 -580.43359375C133.2021484375 -568.6044921875 165.4501953125 -513.5205078125 176.0048828125 -498.24609375C193.857421875 -472.416015625 236.74609375 -403.02734375 254.19140625 -371.7568359375C271.1240234375 -341.3984375 277.078125 -329.03515625 277.078125 -324.22265625C277.078125 -322.53125 271.728515625 -313.3671875 265.1904296875 -303.85546875C227.1279296875 -248.4912109375 215.787109375 -230.1025390625 194.431640625 -189.1279296875C181.9111328125 -165.103515625 169.44921875 -141.666015625 166.732421875 -137.048828125C156.08203125 -118.919921875 127.466796875 -55.287109375 120.9248046875 -35.1796875C110.7421875 -3.8740234375 109.73046875 2.193359375 112.3115234375 16.6171875C115.7294921875 35.75 126.263671875 45.474609375 143.572265625 45.474609375C155.9345703125 45.474609375 166.7080078125 40.3271484375 178.5205078125 28.77734375C190.931640625 16.6474609375 200.2109375 3.7001953125 212.478515625 -18.60546875C217.8134765625 -28.30859375 230.0673828125 -48.341796875 239.7060546875 -63.1279296875C255.8046875 -87.8193359375 263.748046875 -98.978515625 290.53125 -134.525390625C295.75390625 -141.45703125 309.2509765625 -160.8544921875 320.5302734375 -177.6298828125C331.8095703125 -194.408203125 342.0947265625 -209.013671875 343.3896484375 -210.0869140625C347.703125 -213.6689453125 351.9892578125 -209.02734375 360.421875 -191.640625C380.4990234375 -150.2314453125 408.46484375 -95.560546875 426.5830078125 -62.287109375C437.4013671875 -42.421875 449.78125 -19.5966796875 454.0947265625 -11.5712890625C465.6611328125 9.951171875 487.0234375 39.0283203125 503.53515625 55.7216796875C517.6689453125 70.0087890625 522.169921875 72.7705078125 536.634765625 76.0107421875Z"/>
</svg>