<svg xmlns="http://www.w3.org/2000/svg" viewBox="0 -1000 1000 1000">
	<path fill="#854e28" d="M467.1181640625 -432.3173828125C449.5498046875 -427.740234375 428.3408203125 -429.849609375 413.2060546875 -437.6767578125C398.1298828125 -445.47265625 383.53515625 -466.4287109375 377.9228515625 -488.3447265625C375.755859375 -496.796875 375.619140625 -500.359375 377.177734375 -507.857421875C381.58984375 -529.1142578125 403.08203125 -549.775390625 428.7548828125 -557.4453125C434.41796875 -559.134765625 438.41015625 -559.134765625 448.9140625 -557.4453125C465.6552734375 -554.755859375 468.392578125 -553.255859375 483.486328125 -538.509765625C494.4375 -527.8125 496.451171875 -524.873046875 499.8037109375 -514.6875C504.2607421875 -501.158203125 504.859375 -487.955078125 501.8720703125 -469.2109375C498.4228515625 -447.564453125 489.560546875 -438.158203125 467.1181640625 -432.3173828125ZM250.330078125 -1.2265625C254.0283203125 -0.42578125 274.4404296875 -0.04296875 295.689453125 -0.37890625C353.689453125 -1.294921875 373.8994140625 -5.7275390625 414.9697265625 -26.5498046875C427.9072265625 -33.109375 446.80859375 -44.0224609375 456.9697265625 -50.8037109375C492.810546875 -74.712890625 510.091796875 -94.1640625 528.42578125 -131.21484375C542.9453125 -160.564453125 547.18359375 -175.7646484375 547.474609375 -199.578125C547.6796875 -216.3701171875 547.416015625 -217.8125 542.1796875 -228.44921875C535.197265625 -242.6337890625 523.818359375 -253.0380859375 505.8330078125 -261.689453125C485.69140625 -271.375 469.77734375 -274.03125 437.8564453125 -273.033203125C408.359375 -272.107421875 400.7001953125 -270.216796875 385.572265625 -260.11328125C369.5283203125 -249.3984375 361.51953125 -232.90234375 364.53125 -216.7734375C366.431640625 -206.591796875 376.9755859375 -197.869140625 395.671875 -191.015625C407.4775390625 -186.685546875 413.4453125 -183.35546875 419.7890625 -177.5556640625C428.046875 -170.001953125 428.2314453125 -169.619140625 428.9287109375 -158.650390625C429.541015625 -149.056640625 429.0009765625 -146.1484375 425.15234375 -138.279296875C415.650390625 -118.859375 392.408203125 -105.1630859375 356.9326171875 -98.087890625C321.078125 -90.93359375 323.666015625 -90.8759765625 297.712890625 -99.427734375C272.59765625 -107.7060546875 261.919921875 -113.732421875 247.8720703125 -127.560546875C227.9931640625 -147.125 223.1572265625 -160.88671875 224.7568359375 -193.30859375C225.9189453125 -216.83203125 232.880859375 -242.8115234375 248.2724609375 -281.0244140625C264.23046875 -320.65625 273.1142578125 -334.333984375 300.35546875 -361.248046875C326.642578125 -387.224609375 354.19140625 -407.861328125 362.572265625 -407.861328125C367.384765625 -407.861328125 407.501953125 -392.76171875 421.416015625 -385.712890625C425.1455078125 -383.8232421875 435.9765625 -381.3896484375 447.1123046875 -379.9375C464.673828125 -377.650390625 467.2099609375 -377.673828125 475.9501953125 -380.2001953125C489.638671875 -384.158203125 510.337890625 -395.32421875 519.8740234375 -403.896484375C530.6650390625 -413.6005859375 548.3798828125 -437.587890625 556.04296875 -452.8798828125C570.86328125 -482.455078125 569.404296875 -513.33984375 551.7265625 -544.228515625C537.275390625 -569.4873046875 529.0791015625 -575.765625 489.6220703125 -591.810546875L470.4091796875 -599.623046875L440.1708984375 -599.732421875C413.8349609375 -599.8251953125 408.6982421875 -599.3984375 400.392578125 -596.423828125C384.5126953125 -590.7333984375 358.748046875 -574.556640625 347.7724609375 -563.37890625C323.9736328125 -539.15625 313.380859375 -513.380859375 313.34375 -479.615234375C313.330078125 -468.326171875 313.244140625 -468.107421875 305.3525390625 -459.650390625C300.9638671875 -454.947265625 290.9453125 -446.1259765625 283.0908203125 -440.044921875C227.2958984375 -396.845703125 204.802734375 -369.474609375 175.17578125 -308.748046875C148.0302734375 -253.0927734375 135.9814453125 -213.126953125 134.1259765625 -172.544921875C131.353515625 -112.0263671875 148.2900390625 -64.806640625 183.83984375 -33.94921875C198.9130859375 -20.865234375 229.7841796875 -5.6728515625 250.330078125 -1.2265625Z"/>
</svg>