<svg xmlns="http://www.w3.org/2000/svg" viewBox="0 -1000 1000 1000">
	<path fill="#854e28" d="M189.8544921875 -21.0927734375C240.08203125 -18.611328125 254.078125 -20.775390625 277.3720703125 -34.611328125C291.8125 -43.189453125 312.2451171875 -62.361328125 320.9375 -75.482421875C334.36328125 -95.7578125 345.515625 -121.564453125 355.9306640625 -156.451171875C370.046875 -203.7421875 372.09375 -221.5703125 367.03515625 -253.033203125C363.2275390625 -276.708984375 359.984375 -286.8603515625 348.5205078125 -310.994140625C339.4150390625 -330.162109375 335.26171875 -336.431640625 314.59375 -362.2333984375C288.44921875 -394.87109375 257.8486328125 -443.21484375 248.353515625 -466.884765625C243.376953125 -479.2919921875 242.8056640625 -482.357421875 242.84375 -497.4755859375C242.8779296875 -523.8828125 247.4609375 -529.8505859375 269.41796875 -532.076171875C295.029296875 -534.669921875 310.474609375 -543.2080078125 318.61328125 -559.26171875C327.1171875 -576.0478515625 323.203125 -595.919921875 308.998046875 -608.0810546875C300.8427734375 -615.060546875 294.123046875 -617.04296875 273.8544921875 -618.447265625C246.4326171875 -620.34765625 227.94140625 -614.5888671875 206.4423828125 -597.455078125C182.3076171875 -578.21875 170.068359375 -557.798828125 160.3955078125 -520.62890625C151.515625 -486.513671875 151.583984375 -469.7734375 160.6962890625 -446.298828125C170.5361328125 -420.951171875 198.2119140625 -367.951171875 209.04296875 -353.712890625C215.0859375 -345.7724609375 226.19140625 -327.30859375 233.802734375 -312.552734375C268.1572265625 -245.951171875 267.9111328125 -246.69921875 266.7451171875 -211.89453125C265.7919921875 -183.4765625 262.859375 -173.50390625 249.046875 -151.693359375C233.62890625 -127.3369140625 223.5390625 -121.19140625 195.7333984375 -119.205078125C184.392578125 -118.3984375 180.7216796875 -118.8359375 172.21484375 -122.015625C152.828125 -129.25390625 144.1630859375 -130.888671875 136.3330078125 -128.779296875C127.220703125 -126.3251953125 117.8759765625 -117.044921875 111.5556640625 -104.1767578125C107.228515625 -95.365234375 106.6953125 -92.517578125 106.6953125 -78.3125C106.6953125 -60.0576171875 109.279296875 -53.369140625 120.412109375 -42.80078125C128.2626953125 -35.349609375 132.8359375 -33.0009765625 151.21484375 -26.974609375C162.900390625 -23.146484375 169.9208984375 -22.0771484375 189.8544921875 -21.0927734375ZM388.9345703125 15.9375C419.525390625 23.5869140625 468.6484375 15.267578125 493.9345703125 -1.8427734375C508.1904296875 -11.484375 511.82421875 -15.421875 535.080078125 -46.396484375C560.7216796875 -80.541015625 565.3017578125 -90.3984375 576.0576171875 -134.59375C587.689453125 -182.390625 588.318359375 -187.298828125 586.267578125 -214.396484375C581.1748046875 -281.716796875 576.0712890625 -300.306640625 550.7646484375 -343.755859375C545.6552734375 -352.533203125 532.482421875 -376.7255859375 521.4970703125 -397.513671875C501.6142578125 -435.142578125 501.5224609375 -435.3642578125 501.7548828125 -446.2333984375C502.0244140625 -459.0234375 507.7802734375 -487.615234375 511.5439453125 -494.8984375C517.4365234375 -506.291015625 527.5703125 -508.5634765625 549.4970703125 -503.416015625C568.029296875 -499.064453125 574.099609375 -499.779296875 581.5029296875 -507.1796875C593.0625 -518.73828125 596.6376953125 -536.7890625 589.958984375 -549.876953125C586.3359375 -556.978515625 573.7607421875 -569.13671875 565.7392578125 -573.29296875C563.189453125 -574.615234375 553.537109375 -577.2373046875 544.2880859375 -579.1240234375C529.4951171875 -582.142578125 525.65625 -582.333984375 512.33984375 -580.712890625C486.271484375 -577.544921875 471.0029296875 -569.68359375 458.3193359375 -552.904296875C447.5556640625 -538.662109375 442.111328125 -525.796875 440.2138671875 -510.119140625C438.0947265625 -492.587890625 438.0234375 -447.083984375 440.083984375 -427.5166015625C442.0087890625 -409.2265625 455.5810546875 -368.3447265625 473.8876953125 -325.712890625C490.6533203125 -286.671875 495.1064453125 -273.103515625 498.822265625 -249.720703125C502.048828125 -229.44140625 501.2900390625 -218.09375 494.689453125 -187.927734375C488.017578125 -157.439453125 449.2822265625 -95.30078125 424.0537109375 -74.62109375C413.1298828125 -65.666015625 399.6767578125 -60.9765625 387.8779296875 -62.009765625C367.791015625 -63.76953125 354.40625 -50.66796875 349.416015625 -24.353515625C345.802734375 -5.3046875 359.392578125 8.55078125 388.9345703125 15.9375Z"/>
</svg>