<svg xmlns="http://www.w3.org/2000/svg" viewBox="0 -1000 1000 1000">
	<path fill="#854e28" d="M303.6279296875 14.1064453125C313.5537109375 16.587890625 343.529296875 14.5341796875 355.669921875 10.5380859375C369.802734375 5.8857421875 397.8505859375 -5.30078125 406.7138671875 -9.8232421875C421.728515625 -17.4794921875 460.296875 -45.6806640625 470.3798828125 -56.3681640625C502.2666015625 -90.1787109375 541.6240234375 -173.369140625 553.92578125 -232.9541015625C561.33203125 -268.8291015625 562.234375 -274.7392578125 564.8388671875 -304.3525390625C569.904296875 -362 570.8720703125 -386.9169921875 569.9794921875 -436.9150390625C569.1357421875 -484.3017578125 568.796875 -488.560546875 564.0185546875 -511.8818359375C561.2333984375 -525.4853515625 557.494140625 -540.8525390625 555.7099609375 -546.0341796875C549.7314453125 -563.4111328125 536.9755859375 -578.0185546875 519.98828125 -586.9404296875C512.1923828125 -591.0341796875 509.2626953125 -591.6025390625 495.9873046875 -591.6025390625C482.900390625 -591.6025390625 479.73828125 -591.0068359375 472.46875 -587.17578125C455.515625 -578.2412109375 440.2578125 -558.5302734375 431.39453125 -534.1123046875C421.390625 -506.5419921875 420.8671875 -487.6513671875 428.7529296875 -438.5419921875C438.9482421875 -375.029296875 441.884765625 -357.37890625 444.22265625 -345.51171875C447.8349609375 -327.1943359375 451.3486328125 -261.0029296875 449.5986328125 -244.2236328125C447.6435546875 -225.4521484375 437.93359375 -184.9150390625 430.9130859375 -166.2294921875C423.1884765625 -145.6591796875 415.744140625 -133.76171875 403.2822265625 -122.0654296875C389.2236328125 -108.8720703125 379.4208984375 -105.2724609375 357.556640625 -105.2724609375C327.1396484375 -105.2724609375 316.3974609375 -109.0771484375 288.8896484375 -129.591796875C268.193359375 -145.02734375 252.2080078125 -162.0966796875 244.2333984375 -177.265625C234.2734375 -196.2255859375 227.3896484375 -226.6650390625 219.86328125 -285.0341796875C217.26953125 -305.1630859375 216.6572265625 -317.8330078125 217.16015625 -340.8603515625C218.869140625 -418.751953125 222.8408203125 -434.2666015625 260.9306640625 -511.8330078125C285.091796875 -561.0322265625 285.26953125 -561.4755859375 285.2080078125 -572.7861328125C285.1396484375 -586.0302734375 282.1181640625 -594.4013671875 274.564453125 -602.2763671875C267.63671875 -609.4990234375 262.0205078125 -612.3623046875 250.697265625 -614.4580078125C240.5966796875 -616.32421875 225.9951171875 -614.5302734375 212.908203125 -609.81640625C203.4228515625 -606.3984375 184.904296875 -594.4765625 179.1455078125 -588.078125C168.10546875 -575.8173828125 156.6787109375 -551.5908203125 150.8818359375 -528.154296875C146.271484375 -509.5126953125 134.5478515625 -435.5107421875 131.92578125 -408.51171875C128.6923828125 -375.1767578125 129.099609375 -289.5087890625 132.626953125 -260.6748046875C134.212890625 -247.7373046875 135.5322265625 -233.607421875 135.56640625 -229.2763671875C135.6376953125 -220.0283203125 147.501953125 -153.88671875 152.5400390625 -134.6572265625C162.4248046875 -96.9130859375 176.509765625 -72.771484375 213.423828125 -30.3037109375C219.1455078125 -23.7197265625 227.2294921875 -16.1259765625 231.388671875 -13.4287109375C245.224609375 -4.4501953125 276.314453125 9.0986328125 287.2109375 10.8974609375C293.0078125 11.8544921875 300.39453125 13.2998046875 303.6279296875 14.1064453125Z"/>
</svg>