<svg xmlns="http://www.w3.org/2000/svg" viewBox="0 -1000 1000 1000">
	<path fill="#854e28" d="M437.568359375 -234.19140625C433.603515625 -232.072265625 410.9736328125 -232.6328125 369.6572265625 -235.876953125C342.5869140625 -238.001953125 336.373046875 -240.634765625 327.294921875 -253.806640625C321.6171875 -262.05078125 320.8583984375 -264.306640625 320.96484375 -272.6328125C321.29296875 -298.5517578125 328.29296875 -347.0732421875 333.0947265625 -356.7421875C339.4384765625 -369.5087890625 351.572265625 -372.537109375 386.3642578125 -370.03515625C419.330078125 -367.6630859375 424.7001953125 -366.279296875 431.43359375 -358.41015625C438.1015625 -350.625 442.640625 -337.783203125 442.640625 -326.72265625C442.640625 -322.375 443.857421875 -314.732421875 445.3408203125 -309.7353515625C447.1044921875 -303.791015625 448.1201171875 -293.3837890625 448.2802734375 -279.61328125C448.4892578125 -261.525390625 447.97265625 -256.9755859375 444.599609375 -247.2138671875C442.4326171875 -240.935546875 439.2880859375 -235.111328125 437.568359375 -234.19140625ZM439.6845703125 -6.82421875C457.369140625 1.89453125 488.7763671875 -9.3232421875 498.15234375 -27.705078125C505.4736328125 -42.0537109375 512.193359375 -76.482421875 514.732421875 -112.638671875C516.482421875 -137.6201171875 518.55078125 -143.3349609375 527.32421875 -147.498046875C532.796875 -150.099609375 534.314453125 -150.095703125 549.6611328125 -147.4638671875C586.048828125 -141.2265625 605.19921875 -151.08984375 614.1953125 -180.70703125C618.259765625 -194.08203125 617.6953125 -205.37109375 612.61328125 -212.3671875C610.9345703125 -214.677734375 604.0615234375 -220.3486328125 597.337890625 -224.9697265625L585.115234375 -233.3671875L562.5400390625 -233.654296875C536.9697265625 -233.9794921875 530.41796875 -236.060546875 523.6572265625 -246.013671875C519.86328125 -251.595703125 519.8359375 -252.0126953125 520.7822265625 -292.068359375C521.9169921875 -340.216796875 522.15625 -342.4453125 527.4130859375 -354.3330078125C530.3046875 -360.87109375 532.8408203125 -364.0947265625 536.064453125 -365.318359375C538.740234375 -366.3369140625 552.1455078125 -366.8564453125 568.494140625 -366.572265625C601.2041015625 -366.005859375 604.2119140625 -366.982421875 618.775390625 -382.91796875C629.26171875 -394.3916015625 633.490234375 -406.201171875 631.029296875 -417.1484375C627.255859375 -433.9443359375 618.720703125 -438.5927734375 587.5390625 -440.8212890625C561.462890625 -442.68359375 526.3642578125 -448.42578125 518.6328125 -452.09375C508.5087890625 -456.8994140625 508.1669921875 -458.314453125 508.12890625 -495.40234375C508.1123046875 -513.908203125 507.3671875 -534.09375 506.474609375 -540.259765625C501.7578125 -572.857421875 483.7763671875 -592.7265625 459.1904296875 -592.494140625C447.0263671875 -592.380859375 434.7490234375 -586.751953125 430.5205078125 -579.34765625C425.6396484375 -570.802734375 420.9267578125 -542.60546875 419.86328125 -515.609375C418.2470703125 -474.560546875 415.4267578125 -465.564453125 401.0849609375 -455.6962890625C378.181640625 -439.939453125 338.7041015625 -437.1162109375 325.52734375 -450.29296875L321.357421875 -454.462890625L322.5400390625 -482.517578125C324.2080078125 -522.1484375 320.6533203125 -555.2958984375 313.11328125 -570.40625C298.8330078125 -599.029296875 262.6884765625 -605.064453125 242.5185546875 -582.1953125C223.5322265625 -560.6689453125 220.0966796875 -535.181640625 228.443359375 -477.810546875C233.693359375 -441.712890625 233.7001953125 -439.943359375 228.634765625 -436.62109375C224.8955078125 -434.169921875 223.6279296875 -434.3515625 209.7333984375 -439.30078125C169.6474609375 -453.580078125 141.3330078125 -457.0703125 126.8037109375 -449.5234375C110.08984375 -440.841796875 99.9208984375 -425.857421875 99.9208984375 -409.90625C99.9208984375 -390.4130859375 107.4677734375 -385.0810546875 136.0419921875 -384.3837890625C176.462890625 -383.396484375 205.90234375 -377.6845703125 223.412109375 -367.43359375C241.2578125 -356.9853515625 241.896484375 -355.953125 241.8076171875 -337.7763671875C241.61328125 -297.810546875 236.650390625 -269.537109375 228.67578125 -262.9501953125C225.056640625 -259.962890625 204.138671875 -261.2958984375 195.0498046875 -265.09375C190.1728515625 -267.1337890625 180.9267578125 -267.8310546875 154 -268.1865234375L119.2431640625 -268.6513671875L110.1103515625 -263.609375C98.4072265625 -257.1533203125 77.943359375 -237.244140625 73.03515625 -227.5400390625C65.478515625 -212.5966796875 67.255859375 -179.99609375 76.1630859375 -170.15234375C81.3544921875 -164.4140625 105.8173828125 -153.47265625 124.240234375 -148.646484375C138.349609375 -144.951171875 153.2275390625 -145.689453125 174.07421875 -151.1279296875C181.439453125 -153.048828125 189.08203125 -153.69140625 198.6591796875 -153.203125C215.22265625 -152.3515625 220.1279296875 -149.498046875 224.9541015625 -137.900390625C228.1669921875 -130.189453125 228.1630859375 -130.04296875 224.615234375 -114.5556640625C216.990234375 -81.302734375 216.3408203125 -54.806640625 222.9404296875 -46.240234375C237.6240234375 -27.189453125 247.501953125 -19.0986328125 259.0205078125 -16.69921875C270.4638671875 -14.31640625 289.7314453125 -27.865234375 297.5107421875 -43.765625C301.82421875 -52.5810546875 302.189453125 -55.126953125 303.478515625 -85.3046875C305.583984375 -134.619140625 306.38671875 -136.611328125 325.5654296875 -139.951171875C348.03515625 -143.865234375 392.615234375 -141.103515625 400.640625 -135.298828125C412.0361328125 -127.0625 414.4560546875 -116.822265625 410.611328125 -93.12109375C408.310546875 -78.95703125 412.4736328125 -47.6728515625 418.400390625 -34.52734375C424.1015625 -21.89453125 433.234375 -10.0068359375 439.6845703125 -6.82421875Z"/>
</svg>