<svg xmlns="http://www.w3.org/2000/svg" viewBox="0 -1000 1000 1000">
	<path fill="#854e28" d="M345.2998046875 -90.78125C324.798828125 -86.333984375 273.6005859375 -83.88671875 257.939453125 -86.603515625C253.322265625 -87.404296875 241.6328125 -88.9248046875 231.9697265625 -89.98046875C205.4736328125 -92.8759765625 203.470703125 -94.595703125 203.3955078125 -114.556640625C203.279296875 -143.537109375 210.994140625 -169.74609375 222.84765625 -180.673828125C234.1611328125 -191.10546875 259.306640625 -200.8427734375 274.923828125 -200.8427734375C278.7275390625 -200.8427734375 290.8271484375 -202.6611328125 301.8095703125 -204.88671875C312.794921875 -207.111328125 327.830078125 -209.8115234375 335.2197265625 -210.888671875C342.61328125 -211.96484375 352.388671875 -213.923828125 356.9443359375 -215.2421875C361.5009765625 -216.5625 369.4404296875 -217.6318359375 374.5849609375 -217.6318359375C379.732421875 -217.62890625 391.5 -218.486328125 400.7421875 -219.54296875C420.3994140625 -221.7880859375 429.0537109375 -220.1611328125 453.177734375 -209.6884765625C469.638671875 -202.541015625 476.8779296875 -196.119140625 482.9619140625 -183.2578125C491.9580078125 -164.236328125 490.2724609375 -152.3212890625 476.7138671875 -139.083984375C467.6494140625 -130.234375 454.6162109375 -123.849609375 426.5546875 -114.5048828125C414.2060546875 -110.3896484375 398.7841796875 -104.80859375 392.2861328125 -102.1015625C385.78515625 -99.390625 376.7138671875 -96.6357421875 372.1240234375 -95.9794921875C367.537109375 -95.326171875 355.46484375 -92.9853515625 345.2998046875 -90.78125ZM140.3408203125 -1.564453125C144.9619140625 -0.396484375 153.2783203125 0.2158203125 158.822265625 -0.201171875C164.3662109375 -0.62109375 179.86328125 -1.732421875 193.26171875 -2.666015625C221.4287109375 -4.634765625 274.11328125 -11.5830078125 286.791015625 -15.00390625C291.5693359375 -16.29296875 301.775390625 -17.8857421875 309.46875 -18.544921875C317.166015625 -19.201171875 333.2890625 -21.546875 345.2998046875 -23.75390625C357.3134765625 -25.962890625 369.7861328125 -27.74609375 373.01953125 -27.74609375C376.255859375 -27.732421875 387.2177734375 -29.23046875 397.37890625 -31.076171875C451.0615234375 -40.81640625 507.6083984375 -49.748046875 515.3125 -49.697265625C520.1494140625 -49.666015625 530.2734375 -51.583984375 537.994140625 -53.990234375C550.5419921875 -57.900390625 553.0986328125 -59.458984375 563.478515625 -69.52734375C569.822265625 -75.68359375 577.2158203125 -84.115234375 579.90234375 -88.26171875C586.32421875 -98.169921875 595.7509765625 -127.6328125 599.1005859375 -148.2607421875C602.498046875 -169.203125 606.0595703125 -223.162109375 608.2236328125 -286.521484375C609.1533203125 -313.779296875 611.1591796875 -363.298828125 612.6806640625 -396.5625C616.5361328125 -480.80859375 616.388671875 -512.2470703125 612.0068359375 -538.75390625C610.0791015625 -550.4326171875 607.3759765625 -562.1494140625 606.001953125 -564.794921875C597.0634765625 -581.9765625 572.529296875 -588.375 553.515625 -578.4873046875C542.1845703125 -572.5947265625 534.9013671875 -564.138671875 526.322265625 -546.921875C520.51171875 -535.259765625 518.8876953125 -529.8671875 517.4765625 -517.521484375C516.5224609375 -509.205078125 514.6533203125 -496.732421875 513.3203125 -489.80078125C511.9873046875 -482.873046875 509.765625 -466.6171875 508.380859375 -453.68359375C501.0048828125 -384.763671875 478.2001953125 -347.1591796875 429.990234375 -324.419921875C414.9443359375 -317.32421875 403.818359375 -314.349609375 378.2041015625 -310.5732421875C355.4443359375 -307.216796875 311.4208984375 -306.724609375 296.91796875 -309.6640625C287.265625 -311.619140625 244.421875 -329.90234375 230.5927734375 -337.96875C221.4873046875 -343.279296875 213.3076171875 -355.501953125 206.6396484375 -373.7783203125C198.375 -396.4189453125 198.484375 -402.095703125 208.091796875 -451.1611328125C217.935546875 -501.4296875 220.974609375 -523.755859375 219.3955078125 -534.275390625C216.7021484375 -552.2373046875 194.912109375 -584.568359375 181.0732421875 -591.1337890625C178.0751953125 -592.5556640625 169.44140625 -595.32421875 161.8916015625 -597.279296875C149.015625 -600.619140625 147.7685546875 -600.673828125 141.755859375 -598.1611328125C125.58203125 -591.400390625 123.466796875 -585.216796875 126.087890625 -552.30859375C127.7802734375 -531.0595703125 127.677734375 -524.88671875 125.3837890625 -509.43359375C123.9072265625 -499.5048828125 122.701171875 -487.6923828125 122.701171875 -483.1875C122.701171875 -478.6796875 120.810546875 -462.0029296875 118.5 -446.123046875C116.189453125 -430.2431640625 114.2998046875 -414.728515625 114.2998046875 -411.6494140625C114.2998046875 -408.5703125 112.7890625 -398.376953125 110.939453125 -389.001953125C109.09375 -379.626953125 107.580078125 -365.318359375 107.580078125 -357.2080078125C107.580078125 -349.1005859375 105.005859375 -324.01953125 101.861328125 -301.474609375C98.716796875 -278.92578125 95.2412109375 -246.873046875 94.140625 -230.240234375C93.0400390625 -213.609375 91.5087890625 -193.576171875 90.736328125 -185.7216796875C89.9638671875 -177.8671875 88.53125 -162.75 87.55078125 -152.123046875C86.5732421875 -141.49609375 85.3837890625 -130.9111328125 84.908203125 -128.6005859375C83.3876953125 -121.21484375 87.1572265625 -69.357421875 90.03515625 -58.04296875C98.1767578125 -26.05859375 114.0703125 -8.212890625 140.3408203125 -1.564453125Z"/>
</svg>