<svg xmlns="http://www.w3.org/2000/svg" viewBox="0 -1000 1000 1000">
	<path fill="#3c9202" d="M320.6640625 -309.2666015625C334.421875 -305.568359375 339.302734375 -306.0400390625 362.4658203125 -313.32421875C387.291015625 -321.123046875 395.7880859375 -326.705078125 404.1962890625 -340.71875C410.478515625 -351.19140625 414.0947265625 -367.7138671875 412.251953125 -377.5234375C410.81640625 -385.15625 403.669921875 -392.607421875 392.103515625 -398.5302734375C380.837890625 -404.2998046875 360.708984375 -405.724609375 346.955078125 -401.7265625C341.814453125 -400.232421875 334.326171875 -399.005859375 330.3095703125 -398.970703125C311.658203125 -398.87890625 295.58984375 -383.015625 287.9130859375 -357.125C283.97265625 -343.8291015625 284.4541015625 -337.013671875 289.9501953125 -328.35546875C295.29296875 -319.9443359375 306.2197265625 -313.15234375 320.6640625 -309.2666015625ZM134.1220703125 -162.27734375C152.01171875 -158.7666015625 250.4765625 -161.48046875 316.2890625 -167.294921875C327.376953125 -168.275390625 366.3115234375 -169.7724609375 402.80859375 -170.6201171875C496.62109375 -172.8076171875 561.330078125 -176.2939453125 570.900390625 -179.677734375C580.078125 -182.921875 590.08203125 -190.8271484375 593.5888671875 -197.6015625C596.78515625 -203.78125 605.4873046875 -247.4150390625 607.681640625 -268.26171875C611.55078125 -305.01171875 613.451171875 -334.302734375 613.546875 -358.6875C613.6728515625 -390.912109375 611.1435546875 -400.583984375 599.4443359375 -412.642578125C591.3193359375 -421.017578125 587.4296875 -422.6064453125 566.501953125 -426.123046875C550.9501953125 -428.73828125 543.1259765625 -426.63671875 532.7255859375 -417.048828125C520.6328125 -405.90234375 517.89453125 -399.4765625 512.2685546875 -369.04296875C507.50390625 -343.28515625 506.509765625 -340.189453125 496.060546875 -318.6455078125C489.939453125 -306.01953125 482.5185546875 -293.16796875 479.5693359375 -290.0849609375C466.02734375 -275.9345703125 447.515625 -270.46875 417.92578125 -271.890625C404.7529296875 -272.52734375 387.1162109375 -271.734375 362.486328125 -269.40234375C309.2412109375 -264.361328125 295.69921875 -266.01171875 252.4140625 -282.822265625C240.4208984375 -287.4765625 225.31640625 -292.826171875 218.8466796875 -294.708984375C206.0390625 -298.4384765625 192.7470703125 -307.359375 186.7548828125 -316.25C181.56640625 -323.9501953125 178.380859375 -354.626953125 180.896484375 -372.669921875C187.61328125 -420.873046875 175.5341796875 -439.4091796875 137.4814453125 -439.2861328125C100.2841796875 -439.166015625 88.8681640625 -428.1328125 94.4873046875 -397.73046875C95.8095703125 -390.580078125 97.1083984375 -377.923828125 97.37890625 -369.607421875C98.00390625 -350.34765625 94.3603515625 -300.71875 90.1494140625 -271.138671875C85.6279296875 -239.3623046875 85.18359375 -202.7490234375 89.185546875 -191.212890625C94.3642578125 -176.287109375 108.234375 -167.35546875 134.1220703125 -162.27734375Z"/>
</svg>