<svg xmlns="http://www.w3.org/2000/svg" viewBox="0 -1000 1000 1000">
	<path fill="#ee2304" d="M77.7294921875 37.9580078125C100.8857421875 40.6884765625 222.080078125 40.1005859375 231.0595703125 37.2158203125C238.708984375 34.7548828125 255.8876953125 17.0810546875 261.5576171875 5.8388671875C268.7392578125 -8.4111328125 287.5380859375 -62.3798828125 289.6259765625 -74.7529296875C290.716796875 -81.2197265625 293.7685546875 -94.451171875 296.404296875 -104.1513671875C299.0390625 -113.8544921875 302.4638671875 -129.7314453125 304.0126953125 -139.431640625C305.560546875 -149.1357421875 312.8515625 -185.7998046875 320.2138671875 -220.9130859375C327.572265625 -256.025390625 334.6748046875 -292.310546875 335.9912109375 -301.552734375C339.498046875 -326.1240234375 343.869140625 -344.66015625 350.8251953125 -364.4189453125C354.2119140625 -374.0517578125 358.8740234375 -389.380859375 361.1845703125 -398.4892578125C367.880859375 -424.9072265625 371.353515625 -432.6044921875 380.8486328125 -442.1025390625C389.669921875 -450.9248046875 397.490234375 -455.2724609375 404.5283203125 -455.2724609375C409.6142578125 -455.2724609375 409.990234375 -453.638671875 412.3896484375 -420.8330078125C413.404296875 -406.9736328125 415.318359375 -386.5263671875 416.64453125 -375.4013671875C417.974609375 -364.2724609375 419.0439453125 -350.6650390625 419.0439453125 -345.1591796875C419.0341796875 -339.65625 419.7685546875 -327.9697265625 420.677734375 -319.1923828125C427.244140625 -255.6806640625 429.236328125 -233.0322265625 430.12890625 -211.6708984375C430.8056640625 -195.47265625 433.0439453125 -176.619140625 436.810546875 -155.3935546875C441.896484375 -126.6376953125 442.416015625 -120.974609375 441.896484375 -98.2724609375C441.58203125 -84.4130859375 440.7958984375 -68.1572265625 440.1533203125 -62.1513671875C438.0107421875 -42.1015625 449.84375 -8.8994140625 463.2109375 2.5439453125C470.6142578125 8.880859375 476.5341796875 10.5107421875 503.4130859375 13.6318359375C517.2626953125 15.23828125 526.3544921875 15.2822265625 542.890625 13.830078125C560.3359375 12.2958984375 567.5380859375 12.3916015625 581.1787109375 14.3388671875C604.8828125 17.7294921875 614.8427734375 17.4833984375 623.490234375 13.296875C641.4482421875 4.6044921875 653.9033203125 -23.1142578125 648.71484375 -42.8466796875C645.802734375 -53.9208984375 638.8095703125 -64.6357421875 631.1015625 -69.8349609375C627.6669921875 -72.15234375 619.9453125 -77.4130859375 613.9404296875 -81.5205078125C607.931640625 -85.6328125 597.9267578125 -92.0556640625 591.703125 -95.7939453125C585.478515625 -99.5341796875 578.4033203125 -105.0771484375 575.9833984375 -108.109375C570.6171875 -114.8359375 552.1533203125 -164.451171875 544.3232421875 -193.1923828125C541.1748046875 -204.7421875 537.7265625 -222.5087890625 536.66015625 -232.6708984375C535.59375 -242.8349609375 532.0595703125 -265.5166015625 528.80859375 -283.0712890625C525.5546875 -300.6259765625 522.27734375 -324.0634765625 521.525390625 -335.1513671875C520.76953125 -346.2392578125 518.923828125 -366.275390625 517.419921875 -379.6708984375C515.916015625 -393.0693359375 514.4091796875 -421.796875 514.0703125 -443.5107421875C513.36328125 -488.9091796875 512.4267578125 -500.984375 508.0927734375 -520.7919921875C506.373046875 -528.6455078125 504.1171875 -541.1220703125 503.078125 -548.5107421875C498.880859375 -578.3671875 488.900390625 -596.9677734375 468.2734375 -613.3564453125C453.5654296875 -625.0458984375 436.0146484375 -633.8583984375 419.8505859375 -637.6689453125C393.283203125 -643.9306640625 349.21875 -635.2353515625 331.3564453125 -620.2060546875C318.8701171875 -609.7001953125 282.486328125 -555.7607421875 273.0732421875 -533.7998046875C269.138671875 -524.623046875 249.1748046875 -427.0634765625 245.1416015625 -397.310546875C243.6376953125 -386.22265625 241.015625 -369.5908203125 239.3134765625 -360.3525390625C236.248046875 -343.7138671875 233.6640625 -315.29296875 231.6708984375 -276.3525390625C231.103515625 -265.2646484375 228.1025390625 -241.0712890625 224.9990234375 -222.5908203125C221.8994140625 -204.11328125 218.8642578125 -183.3212890625 218.2587890625 -176.3935546875C216.2421875 -153.3330078125 202.8916015625 -97.9482421875 192.9111328125 -71.2705078125C178.26171875 -32.0966796875 177.98828125 -31.7109375 159.900390625 -24.6123046875C146.19140625 -19.228515625 144.7421875 -19.201171875 113.6279296875 -23.7568359375C86.33203125 -27.7529296875 78.73046875 -27.0185546875 68.767578125 -19.4169921875C59.060546875 -12.0126953125 48.0849609375 14.9541015625 50.416015625 25.68359375C51.98828125 32.9267578125 58.0078125 35.6337890625 77.7294921875 37.9580078125Z"/>
</svg>