<svg xmlns="http://www.w3.org/2000/svg" viewBox="0 -1000 1000 1000">
	<path fill="#3c9202" d="M416.7333984375 -361.6982421875L417.7421875 -333.5576171875L410.345703125 -333.8115234375C400.146484375 -334.15625 395.73046875 -334.8564453125 373.5478515625 -339.6494140625C362.9208984375 -341.9462890625 342.0546875 -345.2919921875 327.1728515625 -347.08984375C312.291015625 -348.8837890625 296.1240234375 -351.109375 291.2431640625 -352.0361328125C286.3623046875 -352.9619140625 276.7880859375 -353.7177734375 269.962890625 -353.7177734375C252.5205078125 -353.7177734375 252.404296875 -354.0693359375 257.439453125 -391.2978515625C263.11328125 -433.2705078125 265.81640625 -460.2216796875 265.9296875 -475.9912109375C266.0458984375 -492.4384765625 268.8447265625 -500.3212890625 275.8515625 -503.9443359375C283.75390625 -508.0322265625 310.7734375 -512.1259765625 323.1494140625 -511.1181640625C352.8076171875 -508.69140625 378.44921875 -488.9423828125 396.79296875 -454.3896484375C409.876953125 -429.75 415.185546875 -405.0830078125 416.7333984375 -361.6982421875ZM276.8017578125 -81.390625C268.0791015625 -77.4013671875 261.9677734375 -75.8740234375 252.2509765625 -75.2490234375C239.4814453125 -74.4287109375 239.2421875 -74.486328125 233.951171875 -79.77734375L228.591796875 -85.1396484375L229.658203125 -98.8876953125C230.24609375 -106.451171875 232.29296875 -122.0888671875 234.20703125 -133.6376953125C236.12109375 -145.1865234375 238.3671875 -162.5771484375 239.197265625 -172.2783203125C240.755859375 -190.4814453125 243.408203125 -211.6318359375 245.1484375 -219.7568359375C247.0927734375 -228.8251953125 248.931640625 -229.3916015625 276.6484375 -229.470703125C290.671875 -229.51171875 305.55078125 -230.2431640625 309.7099609375 -231.0947265625C313.8662109375 -231.9482421875 333.4208984375 -233.1728515625 353.1630859375 -233.8154296875L389.0546875 -234.9833984375L387.841796875 -229.251953125C386.1669921875 -221.3388671875 375.6904296875 -193.3359375 370.697265625 -183.4267578125C344.1396484375 -130.732421875 314.669921875 -98.7099609375 276.8017578125 -81.390625ZM166.4736328125 21.6982421875C181.939453125 24.78515625 200.6943359375 24.7919921875 225.7099609375 21.7333984375C268.55078125 16.4931640625 304.07421875 5.439453125 325.958984375 -9.4599609375C341.53125 -20.0615234375 374.5146484375 -47.744140625 390.6064453125 -63.7158203125C436.017578125 -108.7890625 463.8369140625 -157.4580078125 484.6689453125 -228.2646484375C487.806640625 -238.931640625 489.0576171875 -241.1669921875 491.9052734375 -241.1328125C493.798828125 -241.1162109375 502.630859375 -242.3662109375 511.52734375 -243.908203125C520.4248046875 -245.4501953125 528.931640625 -246.2431640625 530.42578125 -245.6689453125C534.7080078125 -244.0244140625 533.65234375 -238.9072265625 527.044921875 -229.3037109375C509.2890625 -203.4912109375 508.02734375 -183.369140625 523.5693359375 -173.8916015625C535.3505859375 -166.7060546875 544.271484375 -170.3291015625 563.634765625 -190.1611328125C577.712890625 -204.5771484375 612.4912109375 -247.50390625 620.1982421875 -259.9794921875C625.2158203125 -268.09375 631.255859375 -299.62109375 629.9462890625 -310.8623046875C627.6123046875 -330.9228515625 613.3046875 -349.4248046875 578.8720703125 -376.89453125C563.908203125 -388.8369140625 560.72265625 -390.6787109375 555.0556640625 -390.6787109375C549.990234375 -390.6787109375 547.7275390625 -389.6806640625 545.0302734375 -386.2529296875C538.474609375 -377.919921875 542.0361328125 -366.3779296875 557.4033203125 -346.1572265625C567.1142578125 -333.3798828125 569.2333984375 -328.6572265625 567.58203125 -323.4619140625C565.052734375 -315.494140625 552.4033203125 -313.4296875 526.9697265625 -316.8408203125C508.7353515625 -319.28125 507.958984375 -320.40234375 507.91796875 -344.2431640625C507.904296875 -354.7734375 506.759765625 -368.103515625 505.3037109375 -374.7177734375C503.8779296875 -381.1875 501.6767578125 -395.9287109375 500.4052734375 -407.478515625C495.873046875 -448.7265625 493.48046875 -458.0810546875 481.0732421875 -483.0771484375C476.7158203125 -491.8583984375 469.4970703125 -507.2724609375 465.029296875 -517.3349609375C457.3388671875 -534.654296875 455.7802734375 -536.8310546875 435.8095703125 -558.169921875C404.3095703125 -591.8271484375 388.7197265625 -602.5732421875 355.9482421875 -613.2294921875C334.3056640625 -620.267578125 315.216796875 -622.71484375 274.2080078125 -623.7158203125C231.130859375 -624.7685546875 224.7021484375 -623.6611328125 201.37109375 -611.1650390625C190.8466796875 -605.529296875 189.1142578125 -603.8544921875 184.609375 -594.9912109375L179.5849609375 -585.103515625L179.2431640625 -544.5908203125C178.9111328125 -504.8056640625 175.240234375 -445.8076171875 171.7578125 -424.2783203125C170.349609375 -415.5693359375 167.8095703125 -379.6083984375 167.041015625 -357.4970703125C166.9521484375 -354.9375 165.8681640625 -353.7177734375 163.6845703125 -353.7177734375C157.087890625 -353.7177734375 119.63671875 -341.8837890625 108.5322265625 -336.2919921875C86.5546875 -325.2216796875 73.3916015625 -311.6455078125 70.3017578125 -296.8486328125C67.564453125 -283.7373046875 78.18359375 -266.138671875 94.2822265625 -257.1123046875C106.2041015625 -250.4267578125 137.0244140625 -238.0498046875 144.87890625 -236.7958984375C148.6796875 -236.1865234375 151.7900390625 -234.8408203125 151.755859375 -233.8046875C151.73828125 -232.765625 151.0068359375 -226.9794921875 150.1318359375 -220.939453125C148.7275390625 -211.21875 144.3935546875 -163.4970703125 139.994140625 -109.2783203125C139.1708984375 -99.1123046875 137.3486328125 -81.0322265625 135.951171875 -69.099609375C133.978515625 -52.2900390625 133.77734375 -43.5771484375 135.0654296875 -30.4599609375C139.013671875 9.7763671875 143.439453125 17.1259765625 166.4736328125 21.6982421875Z"/>
</svg>