<svg xmlns="http://www.w3.org/2000/svg" viewBox="0 -1000 1000 1000">
	<path fill="#d600e3" d="M155.259765625 33.0361328125C161.052734375 35.599609375 174.6123046875 33.2890625 181.837890625 28.5078125C195.833984375 19.244140625 204.173828125 6.578125 212.640625 -18.28125C220.6044921875 -41.6640625 223.5986328125 -61.5869140625 225.0302734375 -100.6953125C226.4521484375 -139.646484375 229.6103515625 -173.0947265625 235.0244140625 -206.5361328125C236.8193359375 -217.6240234375 239.451171875 -233.9208984375 240.873046875 -242.7529296875C242.2978515625 -251.5849609375 243.4599609375 -262.962890625 243.4599609375 -268.0390625C243.4599609375 -283.205078125 249.076171875 -304.3447265625 261.0869140625 -334.3955078125C279.564453125 -380.623046875 292.3642578125 -403.03125 317.6162109375 -433.3359375C335.509765625 -454.814453125 344.177734375 -461.970703125 368.76953125 -475.57421875C395.033203125 -490.1015625 400.3076171875 -491.9228515625 416.501953125 -492.04296875C427.029296875 -492.12109375 430.6826171875 -491.359375 438.71875 -487.4140625C457.189453125 -478.34375 466.0419921875 -463.65234375 472.89453125 -430.697265625C480.9814453125 -391.865234375 480.9921875 -342.728515625 472.9287109375 -314.6640625C471.5068359375 -309.70703125 468.4892578125 -294.31640625 466.22265625 -280.45703125C463.9599609375 -266.5966796875 460.234375 -247.3193359375 457.9482421875 -237.615234375C455.6611328125 -227.916015625 452.5478515625 -213.173828125 451.033203125 -204.857421875C446.4599609375 -179.7802734375 435.54296875 -139.984375 421.3076171875 -96.498046875C405.0478515625 -46.828125 402.6005859375 -36.37890625 404.8740234375 -26.248046875C408.0830078125 -11.927734375 417.828125 0.982421875 431.4931640625 9.017578125C438.25 12.986328125 440.947265625 13.537109375 453.4736328125 13.4990234375C466.3564453125 13.4609375 468.751953125 12.91796875 477.9599609375 7.9619140625C490.791015625 1.0546875 513.134765625 -20.177734375 521.908203125 -33.80859375C529.783203125 -46.0390625 547.8203125 -87.45703125 557.4111328125 -115.328125C568.3447265625 -147.111328125 580.8134765625 -206.1533203125 584.56640625 -243.9423828125C591.21484375 -310.8798828125 591.607421875 -333.154296875 587.0927734375 -386.779296875C583.0009765625 -435.3896484375 580.947265625 -449.1708984375 573.62890625 -477.123046875C568.734375 -495.8193359375 555.53125 -532.5693359375 549.224609375 -545.0546875C543.9375 -555.5244140625 528.037109375 -578.33984375 520.09375 -586.857421875C509.1865234375 -598.546875 468.2021484375 -621.3408203125 442.6904296875 -629.90234375C431.85546875 -633.54296875 427.23046875 -634.0966796875 407.7412109375 -634.0966796875C389.03125 -634.0966796875 382.4892578125 -633.3720703125 368.5576171875 -629.759765625C350.8837890625 -625.171875 306.005859375 -605.369140625 295.6318359375 -597.5791015625C284.345703125 -589.099609375 240.0283203125 -548.083984375 229.005859375 -535.916015625C200.4931640625 -504.4326171875 176.2421875 -462.9794921875 158.673828125 -415.6953125C145.3818359375 -379.9091796875 136.9833984375 -353.119140625 133.3984375 -335.0546875C132.205078125 -329.0498046875 129.26953125 -317.330078125 126.873046875 -309.013671875C121.4013671875 -290.0234375 115.146484375 -258.892578125 112.1865234375 -235.9375C110.64453125 -223.970703125 109.9130859375 -198.8359375 109.9130859375 -157.81640625C109.9130859375 -71.810546875 112.3369140625 -55.478515625 132.4482421875 -5.9013671875C143.9970703125 22.5703125 148.3310546875 29.966796875 155.259765625 33.0361328125Z"/>
</svg>