<svg xmlns="http://www.w3.org/2000/svg" viewBox="0 -1000 1000 1000">
	<path fill="#ee2304" d="M406.8740234375 -122.10546875C381.7314453125 -116.7392578125 327.6552734375 -117.9833984375 301.6142578125 -124.525390625C266.251953125 -133.412109375 253.9267578125 -145.484375 239.8037109375 -185.078125C231.703125 -207.791015625 230.263671875 -219.220703125 233.06640625 -238.5859375C239.4033203125 -282.37109375 256.3837890625 -316.455078125 285.5087890625 -343.853515625C309.6533203125 -366.5654296875 335.4345703125 -375.017578125 363.103515625 -369.296875C370.36328125 -367.7958984375 380.2548828125 -366.5654296875 385.0908203125 -366.5654296875C396.076171875 -366.5654296875 415.5244140625 -361.66796875 431.462890625 -354.88671875C469.37109375 -338.75390625 487.4287109375 -318.501953125 496.6943359375 -281.728515625C505.1748046875 -248.064453125 503.2744140625 -229.962890625 488.1630859375 -200.427734375C462.2138671875 -149.708984375 441.1630859375 -129.4267578125 406.8740234375 -122.10546875ZM294.4599609375 -41.345703125C311.0712890625 -37.7734375 315.9970703125 -37.44921875 343.1796875 -38.119140625C362.2177734375 -38.587890625 376.912109375 -39.783203125 382.845703125 -41.3525390625C397.8876953125 -45.32421875 434.548828125 -60.421875 447.0517578125 -67.791015625C479.1259765625 -86.6953125 527.791015625 -130.7734375 543.599609375 -155.2392578125C565.5771484375 -189.244140625 573.7421875 -225.427734375 570.65625 -275.09765625C568.8408203125 -304.306640625 566.359375 -315.630859375 557.96484375 -332.966796875C552.80078125 -343.634765625 548.7021484375 -348.658203125 531.240234375 -365.724609375C509.720703125 -386.7587890625 506.9794921875 -390.361328125 506.9794921875 -397.607421875C506.9794921875 -403.103515625 519.2431640625 -416.560546875 532.40234375 -425.5078125C560.005859375 -444.2763671875 574.6552734375 -483.2685546875 566.732421875 -516.8876953125C562.9794921875 -532.8125 557.298828125 -541.794921875 545.4755859375 -550.49609375C532.4462890625 -560.0908203125 525.904296875 -562.162109375 508.6611328125 -562.162109375C476.876953125 -562.162109375 466.4453125 -551.689453125 475.9443359375 -529.30859375C482.400390625 -514.0986328125 482.7763671875 -509.193359375 478.3984375 -497.1015625C469.4365234375 -472.35546875 457.859375 -454.123046875 447.1064453125 -447.8203125C435.3525390625 -440.93359375 426.828125 -440.974609375 401.9794921875 -448.0361328125C374.51953125 -455.845703125 366.5556640625 -456.5703125 336.890625 -453.97265625C312.52734375 -451.8369140625 297.6357421875 -448.58984375 263.7021484375 -438.01171875C242.3701171875 -431.3564453125 233.681640625 -430.7548828125 223.8994140625 -435.24609375C212.1826171875 -440.6259765625 206.7998046875 -450.0078125 205.1591796875 -467.912109375C204.30078125 -477.2529296875 204.837890625 -479.79296875 210.51171875 -493.40625C217.29296875 -509.6689453125 217.9833984375 -516.037109375 214.69140625 -531.892578125C212.06640625 -544.5322265625 206.638671875 -550.673828125 195.1337890625 -554.0205078125C169.1953125 -561.560546875 144.7978515625 -543.0556640625 132.1337890625 -506.244140625C127.08203125 -491.560546875 127.7041015625 -464.3876953125 133.498046875 -446.86328125C139.236328125 -429.490234375 145.5361328125 -420.220703125 159.2216796875 -408.9921875C165.2265625 -404.064453125 173.73046875 -396.818359375 178.119140625 -392.890625L186.1005859375 -385.75V-373.9453125C186.1005859375 -367.2626953125 184.61328125 -356.7216796875 182.671875 -349.6533203125C171.7177734375 -309.755859375 162.16796875 -265.2431640625 158.541015625 -237.205078125C158.0009765625 -233.048828125 158.2265625 -218.3076171875 159.0439453125 -204.447265625C160.7353515625 -175.5966796875 162.8818359375 -167.701171875 176.837890625 -138.92578125C195.8486328125 -99.728515625 234.296875 -61.1328125 266.494140625 -48.919921875C271.7099609375 -46.94140625 284.294921875 -43.533203125 294.4599609375 -41.345703125Z"/>
</svg>