<svg xmlns="http://www.w3.org/2000/svg" viewBox="0 -1000 1000 1000">
	<path fill="#03868b" d="M319.3974609375 25.5400390625C336.2138671875 30.068359375 365.9638671875 27.56640625 390.0810546875 19.5927734375C403.6875 15.0947265625 441.001953125 -2.962890625 460.9697265625 -14.7177734375C483.50390625 -27.9755859375 517.0888671875 -58.8193359375 542.3857421875 -89.4755859375C573.84765625 -127.609375 579.001953125 -140.5361328125 569.8046875 -158.2685546875C562.568359375 -172.2236328125 558.6279296875 -174.3369140625 540.1396484375 -174.2001953125C515.9609375 -174.0224609375 497.23046875 -168.2080078125 460.04296875 -149.34765625C408.4248046875 -123.166015625 394.6572265625 -123.3642578125 389.5888671875 -150.3564453125C387.9482421875 -159.109375 388.2109375 -167.5068359375 391.154296875 -200.3544921875C395.6044921875 -249.9697265625 403.6123046875 -319.3056640625 407.9365234375 -345.67578125C409.7548828125 -356.763671875 412.0380859375 -377.5556640625 413.01171875 -391.8759765625C413.986328125 -406.1982421875 416.0029296875 -429.2548828125 417.4931640625 -443.115234375C421.4990234375 -480.3642578125 421.5537109375 -552.8251953125 417.591796875 -571.1826171875C411.4599609375 -599.58984375 401.91015625 -615.9619140625 387.01171875 -623.6181640625C380.0732421875 -627.1826171875 376.4638671875 -627.890625 365.7958984375 -627.7705078125C343.107421875 -627.5185546875 329.8046875 -617.1552734375 319.623046875 -591.796875C312.5439453125 -574.1708984375 311.662109375 -555.83984375 313.193359375 -458.236328125C313.94921875 -410.1865234375 314.4580078125 -363.6953125 314.328125 -354.9150390625C312.568359375 -237.09375 310.6337890625 -178.5341796875 308.1796875 -168.8232421875C300.5849609375 -138.751953125 283.87109375 -124.697265625 267.5498046875 -134.650390625C255.7373046875 -141.8525390625 233.8486328125 -173.2021484375 209.7353515625 -217.4443359375C201.220703125 -233.0673828125 185.8671875 -250.5302734375 175.09375 -256.8427734375C152.712890625 -269.9580078125 129.3447265625 -258.3095703125 126.2890625 -232.5107421875C124.97265625 -221.3876953125 130.9375 -197.2470703125 138.029296875 -184.990234375C140.96875 -179.9072265625 146.7763671875 -169.896484375 150.935546875 -162.7353515625C155.091796875 -155.5751953125 163.47265625 -143.1572265625 169.556640625 -135.1357421875C175.640625 -127.1171875 181.5986328125 -118.6650390625 182.794921875 -116.3544921875C196.0390625 -90.7939453125 235.6259765625 -37.3818359375 261.6611328125 -9.9462890625C276.1533203125 5.3291015625 300.95703125 20.5732421875 319.3974609375 25.5400390625Z"/>
</svg>