<svg xmlns="http://www.w3.org/2000/svg" viewBox="0 -1000 1000 1000">
	<path fill="#d600e3" d="M385.150390625 -433.9453125C394.95703125 -429.8916015625 412.251953125 -436.228515625 421.3193359375 -447.193359375C428.01171875 -455.291015625 439.951171875 -480.009765625 445.7919921875 -497.865234375C450.0546875 -510.900390625 450.4716796875 -514.4111328125 450.5673828125 -538.18359375C450.6865234375 -567.7587890625 448.7626953125 -575.75 438.1669921875 -589.681640625C420.8955078125 -612.39453125 391.4912109375 -608.0390625 377.8154296875 -580.7470703125C371.4990234375 -568.1416015625 370.5595703125 -554.630859375 372.025390625 -497.578125L373.392578125 -444.3701171875L377.58984375 -439.85546875C379.900390625 -437.3701171875 383.3046875 -434.7109375 385.150390625 -433.9453125ZM496.033203125 -417.9150390625C502.609375 -414.9921875 505.8837890625 -415.01953125 517.9384765625 -418.1064453125C537.4072265625 -423.08984375 572.458984375 -442.271484375 586.4755859375 -455.6083984375C603.859375 -472.1484375 607.103515625 -497.806640625 593.619140625 -512.1005859375C586.0283203125 -520.1533203125 577.61328125 -521.98828125 562.009765625 -519.0048828125C555.1123046875 -517.681640625 546.6220703125 -515.416015625 543.146484375 -513.962890625C530.11328125 -508.5185546875 493.5380859375 -468.630859375 485.478515625 -451.076171875C478.697265625 -436.3037109375 482.658203125 -423.859375 496.033203125 -417.9150390625ZM248.5 -410.275390625C263.23828125 -405.060546875 275.1396484375 -408.3173828125 281.904296875 -419.416015625C284.6318359375 -423.8828125 285.185546875 -427.912109375 285.185546875 -443.46484375C285.1923828125 -465.38671875 282.0576171875 -485.15625 275.1533203125 -506.703125C269.1923828125 -525.310546875 264.00390625 -533.8662109375 249.0849609375 -549.681640625C230.375 -569.515625 213.171875 -575.1142578125 197.5009765625 -566.462890625C178.873046875 -556.1787109375 176.9345703125 -537.259765625 190.080078125 -494.087890625C196.974609375 -471.447265625 201.3564453125 -462.0751953125 213.8525390625 -443.2626953125C225.94140625 -425.0546875 237.306640625 -414.234375 248.5 -410.275390625ZM466.6318359375 -0.6357421875C490.3076171875 12.259765625 518.4619140625 -0.7587890625 535.3193359375 -32.3984375C542.708984375 -46.26953125 548.068359375 -63.9638671875 553.41015625 -92.1416015625C557.7890625 -115.2265625 558.181640625 -120.4453125 558.0830078125 -154.3046875C558.0244140625 -175.1162109375 557.0712890625 -196.765625 555.9052734375 -203.857421875C553.697265625 -217.2666015625 536.693359375 -268.92578125 530.4111328125 -281.298828125C528.3427734375 -285.373046875 520.2626953125 -298.3515625 512.4560546875 -310.142578125C497.2568359375 -333.09765625 492.365234375 -337.6171875 472.896484375 -346.728515625C441.154296875 -361.583984375 384.9794921875 -366.484375 349.3818359375 -357.509765625C315.6904296875 -349.01171875 287 -335.2822265625 272.5390625 -320.728515625C256.6865234375 -304.77734375 236.8447265625 -276.291015625 225.6611328125 -253.421875C216.6962890625 -235.091796875 213.5517578125 -226.078125 206.0830078125 -197.3330078125C196.892578125 -161.943359375 194.3701171875 -156.232421875 184.3857421875 -148.19921875C170.5087890625 -137.037109375 161.2431640625 -141.55859375 150.5478515625 -164.708984375C143.7255859375 -179.474609375 139.6240234375 -183.4453125 129.3017578125 -185.294921875C116.59765625 -187.568359375 105.236328125 -182.337890625 100.0751953125 -171.8349609375C97.4638671875 -166.5234375 97.4326171875 -164.322265625 99.66796875 -144.224609375C103.4345703125 -110.400390625 110.16796875 -92.650390625 129.9443359375 -64.421875C146.033203125 -41.453125 169.603515625 -18.173828125 183.353515625 -11.6689453125C188.7578125 -9.1123046875 197.193359375 -6.607421875 202.0908203125 -6.1015625C209.67578125 -5.318359375 212.6494140625 -5.951171875 222.0419921875 -10.345703125C235.525390625 -16.65625 247.4375 -28.283203125 253.712890625 -41.2578125C260.859375 -56.037109375 270.224609375 -90.361328125 271.263671875 -105.583984375C272.2548828125 -120.1171875 282.953125 -163.4814453125 292.8759765625 -193.1904296875C308.8720703125 -241.08984375 335.0400390625 -267.431640625 360.3056640625 -261.068359375C396.392578125 -251.982421875 419.3818359375 -212.3203125 424.634765625 -150.103515625C426.880859375 -123.494140625 432.650390625 -74.798828125 433.7744140625 -72.98046875C434.2841796875 -72.15625 436.2490234375 -62.23828125 438.146484375 -50.9345703125C443.08203125 -21.5400390625 449.6923828125 -9.8642578125 466.6318359375 -0.6357421875Z"/>
</svg>