<svg xmlns="http://www.w3.org/2000/svg" viewBox="0 -1000 1000 1000">
	<path fill="#9b6f01" d="M355.94921875 -394.25390625C349.5302734375 -392.7529296875 337.4140625 -391.73046875 326.5517578125 -391.771484375C293.158203125 -391.8916015625 271.6318359375 -400.3408203125 249.9375 -421.8359375C230.87890625 -440.720703125 219.7880859375 -466.21875 223.482421875 -482.65625C227.10546875 -498.78125 236.7919921875 -514.50390625 253.423828125 -531.251953125C272.3359375 -550.296875 285.5771484375 -557.974609375 299.5185546875 -557.974609375C304.2216796875 -557.974609375 312.048828125 -559.484375 316.9091796875 -561.333984375C339.0166015625 -569.7353515625 367.1162109375 -561.8193359375 398.9375 -538.224609375C406.34765625 -532.732421875 414.8544921875 -525.2880859375 417.841796875 -521.685546875C426.27734375 -511.5068359375 430.7109375 -495.06640625 430.7109375 -473.974609375C430.7109375 -457.923828125 430.26953125 -455.4248046875 425.8193359375 -446.25390625C418.43359375 -431.02734375 399.1494140625 -412.716796875 381.150390625 -403.84375C373.2958984375 -399.974609375 361.9580078125 -395.658203125 355.94921875 -394.25390625ZM301.3505859375 -311.23828125C340.705078125 -306.28515625 388.16015625 -312.912109375 417.271484375 -327.4287109375C431.2197265625 -334.3876953125 460.18359375 -354.84765625 472.4814453125 -366.4375C497.251953125 -389.775390625 509.265625 -410.287109375 525.0400390625 -456.166015625C535.68359375 -487.13671875 534.3671875 -502.681640625 517.9033203125 -540.26953125C507.8642578125 -563.193359375 500.84375 -573.90234375 482.74609375 -593.904296875C450.5107421875 -629.525390625 423.4921875 -644.701171875 373.572265625 -655.228515625C352.216796875 -659.73046875 348.6962890625 -659.666015625 337.724609375 -654.5556640625C331.056640625 -651.4521484375 325.92578125 -650.3720703125 317.8427734375 -650.3720703125C304.205078125 -650.3720703125 282.380859375 -644.91015625 270.2607421875 -638.4638671875C255.529296875 -630.626953125 225.0244140625 -603.498046875 205.7705078125 -581.107421875C190.1337890625 -562.923828125 187.0263671875 -558.216796875 179.4111328125 -541.171875C168.64453125 -517.078125 164.7890625 -501.984375 163.09375 -477.333984375C161.498046875 -454.060546875 163.01171875 -441.0830078125 169.6630859375 -421.0537109375C181.11328125 -386.5595703125 196.2138671875 -364.208984375 222.173828125 -343.322265625C244.14453125 -325.6484375 269.9462890625 -315.1923828125 301.3505859375 -311.23828125ZM183.7216796875 -90.8984375C175.4189453125 -90.02734375 167.1201171875 -89.349609375 165.271484375 -89.39453125C159.34765625 -89.53515625 144.5615234375 -94.087890625 136.314453125 -98.30859375C104.0830078125 -114.80078125 97.6875 -157.873046875 123.2236328125 -186.4921875C128.3056640625 -192.189453125 132.9375 -198.728515625 133.5146484375 -201.025390625C134.11328125 -203.4111328125 136.1025390625 -205.55078125 138.15625 -206.015625C171.2353515625 -213.5146484375 180.8330078125 -214.7890625 193.96875 -213.435546875C208.4501953125 -211.9453125 231.0634765625 -206.361328125 238.91796875 -202.333984375C248.5400390625 -197.4091796875 255.392578125 -173.48046875 251.8173828125 -157.2890625C249.28515625 -145.8046875 236.59375 -120.1904296875 229.16015625 -111.560546875C219.8525390625 -100.755859375 202.5234375 -92.876953125 183.7216796875 -90.8984375ZM182.9111328125 7.091796875C186.14453125 7.498046875 198.99609375 7.630859375 211.4716796875 7.392578125C239.16796875 6.85546875 254.275390625 3.2666015625 276.9052734375 -8.16015625C297.92578125 -18.7724609375 310.1044921875 -27.916015625 321.30859375 -41.501953125C336.6376953125 -60.0859375 342.2294921875 -72.560546875 345.138671875 -94.66796875C346.5087890625 -105.0859375 348.4677734375 -119.71484375 349.4931640625 -127.173828125C351.701171875 -143.2138671875 349.9853515625 -155.7509765625 342.6259765625 -177.38671875C337.1953125 -193.35546875 310.12109375 -238.3671875 297.5087890625 -252.39453125C288.62890625 -262.2685546875 248.8369140625 -293.9599609375 239.19140625 -298.837890625C225.359375 -305.830078125 209.4521484375 -309.56640625 189.34765625 -310.5439453125C171.287109375 -311.4189453125 168.607421875 -311.138671875 155.24609375 -306.9755859375C137.5478515625 -301.455078125 119.37109375 -293.296875 106.66015625 -285.166015625C70.2890625 -261.90234375 42.9931640625 -213.216796875 33.419921875 -154.5478515625C28.80859375 -126.2880859375 29.0517578125 -118.7138671875 35.1357421875 -100.5546875C46.927734375 -65.35546875 65.23046875 -40.931640625 91.849609375 -24.8701171875C117.4267578125 -9.4345703125 154.265625 3.49609375 182.9111328125 7.091796875ZM538.2294921875 -31.298828125C522.759765625 -28.052734375 511.59375 -28.216796875 501.08984375 -31.849609375C490.59375 -35.4765625 466.640625 -52.44921875 459.759765625 -61.134765625C448.7646484375 -75.021484375 444.806640625 -94.42578125 448.9658203125 -114.095703125C454.294921875 -139.29296875 477.4990234375 -178.015625 494.9306640625 -190.8056640625C505.044921875 -198.2265625 517.1953125 -202.4130859375 525.306640625 -201.2783203125C528.720703125 -200.7998046875 537.8671875 -199.572265625 545.6396484375 -198.55078125C553.4091796875 -197.529296875 562.859375 -195.310546875 566.6396484375 -193.625C584.423828125 -185.685546875 601.8486328125 -165.556640625 607.361328125 -146.59765625C614.94921875 -120.498046875 595.4775390625 -59.189453125 575.19140625 -45.306640625C566.76953125 -39.54296875 553.443359375 -34.4921875 538.2294921875 -31.298828125ZM492.7470703125 55.28515625C513.7265625 60.787109375 562.9931640625 58.9248046875 578.544921875 52.041015625C593.5224609375 45.4140625 622.1337890625 16.265625 635.5732421875 -6.05078125C644.169921875 -20.32421875 664.9306640625 -83.8369140625 667.0322265625 -102.287109375C670.470703125 -132.4814453125 670.6865234375 -161.2060546875 667.5625 -172.7451171875C664.2197265625 -185.09765625 632.72265625 -241.466796875 624.3251953125 -250.130859375C618.1005859375 -256.5537109375 571.2333984375 -285.3359375 555.6103515625 -292.3330078125C549.748046875 -294.9580078125 535.9052734375 -299.931640625 524.8515625 -303.3798828125C498.90234375 -311.484375 485.685546875 -311.388671875 467.8330078125 -302.97265625C446.0126953125 -292.6884765625 419.2978515625 -269.439453125 408.982421875 -251.7548828125C404.16015625 -243.486328125 389.7734375 -210.787109375 384.4140625 -195.908203125C382.7431640625 -191.2734375 380.53515625 -179.181640625 379.505859375 -169.029296875C378.4775390625 -158.87890625 376.43359375 -142.63671875 374.966796875 -132.9326171875C370.6669921875 -104.46484375 373.5146484375 -58.123046875 380.9072265625 -36.2177734375C388.7177734375 -13.08203125 407.6806640625 8.38671875 438.3056640625 28.767578125C460.15625 43.30859375 475.4111328125 50.73828125 492.7470703125 55.28515625Z"/>
</svg>