<svg xmlns="http://www.w3.org/2000/svg" viewBox="0 -1000 1000 1000">
	<path fill="#964ffa" d="M254.98046875 -122.1953125C242.9697265625 -120.849609375 232.763671875 -119.830078125 232.302734375 -119.9296875C231.8408203125 -120.029296875 227.9853515625 -120.69921875 223.740234375 -121.416015625C201.4755859375 -125.18359375 193.84375 -137.5625 198.6318359375 -162.138671875C201.1748046875 -175.1875 215.91015625 -221.716796875 237.333984375 -284.357421875C246.34375 -310.689453125 257.30859375 -343.1162109375 261.70703125 -356.412109375C267.61328125 -374.28515625 271.1103515625 -382.169921875 275.10546875 -386.654296875C278.0791015625 -389.986328125 281.931640625 -396.48828125 283.66796875 -401.0986328125C287.796875 -412.052734375 299.9130859375 -424.5625 308.7421875 -426.9794921875C317.970703125 -429.501953125 327.3525390625 -429.296875 332.7666015625 -426.44921875C343.0546875 -421.04296875 362.3291015625 -397.154296875 372.12109375 -377.681640625C375.853515625 -370.2578125 382.4609375 -358.88671875 386.7978515625 -352.41015625C391.138671875 -345.935546875 402.134765625 -327.02734375 411.2333984375 -310.396484375C421.6201171875 -291.40625 432.8896484375 -273.5947265625 441.5302734375 -262.517578125C459.8193359375 -239.0595703125 467.9443359375 -226.23828125 487.05078125 -190.708984375C497.1640625 -171.896484375 503.4189453125 -158.29296875 503.9765625 -153.8837890625C504.806640625 -147.3515625 504.5126953125 -146.708984375 499.501953125 -144.119140625C492.76171875 -140.6328125 467.6328125 -138.263671875 427.181640625 -137.296875C410.087890625 -136.8896484375 388.1650390625 -135.771484375 378.4619140625 -134.814453125C368.76171875 -133.857421875 349.48046875 -132.7744140625 335.62109375 -132.412109375C318.63671875 -131.9677734375 304.9443359375 -130.59765625 293.62109375 -128.197265625C284.3818359375 -126.2421875 266.9951171875 -123.54296875 254.98046875 -122.1953125ZM117.22265625 -13.302734375C120.91796875 -13.005859375 126.208984375 -12.6396484375 128.98046875 -12.4892578125C138.2021484375 -11.994140625 199.0048828125 -15.626953125 239.86328125 -19.11328125C268.7109375 -21.578125 298.8330078125 -22.7431640625 345.734375 -23.2080078125C381.791015625 -23.56640625 429.041015625 -24.646484375 450.734375 -25.603515625C472.431640625 -26.564453125 508.3271484375 -27.7880859375 530.5029296875 -28.32421875C603.1796875 -30.0849609375 636.9111328125 -38.7802734375 645.6376953125 -57.99609375C651.3115234375 -70.49609375 649.458984375 -83.53515625 638.640625 -107.279296875C635.7353515625 -113.658203125 630.4921875 -127.37109375 626.9921875 -137.7509765625C619.0185546875 -161.396484375 609.888671875 -175.310546875 589.5107421875 -194.87890625C581.0791015625 -202.97265625 569.73828125 -214.8876953125 564.310546875 -221.357421875C558.87890625 -227.82421875 537.947265625 -249.884765625 517.7919921875 -270.37890625C497.6396484375 -290.873046875 479.8798828125 -310.0986328125 478.32421875 -313.103515625C474.47265625 -320.5546875 475.689453125 -339.8896484375 480.65234375 -350.05078125C482.634765625 -354.115234375 491.26171875 -366.224609375 499.8203125 -376.96484375C521.33984375 -403.9697265625 540.630859375 -430.736328125 545.3984375 -440.203125C551.9814453125 -453.2734375 558.2568359375 -472.3701171875 559.3271484375 -482.5859375C561.8935546875 -507.16796875 546.46484375 -521.373046875 519.740234375 -519.029296875C513.6494140625 -518.4921875 505.1962890625 -516.8515625 500.9580078125 -515.3818359375C490.0888671875 -511.6083984375 471.095703125 -495.810546875 438.56640625 -463.48046875C418.294921875 -443.3310546875 409.376953125 -435.5546875 406.5400390625 -435.5546875C402.080078125 -435.5546875 395.3427734375 -442.0703125 391.083984375 -450.498046875C384.958984375 -462.62890625 362.87890625 -517.603515625 357.9951171875 -532.884765625C351.2099609375 -554.130859375 346.2265625 -563.640625 337.107421875 -572.759765625C326.32421875 -583.54296875 316.66796875 -587.521484375 301.181640625 -587.5556640625C289.9912109375 -587.5830078125 287.3935546875 -586.9404296875 277.9462890625 -581.82421875C257.27734375 -570.6298828125 242.2314453125 -548.703125 222.25390625 -500.66796875C200.884765625 -449.28515625 197.958984375 -443.95703125 191.109375 -443.95703125C185.8662109375 -443.95703125 179.9970703125 -449.0625 171.2919921875 -461.189453125C152.8349609375 -486.9033203125 105.11328125 -525.392578125 84.27734375 -531.37109375C71.1865234375 -535.1240234375 61.6123046875 -524.384765625 54.919921875 -498.4453125C47.52734375 -469.7998046875 50.763671875 -453.02734375 68.8994140625 -426.01953125C72.5126953125 -420.638671875 79.337890625 -409.810546875 84.0654296875 -401.95703125C88.7958984375 -394.1015625 98.373046875 -381.427734375 105.3486328125 -373.7890625C123.4130859375 -354.0126953125 133.154296875 -333.662109375 137.4638671875 -306.701171875C141.9072265625 -278.9130859375 141.9658203125 -277.333984375 139.23828125 -259.099609375C136.4658203125 -240.5703125 132.361328125 -227.0009765625 122.74609375 -204.5546875C119.5810546875 -197.166015625 115.189453125 -186.2041015625 112.984375 -180.1953125C108.841796875 -168.8955078125 97.005859375 -148.349609375 81.962890625 -126.345703125C60.443359375 -94.859375 52.0556640625 -56.4033203125 62.3232421875 -36.294921875C69.7578125 -21.73828125 83.3916015625 -16.02734375 117.22265625 -13.302734375Z"/>
</svg>