<svg xmlns="http://www.w3.org/2000/svg" viewBox="0 -1000 1000 1000">
	<path fill="#964ffa" d="M435.1298828125 -144.94140625C423.7685546875 -141.072265625 418.265625 -141.4794921875 413.17578125 -146.5654296875C409.3173828125 -150.4267578125 408.9443359375 -151.8291015625 409.8232421875 -159.2314453125C410.4072265625 -164.1806640625 415.267578125 -177.3984375 421.8203125 -191.8603515625C434.75390625 -220.41015625 437.3271484375 -230.0927734375 434.3984375 -239.2294921875C430.921875 -250.0810546875 420.8251953125 -265.1962890625 408.0869140625 -278.6181640625C397.2685546875 -290.0166015625 395.830078125 -292.283203125 395.826171875 -297.9404296875C395.8232421875 -303.7265625 397.04296875 -305.5068359375 408.4423828125 -316.3701171875C416.005859375 -323.5810546875 425.498046875 -330.6298828125 432.142578125 -333.96875C443.595703125 -339.7216796875 448.2646484375 -344.8583984375 456.3857421875 -360.6259765625C459.5234375 -366.7197265625 460.5185546875 -372.1708984375 461.5234375 -388.751953125C463.0166015625 -413.4736328125 466.36328125 -421.4892578125 477.5498046875 -427.1396484375C486.3134765625 -431.5693359375 493.5322265625 -430.6669921875 499.8388671875 -424.3564453125C507.6728515625 -416.5224609375 508.783203125 -408.0537109375 507.5390625 -365.6669921875C506.19921875 -319.9580078125 504.7294921875 -304.9541015625 499.2265625 -280.826171875C496.9130859375 -270.6611328125 493.1669921875 -253.5029296875 490.9111328125 -242.6953125C488.6552734375 -231.8876953125 483.6923828125 -215.255859375 479.884765625 -205.7373046875C465.83984375 -170.6240234375 450.88671875 -150.3115234375 435.1298828125 -144.94140625ZM301.681640625 -133.9521484375C291.2294921875 -131.54296875 253.8544921875 -131.92578125 244.1337890625 -134.537109375C228.8310546875 -138.65234375 222.3232421875 -149.248046875 216.8720703125 -178.916015625C214.318359375 -192.8037109375 214.22265625 -198.9794921875 215.9384765625 -238.6455078125C217.4970703125 -274.7041015625 218.587890625 -285.9599609375 221.8310546875 -299.4951171875C224.0185546875 -308.6318359375 226.3193359375 -323.2880859375 226.94140625 -332.0654296875C227.56640625 -340.8427734375 228.796875 -352.5625 229.67578125 -358.1064453125C230.5537109375 -363.650390625 231.986328125 -378.3505859375 232.8544921875 -390.775390625C234.65234375 -416.4443359375 238.0390625 -425.7861328125 247.9853515625 -432.48828125C264.8701171875 -443.8662109375 309.81640625 -446.7783203125 344.888671875 -438.7666015625C365.1025390625 -434.1455078125 369.8564453125 -425.5810546875 364.7294921875 -403.025390625C361.0107421875 -386.6904296875 352.74609375 -374.533203125 333.5849609375 -357.2353515625C306.1220703125 -332.4375 290.744140625 -316.3486328125 286.9501953125 -308.4326171875C279.236328125 -292.3515625 283.5048828125 -277.9794921875 300.7314453125 -262.0205078125C311.962890625 -251.6162109375 316.9873046875 -248.5986328125 332.6318359375 -242.8759765625C344.5224609375 -238.5224609375 354.60546875 -229.8603515625 357.3095703125 -221.6708984375C359.9580078125 -213.642578125 358.451171875 -196.7509765625 354.2568359375 -187.4814453125C352.4013671875 -183.3798828125 344.0439453125 -171.2568359375 335.6904296875 -160.541015625C319.978515625 -140.388671875 315.955078125 -137.2412109375 301.681640625 -133.9521484375ZM171.720703125 -40.8232421875C193.4384765625 -36.16796875 286.7861328125 -38.1708984375 322.15234375 -44.0498046875C330.1396484375 -45.3798828125 341.794921875 -46.4658203125 348.0537109375 -46.4658203125C363.7587890625 -46.4658203125 423.0263671875 -52.779296875 435.310546875 -55.759765625C458.9150390625 -61.4912109375 507.05078125 -89.8779296875 530.8466796875 -112.0986328125C542.962890625 -123.4150390625 544.7236328125 -125.96484375 554.57421875 -146.4521484375C567.0908203125 -172.4873046875 570.939453125 -184.1689453125 574.490234375 -206.916015625C579.15234375 -236.7958984375 585.5986328125 -309.8076171875 588.134765625 -361.4658203125C590.8076171875 -415.8935546875 590.814453125 -415.7880859375 582.1875 -458.0654296875C580.396484375 -466.8427734375 578.93359375 -478.9384765625 578.93359375 -484.9443359375C578.93359375 -505.947265625 574.7294921875 -513.056640625 552.16796875 -530.228515625C535.2041015625 -543.1376953125 528.337890625 -546.4130859375 507.9765625 -551.3037109375C463.87109375 -561.8994140625 457.0595703125 -562.4326171875 379.0302734375 -561.3759765625C314.9130859375 -560.51171875 303.0048828125 -559.8994140625 262.2724609375 -555.3740234375C192.2216796875 -547.5986328125 186.8994140625 -546.388671875 170.8388671875 -534.5966796875C155.720703125 -523.4990234375 150.8671875 -514.9091796875 143.5908203125 -486.3662109375C140.4736328125 -474.1357421875 140.4423828125 -472.751953125 142.96484375 -458.2080078125C145.2001953125 -445.3291015625 145.3271484375 -439.3994140625 143.7646484375 -420.6689453125C142.0283203125 -399.853515625 134.6630859375 -350.6484375 127.2353515625 -310.2236328125C125.451171875 -300.5244140625 123.537109375 -286.9130859375 122.9873046875 -279.9853515625C118.5400390625 -224.2724609375 114.77734375 -186.6787109375 112.6953125 -177.1728515625C107.390625 -152.9501953125 111.2705078125 -103.7783203125 120.41015625 -79.34375C127.26953125 -61.009765625 147.138671875 -46.09375 171.720703125 -40.8232421875Z"/>
</svg>