<svg xmlns="http://www.w3.org/2000/svg" viewBox="0 -1000 1000 1000">
	<path fill="#d600e3" d="M559.7431640625 -247.2587890625C546.068359375 -240.3408203125 529.6240234375 -244.4365234375 518.0234375 -257.6494140625C500.0244140625 -278.1474609375 513.1904296875 -320.8134765625 540.896484375 -331.775390625C554.736328125 -337.2548828125 576.3720703125 -331.3955078125 583.40234375 -320.2705078125C586.35546875 -315.5986328125 586.7080078125 -312.8603515625 586.0546875 -299.7587890625C584.8037109375 -274.6708984375 574.9091796875 -254.9326171875 559.7431640625 -247.2587890625ZM528.1064453125 -166.2529296875C548.361328125 -163.4912109375 573.490234375 -167.931640625 592.0634765625 -177.5537109375C605.8828125 -184.7099609375 617.6435546875 -196.9541015625 632.447265625 -219.5771484375C644.8818359375 -238.5849609375 647.2265625 -244.0908203125 653.8876953125 -269.9345703125C660.3720703125 -295.080078125 660.5498046875 -314.20703125 654.5576171875 -342.5830078125C649.669921875 -365.7392578125 646.501953125 -373.9423828125 637.0986328125 -387.7861328125C624.599609375 -406.19140625 608.1552734375 -416.9306640625 575.2919921875 -428.1484375C555.0537109375 -435.0556640625 542.6708984375 -436.119140625 523.5810546875 -432.5810546875C493.4384765625 -426.9970703125 478.6484375 -416.3330078125 454.927734375 -383.0859375C440.4765625 -362.8349609375 434.888671875 -357.9677734375 420.1533203125 -352.8056640625C400.8798828125 -346.0556640625 387.4541015625 -344.5791015625 343.8232421875 -344.4189453125C319.3681640625 -344.326171875 291.5390625 -343.1943359375 277.2041015625 -341.7119140625C255.076171875 -339.4150390625 249.80859375 -339.4208984375 225.1240234375 -341.76953125C210.0205078125 -343.205078125 190.7568359375 -345.5498046875 182.3173828125 -346.9814453125C169.3427734375 -349.1796875 162.33984375 -349.2998046875 136.9580078125 -347.7607421875C82.1162109375 -344.4423828125 62.44921875 -335.8330078125 49.201171875 -309.3466796875C35.8505859375 -282.6591796875 39.169921875 -259.7041015625 57.8046875 -249.8505859375C64.03515625 -246.5556640625 68.03125 -245.9951171875 89.30078125 -245.4375C115.2265625 -244.7568359375 151.51171875 -247.1875 174.982421875 -251.1728515625C193.4638671875 -254.310546875 261.375 -259.0205078125 269.2470703125 -257.7119140625C272.5830078125 -257.1572265625 286.029296875 -257.55078125 299.126953125 -258.5869140625C320.2978515625 -260.2578125 326.142578125 -260.0830078125 351.859375 -257.0009765625C367.7666015625 -255.0966796875 390.875 -252.8369140625 403.20703125 -251.9833984375C422.060546875 -250.6767578125 427.0751953125 -249.7275390625 434.666015625 -246.01171875C446.072265625 -240.43359375 450.2900390625 -234.486328125 453.916015625 -218.8798828125C457.2900390625 -204.3701171875 463.08984375 -195.20703125 473.8671875 -187.3564453125C489.4697265625 -175.984375 507.140625 -169.1103515625 528.1064453125 -166.2529296875Z"/>
</svg>