<svg xmlns="http://www.w3.org/2000/svg" viewBox="0 -1000 1000 1000">
	<path fill="#d600e3" d="M401.2880859375 -343.1796875C376.8935546875 -336.5927734375 375.1201171875 -336.3603515625 345.8486328125 -335.84765625C329.216796875 -335.560546875 314.095703125 -335.701171875 312.24609375 -336.158203125C310.400390625 -336.6201171875 297.169921875 -339.6416015625 282.8486328125 -342.87109375C251.08203125 -350.0390625 244.1806640625 -352.5234375 234.275390625 -360.3515625C226.390625 -366.5859375 216.2529296875 -384.30078125 209.953125 -402.857421875C207.1025390625 -411.2578125 206.29296875 -424.150390625 208.6201171875 -424.150390625C209.3720703125 -424.150390625 214.099609375 -423.3955078125 219.1201171875 -422.47265625C257.0732421875 -415.4931640625 312.451171875 -412.84375 360.9658203125 -415.69140625C413.3603515625 -418.763671875 422.6845703125 -420.06640625 446.6474609375 -427.640625C458.658203125 -431.4375 473.1162109375 -434.9482421875 478.7734375 -435.4404296875C487.7216796875 -436.2197265625 489.5263671875 -435.87109375 492.6328125 -432.763671875C504.6640625 -420.736328125 483.96875 -384.8203125 452.95703125 -363.912109375C438.76953125 -354.345703125 430.78515625 -351.142578125 401.2880859375 -343.1796875ZM312.84765625 -244.556640625C334.42578125 -240.7392578125 343.3671875 -240.4794921875 371.376953125 -242.861328125C394.71875 -244.84765625 410.9501953125 -249.2158203125 440.1845703125 -261.3837890625C485.05859375 -280.0595703125 504.541015625 -295.6484375 530.216796875 -333.431640625C536.810546875 -343.134765625 546.7158203125 -357.12109375 552.2255859375 -364.5107421875C571.810546875 -390.7744140625 584.4501953125 -424.98828125 586.3740234375 -456.9462890625C587.5908203125 -477.1123046875 584.6279296875 -489.79296875 576.5546875 -498.990234375C569.52734375 -506.9921875 564.4755859375 -509.357421875 546.1552734375 -513.2265625C526.9287109375 -517.283203125 485.455078125 -517.70703125 457.294921875 -514.1328125C428.224609375 -510.4443359375 376.630859375 -507.7236328125 345.3662109375 -508.232421875C300.5771484375 -508.9609375 195.478515625 -503.44140625 167.7685546875 -498.9052734375C159.453125 -497.541015625 149.93359375 -496.03125 146.6220703125 -495.544921875C132.3310546875 -493.4501953125 120.16015625 -475.5673828125 115.73046875 -450.162109375C110.3779296875 -419.478515625 113.375 -400.4814453125 132.2763671875 -345.2333984375C133.759765625 -340.896484375 139.2255859375 -335.369140625 153.5400390625 -323.724609375C180.8427734375 -301.513671875 190.7783203125 -294.58984375 208.927734375 -285.125C217.705078125 -280.544921875 228.6630859375 -274.3994140625 233.27734375 -271.462890625C237.888671875 -268.53125 246.8603515625 -264.5830078125 253.2080078125 -262.693359375C259.55859375 -260.802734375 271.5517578125 -256.66015625 279.861328125 -253.48828125C288.169921875 -250.3203125 303.0146484375 -246.30078125 312.84765625 -244.556640625ZM319.806640625 -86.4794921875C330.388671875 -81.5302734375 350.4560546875 -82.6953125 370.41015625 -89.4189453125C396.345703125 -98.1552734375 409.234375 -107.7392578125 417.423828125 -124.3779296875C422.359375 -134.40234375 422.66015625 -136.04296875 421.94921875 -149.0146484375C420.654296875 -172.6328125 413.1650390625 -181.9609375 389.5263671875 -189.4013671875C380.4140625 -192.26953125 373.609375 -193.0927734375 359.2880859375 -193.126953125C324.90625 -193.171875 311.7509765625 -185.3271484375 301.30859375 -158.560546875C287.982421875 -124.408203125 294.705078125 -98.220703125 319.806640625 -86.4794921875Z"/>
</svg>