<svg xmlns="http://www.w3.org/2000/svg" viewBox="0 -1000 1000 1000">
	<path fill="#03868b" d="M506.04296875 -350.9912109375C500.9609375 -352.3349609375 494.53515625 -353.4765625 491.7626953125 -353.5244140625C484.2431640625 -353.6572265625 469.9697265625 -349.4541015625 461.9208984375 -344.7294921875C447.4423828125 -336.2333984375 421.509765625 -304.8251953125 415.1455078125 -288.0732421875C409.044921875 -272.01953125 412.4765625 -254.4169921875 423.9404296875 -242.953125C432.0234375 -234.8701171875 456.4931640625 -222.1142578125 469.498046875 -219.2021484375C483.296875 -216.115234375 502.857421875 -219.13671875 510.8662109375 -225.58984375C517.8349609375 -231.208984375 518.4541015625 -232.275390625 528.560546875 -256.21484375C537.7412109375 -277.953125 540.41796875 -291.0205078125 539.146484375 -307.853515625C537.3583984375 -331.4921875 526.5546875 -345.5673828125 506.04296875 -350.9912109375ZM344.5615234375 -602.0751953125C337.7421875 -602.8349609375 329.5185546875 -603.2099609375 326.28515625 -602.8681640625C323.048828125 -602.5302734375 313.998046875 -601.5048828125 306.1669921875 -600.5927734375C298.33984375 -599.6796875 286.9990234375 -598.9306640625 280.9697265625 -598.8935546875C274.9375 -598.873046875 266.98046875 -598.134765625 263.28515625 -597.2568359375C259.5869140625 -596.3740234375 247.7197265625 -594.484375 236.9091796875 -593.0517578125C196.1806640625 -587.6513671875 183.701171875 -579.14453125 168.3037109375 -546.291015625C159.54296875 -527.5986328125 158.544921875 -519.794921875 163.634765625 -509.8935546875C167.91015625 -501.583984375 179.572265625 -492.6591796875 189.9052734375 -489.7880859375C193.302734375 -488.8447265625 210.3857421875 -488.0625 227.865234375 -488.0625C245.34765625 -488.0595703125 264.287109375 -487.2451171875 269.95703125 -486.2578125C282.5693359375 -484.0634765625 292.7822265625 -478.5771484375 295.7421875 -472.408203125C298.83203125 -465.9658203125 302.8759765625 -423.380859375 308.6865234375 -336.0146484375C309.974609375 -316.6103515625 311.7451171875 -297.708984375 312.6201171875 -294.0146484375C313.4921875 -290.3193359375 314.708984375 -278.2236328125 315.3173828125 -267.1357421875C315.9287109375 -256.0478515625 317.552734375 -237.1455078125 318.9267578125 -225.1357421875C325.25 -169.8251953125 314.0009765625 -120.5556640625 292.255859375 -108.3369140625C285.8779296875 -104.7509765625 282.2861328125 -104.2314453125 256.4560546875 -103.14453125C240.662109375 -102.4814453125 224.693359375 -101.1181640625 220.9677734375 -100.1162109375C212.275390625 -97.7744140625 199.8720703125 -86.8505859375 195.3837890625 -77.5849609375C189.4267578125 -65.2763671875 191.935546875 -44.9267578125 201.59765625 -27.1494140625C212.34375 -7.38671875 227.8408203125 -2.697265625 295.2060546875 1.1787109375C344.7666015625 4.029296875 348.912109375 3.8486328125 361.3056640625 -1.712890625C372.892578125 -6.9150390625 379.6025390625 -13.5771484375 386.0380859375 -26.2783203125L390.3447265625 -34.7783203125L388.806640625 -75.3564453125C387.921875 -98.7392578125 387.876953125 -129.4599609375 388.7080078125 -147.8544921875C389.4970703125 -165.4091796875 389.6787109375 -201.6982421875 389.111328125 -228.4951171875C387.525390625 -303.3720703125 387.8330078125 -327.0791015625 390.765625 -355.3359375C392.251953125 -369.6572265625 394.9765625 -404.431640625 396.818359375 -432.6123046875C398.6640625 -460.7978515625 400.93359375 -491.2783203125 401.86328125 -500.353515625C404.6318359375 -527.3994140625 399.9560546875 -559.12890625 390.8955078125 -574.7626953125C382.234375 -589.7158203125 365.263671875 -599.7177734375 344.5615234375 -602.0751953125Z"/>
</svg>