<svg xmlns="http://www.w3.org/2000/svg" viewBox="0 -1000 1000 1000">
	<path fill="#d600e3" d="M97.376953125 -126.7451171875C101.2666015625 -123.4716796875 103.7822265625 -122.5615234375 106.8310546875 -123.3271484375C119.908203125 -126.6083984375 129.009765625 -142.0751953125 135.125 -171.4052734375C137.873046875 -184.587890625 138.470703125 -206.0009765625 136.9873046875 -237.7607421875C136.287109375 -252.7392578125 143.21484375 -259.701171875 150.76171875 -251.6005859375C154.6171875 -247.4619140625 156.162109375 -242.9736328125 160.11328125 -224.44140625C163.4189453125 -208.9306640625 168.62109375 -201.8720703125 177.8251953125 -200.4130859375C198.5244140625 -197.125 209.455078125 -220.1513671875 205.876953125 -259.49609375C204.55078125 -274.0908203125 204.60546875 -281.8056640625 206.1025390625 -289.916015625C211.359375 -318.4599609375 220.830078125 -331.0615234375 241.5947265625 -337.1591796875C255.833984375 -341.3388671875 292.43359375 -349.8193359375 308.6650390625 -352.697265625C314.60546875 -353.75 328.91015625 -357.1982421875 340.4521484375 -360.3642578125C362.6689453125 -366.451171875 372.560546875 -367.2548828125 388.6630859375 -364.27734375C413.2685546875 -359.7314453125 414.140625 -356.3232421875 406.75390625 -293.744140625C405.2744140625 -281.2001953125 404.5771484375 -268.1982421875 405.2021484375 -264.85546875C407.400390625 -253.1455078125 430.6357421875 -238.16796875 442.1298828125 -241.0498046875C447.2607421875 -242.337890625 456.8310546875 -252.4794921875 461.44140625 -261.5126953125C466.162109375 -270.7685546875 468.3935546875 -285.103515625 468.3935546875 -306.36328125C468.4072265625 -328.115234375 470.2255859375 -336.11328125 476.2314453125 -340.8369140625C482.0927734375 -345.451171875 489.458984375 -345.1669921875 499.9794921875 -339.9248046875C510.69140625 -334.5849609375 522.1650390625 -321.8701171875 529.3359375 -307.388671875L534.708984375 -296.5400390625L534.7431640625 -258.3779296875C534.7607421875 -222.47265625 534.9658203125 -219.9404296875 538.2265625 -215.568359375C545.0791015625 -206.3740234375 549.65625 -204.2861328125 564.544921875 -203.5478515625C577.8779296875 -202.8876953125 578.763671875 -203.0751953125 586.361328125 -208.1689453125C596.4345703125 -214.9150390625 606.763671875 -230.2900390625 611.640625 -245.7939453125C614.9052734375 -256.1708984375 615.3798828125 -261.205078125 615.2333984375 -283.7939453125C615.072265625 -308.1298828125 614.6591796875 -311.3740234375 608.87890625 -333.3544921875C601.19921875 -362.5654296875 590.576171875 -389.0302734375 580.376953125 -404.3740234375C571.845703125 -417.2041015625 544.501953125 -444.380859375 532.40234375 -452.0537109375C521.9736328125 -458.66796875 483.1494140625 -471.041015625 461.6806640625 -474.595703125C446.3203125 -477.1357421875 436.9345703125 -477.3681640625 389.0185546875 -476.3974609375C358.751953125 -475.7822265625 330.0244140625 -474.4560546875 325.177734375 -473.4501953125C286.3291015625 -465.4013671875 241.2353515625 -446.6884765625 212.490234375 -426.6787109375C202.16796875 -419.4951171875 184.6513671875 -408.0849609375 173.5634765625 -401.3251953125C159.10546875 -392.509765625 149.599609375 -385.1953125 139.9609375 -375.4716796875C110.529296875 -345.7900390625 90.4658203125 -305.0263671875 90.3701171875 -274.7060546875C90.349609375 -269.080078125 89.5634765625 -259.181640625 88.6162109375 -252.71484375C84.935546875 -227.5419921875 83.814453125 -198.9296875 85.5302734375 -173.7568359375C87.6220703125 -143.0048828125 90.19921875 -132.798828125 97.376953125 -126.7451171875Z"/>
</svg>