<svg xmlns="http://www.w3.org/2000/svg" viewBox="0 -1000 1000 1000">
	<path fill="#ee2304" d="M328.37890625 -138.708984375C338.4375 -135.00390625 352.888671875 -136.26171875 362.0693359375 -141.640625C370.2041015625 -146.4091796875 376.203125 -154.2431640625 382.2763671875 -168.021484375C388.6064453125 -182.3828125 408.423828125 -244.265625 412.1083984375 -261.1875C413.919921875 -269.50390625 417.6357421875 -283.111328125 420.3701171875 -291.4267578125C425.9072265625 -308.291015625 447.7099609375 -416.8525390625 455.455078125 -466.146484375C468.59765625 -549.7705078125 466.875 -634.9873046875 451.1962890625 -676.833984375C446.3876953125 -689.66796875 431.078125 -711.515625 419.748046875 -721.7080078125C412.0947265625 -728.595703125 399.49609375 -734.1083984375 391.4130859375 -734.1083984375C380.236328125 -734.1083984375 366.1025390625 -721.875 350.5615234375 -698.75C341.3154296875 -684.99609375 337.9560546875 -677.9443359375 331.2529296875 -658.2265625C323.5693359375 -635.61328125 323.0361328125 -632.8818359375 321.1875 -606.529296875C320.1142578125 -591.2265625 317.4580078125 -566.611328125 315.291015625 -551.828125C309.5283203125 -512.56640625 306.3837890625 -481.3291015625 305.228515625 -451.9140625C304.66796875 -437.6171875 303.0859375 -420.609375 301.7119140625 -414.115234375C300.3408203125 -407.62109375 298.51953125 -388.69921875 297.66796875 -372.06640625C296.8173828125 -355.435546875 295.306640625 -332.376953125 294.3154296875 -320.828125C293.3203125 -309.279296875 292.4970703125 -280.9267578125 292.4970703125 -257.828125C292.4794921875 -211.80859375 293.912109375 -199.9619140625 302.880859375 -171.958984375C308.677734375 -153.853515625 317.1064453125 -142.861328125 328.37890625 -138.708984375ZM337.4599609375 58.9560546875C315.1953125 69.06640625 296.9609375 51.548828125 300.556640625 23.51171875C302.7236328125 6.6337890625 310.7626953125 -1.44921875 326.0439453125 -2.1162109375C335.9697265625 -2.546875 341.99609375 0.478515625 346.890625 8.345703125C350.0556640625 13.435546875 350.6123046875 16.734375 350.6123046875 30.3681640625C350.6123046875 49.201171875 348.4111328125 53.982421875 337.4599609375 58.9560546875ZM311.1318359375 130.9111328125C327.2509765625 135.1796875 329.458984375 135.1796875 346.466796875 130.876953125C373.9404296875 123.931640625 400.958984375 109.544921875 412.6689453125 95.626953125C423.6240234375 82.6083984375 430.326171875 61.515625 430.380859375 39.88671875C430.4560546875 10.47265625 424.05078125 -22.7880859375 414.4599609375 -42.787109375C405.515625 -61.431640625 399.0556640625 -67.70703125 378.55078125 -77.6640625C362.0830078125 -85.658203125 359.7763671875 -86.32421875 348.9306640625 -86.22265625C333.533203125 -86.078125 310.4140625 -84.4208984375 303.7900390625 -82.98828125C286.005859375 -79.140625 267.712890625 -63.62890625 253.1015625 -40.0078125C239.453125 -17.94140625 236.845703125 -8.80859375 235.9228515625 20.212890625C235.0751953125 46.86328125 237.265625 63.419921875 244.0302734375 81.53125C251.748046875 102.189453125 279.3173828125 122.478515625 311.1318359375 130.9111328125Z"/>
</svg>