<svg xmlns="http://www.w3.org/2000/svg" viewBox="0 -1000 1000 1000">
	<path fill="#964ffa" d="M365.7265625 -164.6748046875C378.0078125 -162.3203125 387.0478515625 -161.65625 399.3291015625 -162.2138671875C429.783203125 -163.6015625 435.029296875 -164.900390625 485.8310546875 -183.6650390625C516.6298828125 -195.0400390625 521.75390625 -198.892578125 572.9755859375 -249.197265625C602.4619140625 -278.154296875 612.97265625 -291.9052734375 621.7529296875 -312.990234375C630.8037109375 -334.7392578125 634.091796875 -352.283203125 633.4287109375 -375.306640625C632.8720703125 -394.529296875 632.5537109375 -396.08203125 626.6240234375 -408.501953125C618.1162109375 -426.3271484375 613.0029296875 -432.5546875 604.0927734375 -435.958984375C597.533203125 -438.4609375 595.400390625 -438.5498046875 587.0029296875 -436.6767578125C564.0615234375 -431.5498046875 554.990234375 -425.23046875 513.2392578125 -385.294921875C487.6767578125 -360.8388671875 476.6806640625 -351.685546875 455.609375 -337.3095703125C441.2841796875 -327.537109375 426.9873046875 -318.212890625 423.8359375 -316.5830078125C411.404296875 -310.16796875 398.201171875 -307.078125 365.0224609375 -302.83203125L330.4462890625 -298.40625L314.037109375 -302.09765625C272.7958984375 -311.3740234375 246.9453125 -322.14453125 213.6064453125 -343.943359375C194.6025390625 -356.37109375 178.1044921875 -372.4189453125 160.3857421875 -395.7021484375C154.6669921875 -403.2216796875 146.8984375 -412.015625 143.1279296875 -415.24609375C135.263671875 -421.9765625 123.751953125 -425.787109375 115.982421875 -424.232421875C104.8603515625 -422.0068359375 76.9150390625 -395.8798828125 70.4521484375 -381.6611328125C65.2529296875 -370.2314453125 65.1474609375 -339.0732421875 70.263671875 -326.4267578125C79.6806640625 -303.154296875 108.6953125 -271.3701171875 139.6005859375 -250.46875C150.3876953125 -243.17578125 167.4130859375 -231.1201171875 177.4375 -223.67578125C200.24609375 -206.7431640625 222.8486328125 -194.9033203125 245.60546875 -187.96875C255.3095703125 -185.01171875 270.1328125 -180.376953125 278.5517578125 -177.673828125C290.2099609375 -173.923828125 300.416015625 -172.173828125 321.392578125 -170.328125C336.5341796875 -168.9921875 356.48828125 -166.44921875 365.7265625 -164.6748046875Z"/>
</svg>