<svg xmlns="http://www.w3.org/2000/svg" viewBox="0 -1000 1000 1000">
	<path fill="#3c9202" d="M132.1123046875 -225.1044921875C144.259765625 -222.103515625 152.982421875 -222.376953125 160.9833984375 -226.009765625C174.744140625 -232.2578125 177.263671875 -244.73046875 171.056640625 -275.8984375C168.69140625 -287.783203125 166.2607421875 -303.173828125 165.6591796875 -310.10546875C165.0546875 -317.0341796875 163.16796875 -330.265625 161.4658203125 -339.50390625C156.4072265625 -366.953125 154.7939453125 -379.767578125 154.7666015625 -392.74609375C154.7529296875 -399.5 153.21484375 -412.20703125 151.3447265625 -420.984375C149.478515625 -429.76171875 144.916015625 -454.9970703125 141.2041015625 -477.0634765625C137.4921875 -499.126953125 133.0107421875 -520.98046875 131.244140625 -525.6259765625C127.42578125 -535.6748046875 120.9658203125 -542.8828125 113.5966796875 -545.31640625C106.6552734375 -547.607421875 101.517578125 -545.65234375 90.8369140625 -536.642578125C81.3759765625 -528.6640625 79.2294921875 -523.140625 79.181640625 -506.6630859375C79.1640625 -500.658203125 77.3115234375 -476.69140625 75.0625 -453.404296875C71.115234375 -412.5322265625 71.056640625 -410.0029296875 73.380859375 -380.32421875C76.81640625 -336.427734375 78.8193359375 -322.19140625 85.0361328125 -297.50390625C94.91796875 -258.251953125 105.541015625 -236.71875 118.3271484375 -230.009765625C121.291015625 -228.4541015625 127.494140625 -226.24609375 132.1123046875 -225.1044921875ZM523.8623046875 -196.5166015625C537.7255859375 -191.359375 555.5400390625 -196.58203125 566.8779296875 -209.1328125C580.515625 -224.2294921875 584.8837890625 -236.8046875 604.8515625 -318.50390625C623.578125 -395.107421875 624.53515625 -400.189453125 627.0234375 -435.8154296875C630.9267578125 -491.8017578125 624.7783203125 -532.41796875 610.7197265625 -543.474609375C601.6728515625 -550.5908203125 593.103515625 -546.5234375 581.783203125 -529.73828125C569.8037109375 -511.974609375 565.9482421875 -503.525390625 557.447265625 -476.423828125C523.6708984375 -368.744140625 523.0625 -366.5947265625 520.1640625 -344.56640625C518.236328125 -329.93359375 515.1640625 -316.375 510.8330078125 -303.4033203125C502.7392578125 -279.15625 500.357421875 -263.921875 501.1328125 -241.3466796875C501.65625 -226.140625 502.404296875 -222.2333984375 506.341796875 -214.19140625C511.7216796875 -203.19921875 515.1162109375 -199.7734375 523.8623046875 -196.5166015625ZM338.4345703125 -165.552734375C331.697265625 -162.111328125 327.55859375 -161.35546875 313.5546875 -161.00390625C273.1171875 -159.9921875 261.1435546875 -177.7890625 269.9931640625 -225.744140625C274.716796875 -251.3203125 279.5458984375 -261.7314453125 291.9501953125 -273.068359375C305.447265625 -285.404296875 313.9443359375 -289.76953125 331.5400390625 -293.3984375C369.244140625 -301.177734375 386.658203125 -294.1640625 386.62109375 -271.208984375C386.5966796875 -256.1943359375 375.5947265625 -218.029296875 364.5576171875 -194.66796875C357.3046875 -179.3203125 350.46875 -171.69921875 338.4345703125 -165.552734375ZM271.2783203125 -55.453125C285.3154296875 -52.048828125 313.435546875 -52.53125 328.826171875 -56.4375C368.984375 -66.63671875 438.861328125 -115.4765625 452.587890625 -142.943359375C454.8984375 -147.564453125 462.14453125 -167.220703125 468.693359375 -186.625C482.9150390625 -228.76171875 484.89453125 -240.92578125 483.5615234375 -278.158203125C482.0712890625 -319.8916015625 477.443359375 -335.67578125 457.0888671875 -368.443359375C439.568359375 -396.6484375 428.9013671875 -406.65625 402.982421875 -419.201171875C379.3271484375 -430.650390625 364.0556640625 -436.10546875 355.6474609375 -436.10546875C351.1220703125 -436.10546875 348.5859375 -434.8203125 344.7197265625 -430.568359375C340.888671875 -426.361328125 337.3544921875 -424.552734375 329.978515625 -423.0185546875C310.724609375 -419.01953125 286.4228515625 -403.76171875 262.1318359375 -380.4140625C248.6201171875 -367.4287109375 243.0390625 -358.849609375 223.7958984375 -321.484375C207.0546875 -288.97265625 201.6064453125 -273.369140625 192.5419921875 -231.984375C186.5498046875 -204.607421875 186.32421875 -202.4501953125 187.1513671875 -179.9052734375C188.5634765625 -141.4736328125 193.79296875 -125.2314453125 213.1455078125 -99.197265625C231.236328125 -74.861328125 250.2509765625 -60.552734375 271.2783203125 -55.453125Z"/>
</svg>