<svg xmlns="http://www.w3.org/2000/svg" viewBox="0 -1000 1000 1000">
	<path fill="#d600e3" d="M-20.564453125 5.79296875C-28.7783203125 9.53515625 -38.65625 6.763671875 -41.2294921875 -0.01171875C-44.3876953125 -8.310546875 -43.21875 -42.162109375 -39.2744140625 -56.787109375C-34.63671875 -73.9658203125 -29.7724609375 -79.7421875 -18.9072265625 -80.96875C-9.33984375 -82.0458984375 -6.6259765625 -80.1796875 -4.09375 -70.783203125C-0.80859375 -58.578125 -7.357421875 -11.615234375 -13.8857421875 -0.5615234375C-15.359375 1.9296875 -18.36328125 4.787109375 -20.564453125 5.79296875ZM97.46484375 8.560546875C91.55859375 12.43359375 83.1806640625 13.98828125 77.0048828125 12.365234375C69.9091796875 10.49609375 66.4599609375 2.798828125 63.4150390625 -17.9794921875C60.837890625 -35.55859375 61.958984375 -45.9931640625 68.9619140625 -69.580078125C73.9658203125 -86.4208984375 87.248046875 -94.736328125 100.3837890625 -89.248046875C108.9423828125 -85.671875 112.923828125 -76.908203125 115.23828125 -56.572265625C118.6220703125 -26.818359375 111.4716796875 -0.6162109375 97.46484375 8.560546875ZM-29.4443359375 71.8994140625C-26.2109375 72.224609375 18.8544921875 72.58984375 70.7021484375 72.716796875C139.638671875 72.880859375 174.173828125 72.271484375 199.224609375 70.443359375C218.060546875 69.0693359375 242.1708984375 67.3056640625 252.7978515625 66.529296875C263.4208984375 65.75 283.0771484375 63.5703125 296.4755859375 61.68359375C309.8740234375 59.796875 333.3115234375 57.783203125 348.5556640625 57.212890625C379.880859375 56.033203125 402.7333984375 52.0859375 422.591796875 44.4296875C446.4599609375 35.224609375 460.3232421875 18.681640625 470.5185546875 -12.759765625C477.6591796875 -34.78515625 479.1728515625 -48.8916015625 476.25390625 -66.197265625C472.3955078125 -89.0869140625 452.509765625 -122.029296875 428.953125 -144.556640625C403.4072265625 -168.9921875 385.955078125 -177.642578125 369.5859375 -173.978515625C359.14453125 -171.640625 349.4951171875 -165.392578125 346.0537109375 -158.7421875C342.419921875 -151.71484375 342.90234375 -134.62109375 347.0478515625 -123.427734375C355.4560546875 -100.7216796875 355.9140625 -97.921875 352.9267578125 -87.6484375C350.869140625 -80.56640625 347.8271484375 -75.658203125 340.8037109375 -68.06640625C332.8837890625 -59.5146484375 329.7802734375 -57.4296875 320.873046875 -54.677734375C307.1806640625 -50.4501953125 287.9580078125 -47.8251953125 270.669921875 -47.8251953125C259.6953125 -47.8251953125 255.333984375 -48.6015625 249.3798828125 -51.60546875C239.21484375 -56.736328125 235.44140625 -64.201171875 231.9208984375 -86.150390625C229.244140625 -102.833984375 229.2275390625 -106.138671875 231.6748046875 -132.669921875C234.9423828125 -168.1171875 238.7255859375 -198.2294921875 240.7666015625 -205.041015625C241.6171875 -207.884765625 242.84765625 -215.8251953125 243.494140625 -222.681640625C246.337890625 -252.796875 253.7509765625 -273.17578125 284.6943359375 -335.9462890625C308.7294921875 -384.703125 321.3583984375 -405.8916015625 336.923828125 -423.580078125C348.7744140625 -437.046875 398.84765625 -481.845703125 410.0859375 -489.033203125C419.697265625 -495.1826171875 470.0234375 -519.146484375 484.6455078125 -524.5390625C496.3037109375 -528.83984375 518.6025390625 -532.28515625 525.900390625 -530.91796875C528.958984375 -530.34375 540.9873046875 -529.1982421875 552.6318359375 -528.37109375C570.525390625 -527.1064453125 574.9033203125 -526.224609375 580.9599609375 -522.6767578125C592.3662109375 -515.9912109375 602.2333984375 -494.0615234375 602.2333984375 -475.392578125C602.2333984375 -464.08203125 606.6083984375 -431.1572265625 608.916015625 -425.0869140625C609.9140625 -422.46484375 610.484375 -420.076171875 610.1904296875 -419.7822265625C609.896484375 -419.484375 605.6416015625 -421.1015625 600.736328125 -423.375C595.83203125 -425.6474609375 589.45703125 -427.5068359375 586.5693359375 -427.5068359375C578.396484375 -427.5068359375 559.0751953125 -419.146484375 551.17578125 -412.1943359375C544.0458984375 -405.9189453125 534.787109375 -390.609375 532.6611328125 -381.576171875C531.748046875 -377.7138671875 531.0888671875 -377.1806640625 529.1708984375 -378.76953125C527.8720703125 -379.849609375 525.91015625 -383.5078125 524.8095703125 -386.9013671875C518.75 -405.6318359375 507.8330078125 -419.8125 494.27734375 -426.5703125C480.9912109375 -433.1875 474.671875 -432.421875 452.875 -421.556640625C437.3681640625 -413.82421875 433.068359375 -410.810546875 427.4765625 -403.734375C412.916015625 -385.3154296875 403.0791015625 -357.4794921875 404.4052734375 -338.451171875C406.203125 -312.66015625 426.2353515625 -293.830078125 453.986328125 -291.84375C484.3544921875 -289.669921875 513.359375 -307.998046875 521.5556640625 -334.53515625C523.42578125 -340.587890625 524.953125 -346.7607421875 524.953125 -348.25390625C524.953125 -353.01171875 530.8046875 -345.27734375 534.1923828125 -336.044921875C537.7978515625 -326.21484375 548.154296875 -314.423828125 557.6396484375 -309.34375C563.1865234375 -306.3740234375 567.212890625 -305.7109375 579.5556640625 -305.7451171875C592.3115234375 -305.779296875 596.1669921875 -306.4765625 604.208984375 -310.212890625C631.34765625 -322.82421875 643.970703125 -350.017578125 637.6337890625 -382.22265625C636.505859375 -387.90234375 636.0068359375 -392.9580078125 636.505859375 -393.453125C637.0009765625 -393.953125 639.6708984375 -393.419921875 642.435546875 -392.2744140625C649.7880859375 -389.228515625 662.2978515625 -375.064453125 667.3154296875 -364.103515625C671.40625 -355.1689453125 671.5634765625 -353.8974609375 669.833984375 -343.8076171875C668.8193359375 -337.8876953125 664.8916015625 -326.583984375 661.1015625 -318.685546875C655.66015625 -307.3447265625 651.2578125 -301.294921875 640.1455078125 -289.896484375C625.158203125 -274.515625 622.6318359375 -269.99609375 617.1259765625 -248.69921875C607.1728515625 -210.19921875 606.8310546875 -113.1630859375 616.47265625 -62.9462890625C621.7265625 -35.58203125 629.7822265625 -7.017578125 634.3212890625 0.32421875C645.6044921875 18.5791015625 667.1201171875 26.1328125 691.09375 20.2578125C706.6455078125 16.4462890625 712.8798828125 9.9140625 718.6767578125 -8.6484375C724.5625 -27.501953125 724.9833984375 -33.15234375 723.2060546875 -69.666015625C721.0556640625 -113.7890625 717.7509765625 -146.10546875 712.28515625 -176.34375C707.4013671875 -203.373046875 707.4111328125 -214.8515625 712.330078125 -226.615234375C717.5390625 -239.091796875 728.818359375 -254.8515625 737.3046875 -261.513671875C742.0185546875 -265.21484375 754.794921875 -276.580078125 765.6982421875 -286.771484375C786.2705078125 -305.998046875 789.5078125 -310.623046875 799.552734375 -335.142578125C802.0068359375 -341.1279296875 804.7412109375 -349.775390625 805.626953125 -354.359375C807.076171875 -361.837890625 806.775390625 -363.65234375 802.7109375 -371.9990234375C796.818359375 -384.1015625 775.3642578125 -405.3994140625 756.2578125 -418.111328125C748.2353515625 -423.44921875 738.6513671875 -431.337890625 734.9599609375 -435.6416015625C712.4599609375 -461.87109375 705.0908203125 -471.314453125 703.169921875 -476.39453125C701.98046875 -479.53515625 697.2431640625 -489.748046875 692.642578125 -499.0859375L684.275390625 -516.06640625L686.240234375 -548.6015625C688.4208984375 -584.703125 687.720703125 -594.833984375 681.9853515625 -610.07421875C675.1357421875 -628.2783203125 667.3701171875 -638.48828125 648.2158203125 -654.4873046875C632.677734375 -667.46484375 622.875 -672.6953125 613.9951171875 -672.7421875C606.861328125 -672.783203125 579.0322265625 -665.50390625 571.5302734375 -661.634765625C568.552734375 -660.095703125 558.2138671875 -653.5439453125 548.5576171875 -647.0703125C538.90234375 -640.5966796875 521.1357421875 -630.7666015625 509.0771484375 -625.2265625C497.0185546875 -619.685546875 486.3681640625 -614.5517578125 485.4072265625 -613.81640625C483.390625 -612.275390625 438.974609375 -592.26953125 410.71484375 -580.173828125C387.0654296875 -570.052734375 357.6953125 -555.072265625 330.9150390625 -539.47265625C319.82421875 -533.0126953125 303.951171875 -524.5361328125 295.634765625 -520.6328125C255.8017578125 -501.9501953125 203.7734375 -459.25 182.349609375 -427.6640625C168.2470703125 -406.873046875 163.1953125 -393.4501953125 157.005859375 -360.306640625C155.01953125 -349.6796875 151.537109375 -333.427734375 149.2607421875 -324.185546875C145.72265625 -309.80859375 144.8955078125 -300.966796875 143.5322265625 -262.8671875C141.3173828125 -201.076171875 139.2939453125 -173.80078125 136.4296875 -167.0166015625C130.7177734375 -153.498046875 109.22265625 -133.3125 100.482421875 -133.2607421875C97.861328125 -133.244140625 86.263671875 -134.484375 74.71484375 -136.01953125C63.1650390625 -137.55078125 46.646484375 -139.21875 38.0126953125 -139.724609375C21.88671875 -140.6640625 -19.4951171875 -137.90625 -32.61328125 -135.013671875C-42.5322265625 -132.826171875 -62.03515625 -121.3935546875 -72.0869140625 -111.87109375C-87.6796875 -97.1015625 -103.525390625 -54.4765625 -106.232421875 -20.009765625C-107.111328125 -8.794921875 -104.8623046875 7.265625 -99.9677734375 24.7109375C-97.099609375 34.947265625 -88.076171875 46.4765625 -77.0908203125 53.955078125C-66.7275390625 61.005859375 -40.8505859375 70.75390625 -29.4443359375 71.8994140625Z"/>
</svg>