<svg xmlns="http://www.w3.org/2000/svg" viewBox="0 -1000 1000 1000">
	<path fill="#964ffa" d="M336.5244140625 -475C325.494140625 -469.12109375 312.7763671875 -467.2890625 300.6015625 -469.818359375C296.90625 -470.587890625 282.919921875 -471.66796875 269.521484375 -472.21484375C243.654296875 -473.2734375 223.16015625 -476.705078125 216.4443359375 -481.107421875C204.8056640625 -488.7333984375 211.0673828125 -511.7294921875 230.3447265625 -532.166015625C248.484375 -551.3916015625 274.7578125 -561.8779296875 300.5810546875 -560.1962890625C326.2734375 -558.525390625 337.8193359375 -551.2890625 348.12109375 -530.408203125C352.11328125 -522.322265625 352.6806640625 -519.1806640625 352.6806640625 -505.2109375C352.6806640625 -485.8515625 351.005859375 -482.7177734375 336.5244140625 -475ZM295.921875 -42.5791015625C279.3583984375 -36.95703125 263.0615234375 -40.3642578125 232.7099609375 -55.7998046875C220.86328125 -61.822265625 207.533203125 -69.953125 203.0869140625 -73.8671875C187.203125 -87.8466796875 177.974609375 -107.2060546875 171.248046875 -140.650390625C169.666015625 -148.505859375 165.03125 -167.564453125 160.9462890625 -183.0029296875L153.5224609375 -211.078125L154.4765625 -260.283203125C155.54296875 -315.15234375 156.9716796875 -330.02734375 162.8232421875 -347.240234375C171.9453125 -374.060546875 182.8759765625 -387.736328125 200.5673828125 -394.455078125C210.1552734375 -398.099609375 233.0859375 -398.76171875 253.5634765625 -395.986328125C260.0302734375 -395.1083984375 276.2822265625 -393.634765625 289.6806640625 -392.705078125C303.0791015625 -391.779296875 321.9365234375 -389.73828125 331.5888671875 -388.1767578125C347.0751953125 -385.6640625 349.8544921875 -384.6796875 355.2578125 -379.798828125C367.7099609375 -368.55078125 378.6162109375 -336.130859375 378.8623046875 -309.642578125C378.94140625 -301.240234375 379.59765625 -289.8349609375 380.3251953125 -284.291015625C381.1357421875 -278.080078125 380.7763671875 -265.4990234375 379.392578125 -251.529296875C378.1552734375 -239.0576171875 377.119140625 -219.294921875 377.091796875 -207.615234375C377.037109375 -184.1513671875 374.67578125 -169.005859375 366.099609375 -137.126953125C355.353515625 -97.1845703125 350.076171875 -86.85546875 330.1259765625 -66.720703125C316.962890625 -53.4345703125 306.83203125 -46.28125 295.921875 -42.5791015625ZM250.2685546875 32.263671875C262.9970703125 34.19921875 280.025390625 33.009765625 297.5556640625 28.958984375C322.55859375 23.185546875 339.880859375 14.576171875 365.51171875 -4.806640625C386.8916015625 -20.9775390625 397.7841796875 -35.822265625 418.107421875 -76.4716796875C441.021484375 -122.306640625 448.6748046875 -153.619140625 451.046875 -211.2109375C451.908203125 -232.1875 451.908203125 -251.556640625 451.04296875 -257.408203125C450.22265625 -262.953125 449.091796875 -274.29296875 448.5244140625 -282.609375C447.9599609375 -290.92578125 445.9296875 -309.59375 444.0126953125 -324.09375C440.720703125 -349 440.6728515625 -351.177734375 443.19921875 -363.556640625C446.134765625 -377.947265625 449.7958984375 -384.2529296875 456.6279296875 -386.6865234375C459.7109375 -387.783203125 474.3505859375 -387.048828125 503.4990234375 -384.33203125C531.4306640625 -381.7265625 554.76171875 -380.509765625 571.9228515625 -380.76953125C599.9912109375 -381.193359375 607.0869140625 -383.001953125 622.5908203125 -393.697265625C635.1728515625 -402.375 634.7490234375 -414.7685546875 621.244140625 -433.11328125C610.78515625 -447.3212890625 599.8203125 -453.873046875 572.0732421875 -462.4970703125C538.669921875 -472.876953125 531.146484375 -473.9267578125 505.666015625 -471.75C493.958984375 -470.748046875 475.37890625 -469.931640625 464.376953125 -469.931640625C441.9375 -469.931640625 440.8681640625 -470.4267578125 433.79296875 -484.1640625C428.4951171875 -494.4453125 427.3701171875 -499.5205078125 425.88671875 -519.875C424.259765625 -542.2041015625 421.5361328125 -548.8046875 404.80859375 -571C393.7412109375 -585.6875 384.666015625 -593.490234375 356.3173828125 -612.69921875C339.5625 -624.0546875 336.3466796875 -625.099609375 304.4638671875 -629.515625L278.083984375 -633.169921875L264.20703125 -629.66015625C241.34765625 -623.8798828125 190.9423828125 -593.333984375 173.5556640625 -574.7265625C157.046875 -557.05859375 131.4423828125 -516.78515625 119.2060546875 -489.228515625C97.7890625 -441.01171875 90.7587890625 -421.201171875 81.126953125 -381.9423828125L71.283203125 -341.8359375L71.2861328125 -296.263671875C71.2900390625 -271.197265625 70.4248046875 -242.4072265625 69.369140625 -232.283203125C67.8994140625 -218.232421875 67.9267578125 -208.689453125 69.4716796875 -191.96484375C72.099609375 -163.5478515625 80.3232421875 -122.2314453125 85.6962890625 -110.443359375C88.0205078125 -105.34375 97.734375 -89.453125 107.28125 -75.12890625C116.82421875 -60.806640625 127.40625 -43.994140625 130.7900390625 -37.7666015625C138.603515625 -23.3974609375 152.26171875 -8.611328125 165.98828125 0.330078125C176.6728515625 7.29296875 213.2998046875 22.916015625 230.9462890625 28.0390625C236.06640625 29.5263671875 244.7587890625 31.4267578125 250.2685546875 32.263671875Z"/>
</svg>