<svg xmlns="http://www.w3.org/2000/svg" viewBox="0 -1000 1000 1000">
	<path fill="#03868b" d="M113.6435546875 -269.3388671875C124.3349609375 -266.423828125 129.509765625 -266.1474609375 159.30078125 -266.8916015625C177.7822265625 -267.3564453125 204.240234375 -268.8466796875 218.1005859375 -270.2041015625C271.2666015625 -275.4169921875 331.1875 -277.94921875 406.2626953125 -278.1513671875C470.7666015625 -278.3251953125 483.666015625 -277.9521484375 494.15234375 -275.59765625C511.0302734375 -271.810546875 520.1767578125 -272.1796875 533.94140625 -277.2080078125C540.408203125 -279.5693359375 552.494140625 -283.03515625 560.7998046875 -284.908203125C587.357421875 -290.9033203125 594.736328125 -296.173828125 603.88671875 -315.6806640625C613.7197265625 -336.642578125 618.18359375 -363.2177734375 620.3779296875 -413.8955078125C622.056640625 -452.6962890625 620.7236328125 -462.9091796875 611.7412109375 -479.9345703125C604.9560546875 -492.7998046875 591.0654296875 -507.2197265625 583.953125 -508.7822265625C564.4296875 -513.0712890625 539.0439453125 -486.5302734375 532.3828125 -454.8603515625C525.478515625 -422.0341796875 512.63671875 -399.1982421875 492.7958984375 -384.4599609375C471.880859375 -368.921875 463.216796875 -365.50390625 439.861328125 -363.5732421875C428.7734375 -362.6533203125 410.6279296875 -360.7568359375 399.5400390625 -359.3515625C382.6103515625 -357.205078125 371.8505859375 -357.068359375 332.3427734375 -358.4970703125C306.46875 -359.43359375 281.5205078125 -360.63671875 276.8994140625 -361.169921875C272.2822265625 -361.7060546875 251.490234375 -362.3212890625 230.7021484375 -362.5478515625C196.1982421875 -362.9169921875 192.072265625 -363.2783203125 183.3974609375 -366.6796875C170.9462890625 -371.560546875 163.6142578125 -376.6259765625 158.921875 -383.5888671875C155.572265625 -388.5576171875 155.1005859375 -391.357421875 155.1005859375 -406.2734375C155.1005859375 -415.6318359375 155.9140625 -429.693359375 156.908203125 -437.5244140625C157.9033203125 -445.3544921875 158.767578125 -460.1708984375 158.826171875 -470.44921875C158.958984375 -492.625 156.501953125 -499.3681640625 145.4990234375 -507.0244140625C137.193359375 -512.8076171875 123.7919921875 -514.650390625 113.869140625 -511.3759765625C104.7021484375 -508.3505859375 94.076171875 -496.9248046875 89.5302734375 -485.2041015625C86.060546875 -476.2490234375 85.6435546875 -472.076171875 85.267578125 -442.5205078125C85.0419921875 -424.5009765625 84.0029296875 -401.8232421875 82.9609375 -392.1201171875C79.9873046875 -364.3896484375 77.87109375 -303.884765625 79.6484375 -297.4453125C81.8193359375 -289.5771484375 90.1826171875 -278.5234375 96.3935546875 -275.3134765625C99.2509765625 -273.833984375 107.0166015625 -271.1474609375 113.6435546875 -269.3388671875ZM331.962890625 -88.8369140625C342.8935546875 -85.7607421875 361.15234375 -86.666015625 372.6611328125 -90.8603515625C378.1162109375 -92.845703125 384.4052734375 -97.2177734375 390.591796875 -103.318359375C398.7431640625 -111.3544921875 400.6640625 -114.48828125 403.83984375 -124.9443359375C408.2041015625 -139.3134765625 407.6640625 -155.5830078125 402.431640625 -167.3681640625C393.216796875 -188.1279296875 360.787109375 -202.2998046875 328.1416015625 -199.828125C307.640625 -198.2763671875 301.953125 -196.341796875 292.8447265625 -187.8212890625C281.5107421875 -177.2177734375 276.9951171875 -166.3046875 276.9443359375 -149.3623046875C276.90625 -137.9873046875 277.6240234375 -134.4462890625 281.6064453125 -126.341796875C289.611328125 -110.0341796875 309.6298828125 -95.12890625 331.962890625 -88.8369140625Z"/>
</svg>