<svg xmlns="http://www.w3.org/2000/svg" viewBox="0 -1000 1000 1000">
	<path fill="#3c9202" d="M372.8779296875 -78.7294921875C334.23828125 -72.08203125 302.0234375 -76.8291015625 268.4658203125 -94.12109375C233.6162109375 -112.0830078125 211.26953125 -138.3427734375 202.154296875 -172.05078125C198.3330078125 -186.1708984375 197.0166015625 -213.4287109375 199.470703125 -227.6025390625C201.5146484375 -239.4052734375 214.5986328125 -274.9931640625 223.33203125 -292.5C228.66015625 -303.1845703125 248.228515625 -327.3837890625 261.517578125 -339.7294921875C272.041015625 -349.5048828125 291.4755859375 -359.068359375 303.7802734375 -360.5283203125C310.1650390625 -361.283203125 313.880859375 -362.7490234375 316.4541015625 -365.521484375C319.7529296875 -369.0830078125 321.5166015625 -369.4482421875 335.3525390625 -369.4482421875C363.9609375 -369.4482421875 403.677734375 -360.0556640625 428.0888671875 -347.515625C471.99609375 -324.9599609375 490.931640625 -289.8173828125 490.9482421875 -230.8505859375L490.955078125 -207.3310546875L482.8681640625 -184.6494140625C467.2275390625 -140.783203125 454.2705078125 -118.6044921875 436.1650390625 -104.7060546875C416.3544921875 -89.4970703125 402.583984375 -83.8427734375 372.8779296875 -78.7294921875ZM321.38671875 -3.244140625C340.9169921875 -1.0810546875 378.203125 -2.4580078125 390.2685546875 -5.787109375C419.5166015625 -13.8564453125 444.4267578125 -29.0771484375 480.98828125 -61.2265625C498.724609375 -76.8232421875 520.2099609375 -102.9091796875 525.9072265625 -115.7705078125C534.076171875 -134.2041015625 552.154296875 -194.7978515625 555.4765625 -214.8876953125C567.7294921875 -288.9931640625 563.4365234375 -320.9541015625 536.9443359375 -352.9228515625C509.0703125 -386.548828125 492.8251953125 -399.673828125 466.7080078125 -409.6572265625C425.685546875 -425.3427734375 357.20703125 -430.6298828125 291.4111328125 -423.1923828125C249.9951171875 -418.5107421875 240.951171875 -416.2197265625 229.4091796875 -407.494140625C226.404296875 -405.2216796875 217.658203125 -400.9482421875 209.970703125 -397.9990234375C198.896484375 -393.7509765625 193.74609375 -390.5341796875 185.1904296875 -382.5322265625C162.123046875 -360.9521484375 147.572265625 -331.0302734375 136.7646484375 -282.9296875C129.716796875 -251.5693359375 128.4423828125 -238.3212890625 129.5732421875 -208.2099609375C131.0703125 -168.4716796875 135.2880859375 -147.3349609375 150.8232421875 -101.77734375C155.4921875 -88.078125 160.5537109375 -74.474609375 162.068359375 -71.5458984375C166.62109375 -62.744140625 184.595703125 -45.2958984375 196.2275390625 -38.3876953125C223.3828125 -22.2587890625 271.3779296875 -8.78125 321.38671875 -3.244140625ZM71.95703125 -2.5087890625C87.939453125 4.4228515625 107.44921875 -4.7958984375 115.2451171875 -22.9619140625C120.2490234375 -34.6318359375 121.9033203125 -46.84375 124.056640625 -88.05078125C126.53125 -135.4169921875 125.1640625 -165.3271484375 118.564453125 -208.1005859375L113.2626953125 -242.4716796875L116.08984375 -261.861328125C118.796875 -280.4482421875 136.625 -356.484375 140.7158203125 -366.9052734375C144.76953125 -377.2353515625 161.94140625 -400.630859375 175.904296875 -414.8525390625C189.3232421875 -428.5244140625 192.0576171875 -430.4189453125 214.5 -441.6259765625C255.2421875 -461.9697265625 280.77734375 -468.880859375 326.427734375 -471.916015625C339.361328125 -472.77734375 356.373046875 -474.3359375 364.2275390625 -475.3857421875C372.9775390625 -476.55078125 386.8271484375 -476.8583984375 399.99609375 -476.1748046875C418.6650390625 -475.2080078125 424.8447265625 -474.0654296875 447.0380859375 -467.486328125C487.6533203125 -455.4443359375 511.8974609375 -442.1142578125 526.4677734375 -423.8115234375C535.884765625 -411.9853515625 558.6650390625 -380.0439453125 562.9990234375 -372.58984375C567.55859375 -364.755859375 579.1728515625 -322.5029296875 583.2607421875 -298.8876953125C587.33203125 -275.3623046875 588.1005859375 -243.5986328125 585.1474609375 -220.7470703125C581.3125 -191.068359375 574.9111328125 -155.4052734375 568.43359375 -127.6689453125C562.873046875 -103.8486328125 559.9638671875 -80.0595703125 560.1044921875 -59.490234375C560.1865234375 -47.0595703125 564.568359375 -37.9052734375 574.5146484375 -29.3955078125C588.2001953125 -17.6787109375 600.26171875 -17.5478515625 619.4130859375 -28.9091796875C642.0361328125 -42.3349609375 661.1396484375 -81.5947265625 666.560546875 -125.8056640625C668.8642578125 -144.5908203125 668.8056640625 -235.1630859375 666.478515625 -253.4423828125C659.16015625 -310.9189453125 641.11328125 -388.83203125 628.388671875 -417.8876953125C614.1767578125 -450.341796875 594.6767578125 -479.3232421875 557.892578125 -522.6630859375C507.16015625 -582.4326171875 467.056640625 -599.7548828125 379.2939453125 -599.7998046875C341.740234375 -599.8193359375 326.7900390625 -598.080078125 289.7294921875 -589.384765625C258.9228515625 -582.15234375 220.1767578125 -564.0673828125 187.9150390625 -541.861328125C172.9443359375 -531.5595703125 120.5263671875 -480.87109375 101.693359375 -458.490234375C69.974609375 -420.7900390625 53.728515625 -385.6220703125 47.375 -340.8876953125C45.9970703125 -331.1884765625 42.203125 -306.6162109375 38.94921875 -286.2900390625C33.29296875 -250.9755859375 32.98828125 -246.8974609375 32.16796875 -194.7294921875C31.306640625 -140.1474609375 31.310546875 -140.1162109375 36.5703125 -104.3681640625C39.646484375 -83.4638671875 43.90234375 -61.8798828125 46.8173828125 -52.4111328125C49.55859375 -43.5048828125 52.2724609375 -33.1376953125 52.8505859375 -29.3740234375C54.9013671875 -15.9892578125 61.1591796875 -7.1923828125 71.95703125 -2.5087890625Z"/>
</svg>