<svg xmlns="http://www.w3.org/2000/svg" viewBox="0 -1000 1000 1000">
	<path fill="#ee2304" d="M260.2666015625 -4.154296875C278.5146484375 0.73046875 280.5283203125 0.927734375 303.759765625 0.125C322.7294921875 -0.52734375 333.1376953125 -1.8642578125 350.8017578125 -5.900390625C363.2734375 -8.751953125 379.4443359375 -11.833984375 386.73828125 -12.75390625C406.958984375 -15.3037109375 438.9990234375 -26.494140625 453.69921875 -36.146484375C476.7158203125 -51.2578125 506.7939453125 -81.49609375 525.763671875 -108.607421875C552.6220703125 -146.984375 562.8388671875 -178.59765625 578.609375 -272.140625C584.1943359375 -305.28125 584.81640625 -311.966796875 584.607421875 -336.822265625C584.169921875 -389.123046875 579.033203125 -438.044921875 571.591796875 -460.791015625C564.140625 -483.5654296875 548.1826171875 -516.490234375 538.24609375 -529.587890625C519.8271484375 -553.876953125 481.4736328125 -577.5625 435.90234375 -592.79296875C416.5732421875 -599.25390625 405.509765625 -600.56640625 370.9609375 -600.48046875C337.173828125 -600.3984375 339.81640625 -600.853515625 289.4794921875 -586.4462890625C236.6826171875 -571.3359375 227.8984375 -567.28515625 207.828125 -548.787109375C199.1396484375 -540.779296875 194.75390625 -535.04296875 190.064453125 -525.5517578125C178.921875 -503.009765625 180.67578125 -484.9736328125 195.3115234375 -471.4794921875C203.5966796875 -463.84375 211.994140625 -460.880859375 220.1357421875 -462.7158203125C227.5732421875 -464.39453125 229.9150390625 -465.685546875 259.2412109375 -484.3173828125C308.2822265625 -515.47265625 323.5498046875 -520.564453125 365.08203125 -519.62109375C394.8798828125 -518.9482421875 398.208984375 -517.7998046875 418.83984375 -501.0791015625C455.2958984375 -471.537109375 473.87890625 -441.494140625 484.19140625 -395.419921875C491.84765625 -361.2158203125 489.8408203125 -339.091796875 474.15625 -284.7421875C470.0234375 -270.41796875 464.7978515625 -254.541015625 462.5419921875 -249.4619140625C460.2861328125 -244.37890625 456.4375 -234.9287109375 453.9833984375 -228.4619140625C445.513671875 -206.12890625 423.087890625 -162.888671875 411.740234375 -147.0185546875C390.42578125 -117.197265625 366.5927734375 -96.658203125 345.8388671875 -90.228515625C329.7294921875 -85.2353515625 271.990234375 -87.525390625 250.552734375 -94.005859375C240.7431640625 -96.97265625 224.685546875 -108.2890625 212.19921875 -121.0419921875C200.8623046875 -132.6220703125 189.1279296875 -152.853515625 182.5419921875 -172.181640625C177.6708984375 -186.46875 177.0966796875 -190.1640625 177.048828125 -207.4619140625C176.98046875 -232.474609375 186.4931640625 -283.703125 197.328125 -316.6591796875C206.12890625 -343.4287109375 213.8916015625 -356.0478515625 234.0400390625 -376.3369140625C256.4111328125 -398.865234375 274.4921875 -410.9541015625 296.66796875 -418.216796875C311.3447265625 -423.0263671875 332.0439453125 -418.330078125 341.58984375 -408.0283203125C348.3681640625 -400.716796875 361.8828125 -374.310546875 367.7236328125 -356.9638671875C373.5615234375 -339.630859375 373.83203125 -335.673828125 372.2939453125 -289.7802734375C371.576171875 -268.373046875 371.1865234375 -266.2509765625 365.3515625 -251.98046875C354.2158203125 -224.7294921875 340.0654296875 -210.7568359375 322.31640625 -209.4716796875C314.4443359375 -208.900390625 310.736328125 -209.529296875 304.7001953125 -212.4521484375C284.4384765625 -222.26171875 270.1474609375 -254.892578125 277.1513671875 -275.33984375C279.9775390625 -283.58984375 285.607421875 -287.7841796875 295.669921875 -289.14453125L303.541015625 -290.20703125L306.265625 -280.845703125C308.330078125 -273.736328125 308.6201171875 -269.474609375 307.46875 -263.140625C303.9375 -243.708984375 316.748046875 -235.796875 336.69921875 -245.0869140625C343.53125 -248.26953125 345.9921875 -250.576171875 348.7919921875 -256.41015625C353.6484375 -266.544921875 356.861328125 -297.005859375 354.2265625 -307.984375C350.7060546875 -322.6611328125 331.96875 -342.27734375 317.2646484375 -346.6826171875C305.2705078125 -350.275390625 296.763671875 -349.0888671875 282.171875 -341.78515625C264.2587890625 -332.8193359375 255.5595703125 -323.84765625 246.0576171875 -304.5322265625C230.7900390625 -273.494140625 227.392578125 -244.24609375 235.9169921875 -217.20703125C244.669921875 -189.4287109375 252.736328125 -179.65625 276.880859375 -167.5673828125C289.1552734375 -161.42578125 289.9580078125 -161.26171875 307.9609375 -161.26171875C325.744140625 -161.26171875 326.923828125 -161.490234375 339.2216796875 -167.3623046875C377.888671875 -185.830078125 407.5703125 -236.1865234375 425.7373046875 -314.140625C429.599609375 -330.7109375 430.4228515625 -338.0390625 430.3583984375 -355.298828125C430.283203125 -374.5458984375 429.7431640625 -378.1279296875 423.8876953125 -398.140625C414.3583984375 -430.703125 412.9267578125 -433.40625 397.3505859375 -448.203125C374.0263671875 -470.361328125 357.53125 -475.591796875 315.0498046875 -474.298828125C296.955078125 -473.7490234375 293.345703125 -473.126953125 284.6162109375 -469.0703125C272.2841796875 -463.333984375 256.30859375 -452.591796875 223.9609375 -428.279296875C183.341796875 -397.7578125 160.5302734375 -375.46484375 147.3125 -353.3818359375C140.2578125 -341.5966796875 126.5693359375 -305.4892578125 124.8154296875 -294.0390625C124.2451171875 -290.310546875 121.951171875 -280.8359375 119.72265625 -272.98046875C116.27734375 -260.84765625 115.6279296875 -254.66015625 115.4091796875 -231.822265625C115.169921875 -206.501953125 115.5595703125 -202.8955078125 122.146484375 -169.7109375C133.5244140625 -112.3603515625 137.6435546875 -99.693359375 153.833984375 -72.2197265625C171.16015625 -42.822265625 210.9892578125 -17.3515625 260.2666015625 -4.154296875Z"/>
</svg>