<svg xmlns="http://www.w3.org/2000/svg" viewBox="0 -1000 1000 1000">
	<path fill="#3c9202" d="M339.6845703125 -383.8173828125C327.5439453125 -380.0302734375 326.3779296875 -380.0302734375 315.423828125 -383.8173828125C304.099609375 -387.73046875 290.537109375 -398.3193359375 277.740234375 -413.2392578125C265.33984375 -427.6962890625 261.2041015625 -436.0361328125 261.15625 -446.697265625C261.091796875 -460.9404296875 267.681640625 -472.291015625 277.0400390625 -474.0439453125C285.1162109375 -475.55859375 292.3349609375 -471.67578125 307.736328125 -457.5361328125C326.275390625 -440.5068359375 331.8193359375 -439.5400390625 352.1875 -449.7763671875C370.77734375 -459.1220703125 377.5791015625 -467.4921875 385.41015625 -490.65234375C388.08984375 -498.5791015625 391.8974609375 -507.33203125 393.873046875 -510.107421875C398.8798828125 -517.1416015625 405.958984375 -520.5595703125 411.2978515625 -518.5322265625C429.8330078125 -511.4853515625 422.70703125 -474.5849609375 394.7578125 -432.888671875C374.9716796875 -403.3681640625 360.181640625 -390.1884765625 339.6845703125 -383.8173828125ZM319.0810546875 -295.6669921875C327.4619140625 -292.6083984375 337.568359375 -290.1162109375 341.7587890625 -290.0791015625C354.248046875 -289.9599609375 370.298828125 -293.2333984375 380.197265625 -297.9169921875C390.6494140625 -302.8583984375 413.1162109375 -323.5615234375 429.935546875 -343.7412109375C464.392578125 -385.0888671875 507.732421875 -473.9619140625 514.9921875 -518.1669921875C516.697265625 -528.5478515625 516.560546875 -533.6708984375 514.1240234375 -550.9287109375C507.3837890625 -598.6533203125 498.8525390625 -614.4208984375 472.6875 -627.5146484375C453.150390625 -637.2939453125 443.908203125 -638.759765625 423.2880859375 -635.341796875C403.853515625 -632.1220703125 392.6904296875 -627.494140625 379.1240234375 -617.0419921875C364.48828125 -605.76953125 355.44140625 -595.1669921875 341.888671875 -573.4189453125C328.5654296875 -552.0361328125 325.2607421875 -548.7099609375 317.447265625 -548.7099609375C311.3046875 -548.7197265625 306.6943359375 -551.5947265625 292.578125 -564.220703125C279.353515625 -576.0439453125 272.7265625 -578.9423828125 258.9208984375 -578.9423828125C245.8505859375 -578.9423828125 234.345703125 -575.6611328125 226.5458984375 -569.7138671875C216.61328125 -562.1357421875 203.0986328125 -542.2978515625 195.64453125 -524.3427734375C185.7080078125 -500.4169921875 183.900390625 -491.0869140625 183.8662109375 -463.8076171875C183.841796875 -441.7412109375 184.224609375 -438.9013671875 189.8505859375 -419.3564453125C193.5048828125 -406.6689453125 198.40625 -394.1259765625 202.3466796875 -387.375C227.126953125 -344.9443359375 264.478515625 -315.6005859375 319.0810546875 -295.6669921875ZM334.427734375 -57.1171875C325.455078125 -51.9833984375 321.91796875 -52.0859375 313.62890625 -57.7216796875C300.1318359375 -66.8955078125 289.935546875 -82.232421875 285.2939453125 -100.34765625C280.9638671875 -117.2529296875 284.9765625 -129.099609375 297.2333984375 -135.6005859375C308.6494140625 -141.6572265625 316.626953125 -139.4521484375 339.4140625 -123.9453125C347.1181640625 -118.7021484375 348.345703125 -118.3916015625 358.7568359375 -119.0849609375C367.869140625 -119.6904296875 372.189453125 -121.0986328125 382.6923828125 -126.8955078125C396.6005859375 -134.5751953125 401.4912109375 -134.787109375 403.248046875 -127.7939453125C404.8310546875 -121.4814453125 398.025390625 -109.5556640625 385.9462890625 -97.4736328125C374.5 -86.0302734375 346.1474609375 -63.8193359375 334.427734375 -57.1171875ZM308.16015625 36.1630859375C310.470703125 36.9287109375 319.1015625 37.232421875 327.341796875 36.8388671875C352.8193359375 35.6162109375 364.994140625 27.3095703125 394.0439453125 -8.650390625C405.6064453125 -22.9619140625 438.56640625 -69.654296875 447.818359375 -84.8271484375C465.400390625 -113.6611328125 482.3193359375 -154.5908203125 486.349609375 -178.044921875C490.5947265625 -202.72265625 485.0439453125 -226.5009765625 472.6025390625 -236.970703125C460.833984375 -246.8720703125 426.658203125 -250.287109375 411.71484375 -243.0546875C402.9677734375 -238.8232421875 377.5517578125 -215.73828125 373.689453125 -208.5224609375C370.083984375 -201.7822265625 359.51171875 -197.048828125 348.2841796875 -197.14453125C331.3583984375 -197.2880859375 317.7509765625 -205.89453125 304.0009765625 -225.1474609375C294.8818359375 -237.9140625 290.4658203125 -242.083984375 282.5703125 -245.3818359375C273.3896484375 -249.2177734375 264.888671875 -248.5712890625 253.462890625 -243.1640625C234.4521484375 -234.1708984375 226.912109375 -221.0947265625 220.619140625 -186.193359375C217.62890625 -169.609375 217.2119140625 -162.390625 217.9736328125 -140.4609375C219.337890625 -101.318359375 226.5322265625 -73.044921875 243.8310546875 -38.8310546875C266.4169921875 5.841796875 286.15234375 28.8447265625 308.16015625 36.1630859375Z"/>
</svg>