<svg xmlns="http://www.w3.org/2000/svg" viewBox="0 -1000 1000 1000">
	<path fill="#3c9202" d="M298.642578125 -269.482421875C302.453125 -266.6962890625 320.9892578125 -266.3759765625 330.2109375 -268.935546875C342.7890625 -272.4287109375 353.0771484375 -285.3486328125 369.6748046875 -318.49609375C374.275390625 -327.6806640625 379.9931640625 -340.6416015625 382.3857421875 -347.2998046875C388.025390625 -362.9873046875 393.220703125 -395.6982421875 395.271484375 -428.4345703125C396.1708984375 -442.7568359375 397.63671875 -463.7353515625 398.5322265625 -475.0498046875C402.0048828125 -519.0380859375 400.2587890625 -544.9404296875 392.85546875 -559.2607421875C388.0361328125 -568.5791015625 376.6064453125 -581.337890625 370.1083984375 -584.6533203125C358.521484375 -590.5634765625 348.7841796875 -588.228515625 336.03125 -576.470703125C323.2685546875 -564.7060546875 317.1884765625 -548.115234375 306.41796875 -495.6357421875C294.349609375 -436.8505859375 292.640625 -414.5380859375 294.185546875 -336.2626953125C295.3818359375 -275.7607421875 295.6552734375 -271.6669921875 298.642578125 -269.482421875ZM223.73046875 -221.6923828125C230.9462890625 -217.7724609375 240.970703125 -218.3193359375 246.0537109375 -222.9130859375C250.9443359375 -227.3349609375 255.326171875 -236.6494140625 256.638671875 -245.4091796875C258.0537109375 -254.8330078125 252.810546875 -278.7548828125 244.880859375 -299.0751953125C241.818359375 -306.9296875 236.9443359375 -324.6962890625 234.052734375 -338.5556640625C231.1611328125 -352.416015625 227.736328125 -367.9130859375 226.4443359375 -372.9951171875C225.1494140625 -378.078125 222.896484375 -390.9091796875 221.43359375 -401.51171875C219.8271484375 -413.1533203125 216.2109375 -428.4560546875 212.2978515625 -440.1513671875C208.736328125 -450.8017578125 203.8037109375 -465.9404296875 201.3427734375 -473.794921875C196.0517578125 -490.6591796875 186.693359375 -507.072265625 176.5830078125 -517.2236328125C166.53125 -527.3173828125 161.2060546875 -529.7744140625 151.4267578125 -528.8349609375C136.5283203125 -527.40234375 124.568359375 -515.6552734375 116.095703125 -494.1318359375C113.09765625 -486.5166015625 112.2607421875 -480.3544921875 111.7138671875 -461.8935546875C110.7392578125 -429.1015625 115.873046875 -402.4658203125 129.1728515625 -371.3173828125C134.5009765625 -358.841796875 140.4892578125 -345.990234375 142.4853515625 -342.7568359375C144.4814453125 -339.5234375 153.5322265625 -323.267578125 162.6005859375 -306.6357421875C189.90625 -256.5458984375 209.375 -229.4951171875 223.73046875 -221.6923828125ZM408.3525390625 -215.1708984375C415.79296875 -210.8330078125 433.515625 -216.2919921875 449.0771484375 -227.71484375C466.912109375 -240.8056640625 507.056640625 -289.1591796875 533.4296875 -329.3173828125C567.6806640625 -381.4619140625 581.6396484375 -406.3037109375 585.916015625 -422.7138671875C588.8349609375 -433.927734375 589.2890625 -461.5107421875 586.708984375 -470.8076171875C581.5166015625 -489.50390625 558.8076171875 -484.6533203125 527.9267578125 -458.2529296875C511.55078125 -444.2568359375 500.982421875 -431.4912109375 480.9912109375 -401.5556640625C459.1259765625 -368.8193359375 452.1640625 -356.5478515625 444.2412109375 -336.7822265625C440.5595703125 -327.5947265625 433.2626953125 -311.00390625 428.029296875 -299.916015625C422.1572265625 -287.4814453125 416.6201171875 -272.353515625 413.5751953125 -260.4345703125C410.857421875 -249.80859375 407.4599609375 -238.1259765625 406.0283203125 -234.4755859375C402.9892578125 -226.7412109375 404.0830078125 -217.6630859375 408.3525390625 -215.1708984375ZM284.3828125 -14.3759765625C289.87890625 -12.8779296875 299.0732421875 -12.0205078125 307.064453125 -12.2626953125C324.400390625 -12.7861328125 338.642578125 -19.1298828125 351.265625 -31.9541015625C367.5556640625 -48.50390625 375.205078125 -71.6533203125 375.693359375 -105.8740234375C375.9296875 -122.482421875 375.62890625 -124.177734375 370.5908203125 -134.814453125C364.404296875 -147.8740234375 360.3056640625 -150.9951171875 341.50390625 -156.9765625C317.7626953125 -164.5234375 312.95703125 -164.3974609375 286.3515625 -155.5302734375C250.14453125 -143.4658203125 238.4619140625 -133.2939453125 228.73828125 -105.3583984375C222.69140625 -87.9853515625 222.3056640625 -73.3251953125 227.53125 -59.318359375C234.5966796875 -40.3720703125 258.59765625 -21.3994140625 284.3828125 -14.3759765625Z"/>
</svg>