<svg xmlns="http://www.w3.org/2000/svg" viewBox="0 -1000 1000 1000">
	<path fill="#03868b" d="M156.58203125 -198.4404296875C170.240234375 -195.416015625 210.75 -195.375 224.88671875 -198.369140625C236.5556640625 -200.84375 267.4677734375 -212.2978515625 287.5859375 -221.6005859375C301.5283203125 -228.0478515625 337.583984375 -251.9326171875 369.224609375 -275.6806640625C381.7685546875 -285.0927734375 396.2431640625 -295.2041015625 401.39453125 -298.1533203125C415.1142578125 -306.0009765625 433.4375 -310.1806640625 454.1298828125 -310.1806640625C475.591796875 -310.1806640625 485.736328125 -308.1376953125 501.82421875 -300.5693359375C512.7822265625 -295.412109375 517.3798828125 -291.6455078125 537.1044921875 -271.6669921875C573.1572265625 -235.146484375 584.3681640625 -228.3173828125 605.498046875 -229.9951171875C619.1328125 -231.0791015625 627.25 -235.9287109375 642.771484375 -252.2705078125C656.3232421875 -266.537109375 658.216796875 -270.16015625 661.447265625 -287.9775390625C665.7197265625 -311.5615234375 658.0732421875 -333.5048828125 638.8955078125 -352.68359375C619.744140625 -371.8310546875 598.1904296875 -384.1533203125 561.46484375 -396.939453125C543.1611328125 -403.3134765625 542.7099609375 -403.37890625 514.4228515625 -403.7958984375C485.2744140625 -404.2236328125 447.46484375 -402.1484375 427.9384765625 -399.044921875C414.7958984375 -396.9560546875 366.103515625 -379.234375 337.1845703125 -366.013671875C315.4697265625 -356.087890625 272.0751953125 -330.794921875 256.212890625 -318.818359375C239.0849609375 -305.8876953125 217.904296875 -298.9873046875 200.359375 -300.6279296875C180.7373046875 -302.4599609375 166.7333984375 -306.7021484375 151.3154296875 -315.4892578125C133.056640625 -325.8935546875 130.5478515625 -328.12890625 120.478515625 -342.9794921875C102.3291015625 -369.7431640625 88.5166015625 -374.7470703125 66.1943359375 -362.6435546875C55.919921875 -357.0751953125 47.3505859375 -347.583984375 41.7587890625 -335.5830078125C32.9033203125 -316.5830078125 37.5888671875 -292.7158203125 55.4140625 -266.072265625C70.0087890625 -244.2490234375 87.880859375 -226.8720703125 104.642578125 -218.2041015625C120.833984375 -209.8330078125 142.677734375 -201.5205078125 156.58203125 -198.4404296875Z"/>
</svg>