<svg xmlns="http://www.w3.org/2000/svg" viewBox="0 -1000 1000 1000">
	<path fill="#d600e3" d="M413.994140625 -394.123046875C404.888671875 -391.59375 383.7861328125 -392.212890625 374.5849609375 -395.2822265625C363.77734375 -398.884765625 352.5185546875 -409.0634765625 348.9228515625 -418.4833984375C346.6875 -424.328125 346.2392578125 -429.2294921875 346.9228515625 -440.205078125C348 -457.4619140625 351.158203125 -464.578125 364.94921875 -480.84375C373.220703125 -490.595703125 376.423828125 -493.134765625 382.6611328125 -494.8818359375C392.0537109375 -497.509765625 405.88671875 -496.259765625 415.767578125 -491.8876953125C434.45703125 -483.623046875 442.099609375 -470.037109375 443.53515625 -442.51171875C444.287109375 -428.15234375 443.9560546875 -425.3876953125 440.6748046875 -418.609375C436.083984375 -409.125 422.2314453125 -396.41015625 413.994140625 -394.123046875ZM254.94921875 -33.6640625C259.580078125 -32.3349609375 268.416015625 -31.4462890625 274.63671875 -31.6923828125C288.0830078125 -32.22265625 293.41796875 -35.41796875 299.1875 -46.41015625C302.7216796875 -53.1435546875 303.01953125 -55.4296875 302.25390625 -69.833984375C301.6962890625 -80.29296875 299.013671875 -95.6357421875 294.470703125 -114.3525390625C290.65625 -130.0615234375 286.4833984375 -150.849609375 285.19140625 -160.552734375C282.880859375 -177.9404296875 281.76953125 -184.6328125 273.1904296875 -232.7919921875C267.16796875 -266.61328125 267.978515625 -290.6513671875 275.8837890625 -312.591796875C288.5849609375 -347.84375 297.328125 -360.6513671875 310.361328125 -363.0986328125C317.1318359375 -364.3671875 321.0078125 -362.34375 331.7509765625 -351.91796875C340.53515625 -343.390625 362.0546875 -332.822265625 379.5 -328.46484375L393.16796875 -325.0498046875L411.765625 -331.0625C445.6923828125 -342.02734375 463.359375 -352.974609375 482.6845703125 -374.99609375C494.0322265625 -387.9267578125 496.9140625 -393.904296875 502.21484375 -415.49609375C505.9033203125 -430.5283203125 506.5830078125 -436.7900390625 506.26171875 -452.87109375C506.046875 -463.498046875 504.7275390625 -477.86328125 503.3291015625 -484.7919921875C498.4140625 -509.1142578125 481.7890625 -533.1494140625 462.939453125 -543.173828125C445.818359375 -552.279296875 410.3125 -565.75390625 398.8046875 -567.513671875C388.6396484375 -569.0654296875 385.935546875 -568.7578125 367.7626953125 -563.982421875C324.8427734375 -552.70703125 300.3564453125 -539.3974609375 276.5263671875 -514.380859375C252.935546875 -489.615234375 236.70703125 -463.9765625 226.958984375 -436.072265625C221.2275390625 -419.666015625 203.9423828125 -356.109375 201.2939453125 -341.7021484375C196.5703125 -316.0126953125 193.630859375 -286.02734375 193.66796875 -263.9228515625C193.740234375 -221.044921875 200.91796875 -144.32421875 207.138671875 -119.9609375C210.9150390625 -105.171875 226.1044921875 -61.931640625 230.7255859375 -52.8046875C233.69921875 -46.9365234375 243.078125 -36.3134765625 245.419921875 -36.16015625C246.0419921875 -36.119140625 250.3310546875 -34.998046875 254.94921875 -33.6640625Z"/>
</svg>