<svg xmlns="http://www.w3.org/2000/svg" viewBox="0 -1000 1000 1000">
	<path fill="#854e28" d="M326.37109375 -58.15625C338.12890625 -53.966796875 341.775390625 -53.3984375 352.6279296875 -54.072265625C365.4345703125 -54.865234375 388.4619140625 -61.2294921875 400.3251953125 -67.2587890625C416.6630859375 -75.5576171875 431.1826171875 -94.517578125 439.314453125 -118.166015625C443.1494140625 -129.3125 443.9560546875 -134.5791015625 444.05859375 -149.228515625C444.2119140625 -170.533203125 441.1806640625 -180.7734375 431.435546875 -191.83984375C414.6572265625 -210.90234375 379.9267578125 -216.083984375 346.35546875 -204.53515625C341.1982421875 -202.7607421875 335.0185546875 -201.30078125 332.6220703125 -201.30078125C318.6220703125 -201.2705078125 298.3984375 -189.095703125 289.662109375 -175.44140625C280.8779296875 -161.7041015625 275.3642578125 -143.455078125 274.1923828125 -124.2158203125L273.1943359375 -107.8095703125L280.3447265625 -94.06640625C289.8603515625 -75.7763671875 300.7392578125 -67.2890625 326.37109375 -58.15625ZM343.8115234375 -399.1982421875C380.27734375 -392.8447265625 407.8125 -399.4130859375 425.0458984375 -418.5810546875C434.390625 -428.9716796875 442.4814453125 -445.2275390625 444.9697265625 -458.6025390625C446.5419921875 -467.0615234375 446.31640625 -469.8916015625 443.25 -479.96484375C437.40234375 -499.2041015625 420.94140625 -523.3017578125 407.6318359375 -532.109375C399.828125 -537.2705078125 373.8486328125 -546.1669921875 366.6435546875 -546.1669921875C363.7861328125 -546.1611328125 359.181640625 -544.6533203125 356.41015625 -542.8173828125C353.0908203125 -540.6201171875 348.50390625 -539.4892578125 342.970703125 -539.451171875C330.2490234375 -539.41015625 318.439453125 -533.0693359375 304.2822265625 -518.6806640625C296.2470703125 -510.5146484375 290.3134765625 -502.55078125 286.515625 -494.8330078125C281.23828125 -484.12109375 280.8115234375 -482.04296875 280.8115234375 -467.2529296875C280.8115234375 -453.27734375 281.3994140625 -449.9990234375 285.4765625 -441.2939453125C297.09765625 -416.4833984375 313.8017578125 -404.427734375 343.8115234375 -399.1982421875Z"/>
</svg>