<svg xmlns="http://www.w3.org/2000/svg" viewBox="0 -1000 1000 1000">
	<path fill="#854e28" d="M601.8310546875 -508.552734375C593.142578125 -523.6455078125 570.3369140625 -542.9130859375 547.64453125 -554.328125C534.8427734375 -560.7685546875 495.689453125 -574.384765625 473.2578125 -580.1923828125C447.94921875 -586.751953125 402.3916015625 -588.6904296875 362.826171875 -584.900390625C313.6142578125 -580.1826171875 300.8291015625 -574.6865234375 294.7939453125 -555.64453125C290.04296875 -540.66015625 291.3349609375 -536.3798828125 304.5048828125 -523.4033203125C321.7275390625 -506.431640625 339.083984375 -497.298828125 378.7158203125 -484.33984375C433.728515625 -466.353515625 443.3232421875 -456.4775390625 427.8203125 -433.8076171875C422.7919921875 -426.4580078125 416.66796875 -420.7060546875 391.359375 -399.560546875C353.1298828125 -367.6240234375 298.439453125 -324.2587890625 276.7353515625 -308.669921875C267.609375 -302.115234375 251.29296875 -289.02734375 240.478515625 -279.58984375C229.662109375 -270.1513671875 211.9326171875 -255.2744140625 201.078125 -246.52734375C171.90625 -223.0205078125 120.6298828125 -171.822265625 110.4501953125 -156.0400390625C94.69921875 -131.6171875 89.875 -113.287109375 94.99609375 -97.3388671875C97.3818359375 -89.912109375 99.43359375 -86.859375 107.0625 -79.400390625C123.283203125 -63.5361328125 140.017578125 -61.45703125 165.1484375 -72.1884765625C182.6171875 -79.646484375 196.203125 -91.9853515625 264.13671875 -162.083984375C297.578125 -196.5947265625 330.0927734375 -229.8291015625 336.3935546875 -235.9453125C420.9501953125 -318.013671875 463.7255859375 -358.0537109375 472.328125 -363.1845703125C498.9619140625 -379.078125 520.71875 -377.197265625 525.2216796875 -358.619140625C528.4814453125 -345.173828125 521.791015625 -307.5283203125 507.5576171875 -259.193359375C502.53125 -242.1259765625 501.0400390625 -218.9208984375 504.1943359375 -206.83984375C510.74609375 -181.740234375 535.5068359375 -173.453125 555.91015625 -189.5341796875C564.7060546875 -196.46875 577.55859375 -217.7568359375 581.2099609375 -231.4384765625C582.7265625 -237.111328125 585.6982421875 -248.2958984375 587.8212890625 -256.30078125C589.9453125 -264.302734375 592.7998046875 -279.009765625 594.169921875 -288.984375C595.5380859375 -298.9560546875 597.30078125 -309.1455078125 598.0888671875 -311.625C606.7978515625 -339.064453125 616.57421875 -404.82421875 617.564453125 -442.6337890625C618.1181640625 -463.6826171875 611.3583984375 -492.0009765625 601.8310546875 -508.552734375Z"/>
</svg>