<svg xmlns="http://www.w3.org/2000/svg" viewBox="0 -1000 1000 1000">
	<path fill="#964ffa" d="M419.0126953125 -249.2734375C401.2080078125 -246.529296875 377.01953125 -244.62109375 372.8115234375 -245.6298828125C371.427734375 -245.9609375 351.015625 -247.0654296875 327.4521484375 -248.080078125C274.203125 -250.3740234375 254.8955078125 -252.14453125 236.55078125 -256.423828125C195.62109375 -265.966796875 183.48046875 -277.5673828125 184.90234375 -305.765625C185.404296875 -315.6982421875 186.416015625 -319.537109375 189.9296875 -324.8447265625C195.3916015625 -333.099609375 208.810546875 -340.509765625 228.7783203125 -346.2958984375C258.794921875 -354.994140625 269.6337890625 -356.21484375 321.5732421875 -356.7412109375C372.6474609375 -357.2607421875 391.7607421875 -356 418.171875 -350.359375C498.7431640625 -333.16015625 522.6142578125 -301.12109375 478.1328125 -269.880859375C464.2490234375 -260.1328125 444.271484375 -253.166015625 419.0126953125 -249.2734375ZM316.138671875 -154.1787109375C322.82421875 -153.498046875 330.9384765625 -153.1806640625 334.171875 -153.498046875C358.603515625 -155.8671875 371.90234375 -157.900390625 382.046875 -160.806640625C388.5107421875 -162.662109375 396.6005859375 -164.17578125 400.0185546875 -164.17578125C420.328125 -164.17578125 529.443359375 -197.265625 560.5576171875 -212.861328125C581.865234375 -223.54296875 588.359375 -229.3466796875 602.892578125 -250.6953125C624.8017578125 -282.8828125 629.7783203125 -299.869140625 625.041015625 -326.296875C622.48046875 -340.5703125 598.9208984375 -387.646484375 588.578125 -399.1484375C579.1884765625 -409.58984375 563.2880859375 -421.251953125 550.3818359375 -427.162109375C535.828125 -433.8232421875 490.9267578125 -442.802734375 462 -444.8359375C423.74609375 -447.5224609375 315.8310546875 -447.0986328125 287.1337890625 -444.1455078125C281.125 -443.5302734375 258.826171875 -441.5068359375 237.5732421875 -439.650390625C211.48046875 -437.375 195.931640625 -435.2421875 189.6904296875 -433.07421875C184.611328125 -431.314453125 172.1669921875 -427.50390625 162.04296875 -424.611328125C135.0576171875 -416.904296875 117.7216796875 -407.87109375 104.234375 -394.486328125C91.3896484375 -381.740234375 84.4169921875 -369.5107421875 77.810546875 -348.138671875C71.7880859375 -328.662109375 71.818359375 -314.15625 77.9267578125 -291.017578125C84.833984375 -264.8525390625 91.669921875 -252.349609375 108.927734375 -234.3125C129.5341796875 -212.7734375 151.1357421875 -200.392578125 198.091796875 -183.20703125C224.232421875 -173.640625 294.19140625 -156.4375 316.138671875 -154.1787109375Z"/>
</svg>