<svg xmlns="http://www.w3.org/2000/svg" viewBox="0 -1000 1000 1000">
	<path fill="#d600e3" d="M540.1611328125 -231.552734375C502.6044921875 -218.9267578125 460.5498046875 -226.6484375 423.9189453125 -252.8984375C418.375 -256.869140625 407.46875 -266.5703125 399.685546875 -274.451171875L385.5283203125 -288.779296875L388.765625 -295.9951171875C399.990234375 -321.025390625 421.7353515625 -343.2041015625 462.7060546875 -371.4091796875C486.341796875 -387.6787109375 506.353515625 -397.57421875 523.6796875 -401.55859375C541.083984375 -405.5615234375 567.15625 -400.3798828125 590.2275390625 -388.33203125C615.3291015625 -375.2236328125 622.00390625 -363.2060546875 622.103515625 -330.95703125C622.14453125 -318.017578125 621.3203125 -310.8564453125 619.0166015625 -304.078125C613.462890625 -287.75390625 602.712890625 -267.3935546875 595.9970703125 -260.47265625C588.2109375 -252.447265625 562.134765625 -238.9423828125 540.1611328125 -231.552734375ZM212.6748046875 -218.404296875C195.7119140625 -216.203125 163.34375 -216.599609375 154.279296875 -219.12109375C135.7880859375 -224.265625 117.228515625 -239.123046875 109.4150390625 -255.037109375C105.0810546875 -263.859375 104.7255859375 -266.091796875 104.7900390625 -283.916015625C104.8720703125 -305.5078125 107.521484375 -317.712890625 116.0419921875 -335.74609375C122.6630859375 -349.759765625 133.2548828125 -360.3212890625 148.888671875 -368.490234375C164.1943359375 -376.4921875 175.29296875 -377.978515625 188.0556640625 -373.740234375C204.7109375 -368.20703125 229.59765625 -356.650390625 237.755859375 -350.658203125C247.4599609375 -343.53515625 269.205078125 -317.689453125 281.9609375 -298.12109375C307.099609375 -259.548828125 308.4638671875 -256.3740234375 300.568359375 -254.794921875C297.7314453125 -254.2275390625 291.4765625 -250.65625 286.6708984375 -246.85546875C281.865234375 -243.0576171875 273.7373046875 -237.8486328125 268.6064453125 -235.28125C255.84765625 -228.8935546875 227.4443359375 -220.32421875 212.6748046875 -218.404296875ZM126.5595703125 -141.69140625C158.8525390625 -134.892578125 161.0087890625 -134.6533203125 181.9990234375 -135.5390625C201.4501953125 -136.35546875 206.13671875 -137.193359375 224.83984375 -143.19140625C256.4248046875 -153.318359375 292.3408203125 -171.392578125 305.2265625 -183.646484375C308.3232421875 -186.58984375 314.2265625 -193.34375 318.3447265625 -198.658203125C322.4638671875 -203.9697265625 327.0576171875 -208.3173828125 328.5478515625 -208.3173828125C330.0380859375 -208.3173828125 336.6103515625 -202.509765625 343.1494140625 -195.4111328125C362.4541015625 -174.455078125 388.4580078125 -159.939453125 417.72265625 -153.783203125C441.1630859375 -148.8515625 480.736328125 -145.314453125 510.4384765625 -145.4951171875C536.541015625 -145.65625 541.72265625 -146.171875 556.638671875 -150.123046875C566.076171875 -152.62109375 581.7919921875 -158.6611328125 592.4970703125 -163.904296875C608.6875 -171.833984375 613.4931640625 -175.1796875 624.4716796875 -186.158203125C639.166015625 -200.845703125 651.5009765625 -218.158203125 661.21484375 -237.71875C666.205078125 -247.767578125 669.23046875 -257.51171875 673.1982421875 -276.35546875C682.1669921875 -318.916015625 682.4853515625 -324.55859375 677.552734375 -353.6357421875C669.6298828125 -400.345703125 663.173828125 -416.8408203125 646.298828125 -433.5C629.4248046875 -450.15234375 614.59765625 -456.1171875 575.1201171875 -462.12890625C546.125 -466.544921875 535.0751953125 -465.84375 506.955078125 -457.794921875C481.146484375 -450.4052734375 470.1708984375 -445.234375 434.0703125 -423.4443359375C400.345703125 -403.08984375 400.888671875 -403.490234375 383.1083984375 -385.912109375C372.90625 -375.8251953125 367.54296875 -368.876953125 363.0693359375 -359.9453125C359.708984375 -353.2392578125 355.2724609375 -346.646484375 353.2119140625 -345.2958984375C349.7353515625 -343.015625 349.25390625 -343.166015625 346.515625 -347.3984375C338.69921875 -359.4873046875 300.9375 -405.609375 292.361328125 -413.5458984375C281.0244140625 -424.0390625 269.5908203125 -430.4169921875 244.158203125 -440.435546875L225.6806640625 -447.71484375L196.279296875 -447.6572265625C164.328125 -447.591796875 155.00390625 -446.142578125 125.158203125 -436.5966796875C105.8330078125 -430.4169921875 94.078125 -423.05859375 75.3037109375 -405.3974609375C58.53125 -389.6201171875 47.880859375 -373.8017578125 37.5146484375 -349.2744140625C20.7353515625 -309.57421875 19.2626953125 -303.9794921875 19.2626953125 -280.556640625C19.2900390625 -236.40234375 34.0625 -189.97265625 53.7021484375 -172.31640625C58.1796875 -168.2890625 68.84375 -161.34375 77.40234375 -156.876953125C91.2548828125 -149.6484375 96.638671875 -147.986328125 126.5595703125 -141.69140625Z"/>
</svg>