<svg xmlns="http://www.w3.org/2000/svg" viewBox="0 -1000 1000 1000">
	<path fill="#d600e3" d="M551.59765625 -254.337890625C557.572265625 -251.2373046875 563.4306640625 -251.0537109375 576.9111328125 -253.5419921875C592.3671875 -256.3916015625 604.0224609375 -262.91015625 617.55078125 -276.267578125C642.0615234375 -300.4697265625 647.4208984375 -328.8427734375 633.05859375 -358.380859375C627.244140625 -370.3369140625 621.3583984375 -374.7900390625 606.2548828125 -378.6591796875C592.4970703125 -382.18359375 582.1787109375 -381.0419921875 568.6533203125 -374.5068359375C562.9697265625 -371.7587890625 556.0517578125 -368.9765625 553.279296875 -368.3271484375C517.3466796875 -359.8984375 505.796875 -313.4619140625 530.314453125 -275.9912109375C537.62890625 -264.810546875 544.095703125 -258.234375 551.59765625 -254.337890625ZM163.384765625 -176.1318359375C176.3935546875 -175.3662109375 191.197265625 -175.0478515625 196.279296875 -175.4033203125C201.3623046875 -175.7548828125 220.6396484375 -176.8759765625 239.1201171875 -177.8916015625C257.59765625 -178.9072265625 284.2822265625 -181.5654296875 298.412109375 -183.7978515625C312.544921875 -186.033203125 327.751953125 -187.8623046875 332.208984375 -187.8623046875C336.666015625 -187.8623046875 356.4765625 -190.0693359375 376.2353515625 -192.7705078125C395.9951171875 -195.4736328125 416.6943359375 -198.1572265625 422.23828125 -198.7412109375C439.7587890625 -200.580078125 468.3125 -209.8525390625 474.02734375 -215.5576171875C484.5029296875 -226.0126953125 496.9990234375 -265.1142578125 496.9990234375 -287.4404296875C496.9990234375 -295.0966796875 498.130859375 -310.48828125 499.51171875 -321.64453125C501.736328125 -339.63671875 501.736328125 -345.2763671875 499.51171875 -371.6396484375C496.732421875 -404.55078125 494.9453125 -410.2177734375 484.44140625 -419.439453125C481.119140625 -422.3544921875 476.6728515625 -424.7412109375 474.560546875 -424.7412109375C460.8203125 -424.7412109375 441.265625 -410.7470703125 435.154296875 -396.5390625C433.2265625 -392.0615234375 430.8408203125 -381.6435546875 429.853515625 -373.3896484375C427.744140625 -355.7802734375 421.9130859375 -342.671875 412.9990234375 -335.5009765625C405.677734375 -329.6123046875 369.3349609375 -316.9482421875 346.6396484375 -312.3857421875C300.6611328125 -303.1328125 247.20703125 -300.5595703125 227.359375 -306.6396484375C211.9443359375 -311.36328125 183.759765625 -322.751953125 176.9609375 -327.00390625C156.6552734375 -339.705078125 151.0185546875 -348.6904296875 146.74609375 -375.1806640625C145.255859375 -384.4228515625 143.2734375 -394.3896484375 142.34375 -397.3349609375C139.77734375 -405.4462890625 131.5771484375 -412.3271484375 117.48828125 -418.1923828125C106.05859375 -422.953125 103.556640625 -423.3935546875 92.783203125 -422.5810546875C80.099609375 -421.6201171875 68.1708984375 -416.869140625 65.525390625 -411.71484375C64.6943359375 -410.1015625 63.529296875 -386.859375 62.9345703125 -360.0625C62.3427734375 -333.265625 61.0166015625 -298.3583984375 59.9912109375 -282.4912109375C57.8486328125 -249.306640625 59.1611328125 -237.4599609375 66.8681640625 -220.4658203125C80.6494140625 -190.0732421875 103.4267578125 -179.6103515625 163.384765625 -176.1318359375Z"/>
</svg>