<svg xmlns="http://www.w3.org/2000/svg" viewBox="0 -1000 1000 1000">
	<path fill="#3c9202" d="M250.5390625 -400.1396484375C247.763671875 -389.7294921875 242.919921875 -390.3271484375 229.7197265625 -402.7138671875C224.025390625 -408.0556640625 213.6962890625 -417.4111328125 206.7646484375 -423.5048828125C191.7119140625 -436.7431640625 183.9228515625 -446.3994140625 173.7607421875 -464.3974609375C158.03515625 -492.2685546875 150.5458984375 -518.04296875 151.5751953125 -540.7451171875C152.087890625 -552.0009765625 152.798828125 -554.6806640625 156.244140625 -558.3505859375C159.607421875 -561.9296875 161.8291015625 -562.6787109375 169.08203125 -562.6787109375C179.951171875 -562.6787109375 192.365234375 -558.89453125 224.439453125 -545.8076171875C240.544921875 -539.2373046875 253.3828125 -532.7470703125 260.4541015625 -527.5966796875C266.5009765625 -523.1943359375 276.3583984375 -516.34765625 282.3671875 -512.3798828125C288.3720703125 -508.4111328125 296.4970703125 -502.0712890625 300.423828125 -498.2900390625C310.0283203125 -489.0478515625 310.0146484375 -483.9794921875 300.3486328125 -472.7685546875C287.2373046875 -457.5654296875 264.5966796875 -427.6064453125 258.46875 -417.3603515625C255.1533203125 -411.8154296875 251.5849609375 -404.0673828125 250.5390625 -400.1396484375ZM454.7587890625 -379.916015625C452.0927734375 -377.8720703125 448.1865234375 -376.2001953125 446.0771484375 -376.2001953125C441.83203125 -376.2001953125 440.724609375 -378.6337890625 432.689453125 -405.5986328125C426.5986328125 -426.0419921875 417.4111328125 -444.7646484375 405.140625 -461.7177734375C391.0859375 -481.142578125 391.181640625 -483.9384765625 406.3984375 -498.6591796875C427.7705078125 -519.3388671875 453.5322265625 -535.8271484375 478.4521484375 -544.7744140625C485.12109375 -547.1669921875 494.3046875 -551.0166015625 498.857421875 -553.3232421875C507.9697265625 -557.9404296875 527.01171875 -561.642578125 533.3994140625 -560.0400390625C540.9189453125 -558.1533203125 543.076171875 -553.86328125 543.2197265625 -540.5302734375C543.4248046875 -521.1982421875 540.10546875 -495.5009765625 536.0966796875 -485.3974609375C529.787109375 -469.4970703125 514.474609375 -441.34375 505.9462890625 -429.9580078125C498.6015625 -420.1552734375 467.2109375 -389.4658203125 454.7587890625 -379.916015625ZM366.3125 -341.3408203125C366.3603515625 -337.9267578125 365.5947265625 -337.5712890625 358.3857421875 -337.6904296875C348.5322265625 -337.8505859375 313.7578125 -344.7216796875 305.837890625 -348.0673828125C296.8251953125 -351.8779296875 293.4921875 -356.5341796875 294.654296875 -363.6806640625C295.748046875 -370.4345703125 322.357421875 -417.47265625 330.013671875 -426.1923828125C339.798828125 -437.3408203125 346.2177734375 -430.5634765625 354.6396484375 -400.1982421875C359.869140625 -381.3408203125 366.19921875 -349.4248046875 366.3125 -341.3408203125ZM319.236328125 -77.9560546875C308.0185546875 -72.2685546875 289.4658203125 -72.6474609375 279.7314453125 -78.7626953125C270.6943359375 -84.439453125 262.515625 -105.1591796875 257.498046875 -135.0830078125C253.310546875 -160.0693359375 253.54296875 -247.4794921875 257.8603515625 -271.2001953125C259.5419921875 -280.439453125 261.3974609375 -288.8857421875 261.982421875 -289.9658203125C262.720703125 -291.3359375 268.3154296875 -289.6337890625 280.3740234375 -284.376953125C304.5390625 -273.8359375 341.060546875 -266.931640625 361.33203125 -269.0712890625C368.93359375 -269.8681640625 375.4521484375 -270.2294921875 375.8173828125 -269.8681640625C377.751953125 -267.9326171875 380.080078125 -219.3740234375 379.173828125 -199.7998046875C377.4208984375 -161.9287109375 372.08203125 -142.1318359375 356.65625 -116.3466796875C346.01953125 -98.5625 332.4677734375 -84.658203125 319.236328125 -77.9560546875ZM262.59765625 29.7099609375C274.8681640625 34.6865234375 278.302734375 35.3369140625 292.09765625 35.3740234375C324.103515625 35.4326171875 344.8642578125 27.6669921875 373.271484375 5.0126953125C418.8740234375 -31.3544921875 438.919921875 -72.6650390625 450.6474609375 -154.439453125C456.474609375 -195.0693359375 458.306640625 -235.4931640625 455.6337890625 -264.4599609375C453.4462890625 -288.1845703125 452.892578125 -287.1044921875 472.265625 -296.8701171875C492.96875 -307.3017578125 512.5947265625 -319.5107421875 520.134765625 -326.6396484375C533.0478515625 -338.8564453125 572.416015625 -394.6748046875 580.779296875 -412.6298828125C595.0087890625 -443.1728515625 604.7705078125 -468.619140625 611.5654296875 -492.8798828125C618.076171875 -516.1220703125 618.33984375 -518.0322265625 618.763671875 -545.3017578125L619.2041015625 -573.5986328125L608.2841796875 -593.4638671875C602.2783203125 -604.3876953125 594.5439453125 -616.5869140625 591.091796875 -620.568359375C582.2421875 -630.7880859375 574.599609375 -633.3408203125 549.5224609375 -634.4453125L528.484375 -635.375L508.1376953125 -628.5634765625C471.6298828125 -616.3408203125 444.5595703125 -600.1767578125 398.8544921875 -563.3076171875C369.2275390625 -539.4091796875 359.75 -533.3251953125 354.6640625 -534.94140625C352.8115234375 -535.529296875 344.4853515625 -542.2861328125 336.162109375 -549.9560546875C320.1865234375 -564.6806640625 302.6015625 -575.1064453125 255.146484375 -597.9990234375C235.3935546875 -607.5283203125 231.78125 -608.66015625 206.6181640625 -613.2060546875C173.671875 -619.16015625 170.1279296875 -619.2119140625 148.76171875 -614.033203125C111.7041015625 -605.0576171875 102.6025390625 -599.3974609375 92.615234375 -579.1357421875C83.82421875 -561.30078125 80.830078125 -546.6962890625 80.7958984375 -521.4501953125C80.7578125 -495.8642578125 82.3408203125 -489.9033203125 98.9892578125 -452.9951171875C112.7841796875 -422.4150390625 123.923828125 -404.375 146.400390625 -376.2001953125C164.0712890625 -354.0458984375 189.06640625 -331.3642578125 204.1259765625 -323.8095703125C213.15625 -319.28125 218.5263671875 -314.2060546875 218.5263671875 -310.203125C218.5263671875 -308.412109375 214.74609375 -296.0048828125 210.125 -282.626953125C198.6748046875 -249.4794921875 195.673828125 -236.9287109375 188.93359375 -193.951171875C180.5625 -140.576171875 179.072265625 -116.978515625 182.3193359375 -89.1318359375C186.41796875 -53.9482421875 191.732421875 -37.8115234375 207.564453125 -12.4951171875C218.4443359375 4.9033203125 237.5400390625 19.548828125 262.59765625 29.7099609375Z"/>
</svg>