<svg xmlns="http://www.w3.org/2000/svg" viewBox="0 -1000 1000 1000">
	<path fill="#03868b" d="M307.61328125 -449.43359375C303.6484375 -445.0556640625 301.8232421875 -445.2333984375 284.8798828125 -451.6826171875C258.7158203125 -461.6396484375 248.5986328125 -470.0673828125 241.9677734375 -487.4345703125C239.3662109375 -494.236328125 239.4140625 -495.0869140625 242.927734375 -505.65234375C245.7783203125 -514.2177734375 247.7060546875 -517.2978515625 251.4248046875 -519.2177734375C258.3154296875 -522.783203125 267.9716796875 -522.2880859375 276.6220703125 -517.9267578125C283.533203125 -514.4404296875 285.0751953125 -512.3408203125 296.3232421875 -491.1025390625C309.90625 -465.4541015625 312.7197265625 -455.0771484375 307.61328125 -449.43359375ZM426.9208984375 -414.0205078125C423.22265625 -412.3037109375 416.5029296875 -410.8818359375 411.984375 -410.8623046875L403.7705078125 -410.82421875L404.734375 -418.9482421875C406.0302734375 -429.8935546875 411.4267578125 -444.7783203125 418.078125 -455.7666015625C427.798828125 -471.8251953125 461.158203125 -512.9228515625 472.578125 -522.9169921875C478.6826171875 -528.2548828125 487.97265625 -536.4794921875 493.2255859375 -541.1884765625C501.435546875 -548.5546875 510.7705078125 -553.4931640625 512.7421875 -551.521484375C515.107421875 -549.15625 515.189453125 -531.2080078125 512.8720703125 -523.2412109375C509.9599609375 -513.2236328125 481.501953125 -467.1318359375 467.4541015625 -449.6826171875C456.9677734375 -436.6533203125 436.0634765625 -418.26171875 426.9208984375 -414.0205078125ZM472.2529296875 -43.1845703125C468.736328125 -40.4189453125 465.328125 -39.5478515625 458.0517578125 -39.5478515625C452.7880859375 -39.5478515625 448.0234375 -40.001953125 447.462890625 -40.5625C446.90234375 -41.123046875 420.12890625 -42.6201171875 387.962890625 -43.8955078125C355.7958984375 -45.169921875 317.384765625 -47.3955078125 302.5986328125 -48.8447265625C287.81640625 -50.2939453125 268.5048828125 -52.0849609375 259.6826171875 -52.8291015625C241.6357421875 -54.3505859375 234.291015625 -57.1767578125 225.4892578125 -65.978515625C221.15234375 -70.3125 219.443359375 -73.4951171875 219.4462890625 -77.2060546875C219.4599609375 -90.1474609375 237.458984375 -107.9755859375 277.849609375 -135.048828125C294.7275390625 -146.3623046875 310.9833984375 -157.7509765625 313.970703125 -160.3525390625C324.0703125 -169.146484375 328.5546875 -170.47265625 349.896484375 -170.96484375C368.8662109375 -171.4052734375 370.158203125 -171.2138671875 377.4521484375 -166.9248046875C401.265625 -152.9287109375 463.814453125 -95.0341796875 471.5185546875 -79.8662109375C474.1533203125 -74.6708984375 475.595703125 -68.3193359375 476.119140625 -59.56640625C476.853515625 -47.2587890625 476.720703125 -46.701171875 472.2529296875 -43.1845703125ZM287.4775390625 33.6279296875C290.455078125 34.9228515625 362.5771484375 32.623046875 378.201171875 30.736328125C394.767578125 28.7333984375 443.51171875 29.779296875 473.958984375 32.7939453125C493.5673828125 34.7353515625 507.642578125 34.00390625 529.2890625 29.9228515625C546.3134765625 26.7099609375 552.595703125 23.4248046875 563.24609375 12.1669921875C575.171875 -0.4462890625 579.6015625 -9.5166015625 579.6796875 -21.490234375C579.73828125 -30.2060546875 578.5927734375 -33.3955078125 568.0107421875 -54.04296875C548.8974609375 -91.3330078125 522.8427734375 -123.6630859375 461.9072265625 -185.7001953125C409.22265625 -239.337890625 401.8427734375 -249.099609375 391.8388671875 -278.3876953125C386.755859375 -293.2734375 386.486328125 -297.8056640625 389.986328125 -309.5947265625C393.5302734375 -321.5302734375 403.302734375 -330.9462890625 424.48046875 -342.8271484375C469.265625 -367.9560546875 499.9150390625 -392.28515625 518.4609375 -417.4248046875C551.642578125 -462.408203125 569.224609375 -503.7587890625 571.5146484375 -542.1904296875C572.0234375 -550.7900390625 573.6201171875 -566.6630859375 575.0556640625 -577.4599609375C577.154296875 -593.2587890625 577.27734375 -598.7099609375 575.6845703125 -605.34765625C571.626953125 -622.2568359375 556.90234375 -632.8857421875 536.1181640625 -633.908203125C520.9833984375 -634.6533203125 510.814453125 -631.2724609375 486.779296875 -617.515625C449.947265625 -596.43359375 425.57421875 -574.3505859375 393.0859375 -532.626953125C371.8671875 -505.3681640625 368.8388671875 -502.4697265625 363.1142578125 -503.9052734375C359.740234375 -504.7529296875 357.3583984375 -507.908203125 352.494140625 -517.970703125C343.2451171875 -537.1044921875 319.5966796875 -568.0986328125 307.048828125 -577.5322265625C283.2119140625 -595.44921875 261.033203125 -600.9560546875 237.431640625 -594.806640625C215.6220703125 -589.1259765625 189.0029296875 -571.3046875 182.6181640625 -558.1083984375C178.396484375 -549.3818359375 170.7197265625 -511.4189453125 170.7197265625 -499.2646484375C170.7197265625 -494.2841796875 171.888671875 -486.9013671875 173.3212890625 -482.8583984375C174.75 -478.814453125 176.673828125 -472.1044921875 177.59375 -467.9453125C180.0341796875 -456.9091796875 192.5947265625 -438.810546875 201.396484375 -433.6533203125C205.3916015625 -431.3115234375 222.123046875 -423.3857421875 238.5771484375 -416.0400390625C313.365234375 -382.6533203125 330.22265625 -362.4599609375 330.294921875 -306.1796875C330.3154296875 -289.5244140625 329.775390625 -285.302734375 326.890625 -279.6533203125C320.8955078125 -267.9013671875 300.5751953125 -248.56640625 268.357421875 -223.9599609375C208.7177734375 -178.4091796875 158.6513671875 -135.1650390625 143.4443359375 -116.0615234375C129.109375 -98.0595703125 120.318359375 -74.6025390625 120.318359375 -54.3466796875C120.318359375 -26.9013671875 137.298828125 1.177734375 159.7998046875 10.9423828125C190.1064453125 24.091796875 211.25390625 28.6005859375 254.302734375 31.0810546875C271.625 32.0791015625 286.5546875 33.2275390625 287.4775390625 33.6279296875Z"/>
</svg>