<svg xmlns="http://www.w3.org/2000/svg" viewBox="0 -1000 1000 1000">
	<path fill="#854e28" d="M675.5400390625 -269.3974609375C680.068359375 -286.2138671875 677.56640625 -315.9638671875 669.5927734375 -340.0810546875C665.0947265625 -353.6875 647.037109375 -391.001953125 635.2822265625 -410.9697265625C622.0244140625 -433.50390625 591.1806640625 -467.0888671875 560.5244140625 -492.3857421875C522.390625 -523.84765625 509.4638671875 -529.001953125 491.7314453125 -519.8046875C477.7763671875 -512.568359375 475.6630859375 -508.6279296875 475.7998046875 -490.1396484375C475.9775390625 -465.9609375 481.7919921875 -447.23046875 500.65234375 -410.04296875C526.833984375 -358.4248046875 526.6357421875 -344.6572265625 499.6435546875 -339.5888671875C490.890625 -337.9482421875 482.4931640625 -338.2109375 449.6455078125 -341.154296875C400.0302734375 -345.6044921875 330.6943359375 -353.6123046875 304.32421875 -357.9365234375C293.236328125 -359.7548828125 272.4443359375 -362.0380859375 258.1240234375 -363.01171875C243.8017578125 -363.986328125 220.7451171875 -366.0029296875 206.884765625 -367.4931640625C169.6357421875 -371.4990234375 97.1748046875 -371.5537109375 78.8173828125 -367.591796875C50.41015625 -361.4599609375 34.0380859375 -351.91015625 26.3818359375 -337.01171875C22.8173828125 -330.0732421875 22.109375 -326.4638671875 22.2294921875 -315.7958984375C22.4814453125 -293.107421875 32.8447265625 -279.8046875 58.203125 -269.623046875C75.8291015625 -262.5439453125 94.16015625 -261.662109375 191.763671875 -263.193359375C239.8134765625 -263.94921875 286.3046875 -264.4580078125 295.0849609375 -264.328125C412.90625 -262.568359375 471.4658203125 -260.6337890625 481.1767578125 -258.1796875C511.248046875 -250.5849609375 525.302734375 -233.87109375 515.349609375 -217.5498046875C508.1474609375 -205.7373046875 476.7978515625 -183.8486328125 432.5556640625 -159.7353515625C416.9326171875 -151.220703125 399.4697265625 -135.8671875 393.1572265625 -125.09375C380.0419921875 -102.712890625 391.6904296875 -79.3447265625 417.4892578125 -76.2890625C428.6123046875 -74.97265625 452.7529296875 -80.9375 465.009765625 -88.029296875C470.0927734375 -90.96875 480.103515625 -96.7763671875 487.2646484375 -100.935546875C494.4248046875 -105.091796875 506.8427734375 -113.47265625 514.8642578125 -119.556640625C522.8828125 -125.640625 531.3349609375 -131.5986328125 533.6455078125 -132.794921875C559.2060546875 -146.0390625 612.6181640625 -185.6259765625 640.0537109375 -211.6611328125C655.3291015625 -226.1533203125 670.5732421875 -250.95703125 675.5400390625 -269.3974609375Z"/>
</svg>