<svg xmlns="http://www.w3.org/2000/svg" viewBox="0 -1000 1000 1000">
	<path fill="#854e28" d="M89.15234375 281.4462890625C109.11328125 276.1142578125 122.662109375 271.2744140625 129.576171875 266.998046875C139.68359375 260.75390625 163.619140625 233.734375 168.814453125 222.705078125C174.92578125 209.7373046875 178.8837890625 192.0732421875 180.0869140625 172.41015625C181.1669921875 154.7734375 178.740234375 102.08203125 174.81640625 57.900390625L172.1337890625 27.662109375L179.697265625 -31.13671875C186.6494140625 -85.181640625 187.4052734375 -94.7626953125 189.0556640625 -149.576171875C190.0400390625 -182.37890625 191.9443359375 -220.181640625 193.2802734375 -233.576171875C197.7548828125 -278.373046875 200.0380859375 -318.154296875 199.8876953125 -348.66015625C199.439453125 -439.1708984375 197.78515625 -509.41015625 195.8095703125 -521.865234375C194.12109375 -532.5224609375 194.0703125 -538.7431640625 195.583984375 -550.5390625C197.935546875 -568.892578125 198.0654296875 -588.498046875 195.90234375 -599.31640625C195.0166015625 -603.75 193.5234375 -619.4755859375 192.5869140625 -634.2578125C191.6533203125 -649.041015625 189.7294921875 -665.296875 188.314453125 -670.37890625C186.8994140625 -675.458984375 184.1884765625 -694.7392578125 182.2880859375 -713.216796875C179.51953125 -740.126953125 177.0078125 -754.345703125 169.6826171875 -784.6181640625C164.6513671875 -805.41015625 158.5166015625 -826.5771484375 156.048828125 -831.66015625C146.5703125 -851.169921875 120.142578125 -871.41015625 95.7177734375 -877.8671875C76.5810546875 -882.92578125 1 -887 -65.8701171875 -883.55859375C-80.384765625 -882.8115234375 -88.1826171875 -866.03125 -89.3994140625 -847.4404296875C-90.2978515625 -833.638671875 -86.0498046875 -805.73828125 -81.47265625 -795.388671875C-77.375 -786.1220703125 -67.6982421875 -776.77734375 -59.9775390625 -774.634765625C-50.9130859375 -772.119140625 -19 -773 4 -772.9638671875C34.3359375 -772.916015625 38.6474609375 -776.0966796875 49 -764C55.91796875 -755.916015625 57.033203125 -747.13671875 59.6376953125 -724.978515625C60.615234375 -716.662109375 62.173828125 -707.21875 63.103515625 -703.98828125C64.033203125 -700.76171875 64.7919921875 -694.5546875 64.7919921875 -690.193359375C64.7919921875 -685.8359375 66.2177734375 -676.001953125 67.9609375 -668.341796875C71.953125 -650.77734375 72.728515625 -644.3857421875 75.8291015625 -603.60546875C80.12890625 -547.025390625 81.7109375 -514.5849609375 81.875 -479.697265625C82.025390625 -447.330078125 81.4375 -436.716796875 75.8251953125 -370.4970703125C69.1162109375 -291.306640625 65.8173828125 -158.033203125 68.408203125 -70.6181640625C69.3310546875 -39.3779296875 68.9658203125 -32.1181640625 64.4609375 7.5029296875C58.8447265625 56.8857421875 56.158203125 72.8544921875 52.1083984375 80.88671875C47.33984375 90.34765625 26.0732421875 117.25390625 15.98046875 126.5986328125C2.3388671875 139.228515625 -0.8974609375 139.857421875 -53.353515625 140.0546875C-95.4794921875 140.2158203125 -97.7392578125 140.38671875 -107.1728515625 144.1943359375C-119.1220703125 149.009765625 -127.072265625 156.875 -140.3232421875 176.990234375C-158.4111328125 204.4462890625 -162.1474609375 223.193359375 -153.3115234375 242.15625C-147.7880859375 254.00390625 -137.0634765625 265.841796875 -127.8515625 270.24609375C-114.7265625 276.521484375 -77.5283203125 284.373046875 -43 285C-25.90625 285.310546875 12.82421875 284.560546875 35 285C73.60546875 285.765625 74.6767578125 285.3134765625 89.15234375 281.4462890625Z"/>
</svg>