<svg xmlns="http://www.w3.org/2000/svg" viewBox="0 -1000 1000 1000">
	<path fill="#03868b" d="M420.3232421875 -262.021484375C404.2998046875 -257.482421875 374.884765625 -256.1728515625 360.8984375 -259.3798828125C345.958984375 -262.8037109375 310.220703125 -280.5224609375 300.7392578125 -289.2041015625C293.5576171875 -295.7841796875 292.087890625 -298.4873046875 285.8232421875 -316.6611328125C279.4658203125 -335.0947265625 278.87109375 -338.2626953125 278.8984375 -353.623046875C278.953125 -389.29296875 295.564453125 -420.0341796875 330.71484375 -449.517578125C345.0732421875 -461.5595703125 348.857421875 -463.8837890625 356.7529296875 -465.5029296875C370.4931640625 -468.3232421875 381.875 -471.392578125 390.3544921875 -474.5673828125C396.408203125 -476.833984375 402.0986328125 -477.2607421875 418.9150390625 -476.7138671875C452.5380859375 -475.6240234375 464.599609375 -469.3076171875 485.6611328125 -441.751953125C503.6982421875 -418.1572265625 505.4033203125 -413.5126953125 505.3798828125 -388.0625C505.35546875 -362.9580078125 502.7685546875 -351.7060546875 492.0458984375 -330.1005859375C483.4873046875 -312.853515625 473.8388671875 -299.4755859375 458.9462890625 -284.2080078125C447.322265625 -272.2919921875 438.326171875 -267.1240234375 420.3232421875 -262.021484375ZM90.47265625 -26.6533203125C94.1708984375 -24.9619140625 98.7470703125 -23.5732421875 100.64453125 -23.5400390625C106.4619140625 -23.474609375 121.01171875 -31.7353515625 127.2529296875 -38.6435546875C135.1591796875 -47.3935546875 138.6455078125 -54.6083984375 145.115234375 -75.5849609375C151.63671875 -96.728515625 153.9306640625 -101.6162109375 160.673828125 -108.7255859375C168.6689453125 -117.1474609375 189.357421875 -122.3427734375 229.07421875 -125.9013671875C271.9560546875 -129.7431640625 444.7275390625 -127.9755859375 476.033203125 -123.3779296875C533.5400390625 -114.9287109375 549.8916015625 -103.3525390625 549.994140625 -71.0146484375C550.052734375 -52.2783203125 552.373046875 -43.9755859375 559.63671875 -36.5107421875C571.1416015625 -24.6884765625 594.9541015625 -19.7080078125 606.458984375 -26.7255859375C624.9638671875 -38.0078125 637.89453125 -78.6513671875 638.0341796875 -125.9833984375C638.099609375 -146.9892578125 637.607421875 -151.67578125 634.462890625 -160.04296875C629.9033203125 -172.1806640625 620.923828125 -184.556640625 612.37890625 -190.4794921875C598.720703125 -199.9443359375 590.5078125 -201.7490234375 553.330078125 -203.46484375C489.60546875 -206.404296875 470.1337890625 -213.1005859375 480.9853515625 -228.3369140625C482.96484375 -231.1201171875 493.615234375 -241.4013671875 504.6484375 -251.1904296875C525.6689453125 -269.8349609375 551.05078125 -298.0029296875 564.0693359375 -317.1328125C572.4541015625 -329.451171875 583.220703125 -356.2548828125 589.861328125 -381.3427734375C595.8193359375 -403.8330078125 595.78125 -432.1884765625 589.755859375 -463.5205078125C584.7548828125 -489.5107421875 579.78515625 -500.9892578125 565.0673828125 -520.5185546875C550.462890625 -539.90234375 526.6259765625 -557.0126953125 505.4345703125 -563.3291015625C500.8134765625 -564.7060546875 494.3837890625 -566.9697265625 491.140625 -568.3603515625C484.314453125 -571.2861328125 470.73828125 -573.8974609375 451.6728515625 -575.9521484375C441.234375 -577.076171875 430.35546875 -576.5400390625 402.953125 -573.5458984375C371.265625 -570.0830078125 365.7421875 -568.9990234375 348.70703125 -562.884765625C338.275390625 -559.1416015625 327.3134765625 -554.8525390625 324.3466796875 -553.35546875C312.3193359375 -547.2783203125 274.6904296875 -523.0693359375 266.2109375 -515.9521484375C253.68359375 -505.4384765625 229.1396484375 -477.4384765625 217.42578125 -460.3017578125C199.5703125 -434.1708984375 193.8896484375 -420.0029296875 190.314453125 -392.6630859375C187.8369140625 -373.7177734375 188.5546875 -370.0322265625 200.6845703125 -339.3974609375C208.2451171875 -320.3017578125 211.3525390625 -315.0791015625 234.0712890625 -283.28125C247.849609375 -263.9970703125 260.2978515625 -245.73828125 261.736328125 -242.7060546875C267.5673828125 -230.4189453125 263.4521484375 -218.3427734375 251.66015625 -213.1279296875C244.9267578125 -210.1474609375 241.4267578125 -209.9208984375 213.560546875 -210.6767578125C196.6826171875 -211.134765625 180.1767578125 -212.1875 176.87890625 -213.0185546875C167.017578125 -215.5029296875 128.99609375 -212.6044921875 117.3544921875 -208.482421875C90.841796875 -199.0869140625 73.4443359375 -178.6064453125 65.107421875 -146.9833984375C62.6435546875 -137.6279296875 62.0009765625 -128.8642578125 61.962890625 -104.1416015625C61.908203125 -68.82421875 62.5576171875 -65.98046875 75.9970703125 -42.9951171875C82.23828125 -32.3232421875 85.068359375 -29.1279296875 90.47265625 -26.6533203125Z"/>
</svg>