<svg xmlns="http://www.w3.org/2000/svg" viewBox="0 -1000 1000 1000">
	<path fill="#964ffa" d="M332.59375 -412.0927734375C325.494140625 -407.3212890625 317.4384765625 -407.1884765625 311.6513671875 -411.7412109375C305.861328125 -416.2939453125 306.0185546875 -421.0849609375 312.3662109375 -433.66015625C317.11328125 -443.06640625 317.85546875 -443.7705078125 322.025390625 -442.8134765625C324.509765625 -442.2431640625 329.4150390625 -438.6298828125 332.9248046875 -434.7880859375C338.1923828125 -429.0224609375 339.220703125 -426.7587890625 338.8076171875 -421.861328125C338.41796875 -417.2705078125 337.009765625 -415.0556640625 332.59375 -412.0927734375ZM243.384765625 -112.4462890625C236.4560546875 -111.5341796875 228.892578125 -110.45703125 226.5849609375 -110.046875C220.4052734375 -108.9599609375 212.021484375 -113.287109375 208.029296875 -119.6240234375C202.587890625 -128.2646484375 204.3544921875 -139.400390625 215.5791015625 -167.1787109375C220.8056640625 -180.115234375 226.814453125 -193.3427734375 228.9365234375 -196.576171875C231.0556640625 -199.8134765625 236.986328125 -211.287109375 242.11328125 -222.0810546875C258.310546875 -256.1611328125 284.7626953125 -290.4541015625 302.87109375 -300.8408203125L311.4228515625 -305.74609375L340.82421875 -305.7255859375C375.109375 -305.7021484375 378.96875 -304.5947265625 391.4130859375 -291.2197265625C403.123046875 -278.6376953125 433.8203125 -236.8974609375 440.8779296875 -223.9638671875C444.306640625 -217.6787109375 449.9697265625 -207.623046875 453.466796875 -201.6181640625C460.3056640625 -189.8662109375 468.501953125 -165.9619140625 468.501953125 -157.7685546875C468.501953125 -150.6767578125 464.267578125 -143.3212890625 458.45703125 -140.31640625C446.220703125 -133.986328125 419.4580078125 -129.201171875 387.8623046875 -127.6904296875C370.7685546875 -126.8740234375 349.98046875 -125.0205078125 341.6650390625 -123.5751953125C333.3486328125 -122.1298828125 310.6669921875 -119.4052734375 291.2666015625 -117.525390625C271.86328125 -115.6455078125 250.31640625 -113.3623046875 243.384765625 -112.4462890625ZM189.623046875 -42.2177734375C214.2978515625 -39.390625 238.640625 -40.12890625 265.587890625 -44.5205078125C279.7109375 -46.8251953125 313.5654296875 -51.7470703125 340.82421875 -55.4580078125C368.08203125 -59.1708984375 402.8564453125 -64.4345703125 418.1044921875 -67.1513671875C433.3486328125 -69.8720703125 458.67578125 -73.3212890625 474.384765625 -74.8173828125C514.8330078125 -78.6728515625 550.7900390625 -83.373046875 559.41015625 -85.9326171875C564.041015625 -87.310546875 569.619140625 -90.9541015625 574.408203125 -95.732421875C588.3740234375 -109.6611328125 591.5283203125 -132.2333984375 582.1083984375 -150.802734375C579.8837890625 -155.1884765625 564.5537109375 -177.298828125 548.044921875 -199.9365234375C509.75390625 -252.439453125 506.6298828125 -256.4970703125 501.2568359375 -260.724609375C494.4482421875 -266.0771484375 463.4638671875 -302.615234375 463.4638671875 -305.2880859375C463.4638671875 -309.3037109375 476.7802734375 -313.73046875 500.0771484375 -317.4521484375C554.73046875 -326.1923828125 569.19921875 -341.5771484375 551.5146484375 -372.1533203125C543.427734375 -386.13671875 533.142578125 -392.8388671875 506.2294921875 -401.6572265625C496.0341796875 -405.0009765625 490.7978515625 -405.5205078125 465.142578125 -405.7353515625C430.04296875 -406.0263671875 430.01953125 -406.0361328125 410.4169921875 -425.716796875C393.6962890625 -442.505859375 374.3984375 -471.23046875 361.724609375 -498.1943359375C350.2880859375 -522.5244140625 332.361328125 -547.3623046875 321.0615234375 -554.5263671875C315.0458984375 -558.3408203125 311.3203125 -559.4580078125 304.6103515625 -559.4580078125C281.43359375 -559.4580078125 264.8837890625 -532.7841796875 260.0947265625 -487.71875C256.916015625 -457.8115234375 246.65234375 -431.0380859375 233.69140625 -418.83984375C224.2470703125 -409.9501953125 217.96875 -408.4384765625 194.7841796875 -409.4609375C158.6494140625 -411.0576171875 136.7578125 -404.826171875 122.794921875 -388.9599609375C106.6455078125 -370.6123046875 109.7998046875 -346.6767578125 130.154296875 -333.1611328125C142.4111328125 -325.0263671875 154.0830078125 -322.6337890625 181.697265625 -322.603515625C207.205078125 -322.576171875 214.2568359375 -320.8505859375 219.1064453125 -313.4462890625C225.1943359375 -304.1572265625 220.453125 -290.2353515625 201.3642578125 -261.3564453125C195.21875 -252.0595703125 181.6015625 -230.0927734375 171.1015625 -212.5380859375C160.6015625 -194.9794921875 148.119140625 -175.3271484375 143.3642578125 -168.8564453125C138.6103515625 -162.3896484375 129.9521484375 -147.86328125 124.125 -136.5732421875C114.5986328125 -118.1298828125 113.447265625 -114.8115234375 112.75 -103.8154296875C111.259765625 -80.3896484375 118.0029296875 -69.1376953125 140.5341796875 -57.4541015625C156.3251953125 -49.2685546875 172.8544921875 -44.134765625 189.623046875 -42.2177734375Z"/>
</svg>