<svg xmlns="http://www.w3.org/2000/svg" viewBox="0 -1000 1000 1000">
	<path fill="#d600e3" d="M360.3681640625 -183.251953125C337.037109375 -178.3984375 314.19140625 -177.1064453125 292.822265625 -179.4345703125C273.6787109375 -181.515625 243.5966796875 -191.7861328125 236.15625 -198.7763671875C230.98828125 -203.6298828125 226.2919921875 -216.9189453125 223.8583984375 -233.5751953125C219.650390625 -262.3369140625 225.3212890625 -325.138671875 234.2861328125 -349.0986328125C241.689453125 -368.8857421875 270.2568359375 -403.0712890625 290.21484375 -416.0263671875C318.078125 -434.1142578125 337.7861328125 -442.0166015625 355.0400390625 -442.0166015625C362.6240234375 -442.0166015625 366.96484375 -442.7822265625 368.267578125 -444.3466796875C369.330078125 -445.6318359375 373.5380859375 -447.5224609375 377.615234375 -448.5478515625C393.4677734375 -452.5400390625 412.60546875 -449.8603515625 432.716796875 -440.8330078125C451.529296875 -432.39453125 467.5595703125 -409.1494140625 474.5048828125 -380.236328125C477.6318359375 -367.2275390625 477.9091796875 -362.5478515625 476.9521484375 -338.6943359375C474.31640625 -272.8544921875 472.333984375 -263.998046875 454.0068359375 -236.1923828125C433.6396484375 -205.2841796875 414.6318359375 -194.5380859375 360.3681640625 -183.251953125ZM285.3984375 96.4580078125C290.8671875 98.7060546875 297.4951171875 100.5654296875 300.126953125 100.5869140625C315.275390625 100.712890625 329.2099609375 83.4794921875 343.8359375 46.5478515625C346.8095703125 39.0361328125 349.4072265625 26.8955078125 351.669921875 9.9384765625C355.921875 -21.91015625 358.8505859375 -36.1767578125 364.55859375 -52.7705078125C370.7353515625 -70.7294921875 376.224609375 -76.5087890625 391.1025390625 -80.7021484375C397.5693359375 -82.5283203125 413.6884765625 -87.80859375 426.9267578125 -92.4365234375C453.89453125 -101.8740234375 466.072265625 -109.35546875 480.9951171875 -125.65234375C493.4638671875 -139.26953125 499.380859375 -149.0517578125 514.6318359375 -181.2802734375C533.173828125 -220.4560546875 538.177734375 -224.0966796875 568.341796875 -220.3505859375C582.4130859375 -218.6005859375 586.7333984375 -218.7607421875 604.8388671875 -221.6943359375C622.7041015625 -224.5888671875 627.349609375 -226.0615234375 640.5087890625 -233.0009765625C658.384765625 -242.423828125 664.4482421875 -247.9365234375 670.7646484375 -260.5009765625C677.9521484375 -274.8056640625 678.4072265625 -279.2490234375 674.03515625 -292.5791015625C667.859375 -311.4150390625 657.865234375 -320.6884765625 640.580078125 -323.6103515625C636.423828125 -324.3154296875 615.2568359375 -324.9951171875 593.5419921875 -325.1279296875C557.3359375 -325.34375 553.4326171875 -325.6552734375 546.5009765625 -328.87109375C542.3447265625 -330.798828125 536.9033203125 -334.5556640625 534.4111328125 -337.2177734375C525.7158203125 -346.5009765625 524.8203125 -351.2490234375 525.0361328125 -386.73046875C525.3125 -431.4580078125 523.0400390625 -440.3818359375 502.521484375 -475.1220703125C491.3994140625 -493.9521484375 484.341796875 -501.4267578125 460.6552734375 -519.4873046875C449.9365234375 -527.6572265625 439.0498046875 -537.3974609375 436.458984375 -541.1376953125C429.8623046875 -550.65625 428.9775390625 -566.3408203125 433.6533203125 -590.8818359375C439.42578125 -621.2099609375 439.8056640625 -632.7802734375 435.5703125 -649.8154296875C426.46875 -686.4482421875 410.140625 -703.0322265625 385.8701171875 -700.2978515625C371.4013671875 -698.66796875 355.826171875 -683.4306640625 347.568359375 -662.8310546875C339.2490234375 -642.0693359375 337.6767578125 -629.4677734375 337.2939453125 -580.5361328125C336.904296875 -530.3017578125 336.5244140625 -528.2998046875 326.00390625 -520.4208984375C317.326171875 -513.9267578125 311.515625 -511.4833984375 289.3125 -504.9990234375C275.0966796875 -500.849609375 264.986328125 -496.720703125 257.5419921875 -492.0341796875C251.533203125 -488.2509765625 238.927734375 -480.3447265625 229.5283203125 -474.462890625C215.0908203125 -465.4326171875 211.05078125 -461.884765625 203.5078125 -451.6337890625C198.595703125 -444.9560546875 188.6328125 -431.9365234375 181.369140625 -422.6943359375C174.1025390625 -413.4560546875 165.19921875 -400.826171875 161.5791015625 -394.6298828125C157.9599609375 -388.4326171875 153.33203125 -382.1943359375 151.294921875 -380.76953125C146.4619140625 -377.3818359375 134.232421875 -377.4609375 120.259765625 -380.9716796875C107.44921875 -384.1904296875 99.888671875 -383.1728515625 73.580078125 -374.6826171875C53.701171875 -368.2666015625 42.3330078125 -361.5087890625 34.2802734375 -351.3203125C24.8916015625 -339.4462890625 21.4423828125 -329.7080078125 23.9375 -322.14453125C29.4404296875 -305.4755859375 58.814453125 -291.4716796875 102.08984375 -284.8955078125C123.8759765625 -281.580078125 136.375 -277.24609375 144.36328125 -270.232421875C153.7626953125 -261.9814453125 155.0751953125 -257.9208984375 155.0751953125 -236.7197265625C155.0849609375 -222.2197265625 156.267578125 -212.0478515625 160.08203125 -193.669921875C167.154296875 -159.599609375 167.4716796875 -158.669921875 177.4970703125 -142.154296875C189.77734375 -121.9267578125 199.43359375 -111.4638671875 213.1875 -103.4970703125C219.5654296875 -99.8017578125 227.994140625 -93.8447265625 231.9208984375 -90.2626953125C239.583984375 -83.26953125 253.7109375 -64.89453125 258.16796875 -56.1171875C262.3310546875 -47.9306640625 261.5927734375 -28.3466796875 255.6416015625 11.1376953125C251.140625 40.994140625 250.6484375 47.310546875 252.2138671875 54.9462890625C256.2158203125 74.435546875 268.1513671875 89.3681640625 285.3984375 96.4580078125Z"/>
</svg>