<svg xmlns="http://www.w3.org/2000/svg" viewBox="0 -1000 1000 1000">
	<path fill="#03868b" d="M282.3427734375 -337.00390625C279.2021484375 -330.77734375 277.8583984375 -329.6865234375 272.806640625 -329.2626953125C258.099609375 -328.025390625 186.8515625 -383.4375 169.40625 -409.677734375C164.939453125 -416.396484375 160.3046875 -425.666015625 159.1083984375 -430.28125C155.5087890625 -444.1611328125 159.0703125 -457.826171875 168.15234375 -464.9697265625C172.181640625 -468.138671875 174.0517578125 -468.4560546875 182.88671875 -467.46875C199.306640625 -465.63671875 214.349609375 -461.7021484375 222.033203125 -457.224609375C229.4912109375 -452.880859375 254.7294921875 -431.125 267.587890625 -417.955078125C286.2666015625 -398.8251953125 293.5029296875 -359.119140625 282.3427734375 -337.00390625ZM399.8251953125 -330.8076171875C390.7236328125 -327.4033203125 375.2880859375 -324.470703125 375.2880859375 -326.1484375C375.2880859375 -326.681640625 376.3681640625 -330.359375 377.6875 -334.318359375C379.0068359375 -338.275390625 381.9423828125 -347.94140625 384.208984375 -355.796875C390.2275390625 -376.642578125 425.78515625 -455.443359375 439.826171875 -479.0546875C453.8427734375 -502.62890625 485.28125 -534.125 503.875 -543.224609375C512.2255859375 -547.30859375 524.11328125 -548.9833984375 527.9482421875 -546.611328125C535.6044921875 -541.876953125 532.5380859375 -511.033203125 521.3857421875 -480.58984375C512.478515625 -456.28125 484.078125 -409.158203125 461.1884765625 -380.703125C441.873046875 -356.69140625 418.744140625 -337.88671875 399.8251953125 -330.8076171875ZM308.927734375 38.421875C322.6240234375 42.9296875 339.3408203125 37.755859375 353.3203125 24.677734375C363.3828125 15.265625 365.9296875 10.248046875 376.935546875 -21.884765625C392.5830078125 -67.5625 397.4775390625 -116.04296875 390.466796875 -155.8759765625C384.2119140625 -191.419921875 376.9658203125 -241.564453125 376.9658203125 -249.3095703125C376.9658203125 -260.421875 384.6123046875 -267.8828125 406.91796875 -278.537109375C474.849609375 -310.990234375 493.8056640625 -323.2265625 514.6142578125 -348.05078125C540.4990234375 -378.939453125 584.70703125 -441.775390625 595.1181640625 -462.478515625C600.75390625 -473.689453125 607.2724609375 -494.8974609375 611.513671875 -515.822265625C613.6123046875 -526.185546875 614.056640625 -534.20703125 613.2978515625 -548.125C611.7294921875 -576.91796875 607.3134765625 -589.541015625 589.396484375 -616.4541015625C577.0302734375 -635.0341796875 571.0927734375 -640.150390625 562.0693359375 -640.017578125C554.6630859375 -639.908203125 534.9921875 -636.896484375 525.6474609375 -634.443359375C516.29296875 -631.9853515625 476.1689453125 -608.931640625 466.5615234375 -600.4921875C454.943359375 -590.2861328125 415.4833984375 -542.4140625 402.65234375 -522.955078125C396.5615234375 -513.716796875 388.6455078125 -501.845703125 385.0595703125 -496.5791015625C381.4775390625 -491.30859375 376.1630859375 -481.861328125 373.25390625 -475.5791015625C370.341796875 -469.296875 366.322265625 -461.5107421875 364.3193359375 -458.27734375C359.5888671875 -450.638671875 350.0869140625 -418.560546875 350.0869140625 -410.234375C350.0869140625 -403.8046875 350.06640625 -403.7880859375 346.7919921875 -407.0830078125C344.9775390625 -408.904296875 338.06640625 -420.98046875 331.4287109375 -433.91796875C316.447265625 -463.12109375 308.6748046875 -474.76953125 295.48828125 -487.7880859375C277.3427734375 -505.705078125 240.4560546875 -527.9697265625 222.0634765625 -532.1123046875C211.13671875 -534.5732421875 185.6181640625 -537.236328125 172.951171875 -537.236328125C156.0048828125 -537.236328125 119.8251953125 -524.06640625 109.2744140625 -514.0546875C97.2529296875 -502.646484375 86.28515625 -467.974609375 86.3564453125 -441.587890625C86.4560546875 -403.3095703125 105.2822265625 -371.095703125 148.84375 -334.65234375C168.8154296875 -317.9453125 179.8720703125 -310.59375 213.046875 -291.9658203125C240.0625 -276.796875 241.9423828125 -275.40625 250.51171875 -264.236328125C262.9326171875 -248.044921875 270.7734375 -231.095703125 274.8232421875 -211.673828125C277.9404296875 -196.73046875 278.1318359375 -191.6796875 277.103515625 -151.67578125C276.484375 -127.654296875 275.2783203125 -99.3017578125 274.423828125 -88.67578125C273.5693359375 -78.052734375 272.359375 -55.572265625 271.740234375 -38.728515625C270.33203125 -0.515625 272.291015625 9.1298828125 284.140625 22.3095703125C292.0263671875 31.080078125 297.5634765625 34.6796875 308.927734375 38.421875Z"/>
</svg>