<svg xmlns="http://www.w3.org/2000/svg" viewBox="0 -1000 1000 1000">
	<path fill="#9b6f01" d="M134.0556640625 30.4033203125C143.232421875 34.5390625 158.6513671875 30.2705078125 163.9970703125 22.1083984375C173.0341796875 8.3193359375 186.517578125 -38.318359375 193.2412109375 -79.033203125C196.830078125 -100.7822265625 197.4755859375 -110.7900390625 197.9541015625 -152.1123046875C198.5048828125 -199.7041015625 199.6533203125 -217.6220703125 204.52734375 -254.59375C205.9248046875 -265.2197265625 207.1044921875 -278.0576171875 207.1455078125 -283.126953125C207.2099609375 -291.6650390625 209.9140625 -313.943359375 214.080078125 -340.2724609375C215.0302734375 -346.27734375 218.1201171875 -360.263671875 220.9501953125 -371.3515625C223.77734375 -382.439453125 227.1298828125 -397.1806640625 228.39453125 -404.1123046875C231.1630859375 -419.2333984375 238.2861328125 -434.365234375 247.6552734375 -445.0087890625C255.126953125 -453.4990234375 259.0673828125 -454.5107421875 271.3486328125 -451.099609375C277.015625 -449.52734375 277.6650390625 -448.7001953125 279.326171875 -440.9482421875C283.314453125 -422.3505859375 280.6552734375 -397.5439453125 267.486328125 -330.4287109375C262.8857421875 -306.998046875 258.4560546875 -280.5361328125 257.642578125 -271.62890625C256.8291015625 -262.7216796875 255.318359375 -251.2744140625 254.2861328125 -246.1923828125C245.8193359375 -204.4697265625 240.306640625 -120.4892578125 243.984375 -89.30078125C246.3935546875 -68.875 250.806640625 -54.7177734375 261.853515625 -31.9912109375C283.6669921875 12.8798828125 304.259765625 32.5703125 327.3720703125 30.6533203125C342.3330078125 29.412109375 352.4501953125 18.7783203125 360.2734375 -3.93359375C365.0830078125 -17.8955078125 369.9462890625 -59.2978515625 372.74609375 -110.1123046875C374.095703125 -134.5986328125 375.5927734375 -156.9833984375 376.078125 -159.8583984375C376.5634765625 -162.732421875 375.736328125 -182.3896484375 374.236328125 -203.5400390625C371.169921875 -246.8310546875 369.806640625 -365.7763671875 371.994140625 -399.1943359375C373.5283203125 -422.6826171875 376.833984375 -434.1435546875 387.630859375 -453.451171875C395.7900390625 -468.0419921875 409.8955078125 -482.2548828125 418.8955078125 -484.951171875C427.583984375 -487.5517578125 440.6474609375 -484.8212890625 448.6318359375 -478.73046875C460.4404296875 -469.7236328125 468.0693359375 -445.8466796875 471.033203125 -408.6103515625C473.083984375 -382.8466796875 472.833984375 -370.4794921875 469.4130859375 -327.8916015625C468.408203125 -315.419921875 468.39453125 -302.8388671875 469.37890625 -294.2939453125C472.6669921875 -265.6982421875 470.30859375 -181.0556640625 464.31640625 -112.6318359375C463.427734375 -102.4697265625 462.4814453125 -75.2529296875 462.2177734375 -52.1513671875L461.732421875 -10.1513671875L466.220703125 -0.583984375C477.677734375 23.8583984375 506.9287109375 39.4033203125 524.3974609375 30.3310546875C530.994140625 26.9072265625 550.5517578125 6.0810546875 554.52734375 -1.7529296875C565.4306640625 -23.2353515625 577.8857421875 -63.92578125 581.009765625 -88.2724609375C581.662109375 -93.3544921875 583.6240234375 -104.5615234375 585.37109375 -113.1787109375C594.41796875 -157.783203125 598.5166015625 -211.8486328125 599.78125 -303.3134765625C600.833984375 -379.3251953125 599.0390625 -397.1259765625 585.09375 -448.9091796875C583.3134765625 -455.5263671875 581.853515625 -464.3818359375 581.853515625 -468.5888671875C581.853515625 -485.2353515625 575.6572265625 -508.4912109375 564.4873046875 -533.7568359375C538.8046875 -591.8515625 529.5419921875 -604.1591796875 501.2138671875 -617.85546875C474.3310546875 -630.8505859375 465.4580078125 -632.9462890625 437.373046875 -632.9462890625C414.8486328125 -632.9462890625 397.515625 -631.1103515625 353.373046875 -624.0517578125C347.3671875 -623.091796875 331.4912109375 -618.8603515625 318.0927734375 -614.6455078125C243.5673828125 -591.2119140625 202.2783203125 -555.0537109375 173.98046875 -488.4375C167.541015625 -473.2724609375 153.5546875 -421.595703125 143.4345703125 -375.5517578125C127.6123046875 -303.580078125 121.166015625 -268.7470703125 117.1708984375 -233.59375C115.806640625 -221.5791015625 113.55078125 -202.3017578125 112.1630859375 -190.7529296875C110.775390625 -179.2041015625 108.9609375 -161.4365234375 108.1337890625 -151.2724609375C107.306640625 -141.1064453125 104.978515625 -121.8291015625 102.9619140625 -108.4306640625C99.9951171875 -88.7197265625 99.4931640625 -80.0205078125 100.333984375 -62.8349609375C101.5986328125 -36.869140625 106.9853515625 -4.2685546875 111.568359375 5.2060546875C116.083984375 14.5341796875 127.6845703125 27.5322265625 134.0556640625 30.4033203125Z"/>
</svg>