<svg xmlns="http://www.w3.org/2000/svg" viewBox="0 -1000 1000 1000">
	<path fill="#ee2304" d="M482.1005859375 -337.8232421875C471.2763671875 -335.8408203125 427.87109375 -335.7314453125 411.0751953125 -337.6455078125C405.33984375 -338.298828125 399.474609375 -339.802734375 398.0498046875 -340.98828125C395.841796875 -342.8203125 395.4345703125 -349.255859375 395.3427734375 -383.671875C395.2841796875 -405.9609375 395.140625 -431.3798828125 395.0244140625 -440.1572265625C394.7509765625 -460.8701171875 397.8037109375 -488.744140625 401.01953125 -494.9296875C409.5 -511.2373046875 427.79296875 -516.900390625 466.6103515625 -515.240234375C498.376953125 -513.87890625 506.8740234375 -511.52734375 515.880859375 -501.6015625C519.7392578125 -497.353515625 524.080078125 -490.294921875 525.529296875 -485.9169921875C529.1181640625 -475.08203125 531.380859375 -450.814453125 529.7373046875 -440.802734375C528.9951171875 -436.291015625 528.3388671875 -425.416015625 528.27734375 -416.638671875C528.0791015625 -388.525390625 523.4755859375 -370.81640625 512.076171875 -354.287109375C506.8232421875 -346.6689453125 495.03125 -340.19140625 482.1005859375 -337.8232421875ZM211.1171875 -323.365234375C200.8017578125 -320.6787109375 183.408203125 -320.2275390625 177.7919921875 -322.4970703125C173.341796875 -324.298828125 170.2626953125 -329.1142578125 164.8173828125 -342.7890625L160.4423828125 -353.7783203125L161.84375 -395.7099609375C163.37890625 -441.623046875 164.7802734375 -449.40234375 173.7451171875 -461.779296875C180.587890625 -471.2265625 185.3525390625 -473.8515625 213.6533203125 -483.7734375L237.7978515625 -492.236328125H259.419921875C279.630859375 -492.236328125 281.33984375 -491.98046875 285.5849609375 -488.330078125L290.126953125 -484.423828125L290.2060546875 -422.390625C290.2841796875 -364.791015625 290.0654296875 -360.01953125 287.1806640625 -355.640625C283.3017578125 -349.748046875 274.8388671875 -345.373046875 262.3115234375 -342.7890625C256.990234375 -341.6923828125 245.4443359375 -337.4296875 236.6533203125 -333.322265625C227.8623046875 -329.212890625 216.37109375 -324.732421875 211.1171875 -323.365234375ZM326.8125 -30.3701171875C337.6640625 -28.2373046875 343.0029296875 -28.357421875 355.564453125 -31.01953125C370.052734375 -34.0888671875 387.5390625 -42.41796875 391.1865234375 -47.986328125C395.728515625 -54.921875 398.6376953125 -64.73828125 401.5322265625 -82.94140625C403.9111328125 -97.8984375 404 -104.939453125 402.2568359375 -141.119140625C400.3330078125 -181.109375 399.1533203125 -198.5341796875 395.455078125 -241.666015625C393.8251953125 -260.67578125 393.9345703125 -262.853515625 396.7607421875 -267.697265625C406.3623046875 -284.13671875 445.962890625 -291.068359375 526.5107421875 -290.40625C568.421875 -290.060546875 572.5263671875 -290.822265625 580.6376953125 -300.46484375C589.0830078125 -310.5 591.98828125 -322.2265625 594.61328125 -356.84375C597.3994140625 -393.56640625 597.9013671875 -499.44921875 595.341796875 -509.880859375C594.4326171875 -513.5751953125 593.013671875 -521.6689453125 592.1865234375 -527.865234375C590.3515625 -541.626953125 586.669921875 -547.169921875 573.3779296875 -556.197265625C560.7412109375 -564.7763671875 554.12109375 -567.083984375 535.5615234375 -569.359375C517.1826171875 -571.6123046875 384.4150390625 -571.732421875 367.30859375 -569.509765625C360.595703125 -568.638671875 345.62109375 -567.1552734375 334.02734375 -566.2119140625C321.55859375 -565.2001953125 307.216796875 -562.837890625 298.9150390625 -560.431640625C291.197265625 -558.193359375 263.8359375 -551.67578125 238.1162109375 -545.947265625C212.3955078125 -540.21875 188.521484375 -534.09375 185.0654296875 -532.3359375C181.6064453125 -530.580078125 170.5908203125 -526.498046875 160.5791015625 -523.2685546875C139.3330078125 -516.412109375 128.771484375 -510.228515625 121.7548828125 -500.54296875C106.14453125 -478.9921875 99.3740234375 -432.2138671875 104.890625 -384.041015625C106.9853515625 -365.765625 120.1826171875 -312.455078125 126.0986328125 -298.3935546875C132.572265625 -282.98828125 141.2470703125 -270.9375 149.2177734375 -266.267578125C158.7236328125 -260.697265625 180.24609375 -256.359375 191.2041015625 -257.8046875C195.904296875 -258.427734375 214.3681640625 -262.666015625 232.2333984375 -267.224609375C274.544921875 -278.025390625 281.75 -278.033203125 286.2001953125 -267.287109375C288.5 -261.732421875 288.927734375 -231.595703125 288.1416015625 -130.595703125C287.8779296875 -96.626953125 288.1689453125 -65.83203125 288.791015625 -62.1572265625C291.033203125 -48.87109375 308.9736328125 -33.873046875 326.8125 -30.3701171875Z"/>
</svg>