<svg xmlns="http://www.w3.org/2000/svg" viewBox="0 -1000 1000 1000">
	<path fill="#ee2304" d="M266.9228515625 -140.01953125C223.2958984375 -130.443359375 191.587890625 -141.7255859375 170.724609375 -174.25390625C169.2412109375 -176.564453125 165.9423828125 -186.3916015625 163.392578125 -196.095703125C159.267578125 -211.7734375 158.6796875 -217.375 158.091796875 -246.53125C157.4833984375 -276.705078125 157.72265625 -280.201171875 161.0654296875 -290.212890625C168.7080078125 -313.095703125 183.5830078125 -334.0341796875 197.1279296875 -340.9794921875C206.4560546875 -345.7646484375 224.1337890625 -346.71875 240.54296875 -343.32421875C254.2626953125 -340.4873046875 258.5966796875 -338.662109375 273.9775390625 -329.259765625C285.6572265625 -322.115234375 307.0771484375 -314.75390625 324.16015625 -312.01171875C343.806640625 -308.857421875 368.880859375 -312.9931640625 386.015625 -322.2080078125C393.0498046875 -325.9951171875 402.5888671875 -331.935546875 407.2138671875 -335.4150390625C418.6259765625 -344.0009765625 423.3154296875 -346.177734375 439.96484375 -350.625C452.4296875 -353.9541015625 456.8046875 -354.3125 474.404296875 -353.46484375C517.5322265625 -351.390625 532.697265625 -341.564453125 550.4638671875 -304.185546875C556.7021484375 -291.0634765625 556.732421875 -290.93359375 556.6982421875 -269.1748046875C556.6611328125 -235.9794921875 546.9541015625 -194.66015625 534.0068359375 -172.572265625C523.892578125 -155.318359375 516.7802734375 -148.0693359375 506.0234375 -144.046875C480.0400390625 -134.322265625 471.4853515625 -135.45703125 442.380859375 -152.48828125C406.5576171875 -173.455078125 383.00390625 -180.0205078125 357.0888671875 -176.2744140625C345.232421875 -174.55859375 338.9052734375 -172.12109375 310.6044921875 -158.353515625C290.7568359375 -148.6982421875 273.5400390625 -141.47265625 266.9228515625 -140.01953125ZM236.6845703125 -61.236328125C255.568359375 -59.03515625 274.44921875 -60.9140625 301.783203125 -67.7197265625C308.0205078125 -69.271484375 325.7255859375 -76.841796875 341.130859375 -84.5390625C356.5322265625 -92.236328125 372.572265625 -99.400390625 376.76953125 -100.4609375C387.9365234375 -103.26953125 415.0439453125 -97.517578125 436.369140625 -87.810546875C454.3408203125 -79.6279296875 461.2451171875 -77.580078125 476.0859375 -76.021484375C506.4404296875 -72.8359375 544.71875 -89.65234375 564.5390625 -114.884765625C590.068359375 -147.375 613.607421875 -194.6015625 623.998046875 -234.1640625C627.8330078125 -248.759765625 628.212890625 -252.65625 627.2451171875 -267.4931640625C625.40625 -295.7734375 618.7724609375 -319.1484375 604.2900390625 -348.37890625C592.638671875 -371.89453125 574.396484375 -388.984375 547.12109375 -401.935546875C524.40234375 -412.7265625 509.9267578125 -414.578125 457.6044921875 -413.3994140625C412.6240234375 -412.384765625 412.20703125 -412.408203125 407.6240234375 -416.076171875C404.3154296875 -418.728515625 403.005859375 -421.3046875 403.005859375 -425.16015625C403.005859375 -431.904296875 405.3642578125 -435.3564453125 422.21484375 -453.22265625C429.666015625 -461.125 438.033203125 -471.7099609375 440.8056640625 -476.7412109375C445.224609375 -484.76953125 445.84375 -487.548828125 445.84375 -499.37890625C445.84375 -516.150390625 441.0341796875 -526.8896484375 430.06640625 -534.59765625C423.6845703125 -539.0849609375 421.517578125 -539.638671875 410.83984375 -539.638671875C386.8935546875 -539.607421875 363.45703125 -525.1669921875 347.3583984375 -500.5234375C328.6142578125 -471.8330078125 321.2587890625 -436.4091796875 328.357421875 -409.017578125C330.9140625 -399.142578125 330.890625 -398.75390625 327.4619140625 -395.33203125C324.6494140625 -392.525390625 321.990234375 -391.845703125 314.302734375 -391.986328125C302.548828125 -392.197265625 300.439453125 -393.2470703125 264.8447265625 -416.5712890625C235.7275390625 -435.654296875 230.4091796875 -437.91015625 214.84375 -437.943359375C170.8203125 -437.9951171875 128.1162109375 -405.55859375 101.0322265625 -351.4931640625C84.5263671875 -318.546875 70.1953125 -255.1337890625 72.560546875 -225.5068359375C73.6435546875 -211.9375 81.7412109375 -178.875 87.9482421875 -162.6708984375C93.2216796875 -148.90625 114.8818359375 -119.296875 132.3642578125 -101.95703125C145.705078125 -88.72265625 157.7392578125 -81.3095703125 175.60546875 -75.3212890625C186.4775390625 -71.673828125 226.68359375 -62.404296875 236.6845703125 -61.236328125Z"/>
</svg>