<svg xmlns="http://www.w3.org/2000/svg" viewBox="0 -1000 1000 1000">
	<path fill="#d600e3" d="M451.0068359375 -144.7421875C442.841796875 -141 438.763671875 -140.298828125 422.97265625 -139.9296875C412.8076171875 -139.69140625 401.3505859375 -140.162109375 397.5087890625 -140.9765625C378.1806640625 -145.07421875 363.9853515625 -159.2451171875 356.7294921875 -181.6875C354.0048828125 -190.11328125 341.9873046875 -203.12890625 331.8359375 -208.65234375C322.5087890625 -213.73046875 307.7392578125 -217.439453125 290.2529296875 -219.09375C265.08984375 -221.4765625 241.6806640625 -229.8671875 234.4140625 -239.10546875C232.619140625 -241.3857421875 229.4306640625 -249.66015625 227.3251953125 -257.4912109375C224.1669921875 -269.2421875 223.623046875 -274.76953125 224.2080078125 -289.107421875C225.0517578125 -309.8408203125 228.12109375 -317.1279296875 240.12890625 -326.91015625C244.490234375 -330.4609375 252.3857421875 -337.6220703125 257.6767578125 -342.82421875C266.0302734375 -351.0341796875 267.8486328125 -354.025390625 271.46484375 -365.501953125C275.7099609375 -378.96875 279.326171875 -402.57421875 279.326171875 -416.912109375C279.3330078125 -427.0498046875 283.4580078125 -437.37890625 288.9306640625 -440.9677734375C297.2529296875 -446.419921875 315.4091796875 -440.5166015625 341.6181640625 -423.83984375C362.984375 -410.244140625 371.146484375 -406.626953125 383.3349609375 -405.3662109375C396.37109375 -404.015625 403.8662109375 -406.494140625 422.087890625 -418.1767578125C430.7587890625 -423.73828125 439.419921875 -428.40625 441.3310546875 -428.5537109375C458.7216796875 -429.8828125 465.970703125 -424.01171875 470.1513671875 -405.21875C474.2900390625 -386.619140625 472.7080078125 -369.830078125 464.73046875 -347.646484375C458.4755859375 -330.255859375 458.3828125 -329.6484375 458.318359375 -304.806640625C458.25 -279.013671875 461.72265625 -251.509765625 469.2626953125 -218.078125C474.6630859375 -194.138671875 472.9130859375 -173.337890625 464.033203125 -155.93359375C461.2919921875 -150.560546875 458.5439453125 -148.1982421875 451.0068359375 -144.7421875ZM376.3212890625 -44.3359375C403.09765625 -39.646484375 436.2001953125 -45.369140625 464.0947265625 -59.505859375C482.0185546875 -68.5869140625 528.140625 -111.3798828125 537.7890625 -127.87890625C554.05859375 -155.697265625 561.9404296875 -190.529296875 556.4443359375 -210.3203125C555.4775390625 -213.7958984375 551.2392578125 -221.677734375 547.021484375 -227.8369140625C540.828125 -236.884765625 538.9169921875 -241.484375 537.0849609375 -251.7626953125C533.390625 -272.47265625 534.0634765625 -278.337890625 544.79296875 -318.8779296875C556.4140625 -362.78125 558.84375 -375.4140625 561.482421875 -405.60546875C563.2392578125 -425.7099609375 563.123046875 -428.4853515625 560.0126953125 -440.5439453125C553.84375 -464.4560546875 539.5087890625 -488.6279296875 524.0458984375 -501.181640625C509.10546875 -513.31640625 477.8994140625 -525.7265625 462.337890625 -525.7265625C451.1708984375 -525.7265625 440.9140625 -521.9326171875 423.205078125 -511.2578125C414.8076171875 -506.193359375 406.173828125 -502.20703125 403.6103515625 -502.20703125C400.1171875 -502.20703125 393.7080078125 -507.013671875 376.59765625 -522.4658203125C342.4970703125 -553.2578125 323.03125 -561.177734375 295.0830078125 -555.6337890625C278.259765625 -552.294921875 252.4638671875 -539.798828125 242.708984375 -530.26953125C232.05859375 -519.857421875 223.896484375 -502.5595703125 223.896484375 -490.3984375C223.896484375 -485.0732421875 222.310546875 -475.537109375 220.373046875 -469.203125C214.138671875 -448.83203125 207.8154296875 -439.296875 186.0224609375 -417.390625L165.72265625 -396.9853515625L156.876953125 -376.09765625C152.013671875 -364.607421875 145.6357421875 -348.40234375 142.7060546875 -340.0859375L137.3779296875 -324.96484375V-287.166015625C137.380859375 -244.16796875 139.216796875 -232.4921875 149.265625 -211.5263671875C153.708984375 -202.25390625 158.548828125 -195.841796875 168.9462890625 -185.46484375C184.6240234375 -169.8134765625 191.798828125 -165.708984375 218.8994140625 -156.904296875C254.4296875 -145.361328125 262.6328125 -139.27734375 278.833984375 -112.4462890625C290.345703125 -93.3740234375 316.154296875 -66.05078125 329.1669921875 -59.150390625C340.7880859375 -52.9873046875 358.28125 -47.4912109375 376.3212890625 -44.3359375Z"/>
</svg>