<svg xmlns="http://www.w3.org/2000/svg" viewBox="0 -1000 1000 1000">
	<path fill="#03868b" d="M510.6318359375 -494.47265625C497.2705078125 -488.005859375 477.0908203125 -490.935546875 469.376953125 -500.46484375C455.2060546875 -517.96484375 462.759765625 -550.455078125 482.962890625 -558.8984375C486.0390625 -560.18359375 489.5361328125 -562.412109375 490.728515625 -563.8505859375C495.8623046875 -570.037109375 520.6328125 -565.416015625 528.2412109375 -556.857421875C532.5 -552.0654296875 534.7763671875 -536.05859375 532.6259765625 -526.03125C529.9775390625 -513.671875 519.630859375 -498.830078125 510.6318359375 -494.47265625ZM233.4169921875 -467.193359375C218.94921875 -459.7529296875 196.4619140625 -465.7138671875 185.9931640625 -479.7685546875C183.001953125 -483.78515625 182.5302734375 -486.861328125 182.5302734375 -502.34375C182.5302734375 -518.5859375 182.9716796875 -521.169921875 187.244140625 -529.869140625C200.2763671875 -556.40625 234.357421875 -566.7216796875 254.1064453125 -550.103515625C262.48046875 -543.0556640625 264.353515625 -536.640625 262.982421875 -519.7177734375C261.984375 -507.41015625 260.7919921875 -503.2021484375 255.3095703125 -492.603515625C247.87890625 -478.248046875 242.2900390625 -471.759765625 233.4169921875 -467.193359375ZM302.9794921875 28.0703125C315.8896484375 30.203125 344.8154296875 30.208984375 362.2880859375 28.0703125C390.69140625 24.5869140625 412.7138671875 16.49609375 433.078125 2.0625C444.9384765625 -6.345703125 476.7490234375 -39.154296875 485.05859375 -51.548828125C496.5595703125 -68.69921875 521.740234375 -139.9921875 524.2861328125 -162.60546875C532.564453125 -236.125 529.7451171875 -291.162109375 513.27734375 -377.587890625C510.4638671875 -392.361328125 509.2265625 -403.0283203125 509.978515625 -406.033203125C511.646484375 -412.673828125 521.2822265625 -421.3515625 537.609375 -430.916015625C554.6923828125 -440.9267578125 558.6064453125 -446.037109375 576.84765625 -482.177734375L590.6943359375 -509.603515625L591.326171875 -526.7177734375C591.88671875 -541.822265625 591.4326171875 -545.404296875 587.4638671875 -557.25C582.2822265625 -572.703125 571.666015625 -592.75 564.078125 -601.400390625C553.044921875 -613.978515625 529.8095703125 -625.1171875 507.083984375 -628.7236328125C491.826171875 -631.1435546875 465.3095703125 -628.7373046875 452.1533203125 -623.736328125C442.8876953125 -620.216796875 425.2265625 -608.646484375 416.3232421875 -600.26171875C401.7724609375 -586.5595703125 392.869140625 -558.248046875 393.015625 -526.150390625C393.1796875 -490.29296875 403.2216796875 -464.15234375 425.185546875 -442.4140625C441.947265625 -425.822265625 446.322265625 -418.966796875 450.4619140625 -402.7822265625C455.66015625 -382.4453125 455.2294921875 -351.4716796875 448.6943359375 -276.669921875C447.2861328125 -260.5263671875 445.6044921875 -252.662109375 440.2490234375 -237.1884765625C436.2119140625 -225.529296875 431.9462890625 -208.26171875 429.4892578125 -193.6435546875C425.8076171875 -171.7412109375 424.5400390625 -167.63671875 416.244140625 -150.806640625C400.1455078125 -118.130859375 385.1650390625 -107.828125 353.740234375 -107.828125C344.0810546875 -107.828125 307.48828125 -119.685546875 296.8447265625 -126.26171875C289.359375 -130.8896484375 285.1171875 -140.01171875 279.119140625 -164.37890625C276.4287109375 -175.3203125 272.583984375 -188.806640625 270.57421875 -194.3515625C267.4365234375 -203.001953125 266.732421875 -209.783203125 265.5908203125 -242.23046875C264.859375 -263.017578125 263.7138671875 -294.015625 263.0478515625 -311.109375C261.208984375 -358.16796875 264.1171875 -369.966796875 284.1875 -396.85546875C300.201171875 -418.3134765625 320.9140625 -462.5390625 327.0390625 -488.3515625C332.859375 -512.87109375 332.845703125 -522.71875 326.95703125 -541.267578125C321.265625 -559.19140625 317.7998046875 -566.0107421875 306.8935546875 -580.7490234375C295.7333984375 -595.83203125 289.6259765625 -601.0859375 271.1376953125 -611.5078125C249.3623046875 -623.78515625 240.4990234375 -625.9755859375 217.8310546875 -624.6796875C177.5029296875 -622.376953125 158.5771484375 -612.173828125 138.458984375 -581.890625C128.7861328125 -567.3369140625 123.724609375 -557.23046875 118.94921875 -542.94921875C117.55859375 -538.7900390625 114.697265625 -530.853515625 112.591796875 -525.3095703125C104.703125 -504.552734375 108.5380859375 -469.890625 120.8671875 -450.4970703125C123.529296875 -446.3134765625 134.67578125 -434.955078125 145.63671875 -425.2587890625C167.7236328125 -405.7216796875 173.83203125 -397.251953125 180.6025390625 -376.76171875C188.091796875 -354.103515625 188.6865234375 -345.4453125 188.5224609375 -261.548828125C188.388671875 -193.66796875 188.84375 -177.876953125 191.76953125 -148.98828125C198.998046875 -77.626953125 208.0146484375 -46.140625 229.353515625 -17.751953125C245.28125 3.4365234375 278.2333984375 23.9375 302.9794921875 28.0703125Z"/>
</svg>