<svg xmlns="http://www.w3.org/2000/svg" viewBox="0 -1000 1000 1000">
	<path fill="#964ffa" d="M404.685546875 -391.150390625C381.6455078125 -387.076171875 377.6875 -386.998046875 359.7294921875 -390.244140625C333.0859375 -395.060546875 309 -405.9091796875 293.505859375 -420.0732421875C278.4775390625 -433.810546875 275.6474609375 -443.7802734375 284.14453125 -453.052734375C290.2626953125 -459.728515625 304.12890625 -463.19140625 324.818359375 -463.19140625C344.5498046875 -463.197265625 362.45703125 -466.2431640625 394.640625 -475.068359375C442.8408203125 -488.28515625 476.3603515625 -488.4462890625 489.2841796875 -475.5234375C494.513671875 -470.29296875 494.8896484375 -469.244140625 493.8505859375 -462.75C490.7705078125 -443.482421875 480.892578125 -430.65234375 455.083984375 -412.400390625C436.0595703125 -398.943359375 426.8857421875 -395.07421875 404.685546875 -391.150390625ZM353.7783203125 -319.591796875C367.9560546875 -316.51171875 379.3720703125 -316.501953125 390.4599609375 -319.5576171875C395.51171875 -320.94921875 404.9384765625 -323.498046875 411.4052734375 -325.224609375C433.0205078125 -330.9873046875 459.71875 -343.0048828125 482.806640625 -357.36328125C507.8125 -372.916015625 520.7705078125 -384 529.154296875 -397.0087890625C537.2861328125 -409.6279296875 551.0537109375 -437.689453125 553.3779296875 -446.388671875C554.48828125 -450.544921875 558.0673828125 -462.26171875 561.3310546875 -472.42578125C566.6806640625 -489.0859375 567.2822265625 -492.892578125 567.4560546875 -511.06640625C567.6650390625 -533.310546875 566.7490234375 -536.318359375 555.53125 -550.16796875C545.728515625 -562.271484375 538.8681640625 -564.861328125 517.24609375 -564.62890625C502.6103515625 -564.4755859375 493.087890625 -563.16015625 471.47265625 -558.3095703125C452.6806640625 -554.095703125 436.7158203125 -551.685546875 420.23046875 -550.5712890625C407.0615234375 -549.6796875 380.787109375 -547.734375 361.8447265625 -546.244140625C342.90234375 -544.7578125 305.3115234375 -543.345703125 278.3095703125 -543.109375L229.2138671875 -542.6796875L209.4443359375 -532.75390625C193.6162109375 -524.806640625 188.5849609375 -521.3818359375 184.212890625 -515.57421875C175.7431640625 -504.322265625 173.09765625 -492.783203125 172.98828125 -466.546875C172.8515625 -434.712890625 175.5078125 -428.884765625 207.5234375 -390.73046875C229.26171875 -364.822265625 234.3447265625 -360.734375 254.8046875 -352.7119140625C279.888671875 -342.875 341.5048828125 -322.2578125 353.7783203125 -319.591796875ZM197.9775390625 -37.03515625C207.14453125 -34.02734375 223.4306640625 -35.19921875 231.6953125 -39.4619140625C243.248046875 -45.419921875 250.935546875 -54.8359375 266.96875 -82.6650390625C296.3837890625 -133.72265625 310.2197265625 -147.193359375 344.2529296875 -157.92578125C370.2568359375 -166.12109375 381.67578125 -167.68359375 403.4140625 -166.01171875C414.2763671875 -165.177734375 426.943359375 -163.208984375 431.564453125 -161.640625C456.2392578125 -153.263671875 472.912109375 -134.173828125 496.13671875 -87.70703125C504.8798828125 -70.212890625 517.6806640625 -56.171875 530.685546875 -49.814453125C537.4638671875 -46.5 541.681640625 -45.70703125 552.5263671875 -45.70703125C564.1884765625 -45.70703125 567.01171875 -46.322265625 573.892578125 -50.365234375C588.4013671875 -58.892578125 601.51953125 -72.654296875 608.3798828125 -86.5341796875C614.3916015625 -98.6953125 614.712890625 -100.1953125 615.2705078125 -118.76953125C615.9541015625 -141.388671875 612.4609375 -163.7255859375 606.36328125 -175.7431640625C596.3720703125 -195.43359375 576.6025390625 -217.134765625 561.8984375 -224.55859375C522.431640625 -244.482421875 499.298828125 -251.802734375 466.1923828125 -254.8486328125C448.138671875 -256.509765625 442.984375 -256.328125 421.0478515625 -253.2626953125C407.4267578125 -251.359375 393.0166015625 -249.373046875 389.021484375 -248.853515625C376.0087890625 -247.1513671875 349.6396484375 -239.6455078125 330.765625 -232.265625C320.6005859375 -228.291015625 309.5673828125 -224.171875 306.2412109375 -223.109375C297.0712890625 -220.173828125 287.2646484375 -213.384765625 266.521484375 -195.6015625C256.1337890625 -186.697265625 242.9951171875 -176.259765625 237.3212890625 -172.4072265625C222.8876953125 -162.607421875 199.4677734375 -151.9541015625 190.4853515625 -151.1064453125C183.5703125 -150.453125 181.7216796875 -151.19921875 168.794921875 -159.822265625C146.27734375 -174.84765625 128.4453125 -177.818359375 111.7861328125 -169.3203125C93.380859375 -159.927734375 84.64453125 -145.75 84.64453125 -125.259765625C84.64453125 -104.87890625 87.1875 -95.98828125 95.3359375 -87.89453125C99.666015625 -83.591796875 105.767578125 -79.7734375 111.5263671875 -77.7734375C130.865234375 -71.046875 163.322265625 -56.248046875 176.9775390625 -47.9248046875C184.791015625 -43.1640625 194.2412109375 -38.26171875 197.9775390625 -37.03515625Z"/>
</svg>