<svg xmlns="http://www.w3.org/2000/svg" viewBox="0 -1000 1000 1000">
	<path fill="#d600e3" d="M319.6162109375 -15.6044921875C343.88671875 -8.0166015625 366.0693359375 -18.1064453125 374.3271484375 -40.48046875C380.486328125 -57.1708984375 384.68359375 -85.84375 386.4375 -123.2060546875C390.439453125 -208.5654296875 391.236328125 -219.3740234375 394.763671875 -236.3193359375C399.2412109375 -257.8291015625 401.599609375 -263.578125 408.240234375 -269.1669921875C414.7861328125 -274.6689453125 422.14453125 -274.857421875 449.642578125 -270.2158203125C474.3779296875 -266.0390625 525.248046875 -265.546875 543.0078125 -269.3095703125C566.099609375 -274.2041015625 594.71484375 -294.5927734375 599.701171875 -309.70703125C604.9482421875 -325.6005859375 589.2763671875 -342.41015625 558.6552734375 -353.7373046875C551.5869140625 -356.3525390625 519.9326171875 -359.9033203125 480.4140625 -362.5146484375C454.6806640625 -364.216796875 419.9912109375 -370.875 409.8193359375 -376.0634765625C406.0595703125 -377.9814453125 400.0712890625 -382.181640625 396.509765625 -385.3974609375C384.6669921875 -396.099609375 384.7998046875 -395.1728515625 385.77734375 -460.0458984375C387.0595703125 -545.4892578125 383.5185546875 -570.6591796875 368.6025390625 -582.0263671875C359.6982421875 -588.8154296875 350.2919921875 -588.5244140625 336.216796875 -581.0224609375C323.54296875 -574.2646484375 312.6162109375 -562.6064453125 305.7666015625 -548.5244140625C295.3212890625 -527.0517578125 292.4052734375 -506.5546875 290.83984375 -443.5986328125L289.736328125 -399.080078125L284.978515625 -395.5419921875C276.65234375 -389.3525390625 260.4267578125 -390.8837890625 217.9521484375 -401.8798828125C178.525390625 -412.08203125 170.0458984375 -412.9599609375 150.662109375 -408.85546875C129.853515625 -404.4462890625 114.271484375 -392.7939453125 105.17578125 -374.8427734375C97.2705078125 -359.2431640625 97.341796875 -346.7333984375 105.39453125 -337.1630859375C111.1982421875 -330.2666015625 130.7763671875 -321.21875 165.3525390625 -309.4580078125C190.806640625 -300.7998046875 193.591796875 -300.2119140625 215.8125 -298.8271484375C243.630859375 -297.0947265625 253.2255859375 -295.1669921875 264.5322265625 -289.0380859375C270.9921875 -285.5380859375 273.859375 -282.6162109375 276.94921875 -276.388671875C283.3515625 -263.4755859375 282.5205078125 -249.0556640625 272.150390625 -192.9248046875L263.3017578125 -145.0458984375L264.443359375 -114.0517578125C265.9541015625 -73.07421875 266.8359375 -69.0341796875 277.8896484375 -52.416015625C293.57421875 -28.8349609375 302.515625 -20.9462890625 319.6162109375 -15.6044921875Z"/>
</svg>