<svg xmlns="http://www.w3.org/2000/svg" viewBox="0 -1000 1000 1000">
	<path fill="#964ffa" d="M559.40234375 -41.013671875C564.5908203125 -38.8837890625 573.2724609375 -40.1591796875 581.240234375 -44.2236328125C589.12890625 -48.2490234375 600.9033203125 -61.1318359375 604.76953125 -69.970703125C608.5087890625 -78.5126953125 619.1318359375 -127.9560546875 620.720703125 -144.1845703125C621.353515625 -150.6552734375 622.8779296875 -160.1025390625 624.1083984375 -165.1845703125C627.08203125 -177.47265625 632.3623046875 -230.3857421875 637.609375 -300.4267578125C639.9609375 -331.841796875 643.1669921875 -367.7509765625 644.732421875 -380.2265625C648.751953125 -412.2841796875 648.587890625 -505.5400390625 644.455078125 -538.984375C640.83203125 -568.2802734375 634.6796875 -592.3251953125 628.85546875 -599.9638671875C623.2841796875 -607.2646484375 610.4912109375 -615.4267578125 604.6083984375 -615.4267578125C596.5185546875 -615.4267578125 578.857421875 -608.9365234375 573.4365234375 -603.9736328125C564.3759765625 -595.6748046875 562.21875 -589.556640625 560.90625 -568.3857421875C559.2900390625 -542.3857421875 554.8193359375 -497.4560546875 552.7138671875 -486.0673828125C551.7734375 -480.9853515625 550.6865234375 -461.328125 550.3037109375 -442.3857421875C549.9140625 -423.443359375 548.400390625 -395.8505859375 546.93359375 -381.0673828125C545.4638671875 -366.28125 542.380859375 -323.5673828125 540.0771484375 -286.1474609375C537.7734375 -248.7236328125 535.107421875 -214.3251953125 534.154296875 -209.7080078125C532.458984375 -201.5244140625 530.048828125 -139.232421875 530.2470703125 -108.9052734375C530.4560546875 -77.7666015625 543.419921875 -47.576171875 559.40234375 -41.013671875ZM69.40234375 14.4736328125C80.2822265625 17.7548828125 100.3623046875 12.361328125 117.5615234375 1.5400390625C130.423828125 -6.5537109375 133.5576171875 -9.6845703125 143.1826171875 -24.0673828125C164.083984375 -55.2841796875 167.4296875 -55.669921875 207.6865234375 -31.5048828125C240.396484375 -11.8681640625 248.845703125 -8.4677734375 265.40234375 -8.2626953125C276.20703125 -8.1298828125 279.091796875 -8.748046875 285.6572265625 -12.6064453125C295.166015625 -18.1953125 304.4052734375 -28.107421875 314.3544921875 -43.3857421875C323.73046875 -57.7861328125 327.12109375 -60.892578125 334.818359375 -62.1435546875C344.80859375 -63.763671875 351.89453125 -61.3544921875 364.80078125 -51.9375C380.564453125 -40.439453125 390.2373046875 -37.0078125 407.361328125 -36.8369140625C422.8857421875 -36.6796875 429.041015625 -39.2158203125 446.2646484375 -52.8701171875C461.5498046875 -64.98046875 466.6220703125 -71.5703125 476.431640625 -92.064453125C492.4990234375 -125.6318359375 502.77734375 -164.716796875 504.71484375 -199.6240234375C505.330078125 -210.7119140625 506.55078125 -223.943359375 507.42578125 -229.0263671875C510.2080078125 -245.189453125 517.40234375 -335.328125 517.361328125 -353.498046875C517.3408203125 -363.1162109375 516.5615234375 -374.0087890625 515.6357421875 -377.7080078125C514.708984375 -381.40234375 513.2841796875 -390.91796875 512.470703125 -398.8505859375C508.392578125 -438.6806640625 495.6748046875 -460.3056640625 474.458984375 -463.48828125C465.1796875 -464.8798828125 453.5 -459.5478515625 446.5068359375 -450.7294921875C437.548828125 -439.42578125 434.8212890625 -427.77734375 433.146484375 -393.666015625C432.3056640625 -376.5732421875 430.1689453125 -348.6005859375 428.40234375 -331.5068359375C426.634765625 -314.4130859375 424.7001953125 -292.111328125 424.109375 -281.9462890625C423.5146484375 -271.78125 421.8974609375 -258.5498046875 420.5205078125 -252.544921875C419.1396484375 -246.5400390625 416.671875 -232.5224609375 415.0380859375 -221.400390625C409.4560546875 -183.4365234375 399.4072265625 -167.7138671875 377.84375 -163.212890625C369.5615234375 -161.4833984375 367.7333984375 -161.6298828125 361.9091796875 -164.484375C349.2763671875 -170.6669921875 343.5166015625 -184.6806640625 340.8955078125 -215.5869140625C336.2607421875 -270.1982421875 335.3515625 -274.9326171875 327.0966796875 -287.28515625C321.2998046875 -295.9560546875 310.1884765625 -302.9462890625 302.2001953125 -302.9462890625C292.267578125 -302.9462890625 279.7919921875 -297.2451171875 271.021484375 -288.7001953125C261.1953125 -279.1259765625 259.9404296875 -275.6640625 256.8134765625 -249.4658203125C255.01171875 -234.3642578125 255.1279296875 -229.2099609375 257.71875 -209.9228515625C260.525390625 -189.052734375 260.53515625 -186.8583984375 257.9072265625 -172.6845703125C251.7890625 -139.7138671875 247.697265625 -131.7197265625 233.1298828125 -124.2685546875C225.3818359375 -120.3037109375 222.4560546875 -119.6298828125 217.267578125 -120.6005859375C209.1015625 -122.1357421875 197.6416015625 -133.353515625 194.8896484375 -142.5107421875C193.779296875 -146.205078125 192.275390625 -162.8818359375 191.5439453125 -179.5712890625C190.0810546875 -212.978515625 188.5458984375 -218.6494140625 180.0185546875 -222.1826171875C173.599609375 -224.8427734375 166.1513671875 -221.7861328125 157.2958984375 -212.8623046875C149.4169921875 -204.9189453125 145.53125 -197.5947265625 142.03125 -184.08984375C133.1474609375 -149.80078125 100.82421875 -91.9111328125 71.4462890625 -57.666015625C59.8388671875 -44.1337890625 53.7998046875 -32.2197265625 52.5966796875 -20.4814453125C50.89453125 -3.8837890625 58.0791015625 11.0625 69.40234375 14.4736328125Z"/>
</svg>