<svg xmlns="http://www.w3.org/2000/svg" viewBox="0 -1000 1000 1000">
	<path fill="#3c9202" d="M252.447265625 22.515625C257.0615234375 26.3984375 259.1669921875 26.9287109375 269.984375 26.9287109375C283.8134765625 26.9287109375 299.529296875 22.720703125 315.392578125 14.7705078125C326.28515625 9.3115234375 359.1796875 -21.4638671875 372.4345703125 -38.5947265625C381.5400390625 -50.3662109375 408.3271484375 -92.0751953125 417.94140625 -109.458984375C425.9091796875 -123.8583984375 447.048828125 -177.6025390625 451.1953125 -193.9921875C456.865234375 -216.3974609375 460.7138671875 -247.927734375 460.7138671875 -271.9599609375C460.7138671875 -290.5947265625 459.5654296875 -303.1591796875 455.5771484375 -328.1376953125C439.6796875 -427.7236328125 428.755859375 -470.4169921875 409.1708984375 -509.5283203125C398.4111328125 -531.017578125 377.63671875 -559.6328125 358.7529296875 -578.9716796875C333.5830078125 -604.7568359375 322.1767578125 -612.87109375 300.212890625 -620.6162109375L282.31640625 -626.9287109375L274.6572265625 -624.0029296875C264.734375 -620.212890625 254.7783203125 -611.1416015625 252.2998046875 -603.62890625C247.890625 -590.2685546875 254.5390625 -575.3623046875 279.6953125 -542.21484375C293.5517578125 -523.9560546875 297.236328125 -517.4794921875 311.8310546875 -485.7119140625C320.8984375 -465.98046875 330.1748046875 -444.43359375 332.4443359375 -437.8330078125C338.2685546875 -420.9208984375 349.83203125 -364.6416015625 349.83203125 -353.228515625C349.83203125 -347.978515625 350.73046875 -337.4716796875 351.8310546875 -329.876953125C353.509765625 -318.2626953125 353.3525390625 -311.693359375 350.83984375 -288.62890625C345.412109375 -238.7294921875 338.2998046875 -215.3916015625 315.8603515625 -173.8427734375C296.4296875 -137.8662109375 295.1171875 -135.1591796875 264.1435546875 -67.3798828125C239.7490234375 -14.001953125 238.5771484375 -10.9462890625 239.4892578125 -3.2353515625C240.6923828125 6.9296875 245.662109375 16.8076171875 252.447265625 22.515625Z"/>
</svg>