<svg xmlns="http://www.w3.org/2000/svg" viewBox="0 -1000 1000 1000">
	<path fill="#d600e3" d="M352.6142578125 -72.1025390625C330.322265625 -64.3427734375 316.5712890625 -66.322265625 303.4736328125 -79.1806640625C291.6884765625 -90.7431640625 288.564453125 -99.8759765625 288.5302734375 -122.7216796875C288.513671875 -138.5029296875 289.2275390625 -144.1943359375 292.423828125 -153.8017578125C299.9189453125 -176.3232421875 310.494140625 -189.2021484375 322.7958984375 -190.7978515625C327.0302734375 -191.3486328125 338.8330078125 -193.7578125 349.025390625 -196.1533203125C361.8837890625 -199.1787109375 369.4677734375 -200.15625 373.80859375 -199.3388671875C382.107421875 -197.7841796875 399.703125 -185.5791015625 406.51171875 -176.654296875C411.6494140625 -169.9248046875 411.9736328125 -168.6806640625 411.9736328125 -155.7021484375C411.9736328125 -131.9541015625 404.583984375 -112.1806640625 389.0869140625 -94.4658203125C379.9267578125 -83.9970703125 370.9306640625 -78.4794921875 352.6142578125 -72.1025390625ZM309.4931640625 -7.751953125C330.4208984375 -2.9150390625 352.4501953125 -2.2587890625 367.46875 -6.0263671875C389.3193359375 -11.5087890625 434.0126953125 -29.88671875 447.1103515625 -38.7763671875C463.185546875 -49.6904296875 478.5458984375 -68.0341796875 488.560546875 -88.2822265625C506.1494140625 -123.8369140625 511.3447265625 -181.0703125 499.251953125 -206.0517578125C494.708984375 -215.4345703125 468.025390625 -242.8916015625 455.4365234375 -251.1357421875C450.234375 -254.54296875 442.294921875 -258.494140625 437.796875 -259.916015625C425.095703125 -263.9326171875 384.1279296875 -264.701171875 353.861328125 -261.4912109375C320.1298828125 -257.9130859375 311.6357421875 -258.0185546875 304.9228515625 -262.1103515625C292.953125 -269.4111328125 282.958984375 -289.7998046875 281.427734375 -310.0400390625C279.677734375 -333.15625 292.1259765625 -370.4736328125 312.791015625 -404.0791015625C325.865234375 -425.3349609375 337.154296875 -439.0341796875 367.943359375 -470.9931640625C399.9736328125 -504.2431640625 409.4208984375 -516.4345703125 415.388671875 -532.24609375C424.216796875 -555.6279296875 413.798828125 -582.5927734375 391.4765625 -594.1357421875C383.2626953125 -598.3837890625 368.166015625 -596.5380859375 353.998046875 -589.55859375C337.4931640625 -581.423828125 317.125 -561.3193359375 286.3671875 -522.7958984375C261.4638671875 -491.6103515625 259.8095703125 -489.0537109375 246.14453125 -460.6357421875C231.4541015625 -430.0830078125 219.9697265625 -399.6455078125 213.724609375 -374.7216796875C211.755859375 -366.8681640625 207.8115234375 -352.8818359375 204.9541015625 -343.642578125C199.2392578125 -325.1513671875 197.892578125 -313.564453125 195.189453125 -259.642578125C189.6826171875 -149.7783203125 206.619140625 -76.1494140625 246.5888671875 -36.1787109375C261.3984375 -21.369140625 272.732421875 -16.2451171875 309.4931640625 -7.751953125Z"/>
</svg>