<svg xmlns="http://www.w3.org/2000/svg" viewBox="0 -1000 1000 1000">
	<path fill="#ee2304" d="M464.0849609375 -277.5869140625C451.578125 -273.3828125 423.8623046875 -272.9453125 406.65234375 -276.677734375C389.9111328125 -280.3076171875 345.037109375 -295.740234375 339.796875 -299.6669921875C329.7958984375 -307.162109375 322.4921875 -315.2119140625 322.4921875 -318.736328125C322.4921875 -321.33984375 329.7001953125 -328.7744140625 347.48046875 -344.50390625C361.220703125 -356.662109375 376.5302734375 -369.669921875 381.5 -373.40625C399.30078125 -386.80078125 425.068359375 -397.33203125 459.265625 -405.189453125C474.3662109375 -408.6591796875 477.2373046875 -408.8369140625 490.1572265625 -407.111328125C524.490234375 -402.517578125 537.8720703125 -394.30078125 544.154296875 -373.95703125C548.279296875 -360.60546875 548.48828125 -353.1171875 545.0498046875 -342.001953125C542.0078125 -332.1650390625 526.8525390625 -313.08984375 514.7529296875 -303.87109375C504.3759765625 -295.96875 477.8935546875 -282.228515625 464.0849609375 -277.5869140625ZM100.2861328125 -112.943359375C127.5205078125 -106.52734375 155.4833984375 -115.9169921875 179.5048828125 -139.544921875C218.1103515625 -177.515625 232.5927734375 -194.181640625 246.7666015625 -216.955078125C261.1630859375 -240.091796875 266.43359375 -247.1943359375 269.1923828125 -247.1943359375C270.04296875 -247.1943359375 277.607421875 -242.94921875 285.9951171875 -237.7607421875C301.79296875 -227.98828125 357.109375 -204.900390625 381.2060546875 -198.01953125C402.455078125 -191.953125 421.541015625 -192.87890625 455.21484375 -201.60546875C483.2666015625 -208.875 508.607421875 -217.515625 522.412109375 -224.51953125C544.5810546875 -235.7646484375 588.1025390625 -274.4560546875 601.521484375 -294.8515625C608.8525390625 -305.990234375 623.70703125 -342.75390625 627.6552734375 -359.5361328125C631.8251953125 -377.248046875 628.1025390625 -404.705078125 618.8466796875 -424.521484375C613.138671875 -436.744140625 590.333984375 -458.482421875 575.3330078125 -466.001953125C558.208984375 -474.5849609375 532.078125 -483.994140625 517.7744140625 -486.732421875C501.6005859375 -489.8291015625 475.26171875 -489.77734375 463.17578125 -486.6298828125C449.85546875 -483.16015625 401.3681640625 -458.5478515625 376.2529296875 -442.50390625C364.7041015625 -435.1279296875 351.8525390625 -427.3759765625 347.6923828125 -425.28125C337.74609375 -420.263671875 315.0029296875 -404.619140625 297.673828125 -390.8720703125C287.970703125 -383.1748046875 282.6865234375 -377.607421875 280.1708984375 -372.42578125C276.6708984375 -365.220703125 276.4384765625 -365.0703125 272.23046875 -367.28515625C267.0830078125 -369.9951171875 257.755859375 -379.732421875 244.8427734375 -395.8759765625C218.80078125 -428.439453125 166.208984375 -465.728515625 142.6728515625 -468.3125C125.5625 -470.193359375 104.3779296875 -462.40625 91.4677734375 -449.5C79.3857421875 -437.41796875 75.5263671875 -423.923828125 78.9169921875 -405.607421875C81.658203125 -390.8173828125 85.5107421875 -383.3828125 94.373046875 -375.794921875C102.1591796875 -369.1337890625 158.42578125 -331.43359375 172.1318359375 -323.6953125C182.720703125 -317.720703125 201.1201171875 -304.263671875 206.38671875 -298.64453125C210.328125 -294.4375 210.3486328125 -294.27734375 207.3818359375 -289.6796875C200.7197265625 -279.357421875 174.5556640625 -248.640625 157.0654296875 -230.6171875C135.552734375 -208.4453125 115.38671875 -192.0966796875 101.373046875 -185.46875C83.8388671875 -177.173828125 79.37890625 -173.650390625 74.8125 -164.482421875C68.072265625 -150.955078125 69.6474609375 -133.8515625 78.5380859375 -124.017578125C82.236328125 -119.9296875 92.2236328125 -114.84375 100.2861328125 -112.943359375Z"/>
</svg>