<svg xmlns="http://www.w3.org/2000/svg" viewBox="0 -1000 1000 1000">
	<path fill="#3c9202" d="M321.48828125 -258.5029296875C335.8779296875 -254.1728515625 351.087890625 -262.9365234375 369.1728515625 -285.9794921875C385.0693359375 -306.23828125 388.234375 -315.0869140625 394.4658203125 -356.728515625C397.5283203125 -377.2158203125 397.5927734375 -380.8046875 395.484375 -414.6865234375C392.85546875 -456.916015625 391.1806640625 -463.328125 380.130859375 -473.5166015625C364.74609375 -487.6982421875 347.76953125 -490.8837890625 334.029296875 -482.1708984375C320.6240234375 -473.6669921875 311.3134765625 -459.623046875 309.6279296875 -445.3525390625C309.1083984375 -440.9609375 306.1279296875 -430.1875 303.00390625 -421.4072265625C288.3720703125 -380.2783203125 281.5048828125 -326.6123046875 287.763671875 -302.30078125C292.7841796875 -282.8017578125 308.4765625 -262.419921875 321.48828125 -258.5029296875ZM440.0302734375 -132.66015625C457.90625 -130.5888671875 465.3955078125 -130.5712890625 501.314453125 -132.5029296875C537.5078125 -134.451171875 559.970703125 -137.5888671875 573.21875 -142.544921875C583.1611328125 -146.2666015625 607.42578125 -166.2138671875 613.0205078125 -175.2646484375C617.4365234375 -182.4091796875 618.87890625 -192.9638671875 616.4453125 -200.3359375C612.5732421875 -212.0693359375 598.4912109375 -218.7998046875 564.314453125 -225.2490234375C548.7353515625 -228.1884765625 539.2783203125 -228.8623046875 515.482421875 -228.7158203125C480.51953125 -228.4970703125 464.87890625 -226.5791015625 443.3564453125 -219.8701171875C434.5751953125 -217.1318359375 423.9931640625 -214.0244140625 419.833984375 -212.9658203125C405.091796875 -209.208984375 392.91015625 -189.7236328125 392.623046875 -169.4443359375C392.458984375 -157.8193359375 395.876953125 -150.802734375 404.8974609375 -144.2705078125C413.5341796875 -138.0126953125 424.177734375 -134.4951171875 440.0302734375 -132.66015625ZM148.515625 -114.9345703125C177.947265625 -111.8515625 223.35546875 -112.5556640625 237.0751953125 -116.30859375C252.99609375 -120.6630859375 262.23828125 -125.8857421875 272.916015625 -136.5673828125C286.8232421875 -150.4716796875 290.8837890625 -159.5595703125 291.7216796875 -178.6494140625C292.3056640625 -191.9619140625 291.919921875 -194.6591796875 288.48828125 -201.2314453125C285.8564453125 -206.2724609375 282.41796875 -209.8134765625 277.875 -212.1513671875C271.4326171875 -215.4638671875 268.5712890625 -215.6044921875 208.99609375 -215.484375C158.1025390625 -215.3818359375 144.4443359375 -214.8583984375 133.6572265625 -212.5966796875C101.48046875 -205.8427734375 84.72265625 -191.1181640625 82.603515625 -167.728515625C81.3115234375 -153.4990234375 85.607421875 -140.6689453125 94.7060546875 -131.5693359375C104.1298828125 -122.146484375 116.6669921875 -118.2705078125 148.515625 -114.9345703125Z"/>
</svg>