<svg xmlns="http://www.w3.org/2000/svg" viewBox="0 -1000 1000 1000">
	<path fill="#854e28" d="M98.1689453125 -91.4482421875C106.8583984375 -76.3544921875 129.6640625 -57.087890625 152.35546875 -45.671875C165.1572265625 -39.2314453125 204.3115234375 -25.615234375 226.7421875 -19.8076171875C252.05078125 -13.248046875 297.609375 -11.3095703125 337.173828125 -15.099609375C386.3857421875 -19.8173828125 399.1708984375 -25.3134765625 405.2060546875 -44.35546875C409.95703125 -59.33984375 408.6650390625 -63.62109375 395.4951171875 -76.59765625C378.2724609375 -93.568359375 360.9169921875 -102.701171875 321.28515625 -115.6611328125C266.2724609375 -133.6474609375 256.6767578125 -143.5224609375 272.1796875 -166.1923828125C277.208984375 -173.5419921875 283.33203125 -179.2939453125 308.640625 -200.439453125C346.8701171875 -232.3759765625 401.560546875 -275.7412109375 423.2646484375 -291.330078125C432.390625 -297.884765625 448.7080078125 -310.97265625 459.5224609375 -320.41015625C470.3388671875 -329.8486328125 488.068359375 -344.7255859375 498.9228515625 -353.47265625C528.09375 -376.9794921875 579.3701171875 -428.1787109375 589.5498046875 -443.9609375C605.30078125 -468.3837890625 610.125 -486.712890625 605.00390625 -502.6611328125C602.6181640625 -510.087890625 600.56640625 -513.140625 592.9384765625 -520.599609375C576.716796875 -536.46484375 559.982421875 -538.54296875 534.8515625 -527.8115234375C517.3828125 -520.353515625 503.796875 -508.015625 435.86328125 -437.916015625C402.421875 -403.4052734375 369.9072265625 -370.171875 363.607421875 -364.0546875C279.05078125 -281.9873046875 236.2744140625 -241.947265625 227.6728515625 -236.8154296875C201.0390625 -220.921875 179.2822265625 -222.802734375 174.779296875 -241.3818359375C171.5185546875 -254.8271484375 178.208984375 -292.4716796875 192.4423828125 -340.806640625C197.46875 -357.8740234375 198.9599609375 -381.0791015625 195.8056640625 -393.1611328125C189.25390625 -418.2607421875 164.4931640625 -426.5478515625 144.0908203125 -410.4658203125C135.2939453125 -403.53125 122.4423828125 -382.2431640625 118.7900390625 -368.5615234375C117.2744140625 -362.888671875 114.3017578125 -351.7041015625 112.1796875 -343.69921875C110.0556640625 -335.697265625 107.2001953125 -320.990234375 105.8310546875 -311.0166015625C104.462890625 -301.0439453125 102.69921875 -290.8544921875 101.9111328125 -288.375C93.2021484375 -260.935546875 83.42578125 -195.17578125 82.435546875 -157.3662109375C81.8818359375 -136.3173828125 88.6416015625 -107.9990234375 98.1689453125 -91.4482421875Z"/>
</svg>