<svg xmlns="http://www.w3.org/2000/svg" viewBox="0 -1000 1000 1000">
	<path fill="#d600e3" d="M438.1845703125 -395.5244140625C444.388671875 -391.740234375 447.9091796875 -391.5693359375 453.94140625 -394.7451171875C462.9482421875 -399.4853515625 484.4677734375 -424.5869140625 518.1484375 -469.6357421875C529.5439453125 -484.8837890625 543.1748046875 -502.6494140625 548.4345703125 -509.1162109375C564.3828125 -528.7294921875 591.712890625 -571.2275390625 598.9384765625 -587.64453125C611.9990234375 -617.326171875 618.5234375 -650.548828125 613.2841796875 -660.6826171875C609.435546875 -668.1240234375 603.0400390625 -672.57421875 594.310546875 -673.8837890625C587.587890625 -674.8916015625 585.1298828125 -674.2177734375 572.3369140625 -667.8818359375C554.56640625 -659.0732421875 542.78515625 -647.5712890625 524.0341796875 -620.716796875C506.8173828125 -596.0595703125 485.951171875 -568.1591796875 471.974609375 -551.1162109375C463.73046875 -541.064453125 456.4638671875 -528.8115234375 443.140625 -502.509765625C423.5322265625 -463.7978515625 419.7001953125 -454.1904296875 418.0498046875 -439.6083984375C416.0634765625 -422.0576171875 424.3212890625 -403.9765625 438.1845703125 -395.5244140625ZM268.6396484375 -365.298828125C276.302734375 -361.7548828125 287.5654296875 -361.2451171875 291.3798828125 -364.2705078125C299.5146484375 -370.7197265625 308.12109375 -391.7021484375 308.12109375 -405.09765625C308.12109375 -412.3330078125 301.896484375 -439.1650390625 297.716796875 -449.9521484375C296.7216796875 -452.525390625 293.84765625 -456.3056640625 291.3349609375 -458.3525390625C284.3115234375 -464.0751953125 270.806640625 -482.37109375 261.919921875 -498.1962890625C257.5107421875 -506.05078125 249.2158203125 -517.767578125 243.490234375 -524.2373046875C237.76171875 -530.7041015625 226.7392578125 -543.935546875 218.9970703125 -553.6357421875C193.345703125 -585.7744140625 165.5263671875 -615.6103515625 156.30859375 -620.8779296875C137.57421875 -631.5751953125 122.53515625 -628.7119140625 111.3447265625 -612.3193359375C100.2705078125 -596.1005859375 97.642578125 -577.9375 104.43359375 -564.5556640625C108.494140625 -556.5546875 134.9326171875 -518.4267578125 143.45703125 -508.2763671875C147.7255859375 -503.193359375 154.900390625 -493.74609375 159.4013671875 -487.2763671875C163.9033203125 -480.8095703125 172.947265625 -469.84765625 179.4990234375 -462.916015625C186.0478515625 -455.9873046875 199.2998046875 -440.4873046875 208.9453125 -428.4765625C234.375 -396.8017578125 260.6552734375 -368.990234375 268.6396484375 -365.298828125ZM536.9091796875 9.3271484375C558.8359375 16.9013671875 572.2236328125 11.5595703125 582.224609375 -8.763671875C587.064453125 -18.5966796875 587.81640625 -21.7998046875 587.6767578125 -31.96484375C587.3447265625 -55.876953125 569.22265625 -88.7236328125 539.01171875 -120.1689453125C528.7880859375 -130.8095703125 508.5029296875 -152.9443359375 493.935546875 -169.3505859375C479.3642578125 -185.759765625 465.9658203125 -199.978515625 464.158203125 -200.9423828125C462.3427734375 -201.9169921875 459.208984375 -202.1318359375 457.154296875 -201.4248046875C455.1103515625 -200.7236328125 449.9326171875 -200.3681640625 445.646484375 -200.6318359375C431.9609375 -201.4853515625 423.64453125 -194.5888671875 414.6416015625 -174.9248046875C410.642578125 -166.1923828125 410.24609375 -163.7001953125 411.0322265625 -152.2568359375C412.205078125 -135.1162109375 418.42578125 -117.9365234375 429.1884765625 -102.0908203125C434.0390625 -94.9541015625 441.0078125 -84.2021484375 444.671875 -78.1962890625C458.4912109375 -55.5654296875 495.7333984375 -15.7880859375 516.193359375 -1.8076171875C522.673828125 2.6220703125 531.994140625 7.6318359375 536.9091796875 9.3271484375ZM109.041015625 73.2265625C118.6796875 75.755859375 136.3955078125 73.4892578125 147.41796875 68.318359375C160.57421875 62.1494140625 182.0830078125 44.8642578125 191.6396484375 32.78515625C198.1337890625 24.5751953125 226.345703125 -18.265625 239.279296875 -39.5595703125C250.1455078125 -57.4521484375 268.00390625 -90.7470703125 277.7451171875 -111.2724609375C296.2158203125 -150.1923828125 293.3623046875 -163.8681640625 265.7138671875 -168.9814453125C259.2236328125 -170.1767578125 253.966796875 -170.146484375 248.275390625 -168.8720703125C243.794921875 -167.8662109375 235.0927734375 -166.4140625 228.9404296875 -165.6416015625C214.71484375 -163.8544921875 210.52734375 -160.7509765625 196.1962890625 -141.3671875C189.9755859375 -132.958984375 180.849609375 -122.4150390625 175.9140625 -117.93359375C170.7255859375 -113.2275390625 163.4384765625 -103.865234375 158.6357421875 -95.7373046875C154.0693359375 -88.005859375 144.9775390625 -74.8154296875 138.4326171875 -66.4248046875C114.755859375 -36.0830078125 109.8544921875 -27.5419921875 93.6806640625 11.5693359375C84.0390625 34.8876953125 83.0712890625 41.138671875 87.2548828125 53.0029296875C91.1650390625 64.080078125 97.857421875 70.2978515625 109.041015625 73.2265625Z"/>
</svg>