<svg xmlns="http://www.w3.org/2000/svg" viewBox="0 -1000 1000 1000">
	<path fill="#854e28" d="M305 279C318.25633239746094 279 347.01295471191406 282.4105987548828 371.87109375 284.927734375C384.2734375 286.18359375 403.35546875 288.123046875 414.2763671875 289.234375C428.9072265625 290.7333984375 445.681640625 291.083984375 478.080078125 290.56640625C523.240234375 289.8466796875 548.8896636962891 288.0762023925781 560.31640625 286.259765625C578.4336090087891 283.3797912597656 636 284.0399932861328 646 284.0399932861328C673.4900054931641 284.0399932861328 684 284.0439453125 709 284.0439453125C709 284.0439453125 749.31640625 280 749.31640625 214C749.31640625 146 704.646484375 140.0546875 704.646484375 140.0546875C677.9964904785156 140.0546875 673.5913238525391 139.8151092529297 647 140C634 140.09039306640625 615.5471954345703 139.85850524902344 606.302734375 140.1435546875C598.8984069824219 140.37185668945312 571.8779296875 141.9150390625 546.140625 142.1103515625C512.826171875 142.3642578125 493.2265625 143.1728515625 478.080078125 144.9267578125C454.4677734375 147.6630859375 443.2939453125 147.13671875 434.9462890625 142.8818359375C428.109375 139.3828125 426.0712890625 134.3759765625 421.9990234375 110.919921875C420.3828125 101.55859375 417.861328125 87.201171875 416.408203125 79.0068359375C411.255859375 50.0361328125 410.251953125 22.966796875 410.107421875 -90.4326171875C410.029296875 -150.4775390625 409.4912109375 -200.359375 408.90625 -201.2763671875C407.017578125 -204.2763671875 404.4755859375 -276.361328125 404.2900390625 -332.177734375C404.1142578125 -390.294921875 403.5107421875 -399.51953125 399.2041015625 -411.0419921875C395.4638671875 -421.0380859375 384.4755859375 -431.849609375 374.0537109375 -435.7958984375C367.01171875 -438.4658203125 364.1357421875 -438.7275390625 349.7578125 -438.044921875C309.01171875 -436.1083984375 286.8798828125 -424.8564453125 284.3671875 -404.8076171875C282.0869140625 -386.505859375 283.0224609375 -339.2900390625 286.12890625 -316.583984375C288.984375 -295.6494140625 289.12109375 -289.39453125 288.93359375 -184.8125C288.828125 -124.427734375 288.126953125 -61.8984375 287.375 -45.8642578125C286.6279296875 -29.8212890625 285.9541015625 -4.572265625 285.8876953125 10.2451171875C285.81640625 25.0595703125 285.193359375 44.5234375 284.4921875 53.4853515625C283.8017578125 62.4580078125 282.603515625 85.748046875 281.814453125 105.2421875C281.03515625 124.7431640625 279.69921875 149.623046875 278.853515625 160.5400390625C278.0048828125 171.4619140625 277.1865234375 195.0634765625 277.021484375 213.0078125C277.021484375 213.0078125 276.5234832763672 232.99911499023438 276.73828125 245.62109375C276.96595764160156 259 292 279 305 279Z"/>
</svg>