<svg xmlns="http://www.w3.org/2000/svg" viewBox="0 -1000 1000 1000">
	<path fill="#03868b" d="M221.189453125 -56.916015625C244.4111328125 -54.8857421875 265.390625 -54.875 338.9384765625 -56.875C358.4111328125 -57.404296875 398.2236328125 -60.9013671875 411.177734375 -63.22265625C416.7216796875 -64.216796875 443.9384765625 -65.4951171875 471.658203125 -66.0693359375C528.2294921875 -67.234375 528.7900390625 -67.3544921875 541.69921875 -80.7666015625C549.55078125 -88.92578125 551.4580078125 -94.080078125 551.4580078125 -107.1259765625C551.4580078125 -128.041015625 542.49609375 -150.244140625 532.3994140625 -154.3486328125C528.9951171875 -155.7294921875 513.5830078125 -156.9189453125 489.353515625 -157.66796875C468.5927734375 -158.310546875 447.8046875 -159.564453125 443.15234375 -160.45703125C434.1767578125 -162.1826171875 403.7880859375 -161.2119140625 380.09765625 -158.443359375C363.4248046875 -156.4951171875 308.255859375 -160.298828125 292.078125 -164.509765625C274.537109375 -169.080078125 261.8359375 -178.66015625 256.4873046875 -191.369140625C251.7841796875 -202.53125 253.0009765625 -220.52734375 261.4296875 -264.4482421875C270.6787109375 -312.6416015625 270.5009765625 -311.267578125 272.7978515625 -352.6484375C277.986328125 -446.154296875 273.9697265625 -494.3681640625 259.1357421875 -516.7626953125C250.177734375 -530.291015625 229.775390625 -541.5361328125 209.2578125 -544.2568359375C198.990234375 -545.62109375 190.2158203125 -543.119140625 181.623046875 -536.375C171.1884765625 -528.189453125 170.5625 -524.7197265625 169.36328125 -468.5390625C168.771484375 -440.8359375 167.2099609375 -407.20703125 165.8974609375 -393.80859375C164.5810546875 -380.41015625 162.6708984375 -351.3056640625 161.65234375 -329.126953125C158.5556640625 -261.79296875 154.8916015625 -209.56640625 150.560546875 -171.11328125C148.1474609375 -149.65625 147.9970703125 -142.013671875 149.580078125 -120.7158203125C150.60546875 -106.9072265625 152.3447265625 -92.9619140625 153.4453125 -89.728515625C158.1865234375 -75.7734375 171.5439453125 -64.1826171875 186.453125 -61.0859375C191.6142578125 -60.015625 207.248046875 -58.1396484375 221.189453125 -56.916015625Z"/>
</svg>