<svg xmlns="http://www.w3.org/2000/svg" viewBox="0 -1000 1000 1000">
	<path fill="#964ffa" d="M439.09375 -221.3671875C450.7216796875 -218.546875 466.109375 -224.59765625 472.5693359375 -234.5263671875C478.126953125 -243.0712890625 480.68359375 -253.533203125 480.8818359375 -268.51171875C481.080078125 -283.673828125 476.91015625 -293.12109375 467.203125 -299.51953125C458.9111328125 -304.9775390625 450.7255859375 -306.041015625 431.837890625 -304.1162109375C418.138671875 -302.71484375 415.568359375 -301.931640625 411.2890625 -297.830078125C408.595703125 -295.25 405.177734375 -289.9521484375 403.6875 -286.052734375C401.376953125 -280.005859375 401.27734375 -277.513671875 403.0107421875 -269.119140625C408.7421875 -241.345703125 420.4150390625 -225.8994140625 439.09375 -221.3671875ZM327.3232421875 -223.572265625C331.4384765625 -221.494140625 337.662109375 -219.791015625 341.15234375 -219.791015625C355.599609375 -219.791015625 377.287109375 -232.642578125 384.7138671875 -245.603515625C388.20703125 -251.705078125 388.6962890625 -254.708984375 388.6962890625 -270.193359375C388.6962890625 -285.1259765625 388.111328125 -289.015625 384.8916015625 -295.5546875C382.796875 -299.802734375 379.224609375 -304.123046875 376.9521484375 -305.158203125C374.4873046875 -306.283203125 362.9345703125 -307.025390625 348.3095703125 -306.994140625L323.798828125 -306.94921875L317.2021484375 -300.98828125C308.6201171875 -293.236328125 306.53515625 -285.484375 307.7822265625 -265.9921875C309.392578125 -240.8125 314.3037109375 -230.1513671875 327.3232421875 -223.572265625ZM239.501953125 -191.39453125C252.3125 -184.634765625 265.70703125 -187.7548828125 278.0087890625 -200.36328125C286.939453125 -209.5205078125 292.1689453125 -221.462890625 294.5244140625 -238.087890625C295.76171875 -246.828125 292.6103515625 -270.8359375 289.390625 -277.185546875C277.62890625 -300.373046875 230.8916015625 -293.404296875 222.640625 -267.232421875C218.6826171875 -254.671875 217.5859375 -228.9619140625 220.5830078125 -218.9541015625C224.240234375 -206.73828125 232.0849609375 -195.30859375 239.501953125 -191.39453125ZM382.2431640625 -28.2861328125C356.451171875 -26.3203125 356.751953125 -26.314453125 327.8798828125 -29.177734375C292.7705078125 -32.658203125 267.1943359375 -38.8515625 248.45703125 -48.4111328125C237.76171875 -53.8662109375 222.5078125 -69.0859375 213.986328125 -82.802734375C195.478515625 -112.5869140625 185.8359375 -139.212890625 183.6044921875 -166.6796875C182.376953125 -181.841796875 184.974609375 -220.966796875 188.8095703125 -244.9921875C190.064453125 -252.8466796875 191.568359375 -265.322265625 192.1591796875 -272.7119140625C192.7470703125 -280.10546875 194.3056640625 -292.095703125 195.6220703125 -299.3583984375C196.9375 -306.62109375 198.0146484375 -317.087890625 198.0146484375 -322.6142578125C198.0146484375 -335.455078125 203.1376953125 -360.591796875 210.623046875 -384.46875C213.853515625 -394.763671875 216.4921875 -406.0234375 216.4921875 -409.48828125C216.4921875 -417.5078125 228.6357421875 -451.783203125 234.9931640625 -461.7119140625C253.2900390625 -490.283203125 308.9169921875 -517.650390625 371.654296875 -528.947265625C387.8447265625 -531.8623046875 392.6953125 -532.05078125 413.6845703125 -530.5634765625C434.2333984375 -529.111328125 438.642578125 -528.2666015625 446.5791015625 -524.27734375C457.646484375 -518.716796875 461.1396484375 -514.19140625 465.2109375 -500.150390625C466.919921875 -494.25390625 472.1865234375 -478.470703125 476.9208984375 -465.072265625C481.8017578125 -451.25 486.220703125 -435.263671875 487.140625 -428.11328125C490.900390625 -398.83203125 496.2802734375 -316.837890625 495.685546875 -297.912109375C495.48046875 -291.4453125 495.31640625 -256.66796875 495.3505859375 -220.6328125C495.3876953125 -156.3505859375 494.5986328125 -142.689453125 489.19140625 -113.9541015625C484.953125 -91.416015625 472.3818359375 -66.748046875 458.5146484375 -53.74609375C444.125 -40.259765625 415.974609375 -30.859375 382.2431640625 -28.2861328125ZM366.85546875 40.3056640625C403.2158203125 42.2060546875 462.5478515625 40.8798828125 476.896484375 37.841796875C503.2119140625 32.26953125 528.7744140625 18.912109375 544.3466796875 2.591796875C564.1435546875 -18.15234375 577.5458984375 -49.830078125 582.6416015625 -87.912109375C584.740234375 -103.583984375 587.8271484375 -203.251953125 586.599609375 -215.59375C586.138671875 -220.2119140625 586.5859375 -239.11328125 587.5908203125 -257.59375C589.228515625 -287.6689453125 590.9951171875 -309.978515625 596.1123046875 -365.1611328125C597.3837890625 -378.8603515625 596.908203125 -390.6318359375 593.576171875 -428.1611328125C591.3232421875 -453.54296875 589.4677734375 -478.89453125 589.4677734375 -484.49609375C589.4609375 -490.09765625 588.0009765625 -500.3046875 586.2236328125 -507.177734375C584.443359375 -514.0478515625 582.4912109375 -523.4541015625 581.8828125 -528.072265625C579.5009765625 -546.142578125 568.1669921875 -582.33203125 561.884765625 -591.919921875C558.1455078125 -597.626953125 524.0986328125 -624.3251953125 514.6552734375 -628.95703125C496.8203125 -637.703125 461.87109375 -642.296875 423.3369140625 -640.9609375C395.5283203125 -639.99609375 391.1435546875 -639.3916015625 365.7646484375 -633.009765625C332.798828125 -624.724609375 308.8388671875 -617.9541015625 292.927734375 -612.4375C281.7373046875 -608.5546875 273.8251953125 -607.5390625 223.21484375 -603.482421875C198.4755859375 -601.5 179.2978515625 -594.6572265625 169.6962890625 -584.38671875C159.5419921875 -573.5234375 142.0419921875 -529.517578125 138.298828125 -505.44140625C136.931640625 -496.63671875 134.283203125 -484.140625 132.4169921875 -477.673828125C128.828125 -465.2392578125 125.4541015625 -442.0859375 122.384765625 -408.791015625C121.36328125 -397.703125 118.255859375 -369.734375 115.48046875 -346.6328125C112.705078125 -323.533203125 109.7490234375 -295.181640625 108.9111328125 -283.6328125C108.07421875 -272.0830078125 106.45703125 -253.181640625 105.322265625 -241.6328125C104.1845703125 -230.0830078125 103.2412109375 -200.220703125 103.2412109375 -175.2724609375C103.2275390625 -131.43359375 103.3779296875 -129.3212890625 107.7666015625 -112.2724609375C121.841796875 -57.57421875 151.591796875 -10.400390625 188.888671875 16.3525390625C210.7939453125 32.064453125 225.4541015625 34.962890625 295.4541015625 37.4208984375C322.7119140625 38.3779296875 354.8447265625 39.6767578125 366.85546875 40.3056640625Z"/>
</svg>