<svg xmlns="http://www.w3.org/2000/svg" viewBox="0 -1000 1000 1000">
	<path fill="#3c9202" d="M330.330078125 35.8974609375C341.6572265625 41.7080078125 362.55859375 35.361328125 377.529296875 21.5595703125C388.2548828125 11.6748046875 392.5615234375 0.1533203125 397.5859375 -32.0888671875C402.0322265625 -60.6318359375 406.4931640625 -132.2216796875 404.650390625 -145.462890625C404.134765625 -149.1748046875 403.560546875 -169.5966796875 403.3759765625 -190.8505859375C403.078125 -224.8583984375 403.396484375 -230.2392578125 406.0244140625 -235.7275390625C409.5244140625 -243.0419921875 414.0703125 -245.0322265625 419.365234375 -241.5625C421.4501953125 -240.1953125 430.6748046875 -231.5546875 439.8623046875 -222.3642578125C458.7607421875 -203.4521484375 474.353515625 -193.287109375 490.978515625 -189.0380859375C511.869140625 -183.7001953125 532.5439453125 -189.486328125 538.666015625 -202.3857421875C544.1513671875 -213.9482421875 541.099609375 -246.3818359375 533.0400390625 -262.1826171875C525.5341796875 -276.8935546875 495.572265625 -309.0986328125 466.8642578125 -333.3037109375C437.1826171875 -358.3369140625 421.111328125 -380.4169921875 416.0634765625 -403.1064453125C413.6328125 -414.033203125 413.376953125 -421.5185546875 414.3232421875 -454.0751953125C414.931640625 -475.0615234375 416.189453125 -501.5986328125 417.119140625 -513.0419921875C418.6064453125 -531.3447265625 418.3154296875 -538.2353515625 414.6923828125 -570.2373046875C410.8818359375 -603.9189453125 410.1806640625 -607.3671875 405.21484375 -616.6806640625C392.91015625 -639.7666015625 371.28125 -644.8447265625 354.9228515625 -628.4873046875C345.947265625 -619.5107421875 343.1787109375 -609.3017578125 343.11328125 -584.9248046875C343.0859375 -574.2373046875 342.37890625 -560.19921875 341.5478515625 -553.7294921875C340.7138671875 -547.2626953125 338.8203125 -528.740234375 337.3369140625 -512.5693359375C332.220703125 -456.744140625 325.4189453125 -428.9794921875 307.775390625 -391.912109375C298.08203125 -371.5517578125 297.544921875 -370.830078125 274.7646484375 -347.6767578125C261.109375 -333.7998046875 245.0556640625 -319.4580078125 235.6455078125 -312.7353515625C215.380859375 -298.2529296875 204.58984375 -288.5283203125 188.9599609375 -270.65625C174.62109375 -254.2607421875 168.5234375 -243.1689453125 162.580078125 -222.6611328125C157.1142578125 -203.80078125 157.1962890625 -196.2783203125 162.986328125 -184.8623046875C169.443359375 -172.1298828125 178.5927734375 -166.0087890625 192.4189453125 -165.1748046875C201.244140625 -164.6416015625 204.1728515625 -165.232421875 211.0771484375 -168.9404296875C227.380859375 -177.6982421875 243.3359375 -191.5400390625 261.6767578125 -212.8486328125C288.4775390625 -243.9794921875 307.119140625 -256.3623046875 317.21875 -249.7412109375C326.6630859375 -243.5556640625 330.908203125 -203.7626953125 328.087890625 -147.85546875C326.1875 -110.162109375 317.7314453125 -29.3134765625 313.63671875 -9.7216796875C310.7353515625 4.1728515625 310.6015625 12.283203125 313.19921875 17.1611328125C317.03125 24.3662109375 325.138671875 33.2314453125 330.330078125 35.8974609375Z"/>
</svg>