<svg xmlns="http://www.w3.org/2000/svg" viewBox="0 -1000 1000 1000">
	<path fill="#964ffa" d="M347.4462890625 -414.880859375C362.5947265625 -410.0380859375 378.4541015625 -415.6572265625 386.705078125 -428.78515625C396.6787109375 -444.658203125 402.9404296875 -472.2509765625 402.9404296875 -500.3876953125C402.947265625 -521.7880859375 396.6171875 -604.16796875 394.279296875 -613.150390625C390.919921875 -626.04296875 374.8310546875 -637.4658203125 360.0078125 -637.5C352.9013671875 -637.513671875 339.1787109375 -630.3291015625 330.2060546875 -621.8974609375C320.796875 -613.0517578125 319.3369140625 -606.998046875 317.142578125 -567.7900390625C316.2646484375 -552.0810546875 314.822265625 -533.935546875 313.9365234375 -527.46875C311.4892578125 -509.5888671875 311.91015625 -470.3916015625 314.6884765625 -457.27734375C319.23828125 -435.8056640625 331.4541015625 -419.994140625 347.4462890625 -414.880859375ZM491.1376953125 -277.6728515625C499.6318359375 -275.0966796875 505.3125 -274.7412109375 527.2587890625 -275.4140625C597.4404296875 -277.5634765625 621.1845703125 -289.0927734375 621.30078125 -321.0576171875C621.33203125 -329.9267578125 620.5732421875 -332.5107421875 615.876953125 -339.5380859375C608.6171875 -350.404296875 597.7099609375 -357.3837890625 580.9140625 -361.916015625C555.4267578125 -368.79296875 527.2109375 -368.2939453125 494.498046875 -360.384765625C487.1044921875 -358.6005859375 478.2080078125 -356.6796875 474.7216796875 -356.119140625C466.9970703125 -354.8818359375 457.734375 -347.0849609375 453.0341796875 -337.8740234375C450.2216796875 -332.357421875 449.759765625 -329.240234375 450.5908203125 -321.2939453125C451.841796875 -309.3369140625 454.9482421875 -302.8779296875 464.01953125 -293.3955078125C472.171875 -284.8720703125 477.408203125 -281.8369140625 491.1376953125 -277.6728515625ZM106.2578125 -235.7685546875C115.044921875 -230.0126953125 117.3486328125 -229.2822265625 126.419921875 -229.2822265625C146.3193359375 -229.3056640625 165.908203125 -233.4169921875 184.5390625 -241.4873046875C194.2392578125 -245.69140625 208.60546875 -251.392578125 216.4599609375 -254.1611328125C256.685546875 -268.3349609375 270.333984375 -275.1298828125 274.408203125 -283.0126953125C277.5830078125 -289.1513671875 277.6650390625 -301.5517578125 274.5791015625 -308.9375C271.1708984375 -317.099609375 260.7705078125 -327.9443359375 254.56640625 -329.8076171875C251.6240234375 -330.689453125 234.8515625 -331.2119140625 217.296875 -330.9697265625C189.0712890625 -330.580078125 182.560546875 -329.9306640625 161.0166015625 -325.3544921875C147.6181640625 -322.5107421875 132.876953125 -318.5146484375 128.2587890625 -316.4814453125C101.5986328125 -304.7431640625 78.6982421875 -283.0634765625 78.6982421875 -269.5625C78.6982421875 -260.2041015625 89.8681640625 -246.5048828125 106.2578125 -235.7685546875ZM348.3388671875 35.3369140625C362.44140625 40.3037109375 369.0107421875 37.0869140625 375.9150390625 21.8427734375C383.7041015625 4.6376953125 384.8935546875 -6.8232421875 385.41015625 -69.6689453125C385.9189453125 -131.9111328125 384.357421875 -170.5615234375 380.92578125 -180.5478515625C377.72265625 -189.8583984375 372.736328125 -195.8134765625 365.3017578125 -199.1865234375C356.986328125 -202.9638671875 342.4287109375 -203.3291015625 335.845703125 -199.9248046875C329.37890625 -196.58203125 317.29296875 -182.58203125 317.1015625 -178.2138671875C317.0126953125 -176.2626953125 316.7119140625 -171.2685546875 316.4248046875 -167.1083984375C313.970703125 -131.4384765625 313.5029296875 -119.14453125 313.71484375 -95.7080078125C314.166015625 -46.0107421875 317.87109375 -18.5712890625 327.73828125 8.1708984375C334.1572265625 25.5615234375 339.103515625 32.0869140625 348.3388671875 35.3369140625Z"/>
</svg>