<svg xmlns="http://www.w3.org/2000/svg" viewBox="0 -1000 1000 1000">
	<path fill="#ee2304" d="M399.9638671875 9.1171875C405.9658203125 10.7822265625 413.310546875 9.876953125 419.658203125 6.69140625C424.853515625 4.0830078125 435.162109375 -7.04296875 438.671875 -13.833984375C441.833984375 -19.9453125 453.9951171875 -69.49609375 456.490234375 -86.41796875C460.5126953125 -113.73828125 473.5966796875 -245.08984375 474.9267578125 -271.548828125C475.7060546875 -286.974609375 476.7685546875 -300.291015625 477.294921875 -301.138671875C478.7548828125 -303.5 478.9326171875 -474.31640625 477.4970703125 -497.1796875C475.72265625 -525.458984375 467.9775390625 -562.9990234375 460.7861328125 -578.1640625C449.7158203125 -601.51953125 431.2685546875 -613.509765625 413.35546875 -608.998046875C400.7568359375 -605.826171875 391.2412109375 -600.48046875 384.439453125 -592.755859375C373.501953125 -580.328125 371.283203125 -566.068359375 369.181640625 -494.66015625C368.2041015625 -461.40625 366.6416015625 -435.1328125 365.185546875 -427.458984375C363.873046875 -420.52734375 361.962890625 -408.974609375 360.9404296875 -401.7802734375C358.58203125 -385.220703125 355.4755859375 -379.18359375 347.6005859375 -375.8720703125C341.984375 -373.509765625 340.0126953125 -373.52734375 326.29296875 -376.0361328125C313.7109375 -378.33984375 307.50390625 -378.53125 289.3310546875 -377.173828125C260.4560546875 -375.017578125 249.3818359375 -371.103515625 235.125 -358.0166015625C218.982421875 -343.193359375 217.078125 -324.8515625 230.052734375 -309.1123046875C242.0673828125 -294.5380859375 257.8134765625 -289.982421875 302.380859375 -288.1875C336.529296875 -286.8134765625 340.9521484375 -285.8017578125 348.3662109375 -277.677734375C353.6640625 -271.873046875 360.099609375 -258.177734375 363.298828125 -245.896484375C366.5595703125 -233.39453125 368.9560546875 -194.2275390625 369.05859375 -151.7763671875C369.140625 -118.283203125 377.48046875 -27.345703125 381.8037109375 -12.78515625C384.91796875 -2.298828125 392.7177734375 7.111328125 399.9638671875 9.1171875Z"/>
</svg>