<svg xmlns="http://www.w3.org/2000/svg" viewBox="0 -1000 1000 1000">
	<path fill="#3c9202" d="M141.0029296875 -55.296875C148.775390625 -52.3916015625 161.1962890625 -53.451171875 173.48046875 -58.068359375C182.9208984375 -61.6171875 258.369140625 -109.9638671875 278.1181640625 -125.119140625C309.3857421875 -149.1171875 328.810546875 -170.8994140625 358.4375 -215.19921875C371.412109375 -234.603515625 385.0390625 -254.259765625 388.720703125 -258.8779296875C403.4482421875 -277.37890625 411.6787109375 -302.224609375 411.6787109375 -328.19140625C411.6787109375 -365.5078125 407.70703125 -373.796875 374.046875 -406.71875C352.390625 -427.900390625 344.697265625 -434.1923828125 325.798828125 -446.171875C300.4755859375 -462.23046875 249.52734375 -488.275390625 219.294921875 -500.6240234375C172.4140625 -519.767578125 137.1923828125 -512.931640625 137.1923828125 -484.689453125C137.1923828125 -473.2939453125 143.060546875 -465.517578125 162.556640625 -451.0771484375C171.6005859375 -444.380859375 185.4228515625 -433.041015625 193.27734375 -425.8798828125C201.1318359375 -418.7158203125 217.763671875 -406.044921875 230.2392578125 -397.72265625C255.23828125 -381.046875 282.77734375 -355.759765625 289.3466796875 -343.4521484375C292.67578125 -337.21484375 293.21875 -333.728515625 293.21875 -319.359375C293.1953125 -297.8564453125 291.49609375 -294.3427734375 266.2001953125 -263.3896484375C247.818359375 -240.896484375 217.1005859375 -210.5234375 155.8818359375 -154.3154296875C133.5146484375 -133.77734375 125.7861328125 -123.1435546875 119.658203125 -104.474609375C114.9140625 -90.0302734375 115.0439453125 -84.212890625 120.341796875 -73.580078125C124.921875 -64.392578125 130.9541015625 -59.052734375 141.0029296875 -55.296875ZM314.2392578125 -5.7265625C336.9208984375 0.201171875 356.7314453125 -2.9267578125 392.2685546875 -18.0478515625C425.7919921875 -32.314453125 432.5009765625 -36.6416015625 452.896484375 -57.1328125C472.73046875 -77.05859375 496.4580078125 -104.037109375 514.6728515625 -127.357421875C530.197265625 -147.240234375 582.201171875 -233.650390625 589.8544921875 -252.27734375C599.08984375 -274.76171875 607.78125 -302.849609375 609.052734375 -314.3203125C609.6650390625 -319.865234375 610.9091796875 -328.7822265625 611.8115234375 -334.1416015625C613.158203125 -342.119140625 612.802734375 -347.13671875 609.8564453125 -361.861328125C604.0625 -390.791015625 600.798828125 -396.3623046875 579.6787109375 -413.400390625C573.669921875 -418.244140625 560.056640625 -430.0634765625 549.419921875 -439.6640625C512.314453125 -473.1572265625 493.1328125 -487.90625 462.37109375 -506.595703125C445.701171875 -516.71875 423.884765625 -530.845703125 413.890625 -537.9892578125C402.9013671875 -545.8369140625 390.7373046875 -552.9052734375 383.1181640625 -555.8583984375C376.1865234375 -558.548828125 356.533203125 -567.427734375 339.4365234375 -575.59765625C322.34375 -583.7626953125 303.8212890625 -591.6650390625 298.27734375 -593.158203125C275.404296875 -599.318359375 228.8349609375 -598.0224609375 212.599609375 -590.7763671875C194.822265625 -582.83984375 192.7685546875 -567.63671875 208.3955078125 -559.6181640625C210.7060546875 -558.431640625 217.3369140625 -556.251953125 223.1298828125 -554.775390625C234.580078125 -551.859375 269.005859375 -533.607421875 322.6376953125 -502.015625C385.873046875 -464.7734375 388.9873046875 -462.3427734375 433.796875 -415.3251953125C461.2294921875 -386.54296875 472.73046875 -373.1953125 478.7705078125 -363.1259765625C495.2138671875 -335.7138671875 494.82421875 -336.974609375 494.82421875 -312.638671875C494.8349609375 -299.0078125 493.953125 -287.6435546875 492.486328125 -282.400390625C488.908203125 -269.61328125 479.76171875 -251.720703125 470.501953125 -239.3818359375C456.4609375 -220.67578125 423.283203125 -185.712890625 397.138671875 -162.078125C342.8515625 -112.99609375 306.0537109375 -74.734375 288.875 -49.509765625C280.75390625 -37.5849609375 279.5029296875 -29.908203125 284.4453125 -22.365234375C288.4375 -16.2705078125 301.2236328125 -9.126953125 314.2392578125 -5.7265625Z"/>
</svg>