<svg xmlns="http://www.w3.org/2000/svg" viewBox="0 -1000 1000 1000">
	<path fill="#9b6f01" d="M334.455078125 -207.9052734375C308.3212890625 -200.4951171875 297.6640625 -201.216796875 276.609375 -211.818359375C257.646484375 -221.369140625 241.1513671875 -235.6796875 230.29296875 -252C211.9248046875 -279.6005859375 206.2880859375 -302.42578125 208.9609375 -338.37890625C211.31640625 -370.1015625 214.3173828125 -380.7421875 228.9736328125 -409.34375C242.091796875 -434.9404296875 249.830078125 -445.7890625 263.8603515625 -458.244140625C274.927734375 -468.0703125 281.2236328125 -471.865234375 296.779296875 -478.095703125C313.8896484375 -484.9453125 326.1806640625 -487.587890625 355.892578125 -490.80078125C378.451171875 -493.240234375 381.6640625 -493.248046875 389.7509765625 -490.8994140625C394.6630859375 -489.470703125 401.76171875 -488.3017578125 405.525390625 -488.3017578125C420.1708984375 -488.3017578125 455.8310546875 -471.2802734375 474.896484375 -455.19140625C496.384765625 -437.056640625 511.46875 -417.884765625 517.34375 -401.228515625C522.005859375 -388.01171875 531.9765625 -330.1591796875 530.8447265625 -322.87890625C528.244140625 -306.1376953125 522.2724609375 -289.126953125 511.1025390625 -266.623046875C500.3740234375 -245.0107421875 497.68359375 -241.001953125 486.654296875 -230.1494140625C465.244140625 -209.083984375 454.6826171875 -206.412109375 420.6533203125 -213.4423828125C388.955078125 -219.9912109375 373.5947265625 -219.00390625 334.455078125 -207.9052734375ZM420.123046875 -58.95703125C390.28125 -44.208984375 356.716796875 -52.86328125 350.2021484375 -76.986328125C349.1044921875 -81.0546875 348.5615234375 -90.1875 348.9716796875 -97.703125C350.287109375 -121.765625 361.1328125 -137.7412109375 379.8525390625 -143.1826171875C389.6318359375 -146.0263671875 391.0263671875 -145.9609375 413.6494140625 -141.662109375C430.2333984375 -138.509765625 432.33203125 -137.478515625 439.74609375 -128.8134765625C446.400390625 -121.041015625 449.4052734375 -112.4072265625 449.4052734375 -101.0625C449.4052734375 -82.134765625 440.1767578125 -68.869140625 420.123046875 -58.95703125ZM362.2197265625 -3.759765625C392.7177734375 4.443359375 439.6435546875 -9.68359375 464.6728515625 -34.6005859375C477.6376953125 -47.5068359375 490.0517578125 -67.734375 495.0693359375 -84.126953125C498.548828125 -95.4951171875 498.5625 -95.998046875 495.6943359375 -107.044921875C492.8203125 -118.12890625 492.833984375 -118.484375 496.302734375 -126.328125C498.822265625 -132.029296875 505.4150390625 -139.662109375 519.31640625 -152.9716796875C549.3564453125 -181.73046875 567.724609375 -211.7744140625 578.470703125 -249.7412109375C581.21875 -259.4453125 586.3046875 -276.83203125 589.77734375 -288.380859375C595.6015625 -307.76171875 596.1005859375 -311.06640625 596.248046875 -331.22265625C596.44921875 -359.359375 593.4111328125 -387.642578125 588.0654296875 -407.333984375C584.5791015625 -420.171875 580.5556640625 -428.5830078125 565.568359375 -454.375C555.5263671875 -471.6494140625 545.234375 -489.939453125 542.69140625 -495.021484375C534.501953125 -511.400390625 519.8427734375 -531.9970703125 507.568359375 -544.3701171875C495.267578125 -556.7734375 472.212890625 -574.2978515625 460.3251953125 -580.283203125C448.7763671875 -586.09375 427.591796875 -592.033203125 404.541015625 -595.923828125C380.693359375 -599.9462890625 375.40625 -599.7001953125 343.564453125 -593.0859375C326.201171875 -589.4765625 286.5458984375 -575.1591796875 271.3251953125 -567.00390625C252.4892578125 -556.9072265625 221.583984375 -536.1640625 209.197265625 -525.3046875C203.1708984375 -520.0234375 194.841796875 -513.38671875 190.685546875 -510.556640625C181.001953125 -503.966796875 174.3095703125 -496.7373046875 157.2744140625 -474.4794921875C136.4833984375 -447.310546875 114.888671875 -403.501953125 109.337890625 -377.224609375C104.8056640625 -355.783203125 102.3818359375 -318.72265625 104.5419921875 -303.8984375C107.3896484375 -284.365234375 120.7431640625 -245.7763671875 133.765625 -219.451171875C148.0224609375 -190.634765625 155.1796875 -182.8857421875 187.82421875 -160.921875C222.1171875 -137.857421875 229.2158203125 -134.99609375 261.65625 -131.1923828125C270.529296875 -130.1533203125 278.2470703125 -124.755859375 282.4306640625 -116.662109375C283.8525390625 -113.9140625 287.232421875 -101.72265625 289.943359375 -89.564453125C296.9228515625 -58.2802734375 302.7431640625 -47.154296875 321.388671875 -29.435546875C337.353515625 -14.2705078125 347.9736328125 -7.591796875 362.2197265625 -3.759765625Z"/>
</svg>