<svg xmlns="http://www.w3.org/2000/svg" viewBox="0 -1000 1000 1000">
	<path fill="#ee2304" d="M321.171875 -340.62890625C329.8876953125 -338.6708984375 339.2216796875 -338.2021484375 358.8037109375 -338.7392578125C399.5693359375 -339.8603515625 419.841796875 -346.5791015625 436.0908203125 -364.36328125C451.7275390625 -381.4697265625 459.791015625 -404.0595703125 456.2841796875 -420.9404296875C452.353515625 -439.8896484375 442.4990234375 -449.580078125 412.9267578125 -463.5908203125C399.7470703125 -469.8310546875 394.5283203125 -471.400390625 384.90625 -472.0126953125C369.7548828125 -472.9755859375 360.26953125 -470.34765625 352.0361328125 -462.91015625C346.41015625 -457.8271484375 343.7470703125 -456.7548828125 333.623046875 -455.4833984375C320.16015625 -453.791015625 302.4990234375 -447.2861328125 292.07421875 -440.1767578125C278.7412109375 -431.08203125 264.720703125 -406.8720703125 264.7236328125 -392.951171875C264.7236328125 -384.5947265625 273.3779296875 -368.232421875 281.9677734375 -360.3466796875C291.80078125 -351.3173828125 306.4912109375 -343.9306640625 321.171875 -340.62890625ZM296.640625 -130.0244140625C362.607421875 -125.7236328125 408.982421875 -127.3994140625 495.8330078125 -137.2255859375C545.3427734375 -142.82421875 570.68359375 -149.5205078125 588.0361328125 -161.58203125C604.4970703125 -173.0224609375 614.6552734375 -189.5927734375 614.7822265625 -205.2158203125C614.880859375 -217.5380859375 608.623046875 -237.4091796875 602.416015625 -244.4814453125C596.2158203125 -251.5400390625 582.60546875 -258.7724609375 562.080078125 -265.9091796875C546.1455078125 -271.44921875 546.0673828125 -271.4599609375 510.841796875 -271.7666015625C473.7802734375 -272.0888671875 456.6669921875 -271.1513671875 401.640625 -265.8095703125C383.1630859375 -264.0146484375 352.544921875 -261.76953125 333.6025390625 -260.8125C314.66015625 -259.8583984375 292.3583984375 -257.9169921875 284.0419921875 -256.4990234375C265.74609375 -253.3779296875 243.8193359375 -250.9345703125 216.841796875 -249.0029296875C198.42578125 -247.6875 169.7763671875 -242.8916015625 139.623046875 -236.0771484375C118.5029296875 -231.3056640625 109.44921875 -225.8466796875 100.462890625 -212.4658203125C97.017578125 -207.3388671875 92.123046875 -200.068359375 89.580078125 -196.3115234375C84.0400390625 -188.1123046875 83.8994140625 -184.16796875 88.458984375 -164.75390625C93.490234375 -143.3232421875 92.8544921875 -143.6513671875 129.81640625 -143.3876953125C146.263671875 -143.2724609375 165.390625 -142.427734375 172.322265625 -141.5146484375C179.2509765625 -140.6025390625 189.45703125 -139.8232421875 195.0009765625 -139.8232421875C200.544921875 -139.8056640625 215.2861328125 -138.271484375 227.76171875 -136.412109375C240.2373046875 -134.552734375 271.2314453125 -131.6787109375 296.640625 -130.0244140625Z"/>
</svg>