<svg xmlns="http://www.w3.org/2000/svg" viewBox="0 -1000 1000 1000">
	<path fill="#d600e3" d="M389.8359375 -459.2578125C385.6962890625 -453.009765625 382.0595703125 -453.515625 377.814453125 -460.9365234375C376.9296875 -462.4873046875 378.666015625 -463.0380859375 384.4794921875 -463.0380859375C392.255859375 -463.0380859375 392.3134765625 -462.9970703125 389.8359375 -459.2578125ZM286.1552734375 -382.5556640625C264.8818359375 -368.6708984375 259.0302734375 -365.5986328125 253.8515625 -365.5986328125C241.95703125 -365.5986328125 238.3994140625 -378.935546875 245.990234375 -395.0849609375C253.796875 -411.6904296875 282.7373046875 -436.1552734375 294.5771484375 -436.1552734375C303.3271484375 -436.1552734375 319.6923828125 -419.7158203125 319.6923828125 -410.9248046875C319.6923828125 -405.0458984375 316.619140625 -402.4482421875 286.1552734375 -382.5556640625ZM447.3740234375 -377.6259765625C447.3740234375 -373.69921875 446.1123046875 -369.4541015625 444.2734375 -367.1845703125L441.1767578125 -363.3564453125L439.0341796875 -369.0986328125C432.35546875 -386.9912109375 432.21875 -387.58984375 433.9755859375 -390.8740234375C438.50390625 -399.3369140625 447.3740234375 -390.5703125 447.3740234375 -377.6259765625ZM405.36328125 -325.697265625C405.390625 -324.6064453125 372.0693359375 -332.8232421875 370.6298828125 -334.2587890625C368.6884765625 -336.2001953125 373.671875 -349.5380859375 378.0849609375 -354.216796875C382.3369140625 -358.7255859375 392.953125 -363.4560546875 394.7607421875 -361.6513671875C395.4755859375 -360.9365234375 405.3154296875 -327.5595703125 405.36328125 -325.697265625ZM373.033203125 -289.3740234375C367.177734375 -287.8056640625 364.5703125 -288.9404296875 364.5703125 -293.4287109375C364.5703125 -295.7392578125 365.591796875 -299.3134765625 366.2861328125 -299.3134765625C374.345703125 -299.1669921875 379.7529296875 -291.17578125 373.033203125 -289.3740234375ZM282.662109375 -260.8037109375C282.662109375 -258.9892578125 281.373046875 -255.0888671875 280.9765625 -255.0888671875C279.244140625 -255.0888671875 274.33203125 -265.2607421875 274.33203125 -267.49609375C274.33203125 -269.4345703125 276.4921875 -270.0556640625 279.1416015625 -268.6416015625C280.990234375 -267.6494140625 282.662109375 -262.6181640625 282.662109375 -260.8037109375ZM407.0107421875 -175.6787109375C403.28515625 -168.7197265625 394.26171875 -172.7705078125 390.3037109375 -183.181640625C388.4169921875 -188.14453125 389.904296875 -190.783203125 394.6279296875 -190.8515625C395.646484375 -190.865234375 398.5205078125 -192.765625 401.0126953125 -195.076171875C408.8671875 -202.3525390625 411.0576171875 -200.873046875 409.8310546875 -189.1181640625C409.24609375 -183.5341796875 407.978515625 -177.4833984375 407.0107421875 -175.6787109375ZM330.7626953125 -112.12890625C326.357421875 -111.021484375 308.7783203125 -110.2392578125 288.2880859375 -110.2724609375C257.8544921875 -110.3076171875 252.4638671875 -110.7138671875 246.6123046875 -113.4208984375C233.142578125 -119.6591796875 224.7646484375 -134.76953125 229.2802734375 -144.681640625C231.087890625 -148.6494140625 232.0107421875 -149.0537109375 237.2880859375 -148.1845703125C263.849609375 -143.8203125 277.025390625 -143.4033203125 295.38671875 -146.3603515625C312.17578125 -149.0595703125 314.390625 -149.09765625 318.90625 -146.7626953125C324.1015625 -144.0771484375 343.21484375 -124.994140625 343.21484375 -122.4951171875C343.21484375 -118.5849609375 337.4931640625 -113.82421875 330.7626953125 -112.12890625ZM227.2939453125 -50.27734375C227.755859375 -49.8232421875 231.7412109375 -49.9248046875 236.150390625 -50.5068359375C240.5625 -51.0869140625 256.8154296875 -52.2568359375 272.271484375 -53.1005859375C329.9423828125 -56.2548828125 358.2333984375 -62.021484375 399.091796875 -78.9404296875C407.1884765625 -82.2939453125 415.53515625 -85.0380859375 417.64453125 -85.0380859375C419.75 -85.0380859375 431.6474609375 -81.6025390625 444.08203125 -77.4091796875C469.361328125 -68.8779296875 486.1474609375 -64.8759765625 496.623046875 -64.87890625C507.1640625 -64.8818359375 538.076171875 -72.9453125 545.0966796875 -77.525390625C561.8076171875 -88.421875 569.333984375 -111.3876953125 561.7080078125 -128.1865234375C556.1474609375 -140.4365234375 544.830078125 -143.916015625 505.9130859375 -145.3349609375L477.9306640625 -146.3564453125L486.2529296875 -166.515625L494.572265625 -186.6787109375L493.779296875 -210.197265625C492.880859375 -236.7685546875 490.83984375 -244.5244140625 478.931640625 -266.56640625C470.4453125 -282.2822265625 469.703125 -279.9345703125 490.73046875 -303.9453125C527.3408203125 -345.7509765625 536.302734375 -361.3837890625 539.1083984375 -388.3447265625C540.3662109375 -400.4208984375 536.23046875 -423.1201171875 531.623046875 -429.4365234375C526.7119140625 -436.1689453125 510.0322265625 -448.9189453125 497.5595703125 -455.4736328125C485.2890625 -461.9208984375 483.033203125 -465.35546875 484.90625 -474.7236328125C486.017578125 -480.2783203125 480.845703125 -500.4443359375 475.75 -510.4384765625C467.775390625 -526.0654296875 445.17578125 -540.974609375 422.4326171875 -545.6064453125C412.212890625 -547.6875 410.8564453125 -547.5400390625 389.671875 -542.109375C360.2939453125 -534.576171875 354.234375 -532.2216796875 331.09765625 -519.345703125C320.2763671875 -513.3232421875 310.3916015625 -508.3974609375 309.1337890625 -508.3974609375C307.8759765625 -508.3974609375 299.720703125 -511.8740234375 291.01171875 -516.1259765625C282.2998046875 -520.3779296875 265.72265625 -527.2099609375 254.1728515625 -531.3154296875C242.6240234375 -535.4169921875 230.33984375 -540.6435546875 226.876953125 -542.9267578125C217.580078125 -549.041015625 199.19140625 -551.5185546875 180.9296875 -549.0751953125C162.0966796875 -546.5556640625 150.0859375 -541.029296875 143.4033203125 -531.8037109375C133.54296875 -518.1904296875 132.6611328125 -504.6044921875 140.9287109375 -493.7626953125C147.419921875 -485.2509765625 157.3798828125 -481.4853515625 178.3212890625 -479.6123046875C194.8271484375 -478.138671875 228.955078125 -471.5966796875 237.9072265625 -468.1923828125C239.9990234375 -467.3994140625 242.708984375 -465.5439453125 243.9326171875 -464.0732421875C245.81640625 -461.8037109375 245.67578125 -461.2373046875 243.0234375 -460.3349609375C227.013671875 -454.8994140625 215.3037109375 -445.2744140625 190.9814453125 -417.5517578125C171.6533203125 -395.5263671875 164.154296875 -384.08984375 159.857421875 -370.1064453125C155.9609375 -357.4267578125 156.306640625 -351.3427734375 161.8193359375 -335.6611328125C166.8271484375 -321.4111328125 175.662109375 -309.3291015625 186.17578125 -302.3486328125C191.3505859375 -298.9111328125 195.85546875 -294.5322265625 196.3857421875 -292.4267578125C196.9736328125 -290.0791015625 195.134765625 -283.6533203125 191.5048828125 -275.4052734375C182.826171875 -255.6591796875 181.294921875 -246.11328125 183.5166015625 -225.4853515625C184.5419921875 -215.98046875 184.7919921875 -206.751953125 184.0771484375 -204.9814453125C183.359375 -203.2138671875 178.4169921875 -196.0224609375 173.095703125 -189.0087890625C157.49609375 -168.4462890625 151.740234375 -150.0888671875 151.7060546875 -120.8857421875C151.685546875 -97.9677734375 159.7451171875 -78.1025390625 174.2470703125 -65.3408203125C183.021484375 -57.6162109375 188.900390625 -55.6162109375 210.4912109375 -53.025390625C219.2724609375 -51.97265625 226.8291015625 -50.7353515625 227.2939453125 -50.27734375Z"/>
</svg>