<svg xmlns="http://www.w3.org/2000/svg" viewBox="0 -1000 1000 1000">
	<path fill="#d600e3" d="M328.017578125 -230.44921875C335.7900390625 -227.1337890625 339.720703125 -226.4912109375 349.3115234375 -226.9833984375C372.546875 -228.1689453125 382.49609375 -235.412109375 413.234375 -273.5126953125C457.541015625 -328.4248046875 464.25390625 -337.404296875 465.3408203125 -343.21484375C469.0869140625 -363.1689453125 447.232421875 -377.9580078125 423.2314453125 -371.7177734375C407.6904296875 -367.6767578125 390.8603515625 -358.4833984375 377.232421875 -346.5849609375C370.4140625 -340.6337890625 362.2109375 -334.8994140625 359.0009765625 -333.8388671875C347.5166015625 -330.048828125 327.9423828125 -336.3037109375 310.3837890625 -349.3671875C292.904296875 -362.3720703125 274.19140625 -370.927734375 263.2158203125 -370.927734375C248.9326171875 -370.927734375 239.51953125 -364.2255859375 236.0810546875 -351.609375C235.072265625 -347.9111328125 234.2421875 -338.4189453125 234.23828125 -330.5166015625C234.2314453125 -317.5224609375 234.693359375 -315.4306640625 239.068359375 -308.6767578125C241.73046875 -304.5673828125 250.6142578125 -294.7236328125 258.810546875 -286.7978515625C303.171875 -243.8955078125 310.52734375 -237.9072265625 328.017578125 -230.44921875Z"/>
</svg>