<svg xmlns="http://www.w3.org/2000/svg" viewBox="0 -1000 1000 1000">
	<path fill="#3c9202" d="M321.35546875 -206.8359375C287.876953125 -198.806640625 262.6181640625 -205.36328125 240.0390625 -227.935546875C220.6142578125 -247.35546875 214.3837890625 -264.0185546875 214.2333984375 -296.943359375C214.0419921875 -338.140625 237.8310546875 -396.1982421875 260.8408203125 -410.7041015625C285.2412109375 -426.0849609375 299.494140625 -432.36328125 325.0576171875 -438.984375C347.19921875 -444.7197265625 352.6064453125 -445.560546875 361.1787109375 -444.62109375C375.30859375 -443.068359375 389.87890625 -439.1142578125 400.3515625 -433.9873046875C412.314453125 -428.12890625 427.8701171875 -411.3984375 432.2109375 -399.72265625C437.3857421875 -385.8076171875 441.5625 -357.455078125 440.35546875 -344.45703125C439.04296875 -330.3408203125 432.29296875 -304.1591796875 426.7080078125 -291.537109375C420.5966796875 -277.71484375 405.0888671875 -255.04296875 394.1142578125 -243.8798828125C378.7841796875 -228.291015625 350.2548828125 -213.763671875 321.35546875 -206.8359375ZM316.5224609375 64.8447265625C329.708984375 70.3984375 343.96875 69.640625 352.77734375 62.923828125C360.525390625 57.013671875 366.6474609375 44.18359375 369.0361328125 28.8466796875C370.810546875 17.4443359375 369.6923828125 -14.85546875 365.146484375 -83.34765625C362.607421875 -121.595703125 362.83984375 -122.3671875 381.8193359375 -139.009765625C400.765625 -155.6171875 409.7236328125 -162.1494140625 429.244140625 -173.58984375C448.9248046875 -185.12109375 472.5087890625 -203.189453125 487.5751953125 -218.283203125C497.890625 -228.611328125 500.1396484375 -232.224609375 511.986328125 -257.458984375C526.7275390625 -288.8603515625 529.5166015625 -299.708984375 531.140625 -331.98828125C532.2001953125 -353.04296875 529.390625 -403.1982421875 526.337890625 -417.669921875C524.3486328125 -427.1103515625 518.6064453125 -439.859375 507.4130859375 -459.669921875C503.236328125 -467.0625 499.7978515625 -475.310546875 499.7978515625 -478C499.7666015625 -485.564453125 517.8271484375 -513.65625 533.37890625 -530.23046875C541.271484375 -538.642578125 573.724609375 -590.8583984375 581.44921875 -607.58203125C589.478515625 -624.9560546875 592.974609375 -641.146484375 590.6025390625 -649.958984375C586.6650390625 -664.580078125 571.74609375 -671.1669921875 550.6943359375 -667.578125C534.7666015625 -664.861328125 522.7939453125 -658.513671875 509.53515625 -645.7646484375C493.8125 -630.63671875 486.7822265625 -621.26171875 465.734375 -587.34765625C455.986328125 -571.642578125 446.0537109375 -556.962890625 443.6640625 -554.7265625C435.84375 -547.412109375 423.3544921875 -545.9599609375 361.1787109375 -545.12890625L304.0576171875 -544.3671875L282.216796875 -537.42578125C270.2060546875 -533.607421875 260.0068359375 -530.8046875 259.5556640625 -531.197265625C259.1044921875 -531.587890625 255.994140625 -538.7138671875 252.6474609375 -547.029296875C242.9404296875 -571.1435546875 233.404296875 -588.8515625 218.24609375 -610.9150390625C200.072265625 -637.3671875 191.5927734375 -646.677734375 176.4306640625 -656.818359375C162.3037109375 -666.265625 150.611328125 -669.755859375 138.9384765625 -668.005859375C132.396484375 -667.0244140625 129.5087890625 -665.30859375 122.365234375 -658.1650390625C112.01171875 -647.80859375 107.2783203125 -634.8955078125 109.021484375 -621.763671875C111.423828125 -603.666015625 128.828125 -563.234375 139.2431640625 -551.568359375C142.294921875 -548.1474609375 151.458984375 -537.0322265625 159.607421875 -526.87109375C195.84765625 -481.658203125 198.595703125 -467.8525390625 177.55859375 -436.642578125C165.3046875 -418.462890625 163.0625 -413.3017578125 152.8740234375 -379.775390625C145.12890625 -354.287109375 143.2451171875 -345.5576171875 141.7109375 -327.958984375C137.787109375 -282.96484375 143.0029296875 -243.9755859375 156.923828125 -214.2666015625C162.4921875 -202.3857421875 166.7099609375 -196.873046875 185.720703125 -176.603515625C197.9736328125 -163.5439453125 211.24609375 -150.6240234375 215.2177734375 -147.892578125C219.185546875 -145.162109375 230.1884765625 -140.2265625 239.666015625 -136.927734375C262.830078125 -128.865234375 269.0302734375 -125.470703125 272.373046875 -119.03125C276.365234375 -111.337890625 278.23828125 -76.15625 276.9560546875 -32.9501953125C275.8046875 5.7890625 277.376953125 22.267578125 283.337890625 33.970703125C291.1884765625 49.384765625 300.5986328125 58.138671875 316.5224609375 64.8447265625Z"/>
</svg>