<svg xmlns="http://www.w3.org/2000/svg" viewBox="0 -1000 1000 1000">
	<path fill="#3c9202" d="M209.904296875 -31.908203125C216.94140625 -28.61328125 221.9765625 -27.5498046875 231.0205078125 -27.4443359375C253.41796875 -27.1845703125 269.2158203125 -35.1591796875 278.013671875 -51.1611328125C282.2626953125 -58.8896484375 282.8984375 -61.8427734375 282.9326171875 -73.5087890625C282.962890625 -90.65625 279.029296875 -101.7744140625 271.4921875 -105.8427734375C268.0263671875 -107.7158203125 260.5380859375 -109.0283203125 249.9013671875 -109.6259765625C235.8291015625 -110.4189453125 233.0439453125 -111.0791015625 229.4072265625 -114.4970703125C223.8291015625 -119.736328125 222.4619140625 -126.5693359375 225.7294921875 -132.8857421875C227.158203125 -135.650390625 235.333984375 -143.8232421875 243.8955078125 -151.0478515625C285.318359375 -186.0009765625 321.8046875 -221.8271484375 371.9365234375 -276.7880859375C415.6455078125 -324.7080078125 423.2744140625 -331.3876953125 434.2734375 -331.3876953125C443.7578125 -331.3876953125 447.75390625 -326.3525390625 446.1611328125 -316.3994140625C443.744140625 -301.2919921875 405.083984375 -204.1669921875 381.1513671875 -153.0791015625C366.2451171875 -121.267578125 363.7158203125 -113.4267578125 365.1005859375 -103.3408203125C368.7333984375 -76.8173828125 390.564453125 -63.4111328125 453.505859375 -49.0556640625C475.4287109375 -44.0556640625 510.2548828125 -42.8046875 530.1748046875 -46.3017578125C538.3642578125 -47.740234375 551.8681640625 -49.4287109375 560.1845703125 -50.0537109375C582.6640625 -51.7490234375 590.3408203125 -55.2568359375 604.73046875 -70.4052734375C620.7470703125 -87.265625 624.0390625 -94.5595703125 623.939453125 -112.9853515625C623.875 -125.095703125 623.1806640625 -128.5849609375 619.3701171875 -135.9404296875C614.8408203125 -144.6806640625 609.2119140625 -149.8720703125 600.3046875 -153.5302734375C597.40625 -154.7197265625 580.88671875 -155.9150390625 559.09765625 -156.5107421875C525.9091796875 -157.4189453125 522.3984375 -157.8017578125 518.9599609375 -160.8681640625C513.255859375 -165.9501953125 509.0244140625 -176.6796875 508.9794921875 -186.154296875C508.9384765625 -195.6943359375 517.9482421875 -234.1455078125 526.47265625 -260.8271484375C529.5732421875 -270.5302734375 532.6181640625 -281.1123046875 533.244140625 -284.345703125C533.8662109375 -287.5830078125 536.97265625 -299.6787109375 540.1513671875 -311.2275390625C554.763671875 -364.3466796875 566.0634765625 -415.650390625 571.169921875 -452.05859375L576.4296875 -489.5712890625L572.765625 -512.4814453125C570.7490234375 -525.1005859375 567.4951171875 -538.8095703125 565.5234375 -543.0068359375C558.646484375 -557.646484375 542.71484375 -569.6474609375 526.5859375 -572.3369140625C518.4033203125 -573.7041015625 500.71875 -568.7138671875 487.1044921875 -561.2041015625C464.388671875 -548.6748046875 421.376953125 -508.4248046875 390.8271484375 -471.1103515625C330.5107421875 -397.4423828125 270.5185546875 -326.5166015625 247.5390625 -301.7021484375C199.869140625 -250.2314453125 167.28515625 -213.8095703125 156.8056640625 -200.2841796875C151.166015625 -193.0009765625 137.1796875 -177.1337890625 125.7265625 -165.0244140625C102.4228515625 -140.380859375 89.73828125 -122.921875 82.318359375 -105.2744140625C73.212890625 -83.6181640625 73.951171875 -71.3955078125 85.1142578125 -59.0400390625C99.787109375 -42.7978515625 112.7685546875 -39.2021484375 162.8662109375 -37.513671875C198.580078125 -36.3076171875 201.1748046875 -35.99609375 209.904296875 -31.908203125Z"/>
</svg>