<svg xmlns="http://www.w3.org/2000/svg" viewBox="0 -1000 1000 1000">
	<path fill="#9b6f01" d="M224.2255859375 -14.2509765625C235.5869140625 -12.7978515625 250.4580078125 -12.2880859375 265.50390625 -12.845703125C278.44140625 -13.32421875 312.0810546875 -14.4384765625 340.265625 -15.3271484375C425.4375 -18.0029296875 458.49609375 -22.1728515625 493.8173828125 -34.6962890625C532.0576171875 -48.2529296875 539.515625 -53.109375 552.6337890625 -72.9951171875C568.486328125 -97.0234375 574.693359375 -116.7353515625 576.498046875 -148.7744140625C577.4931640625 -166.462890625 577.236328125 -168.5166015625 570.5205078125 -196.6123046875C563.0380859375 -227.9150390625 559.5693359375 -236.0390625 547.0048828125 -251.6591796875C536.6240234375 -264.5654296875 526.869140625 -270.0576171875 495.9365234375 -280.404296875C456.66796875 -293.5400390625 416.072265625 -298.19140625 376.751953125 -294.0693359375C347.990234375 -291.0517578125 345.2490234375 -291.7724609375 331.484375 -305.984375C316.5927734375 -321.3623046875 313.8818359375 -329.58203125 316.705078125 -350.8037109375C319.771484375 -373.8271484375 324.32421875 -393.8701171875 332.4482421875 -420.0966796875C349.5244140625 -475.1982421875 348.892578125 -503.7998046875 330.1826171875 -522.6220703125C321.17578125 -531.6865234375 313.5029296875 -534.3564453125 296.388671875 -534.318359375C276.8349609375 -534.2939453125 266.3212890625 -528.0087890625 250.0517578125 -506.6162109375C238.9501953125 -492.0146484375 231.2119140625 -471.00390625 227.58203125 -445.5849609375C225.650390625 -432.06640625 225.9443359375 -424.2978515625 230.193359375 -377.255859375C230.6103515625 -372.634765625 231.7109375 -358.7744140625 232.640625 -346.453125C235.3779296875 -310.1240234375 238.4375 -297.6474609375 250.423828125 -273.9345703125C263.89453125 -247.2880859375 281.3359375 -226.2744140625 296.333984375 -218.62109375C309.8046875 -211.7509765625 330.8662109375 -207.8369140625 355.3828125 -207.6533203125C376.4853515625 -207.4921875 378.720703125 -207.1611328125 387.51171875 -202.884765625C424.51171875 -184.8955078125 429.310546875 -151.30078125 397.8857421875 -130.2490234375C377.5009765625 -116.5908203125 355.5810546875 -109.998046875 316.44921875 -105.7568359375C298.880859375 -103.8486328125 295.376953125 -103.9384765625 282.8505859375 -106.607421875C253.1171875 -112.9404296875 236.1953125 -125.2177734375 223.6064453125 -149.591796875C213.5341796875 -169.0947265625 211.5517578125 -174.8603515625 206.5478515625 -199.1767578125C199.564453125 -233.11328125 199.099609375 -239.251953125 200.9384765625 -273.2783203125C204.7734375 -344.279296875 208.068359375 -386.4873046875 210.751953125 -399.0966796875C213.55078125 -412.255859375 216.6953125 -475.7236328125 216.7431640625 -520.0556640625C216.7841796875 -560.3251953125 216.77734375 -560.3876953125 212.2763671875 -569.9912109375C204.927734375 -585.669921875 193.5869140625 -590.482421875 175.7587890625 -585.478515625C162.134765625 -581.6572265625 152.068359375 -574.80078125 147.1025390625 -565.9658203125C142.5908203125 -557.9404296875 143.16796875 -571.6396484375 141.4150390625 -431.0166015625C140.9365234375 -392.8828125 139.44921875 -350.3740234375 137.97265625 -332.7373046875C131.1982421875 -251.7958984375 129.0107421875 -218.3271484375 129.7392578125 -206.7373046875C130.1728515625 -199.8056640625 129.677734375 -190.7333984375 128.634765625 -186.57421875C127.5927734375 -182.41796875 125.7431640625 -163.6328125 124.5263671875 -144.8310546875C122.359375 -111.3994140625 122.3974609375 -110.2333984375 126.123046875 -91.91015625C128.2216796875 -81.6044921875 130.9111328125 -70.9072265625 132.1044921875 -68.134765625C136.9443359375 -56.8798828125 148.8759765625 -42.2841796875 158.4775390625 -35.8720703125C171.7529296875 -27.009765625 201.8271484375 -17.1181640625 224.2255859375 -14.2509765625Z"/>
</svg>