<svg xmlns="http://www.w3.org/2000/svg" viewBox="0 -1000 1000 1000">
	<path fill="#854e28" d="M380.6025390625 -625.5400390625C363.7861328125 -630.068359375 334.0361328125 -627.56640625 309.9189453125 -619.5927734375C296.3125 -615.0947265625 258.998046875 -597.037109375 239.0302734375 -585.2822265625C216.49609375 -572.0244140625 182.9111328125 -541.1806640625 157.6142578125 -510.5244140625C126.15234375 -472.390625 120.998046875 -459.4638671875 130.1953125 -441.7314453125C137.431640625 -427.7763671875 141.3720703125 -425.6630859375 159.8603515625 -425.7998046875C184.0390625 -425.9775390625 202.76953125 -431.7919921875 239.95703125 -450.65234375C291.5751953125 -476.833984375 305.3427734375 -476.6357421875 310.4111328125 -449.6435546875C312.0517578125 -440.890625 311.7890625 -432.4931640625 308.845703125 -399.6455078125C304.3955078125 -350.0302734375 296.3876953125 -280.6943359375 292.0634765625 -254.32421875C290.2451171875 -243.236328125 287.9619140625 -222.4443359375 286.98828125 -208.1240234375C286.013671875 -193.8017578125 283.9970703125 -170.7451171875 282.5068359375 -156.884765625C278.5009765625 -119.6357421875 278.4462890625 -47.1748046875 282.408203125 -28.8173828125C288.5400390625 -0.41015625 298.08984375 15.9619140625 312.98828125 23.6181640625C319.9267578125 27.1826171875 323.5361328125 27.890625 334.2041015625 27.7705078125C356.892578125 27.5185546875 370.1953125 17.1552734375 380.376953125 -8.203125C387.4560546875 -25.8291015625 388.337890625 -44.16015625 386.806640625 -141.763671875C386.05078125 -189.8134765625 385.5419921875 -236.3046875 385.671875 -245.0849609375C387.431640625 -362.90625 389.3662109375 -421.4658203125 391.8203125 -431.1767578125C399.4150390625 -461.248046875 416.12890625 -475.302734375 432.4501953125 -465.349609375C444.2626953125 -458.1474609375 466.1513671875 -426.7978515625 490.2646484375 -382.5556640625C498.779296875 -366.9326171875 514.1328125 -349.4697265625 524.90625 -343.1572265625C547.287109375 -330.0419921875 570.6552734375 -341.6904296875 573.7109375 -367.4892578125C575.02734375 -378.6123046875 569.0625 -402.7529296875 561.970703125 -415.009765625C559.03125 -420.0927734375 553.2236328125 -430.103515625 549.064453125 -437.2646484375C544.908203125 -444.4248046875 536.52734375 -456.8427734375 530.443359375 -464.8642578125C524.359375 -472.8828125 518.4013671875 -481.3349609375 517.205078125 -483.6455078125C503.9609375 -509.2060546875 464.3740234375 -562.6181640625 438.3388671875 -590.0537109375C423.8466796875 -605.3291015625 399.04296875 -620.5732421875 380.6025390625 -625.5400390625Z"/>
</svg>