<svg xmlns="http://www.w3.org/2000/svg" viewBox="0 -1000 1000 1000">
	<path fill="#03868b" d="M324.71875 -179.1982421875C311.060546875 -176.1123046875 275.9541015625 -179.9912109375 256.724609375 -186.7109375C231.814453125 -195.4130859375 220.23828125 -207.46484375 208.5654296875 -236.8427734375L200.396484375 -257.3974609375L200.4306640625 -284.2802734375C200.455078125 -306.8427734375 201.0498046875 -313.203125 204.1259765625 -323.880859375C209.2666015625 -341.7255859375 227.220703125 -382.0791015625 233.591796875 -390.1181640625C245.9345703125 -405.6865234375 270.755859375 -433.1767578125 276.767578125 -437.9384765625C290.029296875 -448.4423828125 316.912109375 -461.1943359375 343.2060546875 -469.458984375C355.4326171875 -473.3037109375 359.828125 -473.7353515625 391.92578125 -474.2470703125C433.091796875 -474.9033203125 443.7255859375 -473.3115234375 464.1650390625 -463.4326171875C481.6201171875 -455.0009765625 491.98046875 -445.6015625 501.2431640625 -429.7998046875C522.4990234375 -393.5390625 528.224609375 -359.3427734375 519.0029296875 -323.7060546875C512.611328125 -299.0009765625 506.1171875 -285.2001953125 493.3369140625 -269.1591796875C476.5107421875 -248.0400390625 449.78515625 -222.0146484375 434.25390625 -211.6318359375C406.873046875 -193.3212890625 385.9375 -185.9970703125 351.45703125 -182.6572265625C340.451171875 -181.5908203125 328.419921875 -180.0361328125 324.71875 -179.1982421875ZM129.005859375 -28.0419921875C137.5439453125 -26.216796875 139.3447265625 -26.2197265625 149.3564453125 -28.076171875C166.931640625 -31.3369140625 180.517578125 -39.7353515625 198.837890625 -58.6669921875C214.4306640625 -74.779296875 223.638671875 -85.689453125 243.708984375 -111.8271484375C255.8359375 -127.62109375 261.3291015625 -128.5810546875 292.8115234375 -120.4052734375C326.4482421875 -111.6728515625 342.4130859375 -109.95703125 378.486328125 -111.1982421875C417.6259765625 -112.5478515625 427.01171875 -113.9189453125 443.3974609375 -120.6787109375C462.763671875 -128.673828125 467.96875 -126.0927734375 481.1142578125 -102C490.572265625 -84.6611328125 503.0546875 -67.4814453125 512.2041015625 -59.2177734375C519.283203125 -52.8193359375 542.015625 -41.3955078125 554.201171875 -38.1181640625C560.021484375 -36.5498046875 562.5439453125 -36.703125 568.529296875 -38.986328125C577.908203125 -42.568359375 589.98046875 -55.8955078125 596.607421875 -69.9775390625C601.0439453125 -79.4033203125 601.7958984375 -83.1357421875 602.44921875 -98.9853515625C603.1806640625 -116.6904296875 603.0576171875 -117.4599609375 597.919921875 -127.8974609375C591.1357421875 -141.6787109375 577.7373046875 -155.3916015625 556.2275390625 -170.5751953125C546.8046875 -177.2294921875 537.9208984375 -184.3427734375 536.4892578125 -186.3896484375C531.6865234375 -193.24609375 533.365234375 -198.2021484375 547.81640625 -219.7861328125C563.7880859375 -243.640625 577.15234375 -274.6650390625 581.7529296875 -298.5576171875C583.263671875 -306.4111328125 585.669921875 -318.357421875 587.0986328125 -325.1005859375C588.787109375 -333.0654296875 589.337890625 -341.0146484375 588.66796875 -347.779296875C588.1005859375 -353.5107421875 586.8662109375 -369.9169921875 585.9228515625 -384.2392578125C583.158203125 -426.283203125 577.169921875 -455.486328125 568.087890625 -471.208984375C557.4443359375 -489.6416015625 528.6416015625 -525.185546875 511.623046875 -540.8916015625C487.2158203125 -563.4150390625 482.556640625 -565.1865234375 432.91796875 -570.7841796875C384.419921875 -576.2529296875 360.8837890625 -573.5224609375 307.92578125 -556.2783203125C274.994140625 -545.556640625 255.439453125 -535.412109375 220.56640625 -510.966796875C176.8056640625 -480.2939453125 168.544921875 -471.4443359375 140.8759765625 -425.599609375C117.302734375 -386.5361328125 111.0341796875 -369.8388671875 105.1650390625 -330.4775390625C99.1767578125 -290.302734375 99.8505859375 -272.4091796875 108.634765625 -238.2646484375C116.7314453125 -206.794921875 116.669921875 -206.9384765625 133.244140625 -182.58203125C151.9541015625 -155.0849609375 151.7587890625 -152.3701171875 129.3203125 -128.1162109375C95.90625 -91.9990234375 87.6689453125 -55.3955078125 108.931640625 -37.5029296875C115.111328125 -32.3037109375 120.1357421875 -29.935546875 129.005859375 -28.0419921875Z"/>
</svg>