<svg xmlns="http://www.w3.org/2000/svg" viewBox="0 -1000 1000 1000">
	<path fill="#ee2304" d="M359.5234375 -284.6142578125C348.4326171875 -279.7060546875 328.0068359375 -278.95703125 314.46484375 -282.9599609375C285.2783203125 -291.59375 274.3583984375 -306.568359375 274.43359375 -337.845703125C274.4677734375 -351.630859375 274.9765625 -353.9853515625 280.2099609375 -364.556640625C287.080078125 -378.44140625 299.1591796875 -391.361328125 309.5732421875 -395.96875C316.6484375 -399.099609375 331.1474609375 -401.744140625 351.8603515625 -403.685546875C369.6103515625 -405.3505859375 382.8134765625 -394.30078125 391.779296875 -370.279296875C398.013671875 -353.568359375 398.583984375 -345.1396484375 394.5341796875 -329.587890625C392.6298828125 -322.27734375 389.236328125 -313.1611328125 386.994140625 -309.3330078125C381.5009765625 -299.96484375 369.203125 -288.896484375 359.5234375 -284.6142578125ZM296.154296875 -201.7080078125C346.689453125 -193.693359375 397.234375 -208.609375 432.6884765625 -241.99609375C447.501953125 -255.9443359375 451.2998046875 -262.154296875 458.0673828125 -283.517578125C470.6455078125 -323.23046875 474.7158203125 -360.3671875 469.294921875 -385.95703125C464.212890625 -409.919921875 448.3701171875 -439.79296875 431.796875 -456.6611328125C421.392578125 -467.25 410.5439453125 -473.1328125 392.19921875 -478.1328125C370.40625 -484.076171875 359.1884765625 -484.845703125 331.4521484375 -482.298828125C307.748046875 -480.125 304.603515625 -479.4248046875 289.240234375 -472.892578125C266.4833984375 -463.216796875 252.9072265625 -454.1181640625 236.5654296875 -437.58203125C213.333984375 -414.076171875 208.955078125 -400.61328125 207.123046875 -347.083984375C205.892578125 -310.998046875 206.2314453125 -308.318359375 215.736328125 -279.046875C223.966796875 -253.705078125 233.236328125 -236.44140625 245.0625 -224.4306640625C259.1103515625 -210.1640625 268.1201171875 -206.154296875 296.154296875 -201.7080078125ZM381.8359375 -111.34765625C349.0986328125 -105.0068359375 313.33984375 -107.62109375 283.794921875 -118.51171875C226.140625 -139.7607421875 209.4169921875 -152.181640625 188.0166015625 -189.646484375C173.7880859375 -214.548828125 170.6298828125 -222.359375 163.3974609375 -250.5439453125C148.2763671875 -309.466796875 149.1953125 -346.9716796875 166.9794921875 -396.990234375C186.943359375 -453.140625 205.732421875 -479.390625 245.7568359375 -507.0693359375C269.6650390625 -523.6015625 282.1884765625 -528.609375 301.7978515625 -529.466796875C308.859375 -529.7783203125 322.951171875 -530.943359375 333.1162109375 -532.0615234375C347.564453125 -533.6474609375 354.68359375 -533.6474609375 365.7412109375 -532.05859375C392.5927734375 -528.203125 422.486328125 -513.3828125 443.673828125 -493.427734375C450.318359375 -487.169921875 459.9130859375 -479.00390625 464.9951171875 -475.275390625C488.029296875 -458.38671875 498.81640625 -442.53515625 519.419921875 -395.291015625C530.1484375 -370.6953125 531.365234375 -365.4697265625 533.990234375 -332.841796875C537.7333984375 -286.3642578125 532.4765625 -252.1328125 515.7998046875 -214.3681640625C502.982421875 -185.3359375 475.10546875 -157.791015625 429.6806640625 -129.2744140625C416.5830078125 -121.0546875 400.1328125 -114.888671875 381.8359375 -111.34765625ZM269.0126953125 26.71875C291.3662109375 31.578125 374.525390625 28.181640625 415.4345703125 20.7333984375C434.4833984375 17.267578125 473.6669921875 -1.189453125 497.8623046875 -18.087890625C506.236328125 -23.939453125 519.037109375 -32.884765625 526.310546875 -37.962890625C557.017578125 -59.421875 588.28515625 -93.0546875 605.18359375 -122.8046875C607.80859375 -127.42578125 613.6259765625 -136.2060546875 618.1103515625 -142.3203125C629.310546875 -157.591796875 634.208984375 -169.5 639.8076171875 -195.046875C646.9609375 -227.6845703125 648.451171875 -243.41015625 648.25 -284.083984375C647.904296875 -353.4140625 641.5126953125 -398.17578125 626.388671875 -437.16796875C616.8525390625 -461.767578125 577.97265625 -516.5546875 553.7255859375 -539.5703125C536.3388671875 -556.076171875 512.4130859375 -571.51171875 479.9931640625 -587.134765625C439.8701171875 -606.4775390625 422.66015625 -611.6181640625 358.3173828125 -623.4716796875C337.306640625 -627.34375 329.3154296875 -627.890625 283.4326171875 -628.6123046875C235.3525390625 -629.3642578125 231.376953125 -629.2001953125 221.2734375 -626.03125C215.3330078125 -624.171875 207.4482421875 -622.6376953125 203.75 -622.626953125C195.65625 -622.599609375 177.5986328125 -617.6171875 165.451171875 -612.0556640625C156.318359375 -607.875 138.42578125 -589.9208984375 122.703125 -569.16015625C114.1611328125 -557.880859375 96.6650390625 -523.14453125 87.0087890625 -498.28515625C80.712890625 -482.07421875 66.8359375 -435.12109375 66.8359375 -430.0283203125C66.8359375 -428.83203125 64.92578125 -421.96484375 62.5947265625 -414.767578125C56.4765625 -395.900390625 51.6982421875 -350.79296875 51.732421875 -311.9580078125C51.7490234375 -281.5078125 51.9169921875 -280.02734375 58.33203125 -252.9365234375C61.9521484375 -237.654296875 67.2734375 -212.3310546875 70.1552734375 -196.66015625C75.3984375 -168.154296875 81.2255859375 -150.74609375 91.77734375 -132.046875C124.7978515625 -73.5341796875 152.33984375 -37.87109375 181.916015625 -15.3359375C205.3388671875 2.51171875 244.37890625 21.3623046875 269.0126953125 26.71875Z"/>
</svg>