<svg xmlns="http://www.w3.org/2000/svg" viewBox="0 -1000 1000 1000">
	<path fill="#3c9202" d="M180.7958984375 36.451171875C187.7578125 38.7314453125 206.013671875 36.783203125 218.7421875 32.4013671875C240.1962890625 25.015625 264.6728515625 10.875 291.8212890625 -9.8173828125C300.5986328125 -16.509765625 315.7197265625 -27.296875 325.423828125 -33.794921875C335.1240234375 -40.2919921875 346.560546875 -48.54296875 350.8359375 -52.12890625C362.9736328125 -62.314453125 419.294921875 -121.08203125 430.3447265625 -135.08984375C435.810546875 -142.021484375 444.81640625 -152.5927734375 450.3603515625 -158.5810546875C474.8232421875 -185.015625 515.9375 -245.8212890625 530.8056640625 -277.546875C540.072265625 -297.326171875 541.904296875 -309.228515625 538.267578125 -326.072265625C532.087890625 -354.7109375 524.677734375 -364.181640625 454.5439453125 -433.087890625C429.2646484375 -457.9267578125 390.4365234375 -496.2109375 368.2607421875 -518.16796875C346.0849609375 -540.125 317.9140625 -567.2578125 305.6611328125 -578.4609375C293.4072265625 -589.6689453125 276.775390625 -605.48046875 268.7021484375 -613.60546875C250.966796875 -631.447265625 240.2958984375 -637.4111328125 226.1044921875 -637.4111328125C217.826171875 -637.4111328125 215.4775390625 -636.642578125 209.2841796875 -631.921875C205.12109375 -628.74609375 200.0390625 -622.54296875 197.236328125 -617.220703125C192.7890625 -608.775390625 192.447265625 -606.8955078125 193.1279296875 -594.5703125C194.6416015625 -567.0419921875 208.6005859375 -541.923828125 241.724609375 -507.111328125C253.109375 -495.14453125 269.2255859375 -477.1796875 277.541015625 -467.189453125C287.53515625 -455.1787109375 300.919921875 -442.0234375 317.0224609375 -428.375C363.87890625 -388.6650390625 400.7216796875 -349.830078125 409.5771484375 -330.8125C413.37109375 -322.6640625 413.6552734375 -309.9970703125 410.2919921875 -298.669921875C407.560546875 -289.4755859375 383.197265625 -251.232421875 366.5517578125 -230.009765625C352.88671875 -212.587890625 323.7109375 -184.2568359375 295.181640625 -160.703125C277.1513671875 -145.818359375 266.302734375 -134.86328125 242.2607421875 -107.2568359375C222.5703125 -84.6435546875 208.40625 -69.9462890625 201.65234375 -65.1171875C186.3154296875 -54.15234375 172.94140625 -38.8291015625 165.978515625 -24.251953125C160.5849609375 -12.955078125 159.9462890625 -10.18359375 159.9873046875 1.828125C160.0244140625 12.884765625 160.7529296875 16.5390625 164.0849609375 22.423828125C168.26171875 29.796875 173.2353515625 33.9736328125 180.7958984375 36.451171875Z"/>
</svg>