<svg xmlns="http://www.w3.org/2000/svg" viewBox="0 -1000 1000 1000">
	<path fill="#ee2304" d="M368.830078125 45.0771484375C373.150390625 46.6220703125 431.59765625 43.6787109375 450.3623046875 40.9716796875C492.7724609375 34.8505859375 507.9072265625 23.8544921875 508.1220703125 -0.9873046875C508.201171875 -10.154296875 507.298828125 -13.7431640625 502.5029296875 -23.3408203125C494.169921875 -40.0341796875 478.10546875 -56.6416015625 463.1962890625 -63.994140625C452.515625 -69.2578125 448.95703125 -70.0947265625 431.830078125 -71.3876953125C410.908203125 -72.962890625 395.3017578125 -77.3759765625 388.6884765625 -83.5888671875C381.7529296875 -90.1044921875 380.9326171875 -97.6064453125 382.01953125 -144.6279296875C382.5732421875 -168.65234375 383.728515625 -191.7099609375 384.5869140625 -195.8662109375C385.4443359375 -200.0263671875 387.0068359375 -214.3876953125 388.0595703125 -227.7861328125C389.1123046875 -241.1845703125 392.177734375 -274.828125 394.875 -302.5478515625C397.5712890625 -330.267578125 400.5556640625 -366.9326171875 401.5087890625 -384.025390625C405.9970703125 -464.5830078125 408.5400390625 -484.52734375 416.271484375 -499.8466796875C423.25390625 -513.6865234375 426.5693359375 -515.3916015625 449.8427734375 -517.1318359375C494.4296875 -520.4599609375 513.19140625 -525.7099609375 525.8955078125 -538.4111328125C538.8291015625 -551.3486328125 540.982421875 -568.5341796875 532.1025390625 -587.9345703125C524.439453125 -604.6728515625 510.2587890625 -616.6630859375 491.134765625 -622.5693359375C478.16015625 -626.5751953125 432.9375 -634.3466796875 422.5908203125 -634.3466796875C418.41796875 -634.3466796875 407.6376953125 -633.2392578125 398.630859375 -631.8857421875C386.189453125 -630.0205078125 378.62890625 -629.8076171875 367.1416015625 -631.0185546875C358.8291015625 -631.8935546875 341.431640625 -632.6376953125 328.4775390625 -632.6376953125C306.5615234375 -632.6650390625 304.5244140625 -632.9384765625 299.0791015625 -636.6162109375C292.6572265625 -640.9541015625 285.0625 -643.640625 274.7470703125 -645.2236328125C265.8564453125 -646.5908203125 256.0537109375 -643.0048828125 242.775390625 -633.5341796875C216.9150390625 -615.080078125 203.396484375 -587.421875 210.783203125 -568.0791015625C216.34375 -553.5224609375 243.1201171875 -533.5302734375 266.3486328125 -526.595703125C289.283203125 -519.7490234375 300.8603515625 -511.2626953125 307.2861328125 -496.5859375C310.2255859375 -489.8759765625 310.62890625 -484.7705078125 310.8818359375 -451.2255859375C311.0390625 -430.4384765625 310.2939453125 -380.5419921875 309.2275390625 -340.3466796875C307.42578125 -272.599609375 306.6298828125 -260.69140625 298.32421875 -177.1669921875C293.3955078125 -127.6123046875 288.517578125 -85.4931640625 287.4853515625 -83.5654296875C284.1806640625 -77.3857421875 270.78515625 -74.7021484375 236.1064453125 -73.27734375C198.720703125 -71.7392578125 189.79296875 -69.3125 177.48828125 -57.3525390625C162.8115234375 -43.0927734375 159.36328125 -29.5712890625 165.2421875 -9.3505859375C168.9775390625 3.50390625 177.765625 11.4951171875 200.92578125 23.109375C214.3310546875 29.8359375 223.8359375 31.7939453125 255.4287109375 34.3583984375C267.900390625 35.3701171875 286.046875 37.2939453125 295.7470703125 38.6337890625C305.4501953125 39.9736328125 325.4833984375 41.8369140625 340.26953125 42.7724609375C355.0517578125 43.7099609375 367.9033203125 44.7451171875 368.830078125 45.0771484375Z"/>
</svg>