<svg xmlns="http://www.w3.org/2000/svg" viewBox="0 -1000 1000 1000">
	<path fill="#03868b" d="M377.6806640625 -530.0634765625C356.4482421875 -527.66796875 334.80859375 -528.337890625 334.8564453125 -531.38671875C334.921875 -535.4609375 340.759765625 -550.4892578125 346.56640625 -561.533203125C361.267578125 -589.4814453125 369.197265625 -597.72265625 391.9609375 -608.7119140625C400.08203125 -612.6318359375 403.2333984375 -613.1826171875 417.9990234375 -613.1474609375C432.6103515625 -613.1279296875 436.0390625 -612.5458984375 444.3173828125 -608.6875C449.5537109375 -606.2431640625 455.20703125 -602.1552734375 456.8818359375 -599.5986328125C463.642578125 -589.2802734375 457.435546875 -572.251953125 440.6806640625 -555.1591796875C426.232421875 -540.4169921875 409.146484375 -533.6123046875 377.6806640625 -530.0634765625ZM307.9609375 -2.4287109375C299.7373046875 1.1162109375 295.857421875 1.59765625 272.6806640625 1.939453125C242.4619140625 2.3876953125 231.6611328125 0.900390625 218.994140625 -5.4541015625C204.724609375 -12.6103515625 202.9609375 -16.1376953125 202.9609375 -37.4794921875C202.9609375 -52.3896484375 203.5244140625 -56.37109375 206.3203125 -61.115234375C219.052734375 -82.7333984375 247.5 -78.1884765625 292.45703125 -47.3583984375C307.2939453125 -37.1826171875 323.078125 -20.6328125 323.078125 -15.2568359375C323.078125 -10.4033203125 319.595703125 -7.4462890625 307.9609375 -2.4287109375ZM498.638671875 92.1806640625C509.51171875 93.9208984375 533.8984375 91.900390625 542.361328125 88.5537109375C554.7001953125 83.6728515625 580.0888671875 68.7158203125 586.5556640625 62.5166015625C596.6044921875 52.880859375 609.521484375 27.615234375 611.3974609375 13.9228515625C612.6142578125 5.0458984375 609.6953125 -6.4521484375 605.1533203125 -10.6865234375C603.283203125 -12.4296875 597.3603515625 -14.7197265625 591.994140625 -15.7763671875C580.533203125 -18.0283203125 576.353515625 -16.8623046875 566.099609375 -8.560546875C555.9345703125 -0.330078125 550.00390625 2.2373046875 536.181640625 4.3896484375C514.8876953125 7.708984375 487.8720703125 3.3505859375 473.021484375 -5.798828125L467.5595703125 -9.162109375L467.521484375 -27.2470703125C467.416015625 -76.7451171875 461.892578125 -104.0146484375 445.814453125 -134.3720703125C427.2890625 -169.3447265625 402.9326171875 -207.1689453125 383.4462890625 -231.2177734375C365.2763671875 -253.642578125 362.630859375 -257.8125 353.62109375 -278.2548828125C339.7373046875 -309.7587890625 333.5888671875 -326.3359375 329.6748046875 -342.82421875C326.2021484375 -357.4423828125 322.791015625 -394.708984375 324.3291015625 -401.2197265625C325.6552734375 -406.8291015625 329.69921875 -409.05078125 338.5927734375 -409.05078125C343.0732421875 -409.05078125 352.189453125 -410.1474609375 358.8505859375 -411.4912109375C365.5087890625 -412.8349609375 377.38671875 -414.7587890625 385.2412109375 -415.7666015625C401.7431640625 -417.8857421875 412.4853515625 -421.0439453125 425.7646484375 -427.6787109375C440.7421875 -435.1669921875 461.619140625 -451.8984375 474.5283203125 -466.759765625C486.9873046875 -481.0986328125 511.2001953125 -516.484375 518.3916015625 -530.8505859375C528.54296875 -551.1455078125 541.052734375 -598.9697265625 539.203125 -610.4375C536.8896484375 -624.7958984375 529.564453125 -648.5166015625 525.58984375 -654.5263671875C519.9462890625 -663.0576171875 504.8935546875 -674.7470703125 490.2412109375 -681.9853515625C464.66796875 -694.6181640625 437.5869140625 -696.2587890625 413.7978515625 -686.6171875C377.4306640625 -671.87890625 356.5576171875 -662.6982421875 349.8583984375 -658.4970703125C319.4208984375 -639.3974609375 276.40625 -596.0654296875 259.2890625 -567.2509765625C248.3818359375 -548.8896484375 248.2041015625 -548.7978515625 232.7138671875 -553.3095703125C214.3701171875 -558.6513671875 207.455078125 -562.3427734375 195.505859375 -573.154296875C181.455078125 -585.869140625 170.3564453125 -602.1044921875 163.3876953125 -620.1376953125C153.9228515625 -644.6142578125 140.1484375 -655.541015625 123.3935546875 -651.86328125C109.732421875 -648.8623046875 95.87890625 -627.5615234375 90.2158203125 -600.8466796875C86.8623046875 -585.0380859375 87.54296875 -578.1103515625 95.74609375 -544.634765625C101.962890625 -519.2705078125 107.3671875 -509.89453125 129.0400390625 -486.8818359375C157.091796875 -457.0908203125 178.10546875 -443.0048828125 212.5205078125 -430.92578125C235.0927734375 -422.9990234375 235.71875 -422.0732421875 235.71875 -396.623046875C235.71875 -359.2099609375 236.931640625 -354.36328125 260.9091796875 -295.8857421875C285.7060546875 -235.4013671875 309.505859375 -184.271484375 325.1396484375 -157.8916015625C344.7275390625 -124.8291015625 350.603515625 -110.9658203125 352.63671875 -92.9951171875L353.7958984375 -82.7578125L349.7763671875 -84.8603515625C347.568359375 -86.0185546875 340.08984375 -90.8955078125 333.158203125 -95.705078125C311.2353515625 -110.9150390625 257.3681640625 -138.4267578125 243.6240234375 -141.4306640625C224.3603515625 -145.6416015625 192.5361328125 -145.2216796875 176.173828125 -140.5419921875C155.8916015625 -134.73828125 138.2275390625 -124.8193359375 127.447265625 -113.1748046875C119.548828125 -104.646484375 117.576171875 -101.0888671875 113.3349609375 -87.734375C105.2958984375 -62.4208984375 104.041015625 -51.2509765625 107.103515625 -32.2333984375C108.54296875 -23.28515625 109.71875 -13.1748046875 109.71875 -9.7607421875C109.71875 1.4365234375 115.6416015625 10.1015625 135.5517578125 28.0361328125C166.634765625 56.0390625 184.8388671875 64.6083984375 222.580078125 69.0068359375C241.6865234375 71.2353515625 248.0947265625 71.228515625 280.4765625 68.9482421875C300.505859375 67.5400390625 322.4873046875 66.388671875 329.3232421875 66.388671875C343.3876953125 66.388671875 358.1435546875 64.4677734375 383.0908203125 59.388671875L400.2626953125 55.8916015625L410.810546875 61.1142578125C434.4189453125 72.8076171875 481.3681640625 89.412109375 498.638671875 92.1806640625Z"/>
</svg>