<svg xmlns="http://www.w3.org/2000/svg" viewBox="0 -1000 1000 1000">
	<path fill="#ee2304" d="M407.955078125 -236.994140625C401.369140625 -233.8701171875 396.1875 -233.6171875 389.994140625 -236.115234375C387.68359375 -237.048828125 374.6982421875 -240.77734375 361.1396484375 -244.400390625C309.0390625 -258.326171875 290.873046875 -268.580078125 290.873046875 -284.076171875C290.873046875 -291.640625 295.736328125 -296.0087890625 313.1953125 -304.119140625C320.783203125 -307.646484375 334.9033203125 -314.595703125 344.5693359375 -319.5625C354.7509765625 -324.791015625 371.328125 -331.353515625 383.9814453125 -335.158203125C425.8447265625 -347.75390625 435.9111328125 -342.27734375 419.4462890625 -315.86328125C409.681640625 -300.1953125 406.79296875 -291.640625 406.79296875 -278.3994140625C406.79296875 -269.3486328125 407.6787109375 -265.96875 412.197265625 -257.81640625C416.818359375 -249.4765625 417.3271484375 -247.4599609375 415.7138671875 -243.921875C414.6748046875 -241.642578125 411.185546875 -238.525390625 407.955078125 -236.994140625ZM531.8974609375 -64.4892578125C547.845703125 -61.1533203125 566.9521484375 -68.388671875 574.013671875 -80.44140625C582.0224609375 -94.10546875 581.1884765625 -110.580078125 571.857421875 -123.0703125C566.3203125 -130.4765625 543.3681640625 -147.388671875 529.10546875 -154.5732421875C509.5888671875 -164.400390625 509.7216796875 -162.796875 524.8056640625 -207.171875C540.4970703125 -253.3388671875 540.626953125 -253.841796875 542.896484375 -277.890625C546.8310546875 -319.5625 544.5849609375 -332.0205078125 526.712890625 -367.76953125C514.7392578125 -391.71484375 512.1318359375 -403.107421875 515.962890625 -414.71484375C517.1015625 -418.1669921875 524.9453125 -430.181640625 533.39453125 -441.419921875C541.84375 -452.654296875 550.921875 -466.671875 553.5673828125 -472.5673828125C559.3642578125 -485.484375 562.287109375 -502.6796875 560.6015625 -513.927734375C558.8720703125 -525.4638671875 550.224609375 -534.125 538.712890625 -535.8515625C526.94140625 -537.615234375 512.12109375 -534.4052734375 497.5126953125 -526.923828125C482.046875 -519.0078125 441.5439453125 -490.333984375 389.1533203125 -450.216796875C378.0068359375 -441.6826171875 364.4375 -433.458984375 348.8310546875 -425.78515625C309.111328125 -406.255859375 248.7939453125 -380.12890625 233.751953125 -375.94140625C184.2763671875 -362.1640625 159.9990234375 -350.53515625 139.9423828125 -331.0087890625C123.6279296875 -315.1220703125 123.1533203125 -314.3837890625 121.0986328125 -301.62109375C118.2685546875 -284.0625 125.712890625 -265.7939453125 143.6025390625 -246.3828125C157.6611328125 -231.1328125 175.875 -219.5146484375 221.8642578125 -196.470703125C234.267578125 -190.2568359375 249.009765625 -182.296875 254.625 -178.779296875C267.4462890625 -170.75390625 329.35546875 -145.6484375 358.0869140625 -136.8271484375C370.0126953125 -133.166015625 384.330078125 -127.869140625 389.9052734375 -125.052734375C395.4794921875 -122.2392578125 409.2744140625 -116.1416015625 420.5576171875 -111.50390625C431.83984375 -106.865234375 447.1591796875 -99.783203125 454.59375 -95.767578125C462.02734375 -91.75390625 471.13671875 -87.529296875 474.8310546875 -86.380859375C478.529296875 -85.232421875 491.357421875 -80.1572265625 503.3408203125 -75.1015625C515.3203125 -70.04296875 528.171875 -65.271484375 531.8974609375 -64.4892578125Z"/>
</svg>