<svg xmlns="http://www.w3.org/2000/svg" viewBox="0 -1000 1000 1000">
	<path fill="#964ffa" d="M340.75390625 -104.203125C311.9130859375 -99.5849609375 278.396484375 -106.8310546875 248.8955078125 -124.060546875C218.7353515625 -141.673828125 203.255859375 -165.216796875 195.72265625 -204.919921875C192.24609375 -223.2470703125 192.423828125 -239.0380859375 196.470703125 -271.2900390625C202.7392578125 -321.263671875 215.0849609375 -355.51953125 242.77734375 -399.78125C270.8662109375 -444.673828125 295.609375 -468.33203125 328.3466796875 -481.6044921875C355.9052734375 -492.7744140625 372.1376953125 -493.201171875 398.9072265625 -483.45703125C408.1455078125 -480.09375 418.7998046875 -476.5322265625 422.576171875 -475.537109375C426.353515625 -474.54296875 432.4443359375 -471.5556640625 436.111328125 -468.900390625C442.60546875 -464.197265625 472.4033203125 -427.7509765625 479.9677734375 -415.26171875C486.8408203125 -403.91015625 495.7958984375 -373.3095703125 497.283203125 -356.103515625C498.0380859375 -347.326171875 499.302734375 -337.509765625 500.0859375 -334.29296875C500.98828125 -330.5986328125 500.4482421875 -317.193359375 498.623046875 -297.857421875C496.2578125 -272.8486328125 494.7607421875 -264.447265625 490.4130859375 -251.7802734375C482.6298828125 -229.115234375 473.09765625 -206.373046875 466.2509765625 -194.1328125C453.1298828125 -170.66796875 426.513671875 -142.330078125 403.7431640625 -127.578125C379.3798828125 -111.7939453125 372.705078125 -109.3193359375 340.75390625 -104.203125ZM309.0283203125 -6.609375C368.48046875 -3.587890625 388.5810546875 -6.94140625 430.5439453125 -26.884765625C464.0703125 -42.81640625 474.150390625 -49.6279296875 494.2548828125 -69.9306640625C515.3232421875 -91.20703125 524.458984375 -104.208984375 544.1845703125 -140.9833984375C565.68359375 -181.0625 571.052734375 -193.486328125 585.09765625 -235.6064453125C607.5634765625 -302.974609375 608.0322265625 -306.173828125 605.9541015625 -377.9443359375C604.384765625 -432.10546875 602.419921875 -439.21875 580.9755859375 -468.408203125C574.6318359375 -477.041015625 566.6708984375 -489.376953125 563.287109375 -495.81640625C558.365234375 -505.181640625 554.5849609375 -509.580078125 544.3828125 -517.8212890625C537.365234375 -523.48828125 523.5908203125 -534.767578125 513.771484375 -542.884765625C495.6083984375 -557.900390625 467.720703125 -575.6943359375 456.6162109375 -579.3515625C445.7744140625 -582.923828125 390.939453125 -593.060546875 377.06640625 -594.05859375C365.3798828125 -594.900390625 360.1201171875 -594.208984375 336.748046875 -588.7646484375C259.064453125 -570.6630859375 227.5537109375 -549.455078125 181.3466796875 -484.171875C156.7578125 -449.427734375 131.970703125 -400.732421875 120.00390625 -363.6640625C115.03125 -348.2626953125 105.419921875 -302.93359375 101.478515625 -276.3046875C99.154296875 -260.595703125 96.150390625 -241.318359375 94.806640625 -233.462890625C92.58203125 -220.474609375 92.6533203125 -216.14453125 95.6171875 -185.583984375C98.4541015625 -156.3125 99.5986328125 -150.0234375 104.5068359375 -136.7724609375C112.884765625 -114.166015625 120.9921875 -102.171875 143.4580078125 -79.162109375C171.6669921875 -50.2705078125 193.1279296875 -36.126953125 229.228515625 -22.646484375C255.2802734375 -12.916015625 279.0869140625 -8.130859375 309.0283203125 -6.609375Z"/>
</svg>