<svg xmlns="http://www.w3.org/2000/svg" viewBox="0 -1000 1000 1000">
	<path fill="#964ffa" d="M307.998046875 -155.5283203125C314.5 -152.162109375 318.21484375 -152.271484375 326.546875 -156.0556640625C346.78125 -165.24609375 353.53515625 -186.8447265625 356.03125 -250.3369140625C357.978515625 -299.9892578125 357.958984375 -508.3994140625 356 -527.537109375C355.197265625 -535.3916015625 352.14453125 -567.14453125 349.21484375 -598.09765625C343.5625 -657.830078125 340.5859375 -673.0166015625 332.689453125 -682.3984375C317.080078125 -700.951171875 293.4453125 -691.8046875 286.16015625 -664.392578125C283.0234375 -652.580078125 279.5234375 -545.48828125 281.27734375 -514.9384765625C282.53515625 -493.001953125 279.63671875 -417.62890625 275.72265625 -370.4580078125C271.375 -318.0703125 273.384765625 -223.2626953125 279.396484375 -197.3408203125C283.884765625 -177.98828125 294.45703125 -162.5390625 307.998046875 -155.5283203125ZM316.392578125 34.3115234375C306.025390625 39.2333984375 296.318359375 36.9365234375 289.681640625 27.9990234375C286.81640625 24.1396484375 286.16015625 20.828125 286.16015625 10.2255859375C286.16015625 -1.3408203125 286.732421875 -3.7236328125 291.240234375 -11.0166015625C301.029296875 -26.8486328125 318.37109375 -34.1572265625 327.201171875 -26.1689453125C331.412109375 -22.3583984375 339.4609375 2.04296875 337.89453125 6.2470703125C334.83203125 14.4638671875 321.47265625 31.90234375 316.392578125 34.3115234375ZM418.880859375 90.0244140625C428.4296875 93.0537109375 436.3046875 92.7861328125 444.279296875 89.1669921875C452.626953125 85.3759765625 456.6796875 80.0341796875 456.6796875 72.8251953125C456.6796875 64.3759765625 455.5546875 62.8828125 439.654296875 50.2021484375C420.5 34.9267578125 412.65234375 23.8466796875 397.18359375 -9.7861328125C371.50390625 -65.6083984375 353.615234375 -82.9208984375 321.427734375 -83.1025390625C309.447265625 -83.1708984375 306.689453125 -82.5478515625 296.2265625 -77.4423828125C280.23828125 -69.6357421875 260.375 -49.9443359375 253.515625 -35.0927734375C248.357421875 -23.9365234375 243.3203125 -2.8544921875 243.3203125 7.5595703125C243.3203125 27.1416015625 254.630859375 51.7373046875 267.802734375 60.8046875C282.548828125 70.9521484375 289.75390625 73.0615234375 309.6796875 73.0615234375C327.052734375 73.0615234375 328.705078125 72.7607421875 337.22265625 68.0439453125C342.98828125 64.8486328125 348.658203125 59.8095703125 352.814453125 54.1845703125C361.74609375 42.0947265625 365.40234375 42.2353515625 374.083984375 55.0009765625C385.958984375 72.466796875 401.27734375 84.443359375 418.880859375 90.0244140625Z"/>
</svg>