<svg xmlns="http://www.w3.org/2000/svg" viewBox="0 -1000 1000 1000">
	<path fill="#ee2304" d="M156.07421875 72.001953125C162.3798828125 74.9658203125 165.8154296875 75.3408203125 181.025390625 74.7255859375C191.712890625 74.2958984375 201.13671875 72.9794921875 204.9306640625 71.38671875C214.2958984375 67.4521484375 224.296875 56.0673828125 236.3349609375 35.6279296875C242.2685546875 25.5556640625 256.326171875 2.9482421875 267.5712890625 -14.6064453125C294.1767578125 -56.1337890625 310.7880859375 -85.9013671875 326.7978515625 -120.744140625C333.94140625 -136.2890625 341.3212890625 -151.6533203125 343.1943359375 -154.8857421875C345.0703125 -158.1201171875 348.7177734375 -165.8037109375 351.3017578125 -171.9560546875C357.01953125 -185.5830078125 368.4736328125 -197.9658203125 376.802734375 -199.5283203125C394.0126953125 -202.7548828125 419.9169921875 -175.0009765625 439.0751953125 -132.7998046875C445.7021484375 -118.2041015625 455.18359375 -101.0634765625 463.099609375 -89.3671875C470.291015625 -78.7412109375 483.201171875 -58.7041015625 491.787109375 -44.8447265625C503.0693359375 -26.6298828125 512.7080078125 -13.7177734375 526.5712890625 1.7529296875C544.533203125 21.7880859375 546.361328125 23.330078125 555.330078125 26.0302734375C560.59765625 27.6123046875 568.0380859375 28.8779296875 571.8701171875 28.8369140625C580.1279296875 28.7470703125 591.8173828125 22.4345703125 598.5849609375 14.4052734375C607.1123046875 4.2958984375 608.3291015625 -0.8310546875 608.462890625 -27.2041015625C608.6064453125 -55.7861328125 606.2509765625 -66.0537109375 592.5927734375 -96.3232421875C586.478515625 -109.875 581.1904296875 -118.556640625 573.3974609375 -127.8193359375C560.251953125 -143.453125 546.9287109375 -161.787109375 526.263671875 -192.685546875C509.1435546875 -218.2861328125 482.3740234375 -248.37109375 472.578125 -253.01953125C469.3037109375 -254.5712890625 466.626953125 -256.8818359375 466.626953125 -258.1494140625C466.626953125 -261.55078125 482.5654296875 -266.3837890625 489.0283203125 -264.94140625C491.9541015625 -264.2880859375 502.283203125 -263.0986328125 511.9873046875 -262.2958984375C521.6875 -261.4931640625 533.783203125 -260.3681640625 538.8662109375 -259.7978515625C555.3271484375 -257.9521484375 581.4638671875 -265.5322265625 598.02734375 -276.9560546875C606.6474609375 -282.9033203125 611.1044921875 -292.7841796875 611.1044921875 -305.943359375C611.1044921875 -319.6806640625 607.693359375 -326.587890625 596.8720703125 -334.7568359375C588.7001953125 -340.9296875 587.0390625 -341.4599609375 568.1513671875 -343.9345703125C537.515625 -347.9462890625 503.1005859375 -353.083984375 499.67578125 -354.1533203125C497.9873046875 -354.68359375 490.296875 -354.21875 482.5859375 -353.125C471.1494140625 -351.5009765625 467.693359375 -351.552734375 463.8173828125 -353.4013671875C455.251953125 -357.4892578125 456.3974609375 -362.9482421875 472.6259765625 -395.3779296875C480.6513671875 -411.408203125 489.5615234375 -427.9267578125 492.4326171875 -432.0869140625C495.3037109375 -436.2431640625 509.4306640625 -462.19921875 523.8271484375 -489.76171875C543.421875 -527.2841796875 552.7734375 -543.328125 561.03125 -553.6025390625C567.0947265625 -561.1494140625 574.337890625 -571.861328125 577.123046875 -577.4052734375C579.9091796875 -582.94921875 585.736328125 -592.0205078125 590.07421875 -597.564453125C599.5830078125 -609.7216796875 604.8193359375 -619.6416015625 608.609375 -632.6845703125C613.5146484375 -649.544921875 609.005859375 -658.9814453125 592.1455078125 -667.154296875C571.5927734375 -677.1142578125 549.7763671875 -677.5751953125 529.9072265625 -668.4638671875C519.376953125 -663.6376953125 485.6689453125 -632.9306640625 471.9521484375 -615.6689453125C458.6357421875 -598.9111328125 431.5078125 -553.8994140625 422.166015625 -533.0673828125C417.86328125 -523.462890625 410.9208984375 -509.5791015625 406.7412109375 -502.2138671875C402.560546875 -494.84765625 397.748046875 -485.5712890625 396.0458984375 -481.599609375C390.625 -468.953125 367.62890625 -434.3056640625 359.9697265625 -427.2470703125C351.595703125 -419.5263671875 345.3505859375 -417.3310546875 339.068359375 -419.9013671875C324.1591796875 -425.9990234375 300.130859375 -437.794921875 294.40625 -441.828125C290.697265625 -444.439453125 280.16015625 -455.5986328125 270.986328125 -466.62890625C261.8125 -477.662109375 248.578125 -492.7353515625 241.57421875 -500.125C234.5712890625 -507.5185546875 224.5771484375 -518.8583984375 219.3681640625 -525.3251953125C214.1552734375 -531.7919921875 197.1611328125 -549.7197265625 181.599609375 -565.162109375C151.5107421875 -595.021484375 145.2529296875 -599.3076171875 128.9560546875 -601.2392578125C104.6982421875 -604.1103515625 86.4912109375 -582.4873046875 89.1533203125 -553.9677734375C91.580078125 -527.9677734375 112.6552734375 -493.9833984375 142.384765625 -468.1259765625C164.865234375 -448.5712890625 231.9326171875 -381.8525390625 239.7626953125 -371.25390625C248.783203125 -359.0419921875 250.0986328125 -351.2626953125 244.5341796875 -343.0458984375C238.306640625 -333.8544921875 233.083984375 -332.7705078125 200.1962890625 -333.8544921875C183.3046875 -334.408203125 166.7109375 -334.06640625 159.8779296875 -333.0244140625C144.17578125 -330.6240234375 119.0166015625 -318.3408203125 112.6142578125 -309.9462890625C108.3486328125 -304.3544921875 107.9453125 -302.5830078125 107.9453125 -289.4169921875C107.9453125 -272.2626953125 111.6611328125 -264.0556640625 123.166015625 -255.794921875C135.15234375 -247.1884765625 144.8251953125 -245.7666015625 195.3056640625 -245.2021484375C245.94921875 -244.6357421875 254.4775390625 -243.1650390625 266.279296875 -232.962890625C271.7890625 -228.1982421875 272.3154296875 -226.98828125 272.12109375 -219.4482421875C271.65625 -201.3642578125 263.6474609375 -185.6416015625 235.2236328125 -146.9833984375C225.16796875 -133.3115234375 214.7197265625 -118.9912109375 212.005859375 -115.1591796875C209.2880859375 -111.3271484375 199.810546875 -99.2314453125 190.9443359375 -88.2802734375C182.078125 -77.3251953125 172.7021484375 -64.962890625 170.111328125 -60.806640625C167.5205078125 -56.6474609375 159.3515625 -44.1748046875 151.958984375 -33.0869140625C125.322265625 6.8623046875 120.03125 28.7646484375 131.79296875 50.3759765625C136.783203125 59.5439453125 144.8427734375 66.7216796875 156.07421875 72.001953125Z"/>
</svg>