<svg xmlns="http://www.w3.org/2000/svg" viewBox="0 -1000 1000 1000">
	<path fill="#3c9202" d="M340.580078125 -370.5576171875C357.830078125 -363.63671875 371.84375 -376.9638671875 382.83984375 -410.7470703125C392.765625 -441.23828125 396.09765625 -460.5595703125 395.3359375 -483.1669921875C394.7578125 -500.2294921875 394.10546875 -503.7841796875 390.0380859375 -512.1025390625C384.248046875 -523.9365234375 374.126953125 -532.771484375 362.482421875 -536.1552734375C354.2685546875 -538.5439453125 352.8125 -538.5166015625 344.2099609375 -535.8095703125C333.15234375 -532.3310546875 322.0986328125 -525.2822265625 319.033203125 -519.755859375C317.798828125 -517.52734375 316.8076171875 -510.2880859375 316.763671875 -503.1962890625C316.7255859375 -496.2646484375 315.9462890625 -482.1962890625 315.037109375 -471.9287109375C313.98828125 -460.0537109375 313.947265625 -443.3408203125 314.9345703125 -425.9873046875C316.3056640625 -401.8564453125 316.9853515625 -397.6904296875 320.8408203125 -389.8017578125C325.076171875 -381.150390625 332.69140625 -373.7236328125 340.580078125 -370.5576171875ZM498.58203125 -367.9404296875C505.9208984375 -364.7509765625 509.4375 -364.908203125 518.0712890625 -368.8291015625C530.4033203125 -374.423828125 555.8603515625 -396.0869140625 565.1337890625 -408.876953125C568.240234375 -413.1669921875 573.8837890625 -423.0546875 577.673828125 -430.8505859375C586.7314453125 -449.4931640625 587.86328125 -461.7568359375 581.6455078125 -473.9208984375C572 -492.8017578125 553.2763671875 -502.419921875 537.701171875 -496.5C526.0009765625 -492.0498046875 506.771484375 -467.9970703125 495.615234375 -443.8525390625C489.9794921875 -431.6474609375 477.9990234375 -391.076171875 477.9990234375 -384.1826171875C477.9990234375 -380.5556640625 488.35546875 -372.3837890625 498.58203125 -367.9404296875ZM193.01953125 -348.4033203125C206.513671875 -343.8017578125 214.853515625 -347.6064453125 221.142578125 -361.2373046875C226.693359375 -373.26171875 225.435546875 -381.3623046875 213.2333984375 -412.1884765625C197.74609375 -451.30078125 188.6240234375 -468.4755859375 177.3515625 -479.7412109375C164.47265625 -492.6142578125 152.2568359375 -496.0419921875 139.0048828125 -490.5048828125C125.138671875 -484.71484375 114.703125 -468.6396484375 114.4609375 -452.708984375C114.337890625 -444.423828125 115.513671875 -441.046875 125.015625 -422.4697265625C148.927734375 -375.708984375 165.3232421875 -357.8505859375 193.01953125 -348.4033203125ZM359.4501953125 -132.6884765625C321.2373046875 -122.9951171875 290.732421875 -132.8388671875 257.779296875 -165.490234375C247.689453125 -175.4873046875 244.58984375 -179.7529296875 242.890625 -185.9912109375C240.98046875 -192.984375 241.0927734375 -194.5810546875 243.8720703125 -200.271484375C245.84375 -204.3115234375 249.4775390625 -208.0126953125 253.71875 -210.3037109375C265.6884765625 -216.759765625 300.517578125 -222.5771484375 338.5595703125 -224.4736328125C359.365234375 -225.509765625 375.9453125 -227.150390625 380.4365234375 -228.61328125C389.7783203125 -231.6552734375 415.625 -231.6923828125 439.478515625 -228.6982421875C462.7138671875 -225.7802734375 469.59765625 -221.408203125 469.59765625 -209.5576171875C469.59765625 -199.4921875 455.615234375 -185.8505859375 419.2001953125 -160.4072265625C398.7470703125 -146.1171875 382.279296875 -138.4775390625 359.4501953125 -132.6884765625ZM319.23828125 -63.8779296875C337.19921875 -60.9892578125 365.708984375 -61.7001953125 383.646484375 -65.4873046875C416.41796875 -72.4091796875 436.703125 -82.3447265625 471.9423828125 -108.7412109375C496.26171875 -126.9560546875 497.4716796875 -128.1630859375 514.8994140625 -151.5341796875C545.4189453125 -192.46484375 554.189453125 -210.716796875 554.3466796875 -233.630859375C554.431640625 -246.0283203125 553.90234375 -248.2392578125 547.9443359375 -260.2978515625C538.8291015625 -278.76171875 528.9814453125 -288.3759765625 514.2431640625 -293.212890625C502.8544921875 -296.9453125 501.1796875 -297.0205078125 436.1220703125 -296.6923828125C399.556640625 -296.5078125 360.568359375 -295.6904296875 349.48046875 -294.8779296875C310.703125 -292.0234375 287.173828125 -289.5244140625 268.83984375 -286.3193359375C258.6748046875 -284.5419921875 248.6708984375 -283.0986328125 246.609375 -283.0986328125C238.0068359375 -283.13671875 181.2919921875 -267.87890625 169.951171875 -262.478515625C146.31640625 -251.2265625 139.3056640625 -241.3759765625 140.806640625 -221.5380859375C141.8076171875 -208.2998046875 146.166015625 -197.7724609375 156.4365234375 -183.7802734375C163.798828125 -173.7509765625 219.283203125 -119.5908203125 242.9833984375 -99.2978515625C271.9638671875 -74.4833984375 281.845703125 -69.8935546875 319.23828125 -63.8779296875Z"/>
</svg>