<svg xmlns="http://www.w3.org/2000/svg" viewBox="0 -1000 1000 1000">
	<path fill="#ee2304" d="M236.703125 -204.5361328125C244.3798828125 -199.9482421875 247.517578125 -199.0634765625 256.021484375 -199.0947265625C267.669921875 -199.138671875 275.8623046875 -202.3408203125 290.4130859375 -212.5478515625C301.5859375 -220.384765625 306.67578125 -227.029296875 318.76171875 -249.5576171875C327.1357421875 -265.1630859375 327.5048828125 -266.4423828125 331.828125 -294.9169921875C337 -328.9775390625 336.6884765625 -340.806640625 330.0751953125 -361.6123046875C327.0361328125 -371.1611328125 324.4423828125 -376.2822265625 321.7451171875 -378.048828125C308.740234375 -386.5693359375 293.1435546875 -383.2333984375 283.0810546875 -369.7802734375C280.1416015625 -365.8564453125 279.4853515625 -361.9052734375 278.7509765625 -343.8447265625C277.58203125 -315.0244140625 275.3125 -310.6298828125 247.80078125 -283.8974609375C224.166015625 -260.935546875 219.7939453125 -253.9697265625 218.8134765625 -237.7001953125C217.9140625 -222.7978515625 223.5166015625 -212.4111328125 236.703125 -204.5361328125ZM252.736328125 42.2900390625C256.8583984375 43.6533203125 264.6513671875 44.2822265625 272.8955078125 43.9169921875C285.4189453125 43.359375 288.064453125 42.5185546875 311.689453125 31.5849609375C344.4677734375 16.412109375 358.65625 7.1318359375 376.2958984375 -10.6787109375C401.240234375 -35.8623046875 422.2060546875 -63.609375 463.419921875 -125.9775390625C491.283203125 -168.1513671875 512.84765625 -205.7041015625 522.267578125 -228.4580078125C525.326171875 -235.8505859375 529.9853515625 -246.1865234375 532.6201171875 -251.4267578125C535.255859375 -256.6669921875 542.05078125 -276.3232421875 547.7177734375 -295.1044921875C556.8984375 -325.5244140625 558.6103515625 -333.5908203125 563.361328125 -368.8857421875L568.697265625 -408.509765625L565.8974609375 -442.8056640625C563.5361328125 -471.755859375 562.1279296875 -480.6318359375 556.84375 -499.7802734375C547.9052734375 -532.158203125 546.517578125 -535.220703125 528.98046875 -561.2138671875C496.7353515625 -609.0078125 467.2275390625 -630.5986328125 421.3828125 -639.9404296875C395.8056640625 -645.1533203125 386.9912109375 -645.2763671875 356.71484375 -640.8427734375C315.685546875 -634.833984375 286.6396484375 -625.9677734375 249.376953125 -608.078125C239.2119140625 -603.197265625 225.98046875 -596.990234375 219.9755859375 -594.283203125C207.263671875 -588.5517578125 171.392578125 -562.00390625 157.734375 -548.2197265625C140.50390625 -530.83203125 129.5732421875 -503.2724609375 131.5283203125 -482.1396484375C132.6328125 -470.1806640625 140.494140625 -445.8720703125 146.65625 -435.3583984375C149.0693359375 -431.2392578125 154.6201171875 -424.7216796875 158.9921875 -420.8720703125C167.427734375 -413.4482421875 186.8896484375 -403.41015625 196.111328125 -401.7255859375C203.6650390625 -400.3447265625 226.0458984375 -403.6083984375 234.255859375 -407.2900390625C246.474609375 -412.7685546875 249.7900390625 -418.0185546875 252.5244140625 -436.2197265625C255.2080078125 -454.0673828125 255.611328125 -455.0556640625 267.2255859375 -472.330078125C289.4833984375 -505.4267578125 313.662109375 -521.6171875 340.8173828125 -521.6171875C353.9150390625 -521.6171875 360.6455078125 -519.2724609375 393.70703125 -503.1943359375C416.7275390625 -491.9970703125 423.748046875 -487.7353515625 430.703125 -480.7177734375C445.865234375 -465.4287109375 457.0146484375 -438.833984375 462.7978515625 -404.1787109375C468.236328125 -371.5849609375 462.685546875 -342.76171875 443.404296875 -303.4384765625C428.1396484375 -272.3076171875 417.87890625 -257.5517578125 383.689453125 -217.5380859375C346.990234375 -174.5947265625 341.0703125 -168.5986328125 313.2177734375 -146.1845703125C270.9033203125 -112.1337890625 244.041015625 -84.1279296875 231.96875 -61.4833984375C229.1796875 -56.2509765625 224.958984375 -45.2685546875 222.5869140625 -37.0830078125C218.533203125 -23.0966796875 218.3720703125 -21.1513671875 219.9140625 -4.8505859375C222.7060546875 24.6044921875 229.716796875 34.6748046875 252.736328125 42.2900390625Z"/>
</svg>