<svg xmlns="http://www.w3.org/2000/svg" viewBox="0 -1000 1000 1000">
	<path fill="#ee2304" d="M178.0078125 -392.462890625C185.7421875 -389.93359375 210.13671875 -391.7626953125 218.33984375 -395.484375C228.42578125 -400.064453125 238.32421875 -410.482421875 246.14453125 -424.7421875C255.0830078125 -441.052734375 256.439453125 -441.9111328125 261.84375 -434.662109375C271.00390625 -422.380859375 285.0791015625 -409.751953125 291.6376953125 -407.9296875C305.958984375 -403.955078125 327.8818359375 -407.091796875 341.4853515625 -415.06640625C360.08984375 -425.966796875 374.376953125 -457.0869140625 369.8271484375 -476.794921875C366.3955078125 -491.66015625 360.0146484375 -502.857421875 351.39453125 -509.1357421875C335.7265625 -520.544921875 329.7412109375 -522.708984375 314.5556640625 -522.4521484375C299.16796875 -522.1923828125 288.2060546875 -518.443359375 279.900390625 -510.5986328125C274.0595703125 -505.078125 262.9443359375 -489.03515625 261.2626953125 -483.685546875C260.08984375 -479.966796875 259.884765625 -479.9189453125 256.83984375 -482.669921875C255.0859375 -484.259765625 251.763671875 -488.7783203125 249.4599609375 -492.708984375C244.3056640625 -501.50390625 232.326171875 -512.25 222.22265625 -517.140625C211.7119140625 -522.23046875 193.6376953125 -520.791015625 178.390625 -513.658203125C157.9990234375 -504.115234375 138.1162109375 -476.75 136.3837890625 -455.8427734375C134.2373046875 -429.978515625 153.6474609375 -400.423828125 178.0078125 -392.462890625ZM312.0224609375 40.77734375C322.6181640625 43.970703125 332.236328125 41.724609375 347.0703125 32.5986328125C362.974609375 22.8125 366.6962890625 10.990234375 369.533203125 -38.7412109375C373.228515625 -103.5390625 376.919921875 -132.287109375 388.673828125 -187.8125C400.650390625 -244.376953125 403.580078125 -248.6591796875 452.8017578125 -281.529296875C466.603515625 -290.748046875 481.9296875 -301.662109375 486.8623046875 -305.7802734375C491.791015625 -309.90234375 503.61328125 -317.09765625 513.1357421875 -321.7734375C541.9462890625 -335.923828125 557.876953125 -353.65234375 562.8232421875 -377.072265625C564.4052734375 -384.5712890625 564.15234375 -387.841796875 561.0732421875 -399.75C555.0810546875 -422.923828125 550.9111328125 -430.921875 528.41796875 -462.40234375C503.421875 -497.384765625 487.142578125 -517.3115234375 475.630859375 -527.015625C471.1533203125 -530.794921875 454.72265625 -547.283203125 439.123046875 -563.65625C423.5234375 -580.03125 406.587890625 -596.4169921875 401.48828125 -600.0703125C396.388671875 -603.724609375 387.3037109375 -610.912109375 381.2978515625 -616.046875C375.29296875 -621.1796875 362.9228515625 -629.154296875 353.814453125 -633.765625C337.9755859375 -641.7802734375 336.6455078125 -642.1494140625 323.572265625 -642.1494140625C311.66015625 -642.1494140625 308.8779296875 -641.5478515625 301.994140625 -637.5009765625C297.650390625 -634.947265625 292.9228515625 -631.1875 291.494140625 -629.1474609375C287.46484375 -623.39453125 288.271484375 -614.361328125 293.517578125 -606.5C301.2392578125 -594.9296875 322.177734375 -570.8125 339.1748046875 -553.9140625C354.48046875 -538.6943359375 361.34765625 -533.08203125 386.7841796875 -514.98046875C402.52734375 -503.7763671875 416.5166015625 -486.19140625 428.3876953125 -462.681640625C439.6943359375 -440.291015625 440.8701171875 -432.67578125 435.0146484375 -419.7734375C427.6220703125 -403.4794921875 389.7099609375 -372.091796875 354.4189453125 -353.05078125C328.271484375 -338.94140625 323.8251953125 -335.96484375 312.8671875 -325.228515625C301.5498046875 -314.13671875 294.642578125 -303.2646484375 289.470703125 -288.396484375C285.1298828125 -275.9072265625 284.525390625 -269.533203125 280.5400390625 -194.4296875C279.5859375 -176.41015625 278 -153.1748046875 277.0224609375 -142.7978515625C274.2880859375 -113.830078125 274.0869140625 -48.8515625 276.6533203125 -25.0078125C280.87109375 14.1142578125 291.9560546875 34.73828125 312.0224609375 40.77734375Z"/>
</svg>