<svg xmlns="http://www.w3.org/2000/svg" viewBox="0 -1000 1000 1000">
	<path fill="#9b6f01" d="M342.5224609375 -363.193359375C345 -361.8466796875 348.0458984375 -360.71875 349.29296875 -360.677734375C358.1220703125 -360.41796875 376.4794921875 -377.658203125 383.759765625 -393.0458984375C395.9453125 -418.8037109375 391.8671875 -443.41015625 374.0732421875 -451.490234375C365.58984375 -455.341796875 362.52734375 -455.427734375 355.3359375 -452.015625C349.091796875 -449.052734375 345.427734375 -442.609375 339.1728515625 -423.61328125C335.8740234375 -413.5947265625 335.361328125 -408.880859375 335.6865234375 -391.8154296875C336.1376953125 -368.2861328125 336.58203125 -366.416015625 342.5224609375 -363.193359375ZM416.3095703125 -360.1923828125C419.529296875 -356.603515625 428.607421875 -356.34765625 435.015625 -359.662109375C437.5791015625 -360.98828125 444.1552734375 -366.8984375 449.630859375 -372.7978515625C457.9365234375 -381.74609375 460.63671875 -386.2890625 465.927734375 -400.20703125C473.1025390625 -419.0908203125 473.6767578125 -425.46484375 468.7548828125 -431.7236328125C465.052734375 -436.4267578125 456.31640625 -438.9453125 450.3076171875 -437.0390625C442.01953125 -434.41015625 422.947265625 -413.078125 415.1162109375 -397.68359375C411.732421875 -391.0361328125 411.4521484375 -388.787109375 412.498046875 -376.68359375C413.236328125 -368.146484375 414.64453125 -362.044921875 416.3095703125 -360.1923828125ZM272.279296875 -359.9296875C280.3046875 -356.44921875 285.5380859375 -356.6513671875 292.1689453125 -360.6953125C297.4189453125 -363.89453125 297.736328125 -364.591796875 296.9267578125 -371.1875C293.8671875 -396.1630859375 285.0732421875 -418.974609375 273.390625 -432.24609375C261.673828125 -445.556640625 252.4248046875 -447.853515625 243.3125 -439.7109375C238.0283203125 -434.98828125 237.83984375 -434.37890625 238.1748046875 -423.1513671875C238.7490234375 -403.9970703125 249.8955078125 -377.818359375 262.439453125 -366.1640625C264.623046875 -364.1328125 269.052734375 -361.3271484375 272.279296875 -359.9296875ZM322.6669921875 -164.98828125C341.271484375 -162.185546875 357.8896484375 -162.740234375 366.7041015625 -166.455078125C380.8544921875 -172.419921875 391.921875 -187.1474609375 392.2265625 -200.416015625C392.41796875 -208.6533203125 388.80859375 -213.431640625 380.2734375 -216.248046875C372.744140625 -218.732421875 367.2890625 -217.546875 351.521484375 -209.9794921875C343.0966796875 -205.939453125 335.4267578125 -203.546875 329.38671875 -203.0751953125C320.9755859375 -202.416015625 319.341796875 -202.89453125 311.1591796875 -208.404296875C297.1826171875 -217.810546875 289.3662109375 -215.87890625 285.5546875 -202.0771484375C283.33984375 -194.0517578125 286.0537109375 -184.1669921875 292.490234375 -176.8388671875C298.830078125 -169.6171875 303.1162109375 -167.935546875 322.6669921875 -164.98828125ZM366.4306640625 -136.1923828125C352.1953125 -133.65234375 326.7998046875 -133.3759765625 317.1201171875 -135.65234375C299.9033203125 -139.7060546875 280.1474609375 -153.580078125 273.755859375 -166.1064453125C266.1103515625 -181.09375 266.9990234375 -212.830078125 275.5576171875 -230.412109375C289.4306640625 -258.9111328125 314.12890625 -272.791015625 354.0205078125 -274.5C372.5009765625 -275.2900390625 375.16015625 -275.033203125 381.8662109375 -271.787109375C398.1328125 -263.912109375 409.44921875 -249.658203125 413.38671875 -232.08984375C425.7802734375 -176.787109375 409.681640625 -143.91015625 366.4306640625 -136.1923828125ZM316.7880859375 -75.6943359375C332.58984375 -72.6181640625 357.1923828125 -73.837890625 372.2275390625 -78.4423828125C390.09375 -83.9140625 416.33984375 -98.140625 425.7255859375 -107.43359375C431.9326171875 -113.5791015625 436.455078125 -120.9140625 444.7705078125 -138.328125C454.4541015625 -158.611328125 456.23828125 -164.0078125 460.7255859375 -186.548828125C468.607421875 -226.1640625 466.1435546875 -242.470703125 448.1884765625 -269.5615234375C443.4755859375 -276.673828125 433.9052734375 -288.2373046875 426.921875 -295.2578125C413.263671875 -308.9912109375 407.0224609375 -312.228515625 381.6171875 -318.7666015625C365.361328125 -322.953125 327.2744140625 -323.2509765625 311.9892578125 -319.3134765625C298.5361328125 -315.84375 280.3701171875 -307.880859375 269.4013671875 -300.6376953125C247.7451171875 -286.33984375 225.4501953125 -241.80078125 219.109375 -200.173828125C215.06640625 -173.615234375 217.7626953125 -154.1435546875 228.65625 -131.294921875C238.2158203125 -111.234375 249.078125 -100.068359375 267.826171875 -91.0234375C283.20703125 -83.603515625 294.7802734375 -79.98046875 316.7880859375 -75.6943359375ZM338.6259765625 -27.740234375C310.9775390625 -24.83203125 272.40625 -24.400390625 264.708984375 -26.916015625C257.91015625 -29.138671875 229.8896484375 -44.169921875 221.5224609375 -50.083984375C214.953125 -54.724609375 206.9453125 -72.2626953125 204.3232421875 -87.736328125C200.505859375 -110.2978515625 197.75390625 -174.453125 198.7626953125 -217.365234375C199.39453125 -244.248046875 199.0087890625 -263.876953125 197.5732421875 -277.453125C195.5703125 -296.43359375 195.7236328125 -300.1484375 200.2490234375 -340.939453125C204.890625 -382.80859375 204.9658203125 -384.8291015625 202.5185546875 -401.119140625C201.1279296875 -410.392578125 198.861328125 -420.154296875 197.4873046875 -422.8125C189.7626953125 -437.74609375 198.8447265625 -488.943359375 214.76171875 -520.2109375C220.1728515625 -530.841796875 223.005859375 -534.197265625 232.86328125 -541.666015625C263.7177734375 -565.041015625 277.5087890625 -570.017578125 324.701171875 -574.802734375C350.486328125 -577.41796875 356.6484375 -577.537109375 370.9013671875 -575.69140625C379.9453125 -574.51953125 400.2001953125 -572.9921875 415.90625 -572.2978515625C434.578125 -571.470703125 447.4951171875 -570.072265625 453.2099609375 -568.26171875C471.619140625 -562.423828125 501.98046875 -537.724609375 509.80078125 -522.228515625C516.025390625 -509.888671875 524.2763671875 -478.5771484375 524.2763671875 -467.2158203125C524.283203125 -461.712890625 525.1103515625 -454.248046875 526.115234375 -450.62890625C527.49609375 -445.6484375 527.2978515625 -437.455078125 525.3017578125 -417.0263671875C523.6337890625 -399.9609375 522.7412109375 -375.474609375 522.875 -350.533203125C523.0009765625 -327.150390625 522.205078125 -303.861328125 520.9228515625 -293.412109375C519.3203125 -280.3623046875 519.1455078125 -268.1259765625 520.2529296875 -246.3740234375C521.0732421875 -230.203125 521.740234375 -203.7421875 521.740234375 -187.5712890625C521.7294921875 -159.177734375 521.544921875 -157.55859375 516.2470703125 -140.22265625C513.232421875 -130.34765625 509.7021484375 -113.6953125 508.4033203125 -103.212890625C506.208984375 -85.544921875 501.6181640625 -69.58984375 495.103515625 -56.98828125C489.4638671875 -46.083984375 468.4951171875 -41.107421875 400.7880859375 -34.6103515625C392.47265625 -33.810546875 378.8623046875 -32.337890625 370.5458984375 -31.3359375C362.23046875 -30.3310546875 347.8681640625 -28.71484375 338.6259765625 -27.740234375ZM185.7470703125 78.3740234375C196.3935546875 79.7890625 244.1806640625 79.4921875 273.1064453125 77.830078125C323.3642578125 74.94921875 332.88671875 73.52734375 351.9765625 66.06640625C371.171875 58.560546875 408.79296875 50.99609375 427.03125 50.99609375C433.146484375 50.9892578125 449.40234375 52.181640625 463.1494140625 53.64453125C491.9931640625 56.7109375 501.314453125 56.044921875 524.033203125 49.296875C546.9267578125 42.49609375 556.029296875 38.3046875 563.4697265625 31.1484375C578.8134765625 16.3857421875 580.8095703125 3.23046875 582.2861328125 -92.677734375C582.6416015625 -115.7939453125 584.09375 -146.412109375 585.5087890625 -160.7197265625C587.4501953125 -180.345703125 588.1376953125 -210.25 588.2978515625 -282.4921875C588.4140625 -335.1591796875 589.125 -399.765625 589.8701171875 -426.060546875C592.2626953125 -510.12109375 586.3564453125 -558.4345703125 569.3251953125 -594.1318359375C563.353515625 -606.65234375 560.3115234375 -610.53515625 544.650390625 -625.62890625C525.1240234375 -644.4443359375 514.001953125 -651.345703125 491.5078125 -658.587890625C471.400390625 -665.0615234375 445.2939453125 -669.1083984375 404.1484375 -672.119140625C383.818359375 -673.609375 360.0048828125 -675.650390625 351.2275390625 -676.6552734375C318.1005859375 -680.453125 311.408203125 -680.3125 272.265625 -674.990234375C222.99609375 -668.294921875 175.44140625 -658.337890625 151.7138671875 -649.751953125C127.15625 -640.865234375 121.072265625 -637.65625 114.4208984375 -630.078125C108.5009765625 -623.3349609375 108.2822265625 -619.9580078125 112.5234375 -600.8515625C113.4462890625 -596.6953125 114.232421875 -584.783203125 114.2734375 -574.38671875C114.314453125 -563.98828125 115.822265625 -542.4453125 117.6201171875 -526.5078125C119.4208984375 -510.572265625 121.3759765625 -483.546875 121.9677734375 -466.453125C122.5556640625 -449.3603515625 124.19921875 -428.9482421875 125.62109375 -421.09375C129.490234375 -399.720703125 129.490234375 -307.9384765625 125.62109375 -274.294921875C124.0390625 -260.548828125 122.740234375 -242.78125 122.7021484375 -234.814453125C122.6787109375 -226.8505859375 121.9609375 -213.1513671875 121.1064453125 -204.3740234375C120.251953125 -195.59375 119.1064453125 -156.283203125 118.5634765625 -117.013671875C117.052734375 -8.3193359375 120.8876953125 31.9169921875 134.5595703125 50.791015625C143.31640625 62.880859375 167.59765625 75.96484375 185.7470703125 78.3740234375Z"/>
</svg>