<svg xmlns="http://www.w3.org/2000/svg" viewBox="0 -1000 1000 1000">
	<path fill="#9b6f01" d="M329.060546875 65.810546875C338.8564453125 68.8154296875 356.4755859375 66.6962890625 368.50390625 61.06640625C389.1103515625 51.4248046875 401.9755859375 34.3681640625 409.8095703125 6.310546875C413.3984375 -6.5380859375 413.552734375 -9.6787109375 413.2275390625 -65.0869140625C412.8583984375 -128.7470703125 410.85546875 -174.7158203125 406.7060546875 -214.6103515625C402.283203125 -257.146484375 406.5556640625 -293.6669921875 418.8740234375 -318.5947265625C429.0703125 -339.2255859375 451.419921875 -359.8291015625 499.9619140625 -393.3427734375C505.16796875 -396.9384765625 528.4130859375 -418.8603515625 551.6181640625 -442.0615234375C588.83984375 -479.2841796875 595.3642578125 -486.6220703125 607.037109375 -504.4091796875C636.1064453125 -548.7060546875 643.841796875 -575.578125 637.7099609375 -610.9501953125C635.8740234375 -621.5400390625 635.251953125 -622.568359375 623.0087890625 -635.1904296875C607.12890625 -651.56640625 600.474609375 -655.189453125 586.26953125 -655.189453125C570.62890625 -655.189453125 554.1611328125 -646.6650390625 537.119140625 -629.7490234375C521.693359375 -614.4404296875 513.1591796875 -601.9716796875 489.25 -559.8349609375C460.3173828125 -508.8349609375 453.4091796875 -499.4833984375 434.935546875 -486.3173828125C418.5595703125 -474.6455078125 394.5791015625 -460.6005859375 383.56640625 -456.2255859375C365.642578125 -449.1103515625 337.451171875 -450.6376953125 327.1767578125 -459.2822265625C319.9169921875 -465.3896484375 304.7275390625 -489.185546875 292.1630859375 -514.1298828125C275.2275390625 -547.7626953125 260.4892578125 -571.3779296875 246.44140625 -587.4013671875C239.4716796875 -595.34765625 230.2841796875 -606.3837890625 226.0224609375 -611.9287109375C214.828125 -626.4892578125 207.08984375 -633.1640625 191.9072265625 -641.3642578125C184.5146484375 -645.3564453125 173.8125 -651.1533203125 168.125 -654.2431640625C152.853515625 -662.544921875 134.7216796875 -666.8447265625 113.7861328125 -667.1279296875C97.609375 -667.3466796875 95.353515625 -666.9775390625 86.5693359375 -662.6650390625C74.8486328125 -656.9091796875 62.2705078125 -643.5244140625 60.6982421875 -635.1298828125C59.201171875 -627.162109375 62.3251953125 -614.0478515625 69.0693359375 -599.9755859375C83.0830078125 -570.7412109375 112.7265625 -524.609375 137.4970703125 -493.4892578125C151.640625 -475.7216796875 192.013671875 -421.509765625 211.30078125 -394.3955078125C218.19140625 -384.705078125 233.1142578125 -367.0302734375 244.4658203125 -355.1123046875C279.373046875 -318.4677734375 284.14453125 -303.7880859375 287.1318359375 -223.85546875C288.833984375 -178.2294921875 288.7109375 -172.5380859375 285.1630859375 -133.9765625C281.6328125 -95.5693359375 281.4990234375 -89.59765625 283.16015625 -44.9287109375C284.376953125 -12.3408203125 285.7958984375 6.3857421875 287.607421875 13.70703125C294.046875 39.7353515625 310.1865234375 60.0244140625 329.060546875 65.810546875Z"/>
</svg>