<svg xmlns="http://www.w3.org/2000/svg" viewBox="0 -1000 1000 1000">
	<path fill="#964ffa" d="M157.919921875 40.873046875C176.4833984375 46.806640625 190.5654296875 43.65234375 203.5703125 30.646484375C214.3203125 19.896484375 220.103515625 7.49609375 229.796875 -25.5859375L237.6748046875 -52.46484375L239.5888671875 -104.544921875C240.6416015625 -133.1904296875 240.966796875 -168.720703125 240.3173828125 -183.505859375C238.4443359375 -225.95703125 242.2998046875 -252.92578125 251.4833984375 -261.552734375C257.0546875 -266.7890625 267.4150390625 -267.8037109375 277.18359375 -264.07421875C293.6884765625 -257.771484375 335.61328125 -211.486328125 354.384765625 -178.84375C380.830078125 -132.859375 404.9541015625 -96.703125 433.1962890625 -60.7265625C449.71875 -39.671875 467.2841796875 -18.0595703125 472.22265625 -12.7001953125C495.7900390625 12.8828125 540.8896484375 31.51171875 559.96875 23.541015625C574.9873046875 17.265625 584.6298828125 3.900390625 591.0556640625 -19.5361328125C594.9248046875 -33.6591796875 595.091796875 -35.8193359375 593.400390625 -49.4912109375C592.3955078125 -57.595703125 590.8232421875 -67.626953125 589.9033203125 -71.787109375C586.8994140625 -85.376953125 563.2841796875 -145.81640625 556.3251953125 -157.7314453125C552.58984375 -164.1298828125 548.3955078125 -172.0869140625 547.0048828125 -175.412109375C544.2705078125 -181.9609375 523.87890625 -212.681640625 517.5419921875 -219.80859375C515.3955078125 -222.21875 507.595703125 -229 500.2021484375 -234.875C492.8095703125 -240.75 480.712890625 -250.7685546875 473.3232421875 -257.1396484375C465.9306640625 -263.5107421875 455.720703125 -271.5634765625 450.6318359375 -275.0390625C433.3984375 -286.8046875 397.21875 -306.3994140625 374.7392578125 -316.140625C348.7626953125 -327.3994140625 343.328125 -331.544921875 345.7236328125 -338.265625C346.6025390625 -340.732421875 350.87109375 -345.75390625 355.208984375 -349.4248046875C362.3662109375 -355.4814453125 366.5322265625 -357.083984375 400.1962890625 -366.72265625C432.27734375 -375.9140625 438.822265625 -378.3681640625 448.587890625 -384.873046875C478.3955078125 -404.724609375 517.15234375 -442.458984375 534.8193359375 -468.82421875C546.6796875 -486.5263671875 566.83203125 -527.62109375 569.8740234375 -540.3115234375C574.1259765625 -558.0234375 568.787109375 -581.228515625 558.6220703125 -589.22265625C546.365234375 -598.865234375 514.076171875 -602.4091796875 497.611328125 -595.91796875C479.728515625 -588.87109375 463.8251953125 -575.7216796875 448.4130859375 -555.244140625C435.9443359375 -538.6845703125 410.908203125 -514.775390625 371.68359375 -481.9736328125C335.1865234375 -451.455078125 317.5087890625 -439.064453125 292.2158203125 -426.28125C278.9775390625 -419.5888671875 272.7060546875 -417.4013671875 264.6396484375 -416.673828125C249.6787109375 -415.3203125 244.9248046875 -417.72265625 240.81640625 -428.7080078125C233.064453125 -449.423828125 232.9482421875 -469.86328125 240.1904296875 -537.984375C244.9755859375 -582.974609375 244.3466796875 -587.6640625 230.412109375 -611.125C215.7998046875 -635.7138671875 205.251953125 -643.619140625 186.8564453125 -643.75C177.8232421875 -643.810546875 173.984375 -642.8779296875 164.8623046875 -638.390625C152.4921875 -632.306640625 139.28515625 -621.470703125 135.634765625 -614.41015625C130.48046875 -604.443359375 129.6572265625 -593.580078125 128.826171875 -524.544921875C128.361328125 -485.736328125 127.212890625 -442.318359375 126.2763671875 -428.05859375C125.3369140625 -413.802734375 125.056640625 -389.23046875 125.6513671875 -373.4599609375C126.4404296875 -352.3642578125 125.99609375 -337.458984375 123.97265625 -317.06640625C122.455078125 -301.8193359375 120.1416015625 -273.8466796875 118.8251953125 -254.904296875C117.509765625 -235.9619140625 114.9287109375 -206.857421875 113.09375 -190.2265625C108.91015625 -152.3447265625 105.341796875 -90.048828125 105.5908203125 -59.1845703125C105.79296875 -34.216796875 109.005859375 -12.470703125 114.7822265625 2.96484375C120.96875 19.494140625 138.0751953125 34.529296875 157.919921875 40.873046875Z"/>
</svg>