<svg xmlns="http://www.w3.org/2000/svg" viewBox="0 -1000 1000 1000">
	<path fill="#854e28" d="M141.4482421875 -551.8310546875C126.3544921875 -543.142578125 107.087890625 -520.3369140625 95.6728515625 -497.64453125C89.2314453125 -484.8427734375 75.615234375 -445.689453125 69.8076171875 -423.2578125C63.248046875 -397.94921875 61.3095703125 -352.390625 65.099609375 -312.826171875C69.8173828125 -263.6142578125 75.3134765625 -250.8291015625 94.35546875 -244.7939453125C109.33984375 -240.04296875 113.62109375 -241.3349609375 126.59765625 -254.5048828125C143.568359375 -271.7275390625 152.701171875 -289.083984375 165.6611328125 -328.7158203125C183.6474609375 -383.728515625 193.5224609375 -393.3232421875 216.1923828125 -377.8203125C223.5419921875 -372.7919921875 229.2939453125 -366.66796875 250.439453125 -341.359375C282.3759765625 -303.1298828125 325.7421875 -248.439453125 341.330078125 -226.7353515625C347.884765625 -217.609375 360.97265625 -201.29296875 370.41015625 -190.478515625C379.8486328125 -179.6611328125 394.7255859375 -161.9326171875 403.47265625 -151.078125C426.9794921875 -121.90625 478.1787109375 -70.6298828125 493.9609375 -60.4501953125C518.3837890625 -44.69921875 536.712890625 -39.875 552.6611328125 -44.99609375C560.087890625 -47.3818359375 563.140625 -49.43359375 570.599609375 -57.0625C586.46484375 -73.283203125 588.54296875 -90.017578125 577.8115234375 -115.1484375C570.353515625 -132.6171875 558.015625 -146.203125 487.916015625 -214.13671875C453.4052734375 -247.578125 420.171875 -280.0927734375 414.0546875 -286.3935546875C331.9873046875 -370.9501953125 291.947265625 -413.7255859375 286.8154296875 -422.328125C270.921875 -448.9619140625 272.802734375 -470.7177734375 291.3818359375 -475.2216796875C304.8271484375 -478.4814453125 342.4716796875 -471.791015625 390.806640625 -457.5576171875C407.875 -452.53125 431.0791015625 -451.0400390625 443.1611328125 -454.1943359375C468.2607421875 -460.74609375 476.5478515625 -485.5068359375 460.4658203125 -505.91015625C453.53125 -514.7060546875 432.2431640625 -527.55859375 418.5615234375 -531.2099609375C412.8896484375 -532.7265625 401.7041015625 -535.6982421875 393.69921875 -537.8212890625C385.697265625 -539.9453125 370.990234375 -542.7998046875 361.0166015625 -544.169921875C351.0439453125 -545.537109375 340.8544921875 -547.30078125 338.375 -548.0888671875C310.935546875 -556.7978515625 245.17578125 -566.57421875 207.3662109375 -567.564453125C186.3173828125 -568.1181640625 157.9990234375 -561.3583984375 141.4482421875 -551.8310546875Z"/>
</svg>