<svg xmlns="http://www.w3.org/2000/svg" viewBox="0 -1000 1000 1000">
	<path fill="#9b6f01" d="M205.4951171875 -563.224609375C215.541015625 -560.83203125 232.958984375 -561.5458984375 243.3427734375 -564.7763671875C263.525390625 -571.05859375 293.8427734375 -598.3173828125 300.5322265625 -616.2001953125C306.1064453125 -631.091796875 306.7490234375 -641.0419921875 302.572265625 -647.7958984375C295.5654296875 -659.1357421875 279.2861328125 -667.4560546875 264.099609375 -667.4560546875C255.841796875 -667.4560546875 252.701171875 -666.5048828125 244.306640625 -661.4775390625C238.8134765625 -658.189453125 230.5185546875 -651.763671875 225.8701171875 -647.197265625C220.36328125 -641.7900390625 215.9716796875 -638.884765625 213.271484375 -638.884765625C199.900390625 -638.857421875 188.2314453125 -631.0849609375 181.357421875 -617.6318359375C178.0078125 -611.0732421875 177.205078125 -607.001953125 177.205078125 -596.6318359375C177.205078125 -584.7919921875 177.611328125 -583.2646484375 182.33203125 -577.4296875C187.71875 -570.7783203125 196.560546875 -565.3544921875 205.4951171875 -563.224609375ZM454.40234375 -546.4326171875C458.1005859375 -545.6318359375 465.8896484375 -545.2978515625 471.7177734375 -545.68359375C496.6142578125 -547.337890625 513.8779296875 -565.9482421875 521.8388671875 -599.7255859375C525.7353515625 -616.244140625 523.7353515625 -622.751953125 510.78515625 -635.7021484375C503.0673828125 -643.4208984375 499.150390625 -645.9423828125 491.380859375 -648.2021484375C476.3525390625 -652.5703125 466.0439453125 -651.0361328125 453.3974609375 -642.5458984375C447.6552734375 -638.6904296875 440.9970703125 -635.53515625 438.6005859375 -635.4970703125C432.11328125 -635.4423828125 421.5380859375 -630.0693359375 415.1943359375 -623.6103515625C407.6953125 -615.9677734375 403.1875 -606.8173828125 402.0048828125 -596.8408203125C399.4755859375 -575.4814453125 422.515625 -553.3154296875 454.40234375 -546.4326171875ZM361.365234375 -469.216796875C349.521484375 -469.216796875 334.044921875 -468.7275390625 326.9765625 -468.1298828125C319.703125 -467.5146484375 314.138671875 -467.6962890625 314.138671875 -468.5498046875C314.1494140625 -469.3779296875 316.42578125 -474.0126953125 319.201171875 -478.8525390625C325.96484375 -490.6474609375 334.5029296875 -495.166015625 347.7578125 -493.9658203125C358.9345703125 -492.951171875 368.4267578125 -488.4326171875 375.62109375 -480.701171875C385.998046875 -469.5478515625 385.5849609375 -469.216796875 361.365234375 -469.216796875ZM371.05859375 -298.4443359375C346.6748046875 -298.4443359375 318.0283203125 -298.00390625 307.40234375 -297.4638671875C288.927734375 -296.5205078125 266.3251953125 -298.0478515625 263.9873046875 -300.396484375C263.37890625 -301.0087890625 262.951171875 -309.5673828125 263.037109375 -319.4208984375C263.1669921875 -334.890625 263.9423828125 -339.6279296875 268.70703125 -354.1376953125C276.353515625 -377.4208984375 281.2236328125 -387.8623046875 285.828125 -390.8427734375C289.1708984375 -393.0029296875 298.037109375 -393.337890625 344.7470703125 -393.037109375C377.6142578125 -392.8251953125 400.384765625 -392.025390625 401.35546875 -391.0478515625C404.4072265625 -387.9814453125 413.400390625 -337.5595703125 414.4013671875 -317.8896484375L415.3896484375 -298.4443359375ZM401.064453125 -120.8466796875C394.365234375 -120.2451171875 367.2333984375 -119.2607421875 340.771484375 -118.6591796875L292.6572265625 -117.5693359375L288.5107421875 -121.7158203125C285.650390625 -124.576171875 283.4521484375 -129.9423828125 281.4423828125 -138.9794921875C279.83984375 -146.19140625 277.1220703125 -156.1748046875 275.40625 -161.1650390625C272.525390625 -169.5322265625 269.17578125 -190.1669921875 270.6455078125 -190.4609375C270.9970703125 -190.5322265625 280.7353515625 -191.2568359375 292.2841796875 -192.07421875C303.833984375 -192.8916015625 323.8662109375 -194.3134765625 336.8037109375 -195.232421875C349.740234375 -196.1484375 373.478515625 -197.4365234375 389.5595703125 -198.0927734375L418.7939453125 -199.2822265625L417.607421875 -166.6689453125C416.955078125 -148.7314453125 415.70703125 -131.330078125 414.83203125 -127.9970703125L413.24609375 -121.9443359375ZM386.357421875 7.822265625C380.095703125 11.2880859375 376.072265625 12.0947265625 362.8447265625 12.5322265625C345.8642578125 13.099609375 336.724609375 10.5322265625 330.7265625 3.5224609375C326.67578125 -1.2119140625 312.443359375 -29.2451171875 312.443359375 -32.4853515625C312.443359375 -35.5380859375 323.8798828125 -37.4345703125 342.51171875 -37.4755859375C347.6865234375 -37.486328125 364.7177734375 -39.7490234375 380.35546875 -42.50390625C395.99609375 -45.2548828125 409.1552734375 -47.1416015625 409.6025390625 -46.6943359375C411.5751953125 -44.7255859375 404.46875 -17.142578125 399.4443359375 -7.244140625C395.0146484375 1.4716796875 392.4033203125 4.4794921875 386.357421875 7.822265625ZM352.46484375 65.7392578125C359.560546875 66.8603515625 375.2490234375 67.623046875 387.3310546875 67.4248046875C406.318359375 67.1201171875 410.306640625 66.5595703125 416.7294921875 63.3095703125C429.3349609375 56.9287109375 433.302734375 53.3564453125 447.306640625 35.8017578125C463.1865234375 15.8955078125 468.8125 4.3837890625 475.6279296875 -22.1630859375C485.669921875 -61.26171875 484.845703125 -59.2958984375 491.189453125 -59.2958984375C500.640625 -59.2958984375 525.919921875 -64.2587890625 538.3681640625 -68.5625C546.154296875 -71.2529296875 551.80078125 -74.4482421875 554.9755859375 -77.9658203125C559.193359375 -82.6416015625 559.689453125 -84.2822265625 559.015625 -91.3125C557.908203125 -102.8134765625 549.3359375 -114.1650390625 536.9697265625 -120.4912109375C528.53125 -124.8115234375 525.1435546875 -125.5029296875 509.08984375 -126.162109375L490.8134765625 -126.9140625L490.9501953125 -163.8115234375L491.0908203125 -200.7119140625L495.099609375 -203.3369140625C497.4619140625 -204.884765625 505.794921875 -206.5771484375 515.3955078125 -207.4580078125C558.919921875 -211.4609375 591.12109375 -218.4404296875 603.4697265625 -226.5478515625C620.416015625 -237.6669921875 622.7783203125 -268.7529296875 608.029296875 -286.5498046875C598.626953125 -297.8974609375 598.5615234375 -297.908203125 542.6708984375 -298.3212890625L492.3583984375 -298.6943359375L491.4736328125 -304.5771484375C490.98828125 -307.8095703125 489.412109375 -321.4169921875 487.9736328125 -334.8154296875C486.1416015625 -351.8818359375 483.865234375 -363.587890625 480.37890625 -373.9130859375C477.64453125 -382.0205078125 475.40234375 -391.9677734375 475.40234375 -396.0146484375C475.40234375 -403.2744140625 475.5146484375 -403.4169921875 483.1982421875 -406.0361328125C509.0419921875 -414.8408203125 518.13671875 -429.6669921875 508.1494140625 -446.7099609375C501.8056640625 -457.5341796875 487.6455078125 -463.9638671875 464.875 -466.3564453125L447.3779296875 -468.1943359375L445.43359375 -477.5263671875C444.0146484375 -484.32421875 440.18359375 -491.8681640625 431.3037109375 -505.3310546875C417.9326171875 -525.61328125 409.9580078125 -532.5380859375 386.904296875 -543.8955078125C357.3935546875 -558.4365234375 330.640625 -558.1865234375 299.1240234375 -543.072265625C269.4765625 -528.8564453125 246.2509765625 -507.1455078125 232.7744140625 -481.0537109375C224.02734375 -464.1142578125 224.7451171875 -464.5546875 199.8828125 -460.876953125C159.55078125 -454.9091796875 136.4521484375 -424.099609375 157.83203125 -404.7841796875C165.173828125 -398.1474609375 176.3466796875 -394.2265625 192.66796875 -392.5556640625C202.5556640625 -391.5439453125 203.4169921875 -391.1435546875 202.6826171875 -387.91015625C202.23828125 -385.9658203125 200.994140625 -377.5712890625 199.9169921875 -369.2548828125C198.8408203125 -360.9384765625 196.8818359375 -349.4443359375 195.5625 -343.708984375C194.2431640625 -337.9775390625 193.1630859375 -325.0712890625 193.1630859375 -315.0322265625V-296.7802734375L177.625 -294.7333984375C149.255859375 -290.9931640625 115.1513671875 -284.2470703125 107.4853515625 -280.8623046875C98.345703125 -276.826171875 89.837890625 -268.96484375 85.4970703125 -260.54296875C81.734375 -253.2421875 81.0712890625 -232.5732421875 84.259765625 -221.9306640625C87.2880859375 -211.8193359375 97.6171875 -201.2041015625 108.3291015625 -197.1982421875C128.8271484375 -189.5283203125 151.59765625 -184.896484375 173.00390625 -184.0458984375C184.5537109375 -183.583984375 195.115234375 -182.6103515625 196.4755859375 -181.8779296875C200.7890625 -179.5537109375 210.5712890625 -135.431640625 209.630859375 -122.5361328125L209.125 -115.5771484375L194.373046875 -110.8388671875C183.466796875 -107.3359375 177.916015625 -104.478515625 173.0791015625 -99.8818359375C158.26953125 -85.7919921875 162.763671875 -73.5830078125 188.9384765625 -56.791015625C203.5302734375 -47.4326171875 211.0595703125 -44.0732421875 224.5810546875 -40.8935546875C232.2783203125 -39.0859375 233.5400390625 -38.169921875 235.169921875 -33.2412109375C238.4033203125 -23.4423828125 255.0390625 6.1435546875 263.0400390625 16.3330078125C282.6904296875 41.3388671875 316.576171875 60.0625 352.46484375 65.7392578125Z"/>
</svg>