<svg xmlns="http://www.w3.org/2000/svg" viewBox="0 -1000 1000 1000">
	<path fill="#964ffa" d="M172.9697265625 -73.3056640625C177.724609375 -71.4765625 183.8798828125 -69.966796875 186.65234375 -69.931640625C216.4638671875 -69.630859375 239.189453125 -124.6572265625 244.5322265625 -210.08984375C245.5712890625 -226.720703125 247.966796875 -250.5341796875 249.857421875 -263.005859375C253.849609375 -289.3515625 254.68359375 -344.5078125 251.53515625 -373.888671875C250.49609375 -383.5888671875 248.53125 -402.8662109375 247.1708984375 -416.7265625C244.2890625 -446.0859375 237.005859375 -477.73046875 230.6279296875 -488.61328125C224.998046875 -498.216796875 210.6875 -510.849609375 201.431640625 -514.3876953125C190.462890625 -518.57421875 183.28515625 -516.455078125 173.1474609375 -506.037109375C160.8427734375 -493.384765625 157.982421875 -483.537109375 158.4677734375 -455.4755859375C158.7412109375 -439.6572265625 157.978515625 -429.3759765625 155.6650390625 -417.67578125C153.9150390625 -408.837890625 152.0009765625 -393.29296875 151.40625 -383.126953125C150.0966796875 -360.6064453125 148.09765625 -338.865234375 145.69140625 -320.96875C144.6962890625 -313.5751953125 142.6767578125 -292.408203125 141.2001953125 -273.9267578125C139.7197265625 -255.44921875 137.8095703125 -236.5478515625 136.9482421875 -231.9267578125C136.08984375 -227.30859375 135.205078125 -201.982421875 134.9794921875 -175.646484375C134.630859375 -134.6171875 134.986328125 -126.2705078125 137.470703125 -117.294921875C143.7568359375 -94.572265625 155.4970703125 -80.025390625 172.9697265625 -73.3056640625ZM447.01953125 -70.2265625C459.56640625 -57.408203125 461.0908203125 -56.3662109375 467.349609375 -56.3662109375C475.439453125 -56.3662109375 487.3818359375 -63.3359375 493.677734375 -71.73046875C504.3935546875 -86.013671875 507.5068359375 -96.16796875 520.1298828125 -158.005859375C524.8427734375 -181.1083984375 532.38671875 -213.9921875 536.8876953125 -231.08984375C548.939453125 -276.8359375 559.498046875 -340.2763671875 563.9755859375 -393.853515625C566.0771484375 -419.005859375 565.2294921875 -459.205078125 562.150390625 -480.56640625C559.5693359375 -498.462890625 549.435546875 -517.658203125 534.6357421875 -532.677734375C523.919921875 -543.5498046875 521.626953125 -545.064453125 512.9931640625 -546.98828125C499.1162109375 -550.08203125 491.982421875 -547.53515625 478.65234375 -534.7314453125C465.490234375 -522.095703125 463.2236328125 -517.2587890625 448.177734375 -469.646484375C438.501953125 -439.03125 435.1044921875 -425.1923828125 430.3017578125 -396.83984375C426.4462890625 -374.0869140625 424.3720703125 -356.357421875 424.3720703125 -346.19921875C424.3720703125 -337.599609375 423.267578125 -320.08984375 421.9208984375 -307.2861328125C412.169921875 -214.65234375 411.63671875 -180.2060546875 419.333984375 -140.8203125C422.1806640625 -126.25 426.525390625 -107.5234375 428.982421875 -99.20703125C433.2998046875 -84.6123046875 433.9248046875 -83.607421875 447.01953125 -70.2265625ZM303.4130859375 -42.458984375C304.7978515625 -41.939453125 310.2490234375 -41.453125 315.5302734375 -41.3818359375C340.375 -41.037109375 362.3359375 -58.939453125 374.8525390625 -89.74609375C383.80078125 -111.7646484375 397.4794921875 -180.708984375 397.5029296875 -203.8994140625C397.509765625 -210.076171875 399.017578125 -223.822265625 400.8525390625 -234.44921875C402.6884765625 -245.072265625 404.1787109375 -257.16796875 404.1650390625 -261.328125C404.1513671875 -265.484375 405.2822265625 -277.9599609375 406.673828125 -289.0478515625C411.47265625 -327.271484375 414.736328125 -386.7197265625 413.9130859375 -420.9267578125L413.126953125 -453.6875L402.6953125 -487.10546875C387.90234375 -534.509765625 380.7451171875 -547.28515625 364.8310546875 -554.6953125C349.169921875 -561.990234375 335.603515625 -559.1630859375 322.537109375 -545.890625C317.8095703125 -541.0888671875 312.3037109375 -533.771484375 310.296875 -529.6318359375C304.9208984375 -518.52734375 301.947265625 -492.3828125 299.267578125 -432.6875C297.2099609375 -386.8671875 288.671875 -278.6640625 283.2197265625 -229.318359375C280.5263671875 -204.94921875 277.474609375 -144 277.583984375 -116.84765625C277.7578125 -74.283203125 286.6171875 -48.771484375 303.4130859375 -42.458984375Z"/>
</svg>