<svg xmlns="http://www.w3.org/2000/svg" viewBox="0 -1000 1000 1000">
	<path fill="#ee2304" d="M193.95703125 -249.0087890625C199.0390625 -247.6650390625 205.46484375 -246.5234375 208.2373046875 -246.4755859375C215.7568359375 -246.3427734375 230.0302734375 -250.5458984375 238.0791015625 -255.2705078125C252.5576171875 -263.7666015625 278.490234375 -295.1748046875 284.8544921875 -311.9267578125C290.955078125 -327.98046875 287.5234375 -345.5830078125 276.0595703125 -357.046875C267.9765625 -365.1298828125 243.5068359375 -377.8857421875 230.501953125 -380.7978515625C216.703125 -383.884765625 197.142578125 -380.86328125 189.1337890625 -374.41015625C182.1650390625 -368.791015625 181.5458984375 -367.724609375 171.439453125 -343.78515625C162.2587890625 -322.046875 159.58203125 -308.9794921875 160.853515625 -292.146484375C162.6416015625 -268.5078125 173.4453125 -254.4326171875 193.95703125 -249.0087890625ZM355.4384765625 2.0751953125C362.2578125 2.8349609375 370.4814453125 3.2099609375 373.71484375 2.8681640625C376.951171875 2.5302734375 386.001953125 1.5048828125 393.8330078125 0.5927734375C401.66015625 -0.3203125 413.0009765625 -1.0693359375 419.0302734375 -1.1064453125C425.0625 -1.126953125 433.01953125 -1.865234375 436.71484375 -2.7431640625C440.4130859375 -3.6259765625 452.2802734375 -5.515625 463.0908203125 -6.9482421875C503.8193359375 -12.3486328125 516.298828125 -20.85546875 531.6962890625 -53.708984375C540.45703125 -72.4013671875 541.455078125 -80.205078125 536.365234375 -90.1064453125C532.08984375 -98.416015625 520.427734375 -107.3408203125 510.0947265625 -110.2119140625C506.697265625 -111.1552734375 489.6142578125 -111.9375 472.134765625 -111.9375C454.65234375 -111.9404296875 435.712890625 -112.7548828125 430.04296875 -113.7421875C417.4306640625 -115.9365234375 407.2177734375 -121.4228515625 404.2578125 -127.591796875C401.16796875 -134.0341796875 397.1240234375 -176.619140625 391.3134765625 -263.9853515625C390.025390625 -283.3896484375 388.2548828125 -302.291015625 387.3798828125 -305.9853515625C386.5078125 -309.6806640625 385.291015625 -321.7763671875 384.6826171875 -332.8642578125C384.0712890625 -343.9521484375 382.447265625 -362.8544921875 381.0732421875 -374.8642578125C374.75 -430.1748046875 385.9990234375 -479.4443359375 407.744140625 -491.6630859375C414.1220703125 -495.2490234375 417.7138671875 -495.7685546875 443.5439453125 -496.85546875C459.337890625 -497.5185546875 475.306640625 -498.8818359375 479.0322265625 -499.8837890625C487.724609375 -502.2255859375 500.1279296875 -513.1494140625 504.6162109375 -522.4150390625C510.5732421875 -534.7236328125 508.064453125 -555.0732421875 498.40234375 -572.8505859375C487.65625 -592.61328125 472.1591796875 -597.302734375 404.7939453125 -601.1787109375C355.2333984375 -604.029296875 351.087890625 -603.8486328125 338.6943359375 -598.287109375C327.107421875 -593.0849609375 320.3974609375 -586.4228515625 313.9619140625 -573.7216796875L309.6552734375 -565.2216796875L311.193359375 -524.6435546875C312.078125 -501.2607421875 312.123046875 -470.5400390625 311.2919921875 -452.1455078125C310.5029296875 -434.5908203125 310.3212890625 -398.3017578125 310.888671875 -371.5048828125C312.474609375 -296.6279296875 312.1669921875 -272.9208984375 309.234375 -244.6640625C307.748046875 -230.3427734375 305.0234375 -195.568359375 303.181640625 -167.3876953125C301.3359375 -139.2021484375 299.06640625 -108.7216796875 298.13671875 -99.646484375C295.3681640625 -72.6005859375 300.0439453125 -40.87109375 309.1044921875 -25.2373046875C317.765625 -10.2841796875 334.736328125 -0.2822265625 355.4384765625 2.0751953125Z"/>
</svg>