<svg xmlns="http://www.w3.org/2000/svg" viewBox="0 -1000 1000 1000">
	<path fill="#964ffa" d="M349.3037109375 -366.8076171875C351.884765625 -365.98046875 360.521484375 -365.5087890625 368.4921875 -365.7587890625C380.8349609375 -366.1513671875 384.5947265625 -367.0087890625 393.8193359375 -371.5517578125C406.2646484375 -377.6767578125 422.4208984375 -389.3525390625 440.51953125 -405.2939453125C475.8369140625 -436.404296875 519.744140625 -478.705078125 531.43359375 -492.8828125C538.6728515625 -501.66015625 553.3671875 -519.4267578125 564.0859375 -532.3642578125C599.6669921875 -575.296875 604.4755859375 -585.0068359375 603.23828125 -611.4111328125C602.1142578125 -635.412109375 594.328125 -643.9912109375 572.3876953125 -645.3955078125C535.7265625 -647.7509765625 503.6220703125 -626.4130859375 423.521484375 -546.4560546875C396.2734375 -519.255859375 378.9755859375 -503.3212890625 372.9765625 -499.8857421875C355.8291015625 -490.0771484375 329.490234375 -486.8017578125 311.04296875 -492.185546875C287.3056640625 -499.1171875 249.181640625 -521.1904296875 222.55859375 -543.4248046875C215.275390625 -549.5087890625 203.623046875 -558.767578125 196.6708984375 -564.00390625C189.1552734375 -569.6572265625 179.4990234375 -579.2314453125 172.8720703125 -587.5908203125C154.47265625 -610.8134765625 149.072265625 -614.5380859375 124.890625 -620.7255859375C113.2900390625 -623.6923828125 111.51953125 -623.7529296875 103.708984375 -621.4833984375C80.15625 -614.6376953125 64.32421875 -582.939453125 73.8154296875 -561.6357421875C78.7958984375 -550.455078125 100.5068359375 -525.5478515625 119.96875 -508.6845703125C150.798828125 -481.9697265625 160.1162109375 -475.1748046875 187.6787109375 -459.2978515625C210.6982421875 -446.0400390625 254.6328125 -418.6201171875 269.193359375 -408.431640625C279.765625 -401.0322265625 339.712890625 -369.8837890625 349.3037109375 -366.8076171875ZM152.4833984375 43.7724609375C157.9794921875 45.1435546875 165.4208984375 45.8876953125 169.0126953125 45.43359375C188.970703125 42.8974609375 223.009765625 18.5029296875 253.23828125 -14.9248046875C263.2666015625 -26.0126953125 278.7265625 -42.6435546875 287.5927734375 -51.8828125C296.458984375 -61.125 306.3193359375 -72.3359375 309.501953125 -76.8037109375C315.4931640625 -85.2080078125 342.0234375 -106.611328125 350.3291015625 -109.7421875C356.9091796875 -112.2197265625 367.330078125 -111.9638671875 374.046875 -109.1611328125C385.1552734375 -104.5166015625 426.177734375 -72.3154296875 442.201171875 -55.6591796875C450.978515625 -46.5341796875 470.255859375 -26.9560546875 485.0380859375 -12.15234375C510.0576171875 12.8974609375 513.0517578125 15.3310546875 528.279296875 23.0224609375C553.654296875 35.8388671875 567.9619140625 40.1455078125 585.8408203125 40.34765625C598.8056640625 40.4912109375 602.1171875 39.9267578125 609.0732421875 36.3720703125C629.173828125 26.1015625 633.220703125 13.4794921875 624.9462890625 -13.1669921875C620.57421875 -27.2353515625 600.0087890625 -59.333984375 583.4521484375 -77.9248046875C577.279296875 -84.8525390625 562.755859375 -101.8642578125 551.1728515625 -115.7236328125C525.7802734375 -146.1123046875 516.42578125 -154.8623046875 492.0009765625 -171.0537109375C467.5791015625 -187.2451171875 420.708984375 -209.4208984375 400.884765625 -214.1572265625C374.087890625 -220.56640625 348.04296875 -215.7509765625 316.201171875 -198.4931640625C287.654296875 -183.0234375 288.484375 -183.7548828125 204.8671875 -100.2978515625C143.9384765625 -39.4853515625 136.142578125 -30.5654296875 126.244140625 -10.3232421875C117.1796875 8.2119140625 117.1142578125 9.2958984375 124.12109375 24.1396484375C128.9853515625 34.4306640625 136.8466796875 39.8759765625 152.4833984375 43.7724609375Z"/>
</svg>