<svg xmlns="http://www.w3.org/2000/svg" viewBox="0 -1000 1000 1000">
	<path fill="#d600e3" d="M319.8359375 -52.087890625C305.1357421875 -48.5234375 288.7734375 -47.193359375 280.2353515625 -48.869140625C278.8515625 -49.138671875 272.0458984375 -50.259765625 265.1181640625 -51.3603515625C248.7900390625 -53.947265625 244.955078125 -56.3671875 244.955078125 -64.0888671875C244.955078125 -72.7705078125 245.560546875 -73.255859375 297.7490234375 -106.423828125C337.6435546875 -131.7783203125 355.2802734375 -154.2822265625 379.01171875 -210.1044921875C402.619140625 -265.6396484375 413.697265625 -313.306640625 409.6025390625 -341.748046875C405.5625 -369.8466796875 400.626953125 -390.0263671875 393.708984375 -406.771484375C383.62890625 -431.154296875 356.2236328125 -480.98828125 348.9775390625 -488.1083984375C345.666015625 -491.3623046875 341.5986328125 -496.123046875 339.93359375 -498.6875C337.0185546875 -503.1884765625 337.021484375 -503.46875 340.0634765625 -506.828125C342.7470703125 -509.794921875 344.4248046875 -510.1474609375 351.44921875 -509.21484375C355.9775390625 -508.6162109375 362.7861328125 -506.55859375 366.580078125 -504.6484375C381.90625 -496.919921875 406.21484375 -473.69140625 424.3203125 -449.474609375C436.775390625 -432.8125 455.6044921875 -389.8896484375 465.974609375 -354.517578125C479.03515625 -309.95703125 481.21875 -288.4853515625 477.8388671875 -237.998046875C475.0361328125 -196.197265625 471.8642578125 -182.603515625 458.38671875 -154.6513671875C447.8837890625 -132.8720703125 438.20703125 -120.1953125 420.41015625 -104.90625C388.0625 -77.111328125 358.03515625 -61.3408203125 319.8359375 -52.087890625ZM238.625 30.828125C249.005859375 33.0087890625 261.2626953125 34.13671875 275.3955078125 34.21875C294.4814453125 34.32421875 300.015625 33.58984375 330.8388671875 26.8701171875C365.2744140625 19.361328125 380.4677734375 14.1171875 404.7216796875 1.3720703125C413.4169921875 -3.1943359375 422.3955078125 -10.880859375 444.3701171875 -32.55859375C494.5595703125 -82.0703125 501.3408203125 -93.6337890625 531.3671875 -180.9423828125C546.4375 -224.7607421875 548.197265625 -235.28125 548.197265625 -281.501953125C548.197265625 -316.4609375 547.74609375 -323.099609375 544.27734375 -339.46484375C529.3134765625 -410.017578125 496.384765625 -470.4716796875 442.3564453125 -526.5703125C417.3955078125 -552.4892578125 411.1337890625 -556.546875 360.8759765625 -579.388671875C333.333984375 -591.9052734375 318.2060546875 -597.12109375 247.59375 -618.4423828125C192.5302734375 -635.0673828125 180.673828125 -637.025390625 169.380859375 -631.3623046875C158.580078125 -625.94140625 151.7744140625 -607.37890625 155.9482421875 -594.728515625C158.7265625 -586.306640625 167.1962890625 -577.310546875 182.5634765625 -566.455078125C200.58984375 -553.7265625 233.771484375 -519.291015625 246.6953125 -499.904296875C252.5498046875 -491.126953125 261.9873046875 -477.505859375 267.6708984375 -469.6376953125C288.91015625 -440.236328125 322.3076171875 -366.9892578125 325.0556640625 -343.77734375C326.3203125 -333.1103515625 322.9775390625 -304.65234375 318.1376953125 -284.8623046875C310.009765625 -251.642578125 305.0703125 -242.1923828125 272.2578125 -197.078125C259.369140625 -179.3564453125 256.083984375 -176.1435546875 225.3974609375 -151.22265625C191.3037109375 -123.5341796875 183.61328125 -115.3310546875 165.51171875 -87.34765625C154.6865234375 -70.62109375 151.69921875 -60.564453125 151.8056640625 -41.263671875C151.9111328125 -22.0859375 155.6845703125 -11.845703125 166.5126953125 -1.341796875C179.91796875 11.65625 208.8994140625 24.5869140625 238.625 30.828125Z"/>
</svg>