<svg xmlns="http://www.w3.org/2000/svg" viewBox="0 -1000 1000 1000">
	<path fill="#9b6f01" d="M374.076171875 -496.6220703125C353.978515625 -492.8271484375 351.53515625 -492.6435546875 339.25390625 -494.0029296875C325.8662109375 -495.4833984375 317.7177734375 -497.9375 308.505859375 -503.2666015625C289.697265625 -514.1494140625 284.060546875 -531.40625 297.3291015625 -537.4873046875C299.9130859375 -538.6689453125 314.75390625 -540.1357421875 332.076171875 -540.9248046875C348.7080078125 -541.6806640625 365.33984375 -543.1259765625 369.0380859375 -544.1416015625C372.7333984375 -545.1533203125 384.849609375 -546.458984375 395.9619140625 -547.0361328125C412.9287109375 -547.921875 417.0302734375 -547.6455078125 421.5556640625 -545.3037109375C432.6943359375 -539.5439453125 430.3056640625 -529.9677734375 414.4697265625 -516.9033203125C399.2529296875 -504.3525390625 389.748046875 -499.578125 374.076171875 -496.6220703125ZM314.4365234375 -437.3544921875C319.54296875 -435.8642578125 329.0859375 -435.3408203125 343.837890625 -435.7470703125C386.72265625 -436.9228515625 425.85546875 -451.3603515625 454.716796875 -476.6533203125C484.4599609375 -502.7158203125 495.1240234375 -517.3896484375 508.5087890625 -550.6865234375C517.197265625 -572.3017578125 517.9697265625 -580.9638671875 512.517578125 -595.5380859375C507.6474609375 -608.5537109375 500.4765625 -615.2353515625 487.4501953125 -618.8896484375C475.005859375 -622.3818359375 470.66796875 -621.7744140625 459.6005859375 -614.99609375C452.1083984375 -610.4052734375 448.51953125 -609.609375 420.27734375 -606.2734375C403.18359375 -604.2568359375 376.7216796875 -602.3193359375 361.4775390625 -601.9697265625C278.9853515625 -600.0869140625 231.263671875 -597.8720703125 219.0439453125 -595.3603515625C204.69921875 -592.41015625 188.2890625 -584.53515625 183.31640625 -578.2119140625C167.9697265625 -558.7021484375 183.5625 -531.365234375 230.4365234375 -495.61328125C241.0625 -487.5087890625 255.869140625 -475.6044921875 263.337890625 -469.1611328125C284.6728515625 -450.7529296875 298.9052734375 -441.8935546875 314.4365234375 -437.3544921875ZM430.3671875 -35.2158203125C429.587890625 -35.2158203125 427.943359375 -34.9501953125 426.712890625 -34.6279296875C425.482421875 -34.3037109375 416.162109375 -34.6494140625 405.9970703125 -35.3974609375C395.83203125 -36.1455078125 372.0185546875 -36.5361328125 353.076171875 -36.2685546875C302.1044921875 -35.5546875 262.94140625 -37.4853515625 255.4658203125 -41.0888671875C243.591796875 -46.806640625 240.8955078125 -58.892578125 247.775390625 -75.5380859375C249.8779296875 -80.6201171875 263.009765625 -100.4248046875 276.9619140625 -119.5478515625C290.9140625 -138.6708984375 304.8046875 -158.7041015625 307.8291015625 -164.0673828125C322.783203125 -190.5693359375 337.5927734375 -198.5341796875 355.212890625 -189.5439453125C363.0263671875 -185.5595703125 397.1611328125 -152.9580078125 416.28515625 -131.2197265625C431.201171875 -114.263671875 437.3427734375 -103.873046875 443.8779296875 -84.5341796875C449.603515625 -67.6044921875 449.9794921875 -60.5771484375 445.6796875 -51.1064453125C442.80859375 -44.7861328125 433.5869140625 -35.2158203125 430.3671875 -35.2158203125ZM175.8681640625 19.8193359375C181.3642578125 20.5029296875 238.4140625 21.0224609375 302.6474609375 20.978515625C402.33984375 20.9033203125 423.6162109375 20.4560546875 447.9970703125 17.9052734375C463.7060546875 16.26171875 480.7138671875 13.7763671875 485.7958984375 12.3857421875C490.87890625 10.9951171875 501.583984375 9.302734375 509.5849609375 8.6259765625C526.111328125 7.2275390625 540.23046875 1.3623046875 552.634765625 -9.2568359375C562.92578125 -18.0654296875 566.6787109375 -26.3369140625 566.634765625 -40.1142578125C566.58984375 -54.2099609375 563.6884765625 -72.8408203125 560.6083984375 -78.7958984375C556.267578125 -87.193359375 495.60546875 -158.5576171875 475.552734375 -178.8564453125C464.6015625 -189.9443359375 450.51953125 -206.3740234375 444.2578125 -215.3642578125C420.6259765625 -249.3115234375 397.3974609375 -279.9501953125 389.1533203125 -288.0576171875C376.796875 -300.2041015625 347.23828125 -322.03515625 341.41796875 -323.3173828125C327.87890625 -326.287109375 312.7509765625 -310.3623046875 294.9296875 -274.375C288.001953125 -260.3857421875 276.1376953125 -239.1728515625 268.5634765625 -227.2412109375C260.9931640625 -215.3095703125 250.7763671875 -198.03125 245.861328125 -188.8408203125C240.9462890625 -179.6533203125 230.5595703125 -163.8212890625 222.7802734375 -153.6552734375C215.0009765625 -143.494140625 200.6005859375 -123.08203125 190.7841796875 -108.2958984375C180.9677734375 -93.5126953125 168.1982421875 -74.9912109375 162.4052734375 -67.13671875C149.146484375 -49.158203125 135.2353515625 -24.5146484375 133.779296875 -16.427734375C130.4775390625 1.892578125 147.13671875 16.2412109375 175.8681640625 19.8193359375Z"/>
</svg>