<svg xmlns="http://www.w3.org/2000/svg" viewBox="0 -1000 1000 1000">
	<path fill="#03868b" d="M232.9091796875 -25.181640625C248.888671875 -21.544921875 273.087890625 -22.9296875 284.404296875 -28.1318359375C296.6376953125 -33.75390625 317.517578125 -50.59765625 325.16015625 -61.0126953125C338.50390625 -79.185546875 351.13671875 -86.4453125 365.2734375 -84.056640625C372.8994140625 -82.767578125 377.6328125 -79.080078125 401.0703125 -56.162109375C419.3046875 -38.333984375 429.0498046875 -32.591796875 446.607421875 -29.32421875C452.052734375 -28.31640625 460.18359375 -27.916015625 464.671875 -28.443359375C475.623046875 -29.724609375 493.6494140625 -40.146484375 512.140625 -55.888671875C517.236328125 -60.23046875 529.048828125 -78.3828125 534.8662109375 -90.810546875C543.0322265625 -108.265625 561.263671875 -187.419921875 568.5302734375 -236.994140625C569.61328125 -244.3828125 570.529296875 -264.419921875 570.560546875 -281.5126953125C570.6083984375 -307.66015625 570.013671875 -315.3916015625 566.810546875 -330.232421875C561.8681640625 -353.1123046875 553.224609375 -378.88671875 544.908203125 -395.556640625C537.40625 -410.591796875 509.7001953125 -452.66015625 493.3515625 -473.837890625C479.4580078125 -491.837890625 440.4208984375 -528.2421875 428.810546875 -534.029296875C397.375 -549.693359375 371.9560546875 -540.1982421875 362.1943359375 -509.15234375C360.7412109375 -504.53125 359.1796875 -492.814453125 358.728515625 -483.111328125C357.986328125 -467.283203125 358.33203125 -464.298828125 362.091796875 -454.041015625C367.478515625 -439.337890625 377.0009765625 -423.724609375 402.7724609375 -387.353515625C431.271484375 -347.134765625 445.0830078125 -320.07421875 454.1611328125 -286.673828125C459.130859375 -268.39453125 460.5498046875 -222.994140625 456.6943359375 -205.6611328125C452.14453125 -185.21484375 446.009765625 -178.498046875 429.8701171875 -176.283203125C413.234375 -174.00390625 402.6494140625 -181.80078125 392.40234375 -203.873046875C378.908203125 -232.9501953125 369.7578125 -240.353515625 347.30859375 -240.353515625C324.421875 -240.353515625 319.8046875 -236.23828125 297.9326171875 -196.3779296875C275.5791015625 -155.625 267.564453125 -147.958984375 247.234375 -147.958984375C234.24609375 -147.9521484375 226.8798828125 -151.978515625 219.708984375 -163.0048828125C211.3486328125 -175.8671875 209.541015625 -185.5361328125 209.6435546875 -216.8310546875C209.7353515625 -244.55078125 209.9716796875 -246.43359375 217.6142578125 -280.671875C226.845703125 -322.0087890625 234.556640625 -345.9375 244.673828125 -364.6513671875C248.693359375 -372.0859375 255.1669921875 -385.716796875 259.0634765625 -394.94140625C262.95703125 -404.166015625 268.7021484375 -416.3447265625 271.8330078125 -422.0078125C278.6962890625 -434.4189453125 298.0556640625 -454.609375 312.458984375 -464.37109375C320.8916015625 -470.0859375 323.9638671875 -473.458984375 327.9873046875 -481.4296875C333.8486328125 -493.037109375 338.8935546875 -518.9931640625 337.4072265625 -529.88671875C334.12890625 -553.900390625 314.2333984375 -574.490234375 292.251953125 -576.609375C284.376953125 -577.369140625 281.90625 -576.6884765625 268.3505859375 -570.0029296875C254.5791015625 -563.21875 252.015625 -561.1435546875 239.669921875 -546.771484375C232.2119140625 -538.0927734375 223.2607421875 -527.25390625 219.77734375 -522.6845703125C212.9453125 -513.71875 195.3046875 -479.484375 187.7001953125 -460.43359375C163.1728515625 -398.974609375 138.693359375 -315.033203125 134.783203125 -278.994140625C133.9794921875 -271.6005859375 132.4384765625 -258.369140625 131.3515625 -249.591796875C130.267578125 -240.814453125 129.40625 -218.1328125 129.4375 -199.19140625C129.4853515625 -168.8017578125 130.0048828125 -162.283203125 133.8427734375 -143.751953125C136.2353515625 -132.2021484375 139.7900390625 -117.83984375 141.7421875 -111.8310546875C156.001953125 -67.927734375 190.916015625 -34.74609375 232.9091796875 -25.181640625Z"/>
</svg>