<svg xmlns="http://www.w3.org/2000/svg" viewBox="0 -1000 1000 1000">
	<path fill="#964ffa" d="M536.1845703125 -349.201171875C515.423828125 -346.716796875 496.8642578125 -346.962890625 482.091796875 -349.921875C473.6220703125 -351.62109375 465.1826171875 -353.8154296875 463.3369140625 -354.802734375C456.484375 -358.470703125 448.103515625 -370.3828125 446.1103515625 -379.2861328125C444.1455078125 -388.056640625 444.6337890625 -415.0244140625 447.5595703125 -459.7177734375C448.8583984375 -479.552734375 448.8857421875 -479.658203125 454.51171875 -484.6826171875C459.7177734375 -489.333984375 460.818359375 -489.642578125 468.638671875 -488.603515625C479.931640625 -487.10546875 492.3115234375 -481.0458984375 508.041015625 -469.3125C542.3740234375 -443.7109375 559.3857421875 -414.78515625 559.498046875 -381.83984375C559.5703125 -360.5693359375 552.8779296875 -351.201171875 536.1845703125 -349.201171875ZM253.9970703125 -321.908203125C223.4404296875 -314.912109375 183.6279296875 -312.560546875 171.5693359375 -317.041015625C153.310546875 -323.830078125 152.982421875 -338.0546875 170.287109375 -372.576171875C185.794921875 -403.51953125 201.271484375 -423.453125 224.28125 -442.1328125C236.623046875 -452.150390625 240.5126953125 -456.357421875 242.2626953125 -461.57421875C243.4931640625 -465.234375 246.234375 -469.6328125 248.353515625 -471.349609375C265.89453125 -485.5439453125 291.24609375 -496.10546875 316.685546875 -499.814453125C328.416015625 -501.5234375 330.31640625 -501.392578125 336.3017578125 -498.470703125C344.8671875 -494.291015625 348.09375 -487.509765625 350.6025390625 -468.41015625C354.560546875 -438.287109375 348.14453125 -395.380859375 336.673828125 -375.27734375C326.7587890625 -357.896484375 310.673828125 -343.572265625 288.439453125 -332.3232421875C283.4150390625 -329.783203125 267.91796875 -325.09765625 253.9970703125 -321.908203125ZM469.7802734375 -147.896484375C452.4853515625 -137.857421875 438.2626953125 -139.8779296875 431.560546875 -153.3203125C429.1337890625 -158.1845703125 428.671875 -163.1337890625 428.9560546875 -181.095703125C429.1474609375 -193.1572265625 430.4150390625 -207.728515625 431.7861328125 -213.6103515625C433.484375 -220.8837890625 433.775390625 -225.580078125 432.7021484375 -228.4033203125C431.8369140625 -230.67578125 431.1298828125 -235.10546875 431.1298828125 -238.2470703125C431.1298828125 -250.20703125 447.953125 -262.111328125 476.36328125 -270.263671875C505.0537109375 -278.490234375 521.75390625 -274.228515625 530.3427734375 -256.482421875C536.4130859375 -243.9453125 533.794921875 -226.16796875 522.328125 -202.078125C517.3818359375 -191.6875 513.1982421875 -186.3828125 498.48046875 -171.83984375C487.998046875 -161.4765625 476.154296875 -151.59765625 469.7802734375 -147.896484375ZM310.765625 -109.8134765625C296.00390625 -105.71484375 267.6689453125 -109.173828125 250.09375 -117.220703125C230.8916015625 -126.01171875 204.5595703125 -151.27734375 187.2470703125 -177.5166015625C176.0400390625 -194.5 175.048828125 -197.3271484375 176.169921875 -209.013671875C177.126953125 -218.966796875 181.283203125 -225.310546875 189.541015625 -229.421875C198.4482421875 -233.85546875 256.068359375 -237.9736328125 291.6904296875 -236.71875C334.25390625 -235.22265625 338.833984375 -233.3251953125 345.1845703125 -214.55078125C350.9990234375 -197.357421875 351.6142578125 -182.53125 347.2666015625 -164.34765625C340.2626953125 -135.068359375 326.2353515625 -114.109375 310.765625 -109.8134765625ZM296.728515625 -10.73046875C313.0693359375 -7.0390625 343.3974609375 -6.2109375 360.5693359375 -8.994140625C378.5068359375 -11.8984375 401.755859375 -20.505859375 431.1298828125 -35.107421875C511.7529296875 -75.185546875 540.9453125 -100.130859375 594.5771484375 -174.7548828125C612.7333984375 -200.0205078125 617.138671875 -209.525390625 629.5087890625 -250.130859375C637.7255859375 -277.109375 638.2177734375 -279.8125 639.455078125 -304.55859375C640.5419921875 -326.345703125 640.2236328125 -334.3056640625 637.5 -353.279296875C633.55859375 -380.7216796875 631.8701171875 -387.4921875 621.01171875 -419.34765625C611.4482421875 -447.41015625 608.0849609375 -454.734375 599.2802734375 -466.6796875C595.8720703125 -471.2978515625 589.5693359375 -480.4169921875 585.26953125 -486.94140625C576.6123046875 -500.080078125 542.873046875 -533.822265625 524.3681640625 -547.84375C512.1904296875 -557.0751953125 473.9912109375 -576.7900390625 462.208984375 -579.927734375C416.4326171875 -592.119140625 416.9794921875 -592.0478515625 364.76953125 -592.365234375L316.0498046875 -592.66015625L291.02734375 -585.6015625C270.3173828125 -579.7568359375 262.203125 -576.458984375 243.9853515625 -566.474609375C198.2392578125 -541.400390625 191.4580078125 -536.392578125 160.0439453125 -504.4765625C120.552734375 -464.35546875 106.9248046875 -445.79296875 91.63671875 -411.302734375C62.9560546875 -346.6103515625 56.318359375 -312.7421875 61.640625 -258.228515625C64.9765625 -224.05859375 72.4892578125 -194.4453125 84.36328125 -168.673828125C102.3583984375 -129.61328125 136.6611328125 -94.6240234375 196.509765625 -54.28125C229.517578125 -32.03125 258.8125 -19.302734375 296.728515625 -10.73046875Z"/>
</svg>