<svg xmlns="http://www.w3.org/2000/svg" viewBox="0 -1000 1000 1000">
	<path fill="#3c9202" d="M388.1953125 -172.78515625C379.048828125 -169.244140625 352.6484375 -169.267578125 339.533203125 -172.830078125C318.55078125 -178.52734375 308.7822265625 -184.9462890625 298.8564453125 -199.5615234375C295.25390625 -204.869140625 290.9912109375 -210.30078125 289.388671875 -211.630859375C287.7890625 -212.9599609375 280.1396484375 -222.1953125 272.39453125 -232.1552734375C264.6494140625 -242.115234375 247.3232421875 -262.763671875 233.89453125 -278.0380859375C209.2783203125 -306.03515625 199.9814453125 -318.787109375 188.83203125 -339.8349609375C179.5830078125 -357.296875 180.7412109375 -364.857421875 195.3154296875 -382.119140625C199.2158203125 -386.736328125 212.8056640625 -404.8828125 225.5166015625 -422.4375C251.8486328125 -458.810546875 255.1748046875 -462.7041015625 263.6064453125 -467.041015625C272.06640625 -471.392578125 289.0810546875 -473.8603515625 301.7783203125 -472.5751953125C313.095703125 -471.43359375 331.7470703125 -473.169921875 370.0693359375 -478.943359375C398.021484375 -483.150390625 403.2548828125 -482.31640625 416.71484375 -471.505859375C421.5576171875 -467.619140625 443.53515625 -450.884765625 465.5537109375 -434.3212890625C487.576171875 -417.7578125 507.3486328125 -401.880859375 509.4951171875 -399.041015625C514.93359375 -391.849609375 517.6162109375 -380.908203125 515.6103515625 -374.1103515625C508.5927734375 -350.3623046875 497.6591796875 -325.892578125 483.1494140625 -301.478515625C474.365234375 -286.6923828125 464.1015625 -269.27734375 460.341796875 -262.77734375C456.578125 -256.275390625 445.6923828125 -241.513671875 436.1455078125 -229.970703125C426.599609375 -218.4287109375 414.8994140625 -203.3349609375 410.1484375 -196.4306640625C399.2763671875 -180.63671875 394.1181640625 -175.08203125 388.1953125 -172.78515625ZM373.4296875 -28.365234375C387.142578125 -21.884765625 405.8896484375 -25.6826171875 419.17578125 -37.62890625C428.400390625 -45.923828125 435.1884765625 -57.568359375 443.78125 -79.8505859375C450.5322265625 -97.3642578125 486.9912109375 -172.388671875 493.5166015625 -182.1982421875C495.9736328125 -185.892578125 500.66015625 -193.830078125 503.923828125 -199.837890625C519.0927734375 -227.71875 555.9287109375 -269.650390625 579.35546875 -285.6943359375C602.5087890625 -301.5537109375 618.197265625 -320.7626953125 623.8369140625 -340.169921875C627.5556640625 -352.962890625 626.38671875 -383.970703125 621.6181640625 -398.91796875C616.529296875 -414.8662109375 612.7041015625 -421.0322265625 589.7353515625 -450.328125C577.8544921875 -465.4794921875 564.083984375 -483.92578125 559.1279296875 -491.31640625C538.8349609375 -521.5859375 499.931640625 -563.619140625 485.3505859375 -571.029296875L477.9921875 -574.76953125L394.630859375 -572.783203125C348.7822265625 -571.693359375 299.5537109375 -571.29296875 285.228515625 -571.89453125C264.123046875 -572.783203125 257.3037109375 -572.486328125 249.234375 -570.318359375C231.2451171875 -565.4892578125 216.2333984375 -555.4951171875 204.9267578125 -540.828125C201.5087890625 -536.392578125 192.7451171875 -526.083984375 185.4580078125 -517.91796875C178.16796875 -509.755859375 155.2978515625 -480.775390625 134.6328125 -453.5166015625C113.9677734375 -426.2578125 92.9169921875 -398.6650390625 87.8447265625 -392.1982421875C74.234375 -374.828125 72.484375 -369.21875 74.849609375 -350.4921875C77.306640625 -331.02734375 83.021484375 -319.21484375 99.1376953125 -300.306640625C105.853515625 -292.423828125 118.517578125 -276.61328125 127.27734375 -265.166015625C136.0380859375 -253.72265625 154.18359375 -233.337890625 167.599609375 -219.8671875C188.1279296875 -199.2607421875 196.2451171875 -192.49609375 218.869140625 -177.169921875C239.41796875 -163.251953125 251.8388671875 -153.189453125 271.6015625 -134.458984375C285.81640625 -120.982421875 302.072265625 -104.2958984375 307.71875 -97.375C322.59375 -79.150390625 357.0263671875 -40.0546875 362.2421875 -35.4716796875C364.7001953125 -33.3115234375 369.734375 -30.115234375 373.4296875 -28.365234375Z"/>
</svg>