<svg xmlns="http://www.w3.org/2000/svg" viewBox="0 -1000 1000 1000">
	<path fill="#9b6f01" d="M384.1328125 -268.033203125C394.1748046875 -261 404.8525390625 -267.650390625 423.1796875 -292.359375C429.240234375 -300.5283203125 435.34765625 -307.654296875 436.755859375 -308.1953125C441.736328125 -310.10546875 445.615234375 -305.734375 450.3046875 -292.90625C455.66796875 -278.25390625 464.6396484375 -267.193359375 471.1513671875 -267.193359375C476.326171875 -267.203125 485.1650390625 -272.5830078125 488.5927734375 -277.81640625C497.1650390625 -290.896484375 490.900390625 -320.4921875 475.3857421875 -340.201171875C470.8193359375 -346.0009765625 470.1494140625 -348.16796875 470.1494140625 -357.1328125C470.1494140625 -365.91796875 470.9462890625 -368.6142578125 475.615234375 -375.6796875C482.6357421875 -386.3056640625 496.587890625 -414.96484375 500.3369140625 -426.466796875C503.802734375 -437.08984375 502.708984375 -445.720703125 497.4287109375 -449.41796875C488.1591796875 -455.912109375 476.4111328125 -449.986328125 462.595703125 -431.8359375C449.40234375 -414.50390625 447.4951171875 -414.357421875 435.12890625 -429.7275390625C419.16015625 -449.5791015625 409.630859375 -457.02734375 400.2041015625 -457.02734375C392.88671875 -457.02734375 386.501953125 -450.669921875 383.7060546875 -440.5966796875C379.8876953125 -426.853515625 380.9609375 -423.5615234375 395.3779296875 -404.7900390625C418.3369140625 -374.892578125 418.8662109375 -366.7890625 400.0029296875 -334.03515625C386.8779296875 -311.240234375 379.607421875 -296.078125 377.8203125 -287.7724609375C376.34375 -280.9091796875 379.3994140625 -271.349609375 384.1328125 -268.033203125ZM220.1796875 -267.212890625C222.7744140625 -265.1728515625 227.0126953125 -263.830078125 230.84765625 -263.830078125C241.056640625 -263.830078125 249.9638671875 -271.951171875 262.671875 -292.8515625C282.3388671875 -325.208984375 284.181640625 -325.28125 301.3837890625 -294.337890625C314.6015625 -270.5625 315.3671875 -269.50390625 321.7451171875 -266.205078125C325.798828125 -264.109375 327.2509765625 -264.0927734375 332.0263671875 -266.0859375C340.318359375 -269.55078125 344.0537109375 -276.3017578125 343.94140625 -287.611328125C343.8251953125 -299.5234375 342.1845703125 -303.62890625 327.6953125 -328.2890625C314.8916015625 -350.08203125 310.71875 -361.10546875 312.3896484375 -368.716796875C312.98828125 -371.4375 319.8681640625 -386.58203125 327.6787109375 -402.373046875C343.4521484375 -434.259765625 344.0166015625 -437.796875 334.2685546875 -443.7412109375C328.0478515625 -447.53515625 323.3173828125 -447.763671875 315.8349609375 -444.63671875C304.8740234375 -440.060546875 297.7236328125 -431.775390625 289.3935546875 -414.001953125C284.71484375 -404.0107421875 279.5126953125 -395.50390625 276.771484375 -393.3466796875L272.10546875 -389.6796875L270.21875 -397.11328125C267.748046875 -406.8515625 255.5390625 -427.255859375 246.2314453125 -437.2060546875C234.4228515625 -449.828125 222.4423828125 -451.6708984375 213.453125 -442.248046875C207.5810546875 -436.087890625 205.25390625 -429.470703125 207.177734375 -424.40625C208.029296875 -422.169921875 213.111328125 -415.4677734375 218.4775390625 -409.513671875C230.0302734375 -396.685546875 247.5986328125 -366.662109375 248.8017578125 -357.6875C249.8544921875 -349.8359375 246.1767578125 -342.333984375 231.623046875 -322.62890625C225.8193359375 -314.7744140625 219.5712890625 -305.32421875 217.7392578125 -301.62890625C210.6162109375 -287.26953125 211.556640625 -273.998046875 220.1796875 -267.212890625ZM386.1494140625 -97.466796875C327.7021484375 -94.28125 322.53125 -95.275390625 275.8076171875 -118.634765625C213.056640625 -150.00390625 187.681640625 -173.8173828125 173.439453125 -214.69921875C171.4501953125 -220.408203125 168.353515625 -239.09375 165.8515625 -260.466796875C160.8681640625 -303.009765625 161.267578125 -320.8720703125 167.8134765625 -348.6669921875C170.2060546875 -358.83203125 174.802734375 -378.865234375 178.0263671875 -393.189453125C183.2353515625 -416.322265625 184.9375 -421.1005859375 193.287109375 -436.02734375C212.4248046875 -470.23046875 222.9140625 -481.41796875 245.9482421875 -492.197265625C254.46875 -496.1865234375 260.990234375 -497.748046875 275.3251953125 -499.23828125C285.4599609375 -500.291015625 297.412109375 -502.58203125 301.88671875 -504.328125C306.3603515625 -506.0712890625 319.9677734375 -508.59375 332.125 -509.93359375C344.283203125 -511.26953125 364.814453125 -513.62890625 377.751953125 -515.1767578125C418.435546875 -520.041015625 445.328125 -514.8515625 484.3583984375 -494.6005859375C529.7861328125 -471.037109375 537.77734375 -462.255859375 544.873046875 -428.14453125C551.3984375 -396.771484375 552.1669921875 -383.8310546875 548.5029296875 -367.076171875C544.8974609375 -350.6015625 541.373046875 -328.134765625 537.3095703125 -295.74609375C531.912109375 -252.7314453125 523.0185546875 -221.6962890625 506.7392578125 -189.0751953125C493.6513671875 -162.849609375 480.892578125 -144.361328125 464.3154296875 -127.61328125C441.5068359375 -104.5625 429.1923828125 -99.8115234375 386.1494140625 -97.466796875ZM338.2705078125 1.5625C359.7802734375 5.1884765625 375.546875 4.97265625 395.3916015625 0.783203125C402.3203125 -0.6796875 412.9052734375 -2.580078125 418.9111328125 -3.44140625C431.0751953125 -5.181640625 491.8056640625 -27.42578125 504.25390625 -34.703125C515.6357421875 -41.353515625 528.9697265625 -55.3916015625 543.71484375 -76.244140625C557.150390625 -95.248046875 575.2421875 -129.869140625 578.5263671875 -142.8671875C579.576171875 -147.02734375 582.962890625 -158.744140625 586.0498046875 -168.9091796875C602.134765625 -221.8876953125 613.7041015625 -270.51171875 617.228515625 -299.947265625C620.1064453125 -323.982421875 620.30078125 -426.2548828125 617.498046875 -439.8037109375C613.41015625 -459.53515625 585.9365234375 -517.9521484375 575.921875 -528.19921875C563.9931640625 -540.404296875 512.76171875 -570.6435546875 501.3896484375 -572.19140625C497.14453125 -572.76953125 478.158203125 -577.681640625 459.2021484375 -583.109375C427.103515625 -592.2998046875 423.9013671875 -592.908203125 412.6318359375 -591.96484375C400.5908203125 -590.953125 391.8203125 -592.142578125 354.2294921875 -599.876953125C328.7685546875 -605.1171875 326.150390625 -605.208984375 300.2666015625 -601.740234375C286.51953125 -599.89453125 268.08984375 -597.720703125 259.30859375 -596.904296875C239.556640625 -595.068359375 230.32421875 -591.0693359375 208.8291015625 -575.0458984375C190.2998046875 -561.234375 186.7490234375 -557.5869140625 170.103515625 -535.291015625C163.263671875 -526.130859375 156.4453125 -517.060546875 154.951171875 -515.1328125C152.1591796875 -511.5400390625 135.6708984375 -482.61328125 117.2578125 -449.015625C107.8896484375 -431.921875 105.8896484375 -426.3779296875 96.640625 -391.8974609375C91.0048828125 -370.89453125 85.0986328125 -347.283203125 83.515625 -339.427734375C77.4287109375 -309.2509765625 80.9521484375 -237.7265625 90.6318359375 -194.947265625C93.923828125 -180.4140625 110.6884765625 -138.91015625 117.1044921875 -129.427734375C119.9140625 -125.2685546875 134.6005859375 -109.2724609375 149.7353515625 -93.875C170.6435546875 -72.607421875 182.9140625 -61.765625 200.8037109375 -48.75C241.169921875 -19.390625 264.3603515625 -10.9033203125 338.2705078125 1.5625Z"/>
</svg>