<svg xmlns="http://www.w3.org/2000/svg" viewBox="0 -1000 1000 1000">
	<path fill="#964ffa" d="M394.4697265625 -142.6640625C382.28125 -136.640625 380.5244140625 -136.248046875 363.5712890625 -135.783203125C353.6865234375 -135.513671875 343.31640625 -136.001953125 340.5302734375 -136.8671875C330.1806640625 -140.08984375 314.00390625 -151.591796875 299.1728515625 -166.275390625C280.91796875 -184.345703125 273.5009765625 -194.4833984375 257.37109375 -223.392578125C250.6689453125 -235.40625 243.1220703125 -248.2578125 240.595703125 -251.953125C238.0703125 -255.6484375 233.541015625 -263.587890625 230.5263671875 -269.59375C227.515625 -275.5986328125 223.71484375 -282.4072265625 222.083984375 -284.720703125C216.1474609375 -293.13671875 202.154296875 -329.5234375 199.5634765625 -343.27734375C196.2236328125 -360.99609375 196.189453125 -377.416015625 199.4638671875 -388.443359375C206.8642578125 -413.3564453125 238.3056640625 -415.482421875 262.6416015625 -392.71875C269.005859375 -386.7646484375 273.599609375 -379.94921875 280.44921875 -366.291015625C287.1181640625 -352.9921875 292.466796875 -344.9833984375 299.712890625 -337.4365234375C320.771484375 -315.5068359375 353.1767578125 -305.0234375 377.38671875 -312.310546875C388.7236328125 -315.72265625 394.4111328125 -320.2236328125 407.7548828125 -336.3359375C425.2890625 -357.50390625 436.9990234375 -367.640625 453.193359375 -375.6630859375C465.83984375 -381.931640625 469.1318359375 -382.833984375 481.31640625 -383.376953125C493.32421875 -383.91015625 495.990234375 -383.490234375 501.837890625 -380.126953125C506.1513671875 -377.642578125 509.94921875 -373.5576171875 512.451171875 -368.70703125C515.9033203125 -362.0048828125 516.2685546875 -359.349609375 515.6806640625 -345.19140625C514.3544921875 -313.1416015625 494.458984375 -268.4208984375 452.8037109375 -203.873046875C429.759765625 -168.1650390625 415.240234375 -152.931640625 394.4697265625 -142.6640625ZM341.4365234375 -21.96875C371.8525390625 -13.79296875 415.828125 -28.158203125 452.759765625 -58.328125C458.703125 -63.181640625 473.130859375 -74.943359375 484.8271484375 -84.462890625C499.107421875 -96.0869140625 509.0498046875 -105.7392578125 515.1064453125 -113.86328125C524.8544921875 -126.9306640625 543.9130859375 -159.96875 556.529296875 -185.66796875C565.2314453125 -203.390625 592.3935546875 -284.90234375 599.33203125 -314.115234375C608.9912109375 -354.783203125 613.5576171875 -378.080078125 613.5576171875 -386.716796875C613.5576171875 -391.70703125 614.4326171875 -402.9111328125 615.5029296875 -411.61328125C617.7587890625 -429.98828125 615.9912109375 -449.18359375 609.302734375 -478.888671875C600.5390625 -517.826171875 596.857421875 -523.5107421875 572.94921875 -535.07421875C555.8046875 -543.365234375 547.7314453125 -544.609375 533.7958984375 -541.109375C527.8525390625 -539.6162109375 520.873046875 -538.37890625 518.2919921875 -538.37890625C515.7080078125 -538.369140625 502.51171875 -533.9013671875 488.962890625 -528.44921875C464.900390625 -518.763671875 451.8369140625 -511.208984375 427.0771484375 -492.650390625C414.888671875 -483.517578125 376.388671875 -443.4755859375 372.423828125 -435.8125C370.1953125 -431.4990234375 368.947265625 -430.873046875 362.580078125 -430.873046875C357.794921875 -430.873046875 353.798828125 -432.0458984375 350.9521484375 -434.2880859375C348.388671875 -436.3046875 339.3955078125 -451.9384765625 328.974609375 -472.5078125C308.3095703125 -513.2841796875 288.4951171875 -544.42578125 276.1943359375 -555.451171875C263.5068359375 -566.826171875 251.099609375 -574.599609375 240.7119140625 -577.685546875C229.2109375 -581.099609375 207.4453125 -581.1787109375 194.330078125 -577.8564453125C171.416015625 -572.052734375 137.869140625 -551.1171875 122.7919921875 -533.21484375C104.533203125 -511.5341796875 98.9521484375 -502.408203125 90.7763671875 -480.857421875C83.4716796875 -461.6015625 81.7353515625 -433.05078125 85.48828125 -393.912109375C88.00390625 -367.72265625 88.7392578125 -364.427734375 98.822265625 -334.171875C104.6904296875 -316.5625 114.1376953125 -292.37109375 119.8115234375 -280.4111328125C133.1279296875 -252.353515625 170.2236328125 -191.404296875 187.7470703125 -168.7939453125C195.2666015625 -159.08984375 204.7041015625 -146.23828125 208.716796875 -140.2333984375C217.09765625 -127.6962890625 268.52734375 -73.890625 288.478515625 -56.791015625C317.595703125 -31.826171875 326.4755859375 -25.98828125 341.4365234375 -21.96875Z"/>
</svg>