<svg xmlns="http://www.w3.org/2000/svg" viewBox="0 -1000 1000 1000">
	<path fill="#ee2304" d="M226.85546875 -322.39453125C244.546875 -320.34375 243.5048828125 -320.3466796875 272.0791015625 -322.2470703125C286.3828125 -323.201171875 311.3173828125 -324.697265625 327.4873046875 -325.576171875C381.1904296875 -328.4921875 412.8583984375 -332.462890625 447.8271484375 -340.673828125C465.40234375 -344.798828125 514.8876953125 -362.828125 529.3662109375 -370.3828125C541.3193359375 -376.6171875 554.4814453125 -388.37109375 558.744140625 -396.611328125C562.83203125 -404.513671875 562.103515625 -419.2763671875 557.14453125 -429.021484375C548.9853515625 -445.0478515625 539.3984375 -450.08203125 509.7099609375 -453.9208984375C489.765625 -456.501953125 489.2119140625 -456.48046875 468.55078125 -452.43359375C457.0322265625 -450.1748046875 444.962890625 -447.587890625 441.7294921875 -446.681640625C438.4931640625 -445.775390625 423.05078125 -443.8037109375 407.41015625 -442.29296875C378.517578125 -439.5078125 349.38671875 -439.96875 335.0478515625 -443.4345703125C328.505859375 -445.017578125 295.5224609375 -447.501953125 257.439453125 -449.283203125C234.3583984375 -450.359375 218.4677734375 -446.873046875 196.5517578125 -435.91796875C164.1630859375 -419.7275390625 150.361328125 -404.31640625 148.2802734375 -382.0068359375C147.4287109375 -372.9150390625 147.8974609375 -370.013671875 151.455078125 -362.2373046875C156.9892578125 -350.154296875 164.9326171875 -341.380859375 174.9267578125 -336.3154296875C185.251953125 -331.08203125 210.6513671875 -324.2734375 226.85546875 -322.39453125ZM276.935546875 -144.7998046875C277.482421875 -144.236328125 296.0732421875 -144.140625 318.2490234375 -144.583984375C360.9873046875 -145.4423828125 369.5869140625 -146.5390625 406.3125 -155.830078125C436.900390625 -163.5712890625 454.49609375 -166.958984375 484.5673828125 -170.91015625C513.8525390625 -174.7578125 525.6240234375 -177.5849609375 537.5693359375 -183.638671875C559.4306640625 -194.7158203125 565.2109375 -217.0556640625 552.755859375 -242.3515625C546.421875 -255.220703125 538.16796875 -261.69140625 523.6484375 -265.173828125C512.7587890625 -267.78515625 483.6474609375 -266.271484375 457.9306640625 -261.751953125C447.6328125 -259.9443359375 424.8447265625 -256.939453125 407.2900390625 -255.080078125C389.732421875 -253.220703125 367.43359375 -250.171875 357.7333984375 -248.3095703125C348.033203125 -246.443359375 337.2490234375 -244.916015625 333.76953125 -244.916015625C330.2939453125 -244.916015625 321.98828125 -243.404296875 315.3193359375 -241.5556640625C308.6513671875 -239.7099609375 299.001953125 -238.1953125 293.87890625 -238.1953125C288.751953125 -238.1953125 278.5322265625 -237.46484375 271.1630859375 -236.572265625C263.796875 -235.6796875 239.625 -234.576171875 217.44921875 -234.115234375C173.265625 -233.2021484375 165.1103515625 -231.8212890625 153.2802734375 -223.251953125C142.5615234375 -215.490234375 138.466796875 -207.46875 138.6103515625 -194.517578125C138.8359375 -173.99609375 146.4345703125 -167.068359375 181.2978515625 -155.607421875L202.328125 -148.693359375L239.13671875 -147.2578125C259.380859375 -146.4677734375 276.392578125 -145.3603515625 276.935546875 -144.7998046875Z"/>
</svg>