<svg xmlns="http://www.w3.org/2000/svg" viewBox="0 -1000 1000 1000">
	<path fill="#9b6f01" d="M507.8203125 -443.337890625C497.0576171875 -440.279296875 443.990234375 -435.880859375 439.2080078125 -437.6474609375C434.6005859375 -439.353515625 433.1826171875 -443.9501953125 431.80859375 -461.6689453125C431.162109375 -469.984375 429.453125 -480.884765625 428.0107421875 -485.888671875C425.84375 -493.4150390625 425.7177734375 -496.9560546875 427.26953125 -506.373046875C428.3046875 -512.634765625 429.1591796875 -521.7705078125 429.1591796875 -526.67578125C429.1865234375 -551.60546875 438.658203125 -560.85546875 470.1201171875 -566.67578125C490.4677734375 -570.4423828125 518.419921875 -566.501953125 527.1044921875 -558.646484375C536.4833984375 -550.1640625 540.896484375 -529.259765625 539.59375 -499.4716796875C538.96484375 -485.0478515625 537.79296875 -477.634765625 534.97265625 -470.2275390625C529.859375 -456.8046875 519.6572265625 -446.6982421875 507.8203125 -443.337890625ZM306.7001953125 -433.9423828125C295.52734375 -431.8779296875 292.560546875 -431.95703125 282.8740234375 -434.568359375C270.3466796875 -437.9453125 259.51171875 -445.201171875 256.603515625 -452.1640625C252.83984375 -461.173828125 254.3818359375 -492.017578125 259.228515625 -504.591796875C267.6435546875 -526.435546875 279.4287109375 -537.7666015625 297.6669921875 -541.5537109375C305.462890625 -543.169921875 308.0263671875 -543.02734375 314.322265625 -540.6240234375C332.9677734375 -533.5009765625 335.36328125 -526.8564453125 333.3740234375 -487.7109375C331.8291015625 -457.26953125 330.236328125 -450.9296875 321.9140625 -442.12890625C317.015625 -436.953125 313.8916015625 -435.271484375 306.7001953125 -433.9423828125ZM530.2939453125 26.337890625C545.705078125 34.052734375 555.015625 34.986328125 566.1416015625 29.9306640625C576.2041015625 25.361328125 581.3037109375 18.07421875 587.1005859375 -0.0244140625C594.404296875 -22.822265625 597.703125 -46.24609375 596.5166015625 -66.869140625C591.7353515625 -149.9365234375 568.22265625 -207.037109375 529.453125 -229.7255859375C525.0166015625 -232.3203125 513.1220703125 -237.357421875 503.0146484375 -240.916015625C492.908203125 -244.4775390625 480.9931640625 -249.23828125 476.5361328125 -251.494140625C468.28125 -255.677734375 446.7451171875 -260.9111328125 437.7724609375 -260.9111328125C430.8515625 -260.9111328125 424.86328125 -268.556640625 422.3232421875 -280.6328125C420.7783203125 -287.9921875 420.7001953125 -299.572265625 421.9990234375 -328.97265625C423.5166015625 -363.29296875 424.1552734375 -368.76171875 427.689453125 -377.693359375C431.1142578125 -386.33984375 432.7314453125 -388.302734375 439.232421875 -391.6826171875C446.642578125 -395.53515625 447.4423828125 -395.5927734375 480.0869140625 -394.564453125L513.384765625 -393.5146484375L543.927734375 -399.560546875C560.744140625 -402.88671875 578.712890625 -407.50390625 583.908203125 -409.828125C595.884765625 -415.1845703125 605.79296875 -425.2880859375 611.685546875 -438.150390625C615.7734375 -447.07421875 616.279296875 -450.0615234375 616.07421875 -464.19140625C615.171875 -526.052734375 612.314453125 -566.966796875 607.966796875 -580.2861328125C604.193359375 -591.845703125 596.7392578125 -602.55078125 587.2197265625 -610.07421875C576.94921875 -618.1953125 574.3720703125 -619.083984375 543.3916015625 -625.1953125C524.8388671875 -628.85546875 515.9384765625 -629.8193359375 506.056640625 -629.234375C498.919921875 -628.810546875 480.1962890625 -629.7646484375 464.4501953125 -631.34765625C431.001953125 -634.7138671875 424.3330078125 -634.05078125 361.9521484375 -621.16796875C342.0869140625 -617.0634765625 316.3798828125 -612.25390625 304.8310546875 -610.48046875C287.142578125 -607.763671875 281.1884765625 -606.013671875 267.076171875 -599.375C226.958984375 -580.5048828125 212.484375 -564.998046875 201.35546875 -528.96484375C196.8193359375 -514.28515625 196.76171875 -513.57421875 198.794921875 -497.8857421875C199.9365234375 -489.056640625 201.888671875 -471.4033203125 203.12890625 -458.6611328125C204.978515625 -439.63671875 206.1953125 -433.880859375 209.9345703125 -426.494140625C218.4248046875 -409.712890625 235.9482421875 -396.35546875 255.3486328125 -391.876953125C259.92578125 -390.8212890625 276.5234375 -389.41015625 292.232421875 -388.7431640625C322.6181640625 -387.451171875 329.0576171875 -385.810546875 334.1298828125 -378.0546875C342.732421875 -364.90625 344.537109375 -325.890625 337.71875 -300.45703125C335.4794921875 -292.103515625 332.3759765625 -280.181640625 330.8212890625 -273.96484375C328.7119140625 -265.5185546875 326.2958984375 -260.73046875 321.271484375 -255.0185546875C313.2392578125 -245.896484375 298.330078125 -235.123046875 281.9853515625 -226.6357421875C267.3388671875 -219.02734375 253.4892578125 -205.642578125 241.8408203125 -187.83203125C230.896484375 -171.08984375 226.2822265625 -159.47265625 217.5498046875 -126.63671875C206.6123046875 -85.521484375 198.279296875 -71.986328125 183.8994140625 -71.986328125C178.0615234375 -71.986328125 176.021484375 -73.2783203125 165.0732421875 -83.884765625C146.736328125 -101.6474609375 119.2900390625 -114.099609375 105.884765625 -110.732421875C92.6533203125 -107.4140625 81.0390625 -85.083984375 84.5087890625 -69.64453125C87.833984375 -54.845703125 98.9462890625 -45.671875 130.61328125 -31.5927734375C152.1298828125 -22.025390625 163.416015625 -14.4453125 180.8095703125 2.125C201.7109375 22.03515625 206.1201171875 24.6943359375 218.14453125 24.6533203125C232.044921875 24.6015625 240.7919921875 20.2919921875 253.69140625 7.13671875C265.5615234375 -4.970703125 272.75 -18.3828125 281.1953125 -44.19140625C285.560546875 -57.525390625 288.796875 -63.46484375 300.8828125 -80.30859375C321.640625 -109.23828125 331.224609375 -120.685546875 340.982421875 -128.2119140625C356.3701171875 -140.0859375 383.0166015625 -149.947265625 399.884765625 -150.0048828125C408.9970703125 -150.0390625 419.8486328125 -142.76953125 432.3212890625 -128.27734375C448.498046875 -109.478515625 459.2412109375 -89.427734375 477.814453125 -43.3505859375C496.376953125 2.703125 504.4267578125 13.39453125 530.2939453125 26.337890625Z"/>
</svg>