<svg xmlns="http://www.w3.org/2000/svg" viewBox="0 -1000 1000 1000">
	<path fill="#d600e3" d="M156.6103515625 -55.4951171875C176.6357421875 -50.634765625 226.4462890625 -53.5537109375 248.9091796875 -60.9052734375C260.8857421875 -64.8232421875 280.279296875 -78.5224609375 292.4296875 -91.6474609375C314.76953125 -115.7744140625 343.248046875 -161.71875 358.8515625 -198.796875C392.1591796875 -277.9638671875 394.9345703125 -285.3740234375 401.189453125 -311.9423828125C403.650390625 -322.3876953125 405.0380859375 -334.1142578125 405.2607421875 -346.2861328125C405.595703125 -364.869140625 406.7265625 -369.2783203125 412.431640625 -374.1865234375C421.8310546875 -382.2841796875 427.0400390625 -378.1240234375 431.5791015625 -358.8837890625C436.44921875 -338.2470703125 442.587890625 -318.5048828125 450.3125 -298.6494140625C455.8740234375 -284.3525390625 459.927734375 -277.46484375 473.0693359375 -260.0087890625C497.384765625 -227.7021484375 502.2041015625 -213.9208984375 496.2880859375 -193.5712890625C492.0634765625 -179.0478515625 482.9580078125 -170.7255859375 464.91796875 -164.9072265625C449.8447265625 -160.0478515625 442.5986328125 -156.2021484375 433.578125 -148.2822265625C421.9775390625 -138.0966796875 417.3330078125 -120.9111328125 423.59765625 -111.3515625C427.3095703125 -105.6845703125 441.2451171875 -96.5830078125 452.513671875 -92.4638671875C465.888671875 -87.576171875 493.65625 -88.3173828125 512.9677734375 -94.083984375C542.857421875 -103.0087890625 560.91796875 -114.0341796875 587.3662109375 -139.4951171875C598.009765625 -149.7451171875 601.1650390625 -158.4755859375 601.1650390625 -177.6875C601.1650390625 -194.5009765625 597.3603515625 -204.7197265625 584.994140625 -221.123046875C568.0244140625 -243.6337890625 556.501953125 -261.8759765625 545.7353515625 -283.2861328125C539.9287109375 -294.8349609375 533.8447265625 -306.9306640625 532.2177734375 -310.1650390625C518.685546875 -337.0673828125 491.7109375 -449.15625 487.96484375 -494.041015625C486.7412109375 -508.7001953125 481.23828125 -520.3115234375 470.205078125 -531.5185546875C454.7529296875 -547.2177734375 440.2294921875 -550.7685546875 424.271484375 -542.75390625C387.1865234375 -524.1259765625 366.2001953125 -491.8779296875 336.3681640625 -407.662109375C326.72265625 -380.4345703125 317.66796875 -353.6826171875 316.2529296875 -348.2138671875C307.3798828125 -313.9755859375 261.9892578125 -189.2294921875 249.267578125 -164.125C237.8349609375 -141.5634765625 224.8125 -132.3173828125 207.3603515625 -134.3681640625C190.8271484375 -136.3134765625 179.8212890625 -141.8232421875 165.873046875 -155.142578125C148.017578125 -172.19140625 134.916015625 -176.197265625 119.8466796875 -169.2177734375C102.1826171875 -161.0419921875 95.17578125 -142.5673828125 100.6611328125 -118.6455078125C103.65234375 -105.5986328125 113.57421875 -87.3408203125 123.4931640625 -76.625C134.400390625 -64.8466796875 144.4150390625 -58.455078125 156.6103515625 -55.4951171875Z"/>
</svg>