<svg xmlns="http://www.w3.org/2000/svg" viewBox="0 -1000 1000 1000">
	<path fill="#9b6f01" d="M362.2216796875 -255.8076171875C350.6552734375 -253.685546875 350.4501953125 -253.6689453125 349.390625 -254.7275390625C348.95703125 -255.1650390625 333.521484375 -256.2529296875 315.091796875 -257.1513671875C244.63671875 -260.576171875 200.8115234375 -273.3388671875 191.0263671875 -293.2724609375C188.0732421875 -299.2919921875 187.9736328125 -301.3046875 189.720703125 -320.1201171875C190.759765625 -331.3076171875 192.072265625 -348.0185546875 192.642578125 -357.2607421875C193.2138671875 -366.4990234375 195.0625 -379.3505859375 196.7548828125 -385.8212890625C198.4462890625 -392.2880859375 201.423828125 -412.3203125 203.3720703125 -430.33984375C210.54296875 -496.703125 211.2841796875 -500.3916015625 220.62890625 -515.9697265625C225.00390625 -523.267578125 228.083984375 -526.1552734375 235.55859375 -529.9736328125C244.63671875 -534.6083984375 246.2265625 -534.8369140625 280.078125 -536.3173828125C320.90234375 -538.1015625 352.6650390625 -540.357421875 373.9794921875 -542.9794921875C390.7724609375 -545.046875 425.2080078125 -542.982421875 446.2216796875 -538.6513671875C472.359375 -533.26171875 493.44140625 -517.7197265625 500.6123046875 -498.5517578125C502.4443359375 -493.654296875 505.9716796875 -477.6279296875 508.44921875 -462.93359375C512.9169921875 -436.46484375 512.947265625 -435.6611328125 512.048828125 -375.7373046875C510.85546875 -296.3447265625 508.548828125 -284.091796875 492.1318359375 -270.0400390625C479.6943359375 -259.3974609375 474.10546875 -258.4638671875 420.1806640625 -258.0361328125C393.8486328125 -257.828125 367.765625 -256.8271484375 362.2216796875 -255.8076171875ZM521.4306640625 38.44140625C525.3408203125 40.2158203125 531.3466796875 41.681640625 534.7783203125 41.7060546875C551.5224609375 41.8046875 574.2587890625 26.1884765625 581.3408203125 9.7236328125C589.263671875 -8.685546875 595.9462890625 -49.3896484375 598.2666015625 -93.3388671875C599.1484375 -110.0595703125 600.2666015625 -129.0322265625 600.7451171875 -135.4990234375C601.2265625 -141.9658203125 601.72265625 -196.7763671875 601.8486328125 -257.2978515625C602.078125 -366.4375 599.7294921875 -465.298828125 596.60546875 -478.21875C595.7138671875 -481.9130859375 594.951171875 -489.4736328125 594.9208984375 -495.0185546875C594.8349609375 -509.4658203125 584.5673828125 -551.322265625 576.2822265625 -571.0068359375C570.4443359375 -584.873046875 567.361328125 -589.7265625 558.7041015625 -598.6884765625C549.0068359375 -608.7236328125 546.419921875 -610.31640625 524.9306640625 -619.4521484375C502.62890625 -628.9345703125 500.751953125 -629.4296875 479.8203125 -631.3193359375C435.404296875 -635.3291015625 411.7109375 -637.0107421875 374.8203125 -638.767578125C354.0322265625 -639.7587890625 329.83984375 -640.9658203125 321.0595703125 -641.447265625C301.4091796875 -642.52734375 285.1396484375 -640.4462890625 238.7412109375 -630.90625C198.962890625 -622.73046875 192.4853515625 -620.255859375 167.14453125 -603.5458984375C147.802734375 -590.7900390625 132.380859375 -574.3115234375 124.1162109375 -557.5703125C112.8056640625 -534.65625 107.97265625 -510.6005859375 103.625 -455.5400390625C102.203125 -437.5205078125 100.193359375 -412.83984375 99.158203125 -400.6884765625C98.1259765625 -388.5380859375 97.8251953125 -376.1142578125 98.4912109375 -373.08203125C99.158203125 -370.046875 100.4228515625 -293.8017578125 101.3046875 -203.6494140625C102.1826171875 -113.5009765625 103.037109375 -30.6669921875 103.201171875 -19.5791015625C103.4580078125 -2.3037109375 104.03515625 1.58203125 107.2412109375 7.5810546875C111.462890625 15.47265625 118.462890625 21.1298828125 125.8349609375 22.6025390625C136.861328125 24.810546875 157.0546875 9.9013671875 164.84765625 -6.1943359375C172.4150390625 -21.8310546875 178.0615234375 -70.9912109375 175.064453125 -95.2041015625C173.419921875 -108.50390625 173.615234375 -112.509765625 176.69140625 -128.8818359375C180.8984375 -151.2626953125 184.9658203125 -159.212890625 195.1103515625 -164.8935546875C202.0146484375 -168.7587890625 204.318359375 -169.1005859375 223.6201171875 -169.0810546875C242.1005859375 -169.0673828125 245.4677734375 -168.6162109375 251.6640625 -165.3173828125C259.771484375 -161.00390625 265.6640625 -153.9052734375 270.8251953125 -142.2392578125C273.65234375 -135.8505859375 274.7490234375 -128.8447265625 275.8125 -110.4111328125C277.298828125 -84.6083984375 279.9345703125 -62.9599609375 282.6240234375 -54.4658203125C283.5673828125 -51.478515625 286.3671875 -47.595703125 288.841796875 -45.8349609375C294.802734375 -41.59375 309.8857421875 -37.21875 318.5439453125 -37.21875C325.810546875 -37.21875 352.453125 -42.4658203125 359.69921875 -45.3193359375C373.634765625 -50.8154296875 379.2197265625 -65.5986328125 383.287109375 -107.779296875C386.0791015625 -136.7529296875 391.978515625 -148.8330078125 406.45703125 -155.2373046875C412.759765625 -158.0263671875 416.1748046875 -158.43359375 425.9599609375 -157.5693359375C440.1142578125 -156.3173828125 451.0517578125 -153.1533203125 462.2109375 -147.0791015625C474.90234375 -140.1748046875 483.6142578125 -125.29296875 488.451171875 -102.26953125C490.4677734375 -92.6552734375 490.8916015625 -80.025390625 490.4912109375 -41.3857421875C489.99609375 6.462890625 490.0576171875 7.4775390625 493.7109375 13.3916015625C498.9853515625 21.9228515625 513.056640625 34.6376953125 521.4306640625 38.44140625Z"/>
</svg>