<svg xmlns="http://www.w3.org/2000/svg" viewBox="0 -1000 1000 1000">
	<path fill="#3c9202" d="M306.99609375 -397.74609375C312.0751953125 -396.283203125 321.580078125 -395.708984375 334.8623046875 -396.072265625C368.6630859375 -396.994140625 394.095703125 -407.23828125 420.705078125 -430.640625C437.9658203125 -445.82421875 449.9287109375 -462.23046875 475.0576171875 -505.1875C508.40625 -562.2021484375 514.5107421875 -584.62109375 502.03515625 -604.291015625C494.6455078125 -615.939453125 481.1240234375 -619.986328125 464.76953125 -615.443359375C449.3916015625 -611.171875 411.3125 -575.416015625 380.7314453125 -536.537109375C349.48828125 -496.81640625 337.853515625 -492.1640625 313.4521484375 -509.63671875C299.845703125 -519.3818359375 285.28125 -539.74609375 271.41796875 -568.40625C255.8046875 -600.681640625 249.9736328125 -609.3701171875 240.998046875 -613.71484375C229.1240234375 -619.462890625 222.3056640625 -618.185546875 211.798828125 -608.2421875C200.546875 -597.591796875 196.4931640625 -577.248046875 199.521484375 -546.6162109375C204.91796875 -491.9970703125 222.9208984375 -457.232421875 263.0615234375 -423.904296875C279.56640625 -410.1982421875 294.359375 -401.3935546875 306.99609375 -397.74609375ZM302.5830078125 -192.89453125C324.6083984375 -186.013671875 366.673828125 -194.158203125 401.2294921875 -212C419.416015625 -221.3896484375 457.564453125 -250.0869140625 475.2626953125 -267.685546875C490.25 -282.595703125 498.0634765625 -295.3955078125 511.8349609375 -327.5927734375C522.51953125 -352.568359375 525.810546875 -363.361328125 528.7744140625 -383.138671875C533.8603515625 -417.091796875 528.2236328125 -435.7373046875 512.876953125 -435.7373046875C504.2158203125 -435.7373046875 499.90234375 -430.4462890625 476.69140625 -391.35546875C457.4619140625 -358.9697265625 454.375 -354.728515625 437.34375 -337.2724609375C421.046875 -320.5654296875 417.177734375 -317.5302734375 404.5859375 -311.544921875C389.091796875 -304.1865234375 370.89453125 -299.658203125 356.8095703125 -299.658203125C342.5703125 -299.658203125 316.56640625 -307.15625 296.2255859375 -317.130859375C279.033203125 -325.55859375 276.5078125 -327.462890625 260.0263671875 -344.42578125C250.28125 -354.455078125 237.4814453125 -369.7294921875 231.58203125 -378.376953125C220.28515625 -394.923828125 213.2822265625 -400.921875 201.0458984375 -404.513671875C191.359375 -407.357421875 184.533203125 -405.369140625 177.8408203125 -397.74609375C171.2783203125 -390.271484375 169.3642578125 -385.46875 169.40234375 -376.408203125C169.4189453125 -367.6650390625 173.2783203125 -359.33203125 194.2333984375 -322.7421875C203.3564453125 -306.8115234375 214.1025390625 -287.728515625 218.111328125 -280.33984375C230.4296875 -257.6337890625 238.0693359375 -247.568359375 259.9921875 -225.15625C281.4091796875 -203.267578125 289.8447265625 -196.8759765625 302.5830078125 -192.89453125ZM304.91796875 16.1796875C311.2236328125 16.9658203125 325.8359375 17.427734375 337.384765625 17.208984375C356.3583984375 16.849609375 359.2158203125 16.380859375 366.998046875 12.3720703125C376.47265625 7.4912109375 399.5234375 -10.220703125 403.16015625 -15.416015625C404.4287109375 -17.224609375 414.0810546875 -28.263671875 424.6083984375 -39.947265625C458.9111328125 -78.0126953125 465.654296875 -88.44140625 476.841796875 -120.7373046875C489.419921875 -157.060546875 488.8759765625 -182.517578125 475.375 -189.5C461.1767578125 -196.841796875 449.716796875 -189.3154296875 418.01171875 -151.81640625C389.2939453125 -117.859375 372.826171875 -104.580078125 347.1435546875 -94.67578125C324.22265625 -85.8359375 305.0712890625 -86.232421875 293.7275390625 -95.775390625C290.8837890625 -98.16796875 285.021484375 -105.140625 280.705078125 -111.2734375C276.384765625 -117.4013671875 269.7197265625 -126.19921875 265.8876953125 -130.81640625C262.0595703125 -135.4375 254.5302734375 -145.64453125 249.1640625 -153.498046875C223.6728515625 -190.78515625 211.357421875 -194.220703125 195.9765625 -168.3291015625C190.0947265625 -158.427734375 188.7099609375 -154.455078125 188.1669921875 -145.896484375C187.41796875 -134.166015625 191.5166015625 -115.544921875 198.93359375 -96.986328125C204.548828125 -82.923828125 226.57421875 -44.943359375 238.2265625 -29.228515625C257.8388671875 -2.7734375 281.3779296875 13.25390625 304.91796875 16.1796875Z"/>
</svg>