<svg xmlns="http://www.w3.org/2000/svg" viewBox="0 -1000 1000 1000">
	<path fill="#9b6f01" d="M320.1396484375 -89.6689453125C283.259765625 -85.642578125 267.646484375 -86.66796875 245.37890625 -94.583984375C239.8349609375 -96.552734375 230.763671875 -99.3349609375 225.2197265625 -100.7666015625C219.67578125 -102.1962890625 212.6484375 -104.5400390625 209.6064453125 -105.97265625C199.33203125 -110.8154296875 199.236328125 -111.4990234375 199.0244140625 -180.6689453125C198.9111328125 -217.2724609375 199.5712890625 -248.228515625 200.6064453125 -255.0400390625C201.5908203125 -261.5244140625 201.9365234375 -275.01171875 201.37890625 -285.3720703125C199.90234375 -312.9580078125 199.0380859375 -311.201171875 240.958984375 -366.0087890625C262.875 -394.6572265625 288.7216796875 -424.19921875 315.1220703125 -450.7666015625C325.6669921875 -461.373046875 343.5322265625 -471.3701171875 366.0537109375 -479.255859375C398.244140625 -490.5244140625 413.45703125 -484.3486328125 436.015625 -450.8486328125C440.0595703125 -444.84375 447.63671875 -434.6376953125 452.849609375 -428.1669921875C469.884765625 -407.0380859375 508.7158203125 -352.7470703125 512.3291015625 -345.0087890625C515.5078125 -338.2001953125 515.818359375 -334.8642578125 515.4462890625 -311.4091796875C515.216796875 -297.0888671875 514.154296875 -275.9169921875 513.083984375 -264.3681640625C512.0146484375 -252.8193359375 511.146484375 -240.72265625 511.1533203125 -237.4892578125C511.1630859375 -234.255859375 510.5380859375 -219.1181640625 509.765625 -203.8525390625C508.0595703125 -170.2275390625 504.9970703125 -157.1435546875 492.5458984375 -130.3359375C487.517578125 -119.5078125 482.9140625 -108.966796875 482.3125 -106.9130859375C480.9111328125 -102.1201171875 473.96875 -97.1953125 465.4443359375 -94.9501953125C461.681640625 -93.955078125 431.8154296875 -92.79296875 397.419921875 -92.2978515625C363.69140625 -91.80859375 328.9169921875 -90.6298828125 320.1396484375 -89.6689453125ZM194.1396484375 16.6748046875C199.22265625 16.9443359375 210.5595703125 16.9404296875 219.3408203125 16.6748046875C228.1181640625 16.4072265625 270.83203125 15.8056640625 314.2578125 15.337890625C381.099609375 14.6201171875 397.6015625 13.9404296875 421.7802734375 10.9189453125C440.326171875 8.6005859375 461.53125 7.244140625 482.2578125 7.052734375C512.49609375 6.7685546875 514.7109375 6.5224609375 524.2578125 2.41796875C553.935546875 -10.3349609375 576.7646484375 -21.4912109375 582.513671875 -26.0400390625C590.9521484375 -32.7255859375 596.6533203125 -42.78125 598.8408203125 -54.83984375C601.5615234375 -69.8271484375 603.91015625 -115.583984375 605.974609375 -193.8076171875C608.25390625 -280.2890625 609.556640625 -309.3076171875 612.3486328125 -335.9365234375C614.365234375 -355.1767578125 614.287109375 -356.9716796875 610.8857421875 -369.3681640625C606.9931640625 -383.5556640625 604.3134765625 -388.1630859375 592.001953125 -401.8154296875C578.794921875 -416.4609375 548.849609375 -457.2099609375 543.4873046875 -467.8291015625C536.5830078125 -481.5087890625 513.166015625 -517.9638671875 501.5244140625 -533.1572265625C486.779296875 -552.4072265625 437.359375 -598.8876953125 422.1904296875 -607.7783203125C411.6220703125 -613.9677734375 395.2021484375 -617.7275390625 383.1640625 -616.7099609375C361.4189453125 -614.8701171875 336.3408203125 -600.470703125 317.3095703125 -578.896484375C311.013671875 -571.7626953125 293.845703125 -553.4560546875 279.1552734375 -538.208984375C264.46484375 -522.9619140625 245.0712890625 -501.7939453125 236.0615234375 -491.1669921875C217.8125 -469.64453125 212.015625 -463.916015625 178.177734375 -433.9609375C144.1865234375 -403.8662109375 109.271484375 -369.3173828125 100.521484375 -357.1181640625C87.6494140625 -339.1669921875 86.7509765625 -334.033203125 86.357421875 -276.4306640625C86.1728515625 -248.9013671875 86.5458984375 -225.5263671875 87.1884765625 -224.4873046875C87.8310546875 -223.4521484375 89.150390625 -203.0810546875 90.1240234375 -179.2236328125C96.5400390625 -21.8701171875 97.544921875 -12.771484375 109.8662109375 -0.521484375C121.6416015625 11.1845703125 132.955078125 13.4951171875 194.1396484375 16.6748046875Z"/>
</svg>