<svg xmlns="http://www.w3.org/2000/svg" viewBox="0 -1000 1000 1000">
	<path fill="#03868b" d="M397.375 -148.1181640625C410.4248046875 -142.19140625 422.9482421875 -144.4609375 432.201171875 -154.427734375C444.423828125 -167.59375 447.2265625 -180.14453125 448.8330078125 -228.9189453125C451.0029296875 -294.7763671875 456.73828125 -316.2138671875 474.8125 -326.064453125C478.99609375 -328.34375 485.576171875 -328.81640625 513.453125 -328.8466796875L547.0546875 -328.880859375L564.3330078125 -335.064453125C584.35546875 -342.2314453125 594.9443359375 -349.228515625 603.2294921875 -360.759765625C608.3046875 -367.8251953125 609.2314453125 -370.583984375 609.7783203125 -380.2939453125C610.3388671875 -390.19921875 609.8330078125 -392.673828125 605.6865234375 -400.2890625C593.94921875 -421.853515625 569.6748046875 -435.982421875 530.255859375 -444.1962890625C504.0126953125 -449.6650390625 482.9033203125 -450.8681640625 443.7333984375 -449.134765625C434.9560546875 -448.74609375 414.0751953125 -449.34765625 397.3310546875 -450.4716796875C374.423828125 -452.013671875 362.365234375 -452.0576171875 348.611328125 -450.6494140625C281.6806640625 -443.806640625 258.25390625 -443.619140625 229.5361328125 -449.685546875C188.390625 -458.380859375 163.3876953125 -456.7880859375 137.732421875 -443.837890625C116.9345703125 -433.337890625 94.970703125 -406.669921875 91.15625 -387.283203125C87.734375 -369.9033203125 92.0888671875 -358.29296875 104.7802734375 -350.9267578125C115.1435546875 -344.91796875 128.26171875 -343.11328125 154.466796875 -344.0908203125C182.0498046875 -345.119140625 191.658203125 -342.7265625 197.9951171875 -333.251953125C203.9658203125 -324.32421875 203.8154296875 -321.9150390625 192.3720703125 -243.19921875C186.94140625 -205.8408203125 186.4833984375 -200.15625 188.2333984375 -191.765625C192.560546875 -171.01171875 207.212890625 -155.576171875 226.3642578125 -151.6015625C239.4140625 -148.890625 245.7265625 -150.4697265625 252.6923828125 -158.1806640625C265.1650390625 -171.9892578125 274.560546875 -193.3515625 277.5205078125 -214.65234375C279.28125 -227.30859375 276.1640625 -271.646484375 272.3017578125 -288.8837890625C270.0185546875 -299.072265625 271.501953125 -305.1669921875 277.490234375 -310.205078125C284.486328125 -316.09375 295.974609375 -317.9638671875 324.955078125 -317.9296875C364.9384765625 -317.884765625 382.859375 -312.3720703125 390.51171875 -297.7568359375C394.3642578125 -290.4013671875 393.3896484375 -271.3017578125 388.1533203125 -251.5078125C382.0556640625 -228.45703125 381.7138671875 -226.82421875 379.05859375 -207.912109375C376.5732421875 -190.2138671875 376.6044921875 -188.8603515625 379.837890625 -176.224609375C384.1611328125 -159.3125 388.68359375 -152.06640625 397.375 -148.1181640625Z"/>
</svg>