<svg xmlns="http://www.w3.org/2000/svg" viewBox="0 -1000 1000 1000">
	<path fill="#9b6f01" d="M358.9248046875 -505.619140625C371.951171875 -502.1767578125 380.7109375 -505.8818359375 398.775390625 -522.4736328125C419.2109375 -541.248046875 423.494140625 -555.9755859375 423.2236328125 -606.517578125L423.0498046875 -638.3486328125L417.0888671875 -650.4150390625C404.8388671875 -675.2021484375 387.5947265625 -683.1142578125 365.56640625 -674.0498046875C346.7060546875 -666.2939453125 340.7109375 -658.7548828125 333.92578125 -634.2783203125C328.9150390625 -616.197265625 328.3271484375 -601.7626953125 331.0654296875 -564.1728515625C333.1123046875 -536.0322265625 334.171875 -528.833984375 337.1904296875 -522.6025390625C341.4697265625 -513.7607421875 348.2919921875 -508.4326171875 358.9248046875 -505.619140625ZM480.7958984375 -492.1904296875C488.0595703125 -488.4912109375 490.7392578125 -488.0126953125 500.1484375 -488.7509765625C519.904296875 -490.2998046875 536.9462890625 -497.0439453125 559.51171875 -512.236328125C582.525390625 -527.7373046875 585.802734375 -531.869140625 596.8154296875 -559.2978515625C603.740234375 -576.5517578125 605.626953125 -589.673828125 602.7255859375 -600.4033203125C600.0556640625 -610.2666015625 590.6259765625 -620.3671875 581.865234375 -622.7431640625C573.6552734375 -624.9677734375 556.5654296875 -623.7236328125 548.373046875 -620.298828125C540.9833984375 -617.2119140625 522.2080078125 -599.5146484375 503.54296875 -578.0458984375C484.265625 -555.8701171875 477.3134765625 -545.9443359375 471.478515625 -532.2685546875C462.8173828125 -511.9658203125 465.6171875 -499.9150390625 480.7958984375 -492.1904296875ZM230.8466796875 -451.84765625C239.3369140625 -448.6826171875 254.0927734375 -449.8857421875 263.095703125 -454.4794921875C273.3662109375 -459.7197265625 275.646484375 -466.0966796875 274.2001953125 -485.5380859375C271.8662109375 -516.9228515625 264.99609375 -537.3037109375 251.515625 -552.8447265625C247.509765625 -557.4658203125 237.115234375 -570.1337890625 228.4169921875 -580.9951171875C210.5068359375 -603.3623046875 200.4404296875 -611.439453125 175.3798828125 -623.5556640625C161.80078125 -630.1220703125 157.3779296875 -631.4658203125 148.8740234375 -631.6220703125C139.666015625 -631.7900390625 138.2744140625 -631.345703125 134.607421875 -627.09375C129.4873046875 -621.146484375 129.5107421875 -617.0009765625 134.7470703125 -603.0859375C137.0576171875 -596.947265625 138.9482421875 -589.0751953125 138.9482421875 -585.5927734375C138.9482421875 -567.5009765625 164.3916015625 -507.7861328125 179.21875 -491.0751953125C192.162109375 -476.4912109375 218.5732421875 -456.4248046875 230.8466796875 -451.84765625ZM456.53515625 -37.26171875C446.326171875 -34.2294921875 401.4716796875 -33.7890625 383.3876953125 -36.5400390625C377.84375 -37.384765625 353.6513671875 -38.314453125 329.6259765625 -38.6083984375C283.927734375 -39.162109375 269.3642578125 -40.8134765625 245.55078125 -48.1376953125C235.79296875 -51.1357421875 232.31640625 -53.2880859375 224.4384765625 -61.2080078125C213.7880859375 -71.9169921875 209.046875 -82.4267578125 205.9404296875 -102.2236328125C203.58203125 -117.2392578125 205.0615234375 -182.5283203125 208.4423828125 -212.6474609375C212.947265625 -252.7822265625 216.0537109375 -256.9892578125 249.0205078125 -267.6259765625C284.068359375 -278.9326171875 311.5693359375 -283.9873046875 352.3076171875 -286.609375C364.783203125 -287.4130859375 384.4365234375 -289.2373046875 395.9892578125 -290.6630859375C424.560546875 -294.1943359375 434.80078125 -293.9677734375 464.0859375 -289.1591796875C502.421875 -282.8701171875 509.3125 -279.8076171875 516.3427734375 -265.9580078125C520.7900390625 -257.1904296875 520.8037109375 -257.0400390625 521.5380859375 -210.0126953125C522.201171875 -167.6708984375 521.9111328125 -160.6396484375 518.705078125 -141.1298828125C514.2578125 -114.0771484375 510.0400390625 -99.6162109375 501.861328125 -83.3701171875C488.353515625 -56.5419921875 474.705078125 -42.6591796875 456.53515625 -37.26171875ZM225.466796875 76.2939453125C254.25 78.1357421875 278.212890625 78.1455078125 296.2705078125 76.3173828125C306.9619140625 75.2373046875 329.1953125 75.1787109375 359.02734375 76.1572265625C415.560546875 78.0087890625 466.3037109375 76.0439453125 485.8681640625 71.2412109375C500.5625 67.6357421875 548.5810546875 44.7392578125 567.349609375 32.3896484375C588.7080078125 18.3349609375 602.4892578125 0.3359375 607.4794921875 -20.0244140625C610.40234375 -31.9462890625 612.6201171875 -80.875 612.66796875 -134.4482421875C612.7158203125 -190.5712890625 611.22265625 -209.3701171875 599.283203125 -303.111328125C591.8046875 -361.8115234375 591.3671875 -363.4970703125 577.4970703125 -387.2509765625C568.80859375 -402.123046875 563.494140625 -405.0693359375 530.2236328125 -413.4462890625C475.8671875 -427.1357421875 463.7333984375 -428.60546875 425.3876953125 -426.1513671875C409.6787109375 -425.146484375 380.5947265625 -423.533203125 360.75390625 -422.5732421875C334.9619140625 -421.3212890625 316.525390625 -419.404296875 296.072265625 -415.849609375C280.3388671875 -413.115234375 255.6787109375 -408.9970703125 241.271484375 -406.6962890625C189.1064453125 -398.3662109375 156.3212890625 -385.689453125 137.0576171875 -366.3916015625C128.95703125 -358.27734375 126.701171875 -353.9814453125 120.2822265625 -334.447265625C116.26953125 -322.2353515625 115.01171875 -313.5126953125 112.1611328125 -278.1669921875C110.5 -257.59765625 103.9140625 -212.3505859375 97.005859375 -174.0830078125C93.5234375 -154.7880859375 91.8486328125 -136.8310546875 88.341796875 -81.0498046875C85.9287109375 -42.7548828125 87.5830078125 -27.8076171875 96.0966796875 -10.8408203125C111.775390625 20.3955078125 138.4794921875 48.40625 165.4541015625 61.9033203125C179.3896484375 68.873046875 204.822265625 74.970703125 225.466796875 76.2939453125Z"/>
</svg>