<svg xmlns="http://www.w3.org/2000/svg" viewBox="0 -1000 1000 1000">
	<path fill="#854e28" d="M24.4599609375 -330.6025390625C19.931640625 -313.7861328125 22.43359375 -284.0361328125 30.4072265625 -259.9189453125C34.9052734375 -246.3125 52.962890625 -208.998046875 64.7177734375 -189.0302734375C77.9755859375 -166.49609375 108.8193359375 -132.9111328125 139.4755859375 -107.6142578125C177.609375 -76.15234375 190.5361328125 -70.998046875 208.2685546875 -80.1953125C222.2236328125 -87.431640625 224.3369140625 -91.3720703125 224.2001953125 -109.8603515625C224.0224609375 -134.0390625 218.2080078125 -152.76953125 199.34765625 -189.95703125C173.166015625 -241.5751953125 173.3642578125 -255.3427734375 200.3564453125 -260.4111328125C209.109375 -262.0517578125 217.5068359375 -261.7890625 250.3544921875 -258.845703125C299.9697265625 -254.3955078125 369.3056640625 -246.3876953125 395.67578125 -242.0634765625C406.763671875 -240.2451171875 427.5556640625 -237.9619140625 441.8759765625 -236.98828125C456.1982421875 -236.013671875 479.2548828125 -233.9970703125 493.115234375 -232.5068359375C530.3642578125 -228.5009765625 602.8251953125 -228.4462890625 621.1826171875 -232.408203125C649.58984375 -238.5400390625 665.9619140625 -248.08984375 673.6181640625 -262.98828125C677.1826171875 -269.9267578125 677.890625 -273.5361328125 677.7705078125 -284.2041015625C677.5185546875 -306.892578125 667.1552734375 -320.1953125 641.796875 -330.376953125C624.1708984375 -337.4560546875 605.83984375 -338.337890625 508.236328125 -336.806640625C460.1865234375 -336.05078125 413.6953125 -335.5419921875 404.9150390625 -335.671875C287.09375 -337.431640625 228.5341796875 -339.3662109375 218.8232421875 -341.8203125C188.751953125 -349.4150390625 174.697265625 -366.12890625 184.650390625 -382.4501953125C191.8525390625 -394.2626953125 223.2021484375 -416.1513671875 267.4443359375 -440.2646484375C283.0673828125 -448.779296875 300.5302734375 -464.1328125 306.8427734375 -474.90625C319.9580078125 -497.287109375 308.3095703125 -520.6552734375 282.5107421875 -523.7109375C271.3876953125 -525.02734375 247.2470703125 -519.0625 234.990234375 -511.970703125C229.9072265625 -509.03125 219.896484375 -503.2236328125 212.7353515625 -499.064453125C205.5751953125 -494.908203125 193.1572265625 -486.52734375 185.1357421875 -480.443359375C177.1171875 -474.359375 168.6650390625 -468.4013671875 166.3544921875 -467.205078125C140.7939453125 -453.9609375 87.3818359375 -414.3740234375 59.9462890625 -388.3388671875C44.6708984375 -373.8466796875 29.4267578125 -349.04296875 24.4599609375 -330.6025390625Z"/>
</svg>