<svg xmlns="http://www.w3.org/2000/svg" viewBox="0 -1000 1000 1000">
	<path fill="#3c9202" d="M512.9453125 -532.32421875C523.646484375 -529.439453125 527.51953125 -529.5654296875 542.0322265625 -533.27734375C560.2119140625 -537.92578125 571.1123046875 -544.046875 583.7958984375 -556.7314453125C596.20703125 -569.142578125 602.6015625 -580.2880859375 606.2900390625 -595.935546875C609.560546875 -609.8125 609.451171875 -617.1953125 605.71875 -634.2783203125C599.8369140625 -661.205078125 593.2841796875 -667.685546875 565.16796875 -674.40234375L551.6259765625 -677.634765625L534.4443359375 -673.52734375C524.9931640625 -671.263671875 515.16015625 -668.5703125 512.5927734375 -667.53515625C505.44921875 -664.66015625 487.3720703125 -644.064453125 481.46875 -632.07421875C470.548828125 -609.89453125 467.1103515625 -579.724609375 473.8330078125 -565.1015625C480.9013671875 -549.7314453125 496.3232421875 -536.8046875 512.9453125 -532.32421875ZM189.6630859375 -531.6640625C201.3935546875 -528.6494140625 238.8310546875 -531.818359375 250.9814453125 -536.8525390625C270.3955078125 -544.8984375 284.7412109375 -559.71875 295.9345703125 -583.2890625C301.291015625 -594.572265625 302.12109375 -597.9248046875 302.052734375 -608.12109375C301.95703125 -623.29296875 297.2470703125 -633.505859375 284.611328125 -645.947265625C273.916015625 -656.478515625 260.0322265625 -663.884765625 246.1484375 -666.46484375C237.7236328125 -668.0341796875 234.8486328125 -667.744140625 221.5361328125 -663.9765625C212.4443359375 -661.4033203125 204.271484375 -660.060546875 200.939453125 -660.58984375C196.8857421875 -661.232421875 192.5546875 -660.056640625 184.6318359375 -656.15625C164.50390625 -646.248046875 151.0849609375 -626.109375 146.6279296875 -599.12109375C144.908203125 -588.712890625 145.0791015625 -586.29296875 148.2578125 -575.9814453125C156.095703125 -550.568359375 168.724609375 -537.046875 189.6630859375 -531.6640625ZM312.5908203125 75.8251953125C317.26953125 77.1376953125 326.1328125 77.8759765625 333.5361328125 77.564453125C357.21875 76.5771484375 372.8359375 64.962890625 386.94140625 37.84765625C390.810546875 30.41015625 395.6953125 23.19921875 397.7900390625 21.82421875C399.8857421875 20.4541015625 411.3701171875 17.767578125 423.30859375 15.8603515625C435.2509765625 13.94921875 455.8408203125 10.169921875 469.0615234375 7.458984375C482.2822265625 4.751953125 496.2685546875 2.4921875 500.1416015625 2.4453125C514.4521484375 2.263671875 538.1796875 -3.49609375 545.5185546875 -8.568359375C559.0703125 -17.943359375 566.794921875 -42.5625 561.7880859375 -60.4423828125C558.98828125 -70.443359375 548.70703125 -81.9072265625 537.783203125 -87.2119140625C524.6484375 -93.5859375 498.3193359375 -99.978515625 478.998046875 -101.4853515625C469.55078125 -102.2236328125 449.58984375 -102.458984375 434.6396484375 -102.0078125L407.4599609375 -101.19140625L408.40625 -127.02734375C408.9296875 -141.240234375 409.6201171875 -153.16796875 409.94140625 -153.541015625C410.265625 -153.91015625 420.5576171875 -154.8056640625 432.814453125 -155.533203125C445.07421875 -156.2578125 460.7734375 -157.6767578125 467.701171875 -158.681640625C480.05078125 -160.4765625 517.794921875 -171.201171875 533.7060546875 -177.435546875C538.12890625 -179.1689453125 544.1748046875 -180.5908203125 547.1455078125 -180.62890625C560.3828125 -180.724609375 589.4423828125 -197.95703125 594.8056640625 -208.8916015625C597.0341796875 -213.4306640625 597.8203125 -218.9609375 597.7822265625 -230.1484375C597.7412109375 -248.775390625 592.59765625 -263.466796875 584.462890625 -268.18359375C578.3134765625 -271.748046875 560.2021484375 -274.095703125 521.462890625 -276.3486328125C505.2919921875 -277.2890625 485.6357421875 -278.693359375 477.7841796875 -279.46875C469.9296875 -280.248046875 453.2978515625 -280.3271484375 440.822265625 -279.646484375C428.3505859375 -278.962890625 417.89453125 -278.6318359375 417.59375 -278.9052734375C417.29296875 -279.1787109375 418.6123046875 -290.998046875 420.5263671875 -305.171875C422.4404296875 -319.349609375 424.447265625 -334.34765625 424.9833984375 -338.5078125C426.443359375 -349.755859375 429.1396484375 -352.8291015625 439.431640625 -354.9755859375C467.30859375 -360.783203125 494.54296875 -367.669921875 513.0615234375 -373.603515625C526.20703125 -377.810546875 542.705078125 -381.5673828125 557.1669921875 -383.642578125C584.0419921875 -387.5009765625 590.7822265625 -390.62109375 595.4169921875 -401.353515625C599.4541015625 -410.708984375 601.1181640625 -428.80078125 598.75 -437.5947265625C596.234375 -446.943359375 585.6865234375 -458.126953125 574.765625 -463.0244140625C566.2685546875 -466.8359375 564.2724609375 -466.982421875 513.7109375 -467.556640625C472.03515625 -468.03125 457.765625 -467.6044921875 443.3212890625 -465.4580078125C433.3544921875 -463.978515625 424.89453125 -463.076171875 424.5185546875 -463.451171875C424.142578125 -463.82421875 423.1005859375 -478.384765625 422.1982421875 -495.802734375C419.958984375 -539.138671875 413.642578125 -568.609375 402.978515625 -585.466796875C393.234375 -600.87109375 379.58984375 -605.3515625 360.06640625 -599.55859375C342.7060546875 -594.408203125 338.8232421875 -589.068359375 330.8798828125 -559.4248046875C328.4052734375 -550.185546875 324.1572265625 -536.5791015625 321.443359375 -529.185546875C318.7294921875 -521.79296875 315.3623046875 -510.076171875 313.9580078125 -503.1484375C309.234375 -479.8134765625 304.47265625 -466.0869140625 300.115234375 -463.232421875C297.44921875 -461.482421875 289.3828125 -460.0849609375 276.4658203125 -459.125C265.685546875 -458.32421875 244.388671875 -455.8330078125 229.14453125 -453.587890625C206.4423828125 -450.2412109375 197.75 -449.6875 181.1494140625 -450.525390625C147.095703125 -452.244140625 136.7841796875 -447.318359375 130.7138671875 -426.44140625C123.7001953125 -402.318359375 134.125 -385.611328125 168.0888671875 -366.548828125C190.5419921875 -353.947265625 199.8896484375 -351.919921875 242.7412109375 -350.365234375C261.7685546875 -349.673828125 278.212890625 -348.5703125 279.279296875 -347.9072265625C280.3486328125 -347.248046875 281.220703125 -344.294921875 281.220703125 -341.34765625C281.220703125 -336.384765625 275.8544921875 -291.712890625 273.5947265625 -277.8388671875L272.607421875 -271.771484375L254.146484375 -270.603515625C207.07421875 -267.6259765625 178.5517578125 -258.8486328125 160.2314453125 -241.71484375C149.037109375 -231.2421875 144.4267578125 -220.009765625 145.705078125 -206.3212890625C147.38671875 -188.3154296875 153.7265625 -179.896484375 175.0654296875 -167.3291015625C192.609375 -156.9931640625 200.5595703125 -155.38671875 234.130859375 -155.38671875H264.4208984375V-127.0859375C264.4208984375 -93.052734375 265.1494140625 -94.2666015625 242.5908203125 -90.619140625C234.0146484375 -89.232421875 226.4306640625 -87.748046875 225.740234375 -87.3212890625C225.0498046875 -86.89453125 212.8681640625 -84.6689453125 198.669921875 -82.37890625C172.255859375 -78.11328125 165.0166015625 -76.0830078125 140.1025390625 -65.94140625C106.8525390625 -52.40625 99.3779296875 -47.669921875 94.568359375 -37.0771484375C87.44921875 -21.40625 92.015625 -7.9765625 109.9833984375 8.251953125C127.767578125 24.3125 127.0869140625 24.18359375 198.1328125 25.1162109375C232.2822265625 25.564453125 262.869140625 26.548828125 266.1025390625 27.306640625C271.458984375 28.55859375 272.80859375 30.24609375 281.271484375 46.22265625C291.556640625 65.646484375 297.982421875 71.720703125 312.5908203125 75.8251953125Z"/>
</svg>