<svg xmlns="http://www.w3.org/2000/svg" viewBox="0 -1000 1000 1000">
	<path fill="#03868b" d="M217.1240234375 -37.7099609375C224.427734375 -35.888671875 228.1162109375 -35.916015625 235.0478515625 -37.8408203125C247.2392578125 -41.2275390625 256.76171875 -52.609375 293.8330078125 -108.0966796875C313.3701171875 -137.3408203125 333.6455078125 -166.5615234375 338.888671875 -173.0283203125C344.1357421875 -179.498046875 352.7216796875 -191.3447265625 357.9716796875 -199.3525390625C363.2216796875 -207.3642578125 369.9375 -215.9541015625 372.89453125 -218.4423828125C377.89453125 -222.6494140625 378.349609375 -222.7490234375 379.412109375 -219.8369140625C380.041015625 -218.1181640625 384.908203125 -204.2333984375 390.23046875 -188.9892578125C402.8251953125 -152.9091796875 408.4580078125 -140.765625 423.189453125 -117.947265625C440.9052734375 -90.5009765625 443.7626953125 -87.2265625 454.3955078125 -82.1982421875C472.5791015625 -73.595703125 494.501953125 -78.7978515625 518.6845703125 -97.4638671875C534.505859375 -109.67578125 578.396484375 -155.53125 588.71484375 -170.6318359375C596.685546875 -182.2939453125 607.19921875 -202.439453125 610.234375 -211.859375C612.7265625 -219.6005859375 612.75 -221.0498046875 610.4638671875 -226.5224609375C604.5537109375 -240.6689453125 586.7939453125 -243.4931640625 566.1123046875 -233.5810546875C552.0947265625 -226.8642578125 537.1484375 -217.0888671875 523.052734375 -205.419921875C509.7939453125 -194.4443359375 504.2060546875 -191.7783203125 494.8818359375 -191.98046875C472.408203125 -192.47265625 446.28515625 -219.994140625 428.658203125 -261.748046875C416.3740234375 -290.85546875 415.728515625 -287.08203125 440.1328125 -328.7373046875C498.0126953125 -427.5400390625 527.9912109375 -488.373046875 531.56640625 -514.2783203125C533.4775390625 -528.1240234375 524.9697265625 -543.634765625 513.5986328125 -547.0419921875C500.982421875 -550.8232421875 495.736328125 -547.544921875 455.6845703125 -510.8798828125C445.32421875 -501.3955078125 440.388671875 -495.2333984375 434.1513671875 -483.9912109375C429.697265625 -475.97265625 419.7685546875 -459.388671875 412.0849609375 -447.1416015625C404.3974609375 -434.8955078125 395.44921875 -419.5869140625 392.1923828125 -413.123046875C388.9384765625 -406.6630859375 383.75 -398.9013671875 380.66015625 -395.8759765625L375.0439453125 -390.3798828125L373.6328125 -396.78515625C372.8564453125 -400.3095703125 369.7119140625 -414.1513671875 366.642578125 -427.5498046875C363.5771484375 -440.9482421875 360.5966796875 -454.9345703125 360.0224609375 -458.6298828125C359.4482421875 -462.3251953125 355.435546875 -477.06640625 351.1044921875 -491.3916015625L343.2294921875 -517.4287109375L327.6474609375 -533.5341796875C319.078125 -542.3935546875 308.4140625 -551.6328125 303.9501953125 -554.0595703125C292.732421875 -560.1669921875 278.271484375 -563.6298828125 264.0009765625 -563.6298828125C254.0654296875 -563.6298828125 250.3671875 -562.802734375 242.9462890625 -558.9267578125C237.9970703125 -556.3427734375 232.1630859375 -551.6162109375 229.982421875 -548.4267578125C226.4375 -543.23828125 226.1064453125 -541.2900390625 226.8544921875 -529.8916015625C227.7880859375 -515.6005859375 231.7900390625 -505.9482421875 239.453125 -499.501953125C247.4853515625 -492.7451171875 262.5791015625 -469.5986328125 268.8515625 -454.4287109375C275.701171875 -437.8662109375 291.8544921875 -404.8515625 318.42578125 -353.1103515625C328.775390625 -332.9580078125 337.2451171875 -314.9521484375 337.2451171875 -313.099609375C337.2451171875 -299.5947265625 269.3056640625 -187.8994140625 253.97265625 -176.1962890625C244.48828125 -168.9541015625 226.27734375 -160.4287109375 220.2958984375 -160.4287109375C207.0986328125 -160.4287109375 200.2216796875 -166.6904296875 177.642578125 -199.2470703125C158.1572265625 -227.3427734375 134.8193359375 -246.1103515625 119.359375 -246.1103515625C98.1513671875 -246.1103515625 87.9248046875 -228.3857421875 87.859375 -191.5087890625C87.8251953125 -172.83984375 88.205078125 -170.3994140625 93.00390625 -158.51171875C103.376953125 -132.7978515625 121.4892578125 -110.7314453125 161.6845703125 -74.8330078125C190.83984375 -48.7919921875 201.61328125 -41.5791015625 217.1240234375 -37.7099609375Z"/>
</svg>