<svg xmlns="http://www.w3.org/2000/svg" viewBox="0 -1000 1000 1000">
	<path fill="#854e28" d="M80.84765625 281.4462890625C95.3232421875 285.3134765625 106 285.3173828125 122 285C144.17578125 284.560546875 189.90625 285.310546875 207 285C241.5283203125 284.373046875 284.7265625 276.521484375 297.8515625 270.24609375C307.0634765625 265.841796875 317.7880859375 254.00390625 323.3115234375 242.15625C332.1474609375 223.193359375 328.4111328125 204.4462890625 310.3232421875 176.990234375C297.072265625 156.875 289.1220703125 149.009765625 277.1728515625 144.1943359375C267.7392578125 140.38671875 265.4794921875 140.2158203125 223.353515625 140.0546875C170.8974609375 139.857421875 167.6611328125 139.228515625 154.01953125 126.5986328125C143.9267578125 117.25390625 122.66015625 90.34765625 117.8916015625 80.88671875C113.841796875 72.8544921875 111.1552734375 56.8857421875 105.5390625 7.5029296875C101.0341796875 -32.1181640625 100.6689453125 -39.3779296875 101.591796875 -70.6181640625C104.1826171875 -158.033203125 100.8837890625 -291.306640625 94.1748046875 -370.4970703125C88.5625 -436.716796875 87.974609375 -447.330078125 88.125 -479.697265625C88.2890625 -514.5849609375 89.87109375 -547.025390625 94.1708984375 -603.60546875C97.271484375 -644.3857421875 98.046875 -650.77734375 102.0390625 -668.341796875C103.7822265625 -676.001953125 105.2080078125 -685.8359375 105.2080078125 -690.193359375C105.2080078125 -694.5546875 105.966796875 -700.76171875 106.896484375 -703.98828125C107.826171875 -707.21875 109.384765625 -716.662109375 110.3623046875 -724.978515625C112.966796875 -747.13671875 114.08203125 -749.916015625 121 -758C128.7021484375 -767 149 -775.6943359375 160 -774C168 -772.7685546875 220.9130859375 -772.119140625 229.9775390625 -774.634765625C237.6982421875 -776.77734375 247.375 -786.1220703125 251.47265625 -795.388671875C256.0498046875 -805.73828125 260.2978515625 -833.638671875 259.3994140625 -847.4404296875C258.1826171875 -866.03125 249.6923828125 -879.06640625 235.8701171875 -883.55859375C223.6953125 -887.5126953125 93.4189453125 -882.92578125 74.2822265625 -877.8671875C49.857421875 -871.41015625 23.4296875 -851.169921875 13.951171875 -831.66015625C11.4833984375 -826.5771484375 5.3486328125 -805.41015625 0.3173828125 -784.6181640625C-7.0078125 -754.345703125 -9.51953125 -740.126953125 -12.2880859375 -713.216796875C-14.1884765625 -694.7392578125 -16.8994140625 -675.458984375 -18.314453125 -670.37890625C-19.7294921875 -665.296875 -21.6533203125 -649.041015625 -22.5869140625 -634.2578125C-23.5234375 -619.4755859375 -25.0166015625 -603.75 -25.90234375 -599.31640625C-28.0654296875 -588.498046875 -27.935546875 -568.892578125 -25.583984375 -550.5390625C-24.0703125 -538.7431640625 -24.12109375 -532.5224609375 -25.8095703125 -521.865234375C-27.78515625 -509.41015625 -29.439453125 -439.1708984375 -29.8876953125 -348.66015625C-30.0380859375 -318.154296875 -27.7548828125 -278.373046875 -23.2802734375 -233.576171875C-21.9443359375 -220.181640625 -20.0400390625 -182.37890625 -19.0556640625 -149.576171875C-17.4052734375 -94.7626953125 -16.6494140625 -85.181640625 -9.697265625 -31.13671875L-2.1337890625 27.662109375L-4.81640625 57.900390625C-8.740234375 102.08203125 -11.1669921875 154.7734375 -10.0869140625 172.41015625C-8.8837890625 192.0732421875 -4.92578125 209.7373046875 1.185546875 222.705078125C6.380859375 233.734375 30.31640625 260.75390625 40.423828125 266.998046875C47.337890625 271.2744140625 60.88671875 276.1142578125 80.84765625 281.4462890625Z"/>
</svg>