<svg xmlns="http://www.w3.org/2000/svg" viewBox="0 -1000 1000 1000">
	<path fill="#854e28" d="M558.552734375 -48.1689453125C573.6455078125 -56.8583984375 592.9130859375 -79.6640625 604.328125 -102.35546875C610.7685546875 -115.1572265625 624.384765625 -154.3115234375 630.1923828125 -176.7421875C636.751953125 -202.05078125 638.6904296875 -247.609375 634.900390625 -287.173828125C630.1826171875 -336.3857421875 624.6865234375 -349.1708984375 605.64453125 -355.2060546875C590.66015625 -359.95703125 586.3798828125 -358.6650390625 573.4033203125 -345.4951171875C556.431640625 -328.2724609375 547.298828125 -310.9169921875 534.33984375 -271.28515625C516.353515625 -216.2724609375 506.4775390625 -206.6767578125 483.8076171875 -222.1796875C476.4580078125 -227.208984375 470.7060546875 -233.33203125 449.560546875 -258.640625C417.6240234375 -296.8701171875 374.2587890625 -351.560546875 358.669921875 -373.2646484375C352.115234375 -382.390625 339.02734375 -398.7080078125 329.58984375 -409.5224609375C320.1513671875 -420.3388671875 305.2744140625 -438.068359375 296.52734375 -448.9228515625C273.0205078125 -478.09375 221.822265625 -529.3701171875 206.0400390625 -539.5498046875C181.6171875 -555.30078125 163.287109375 -560.125 147.3388671875 -555.00390625C139.912109375 -552.6181640625 136.859375 -550.56640625 129.400390625 -542.9384765625C113.5361328125 -526.716796875 111.45703125 -509.982421875 122.1884765625 -484.8515625C129.646484375 -467.3828125 141.9853515625 -453.796875 212.083984375 -385.86328125C246.5947265625 -352.421875 279.8291015625 -319.9072265625 285.9453125 -313.6064453125C368.013671875 -229.05078125 408.0537109375 -186.2744140625 413.1845703125 -177.6728515625C429.078125 -151.0390625 427.197265625 -129.2822265625 408.619140625 -124.779296875C395.173828125 -121.5185546875 357.5283203125 -128.208984375 309.193359375 -142.4423828125C292.1259765625 -147.46875 268.9208984375 -148.9599609375 256.83984375 -145.8056640625C231.740234375 -139.25390625 223.453125 -114.4931640625 239.53515625 -94.08984375C246.46875 -85.2939453125 267.7568359375 -72.4423828125 281.4384765625 -68.7900390625C287.111328125 -67.2744140625 298.2958984375 -64.3017578125 306.30078125 -62.1796875C314.302734375 -60.0556640625 329.009765625 -57.2001953125 338.984375 -55.8310546875C348.9560546875 -54.462890625 359.1455078125 -52.69921875 361.625 -51.9111328125C389.064453125 -43.2021484375 454.82421875 -33.42578125 492.6337890625 -32.435546875C513.6826171875 -31.8818359375 542.0009765625 -38.6416015625 558.552734375 -48.1689453125Z"/>
</svg>