<svg xmlns="http://www.w3.org/2000/svg" viewBox="0 -1000 1000 1000">
	<path fill="#9b6f01" d="M400.4990234375 -37.541015625C408.5693359375 -34.662109375 416.8095703125 -34.484375 428.25 -36.939453125C443.876953125 -40.2890625 458.35546875 -57.5390625 464.12109375 -79.673828125C466.88671875 -90.29296875 468.8994140625 -129.056640625 471.7431640625 -226.578125C472.6455078125 -257.53125 474.21484375 -300.625 475.2333984375 -322.33984375C477.02734375 -360.6953125 476.466796875 -421.419921875 473.6298828125 -495.376953125C472.2119140625 -532.373046875 471.5791015625 -535.23046875 461.8583984375 -548.60546875C449.564453125 -565.517578125 432.2998046875 -569.25 412.05859375 -559.375C401.626953125 -554.283203125 394.654296875 -548.041015625 349.0859375 -502.9892578125C320.9052734375 -475.1259765625 291.0419921875 -446.58984375 282.7265625 -439.572265625C256.3671875 -417.337890625 245.1904296875 -403.7041015625 232.4306640625 -378.240234375C223.865234375 -361.1328125 221.791015625 -349.734375 225.4921875 -340.0478515625C228.9208984375 -331.072265625 243.7275390625 -316.830078125 252.716796875 -313.86328125C261.845703125 -310.84765625 275.873046875 -312.857421875 285.060546875 -318.498046875C294.1181640625 -324.0517578125 315.94921875 -352.14453125 324.8388671875 -369.681640625C327.9697265625 -375.8515625 333.2880859375 -383.5791015625 336.6552734375 -386.849609375C343.5185546875 -393.5185546875 354.9580078125 -399.619140625 360.5908203125 -399.619140625C370.841796875 -399.619140625 382.294921875 -390.240234375 386.24609375 -378.619140625C389.4765625 -369.107421875 388.6630859375 -326.337890625 384.4384765625 -283.69921875C379.6669921875 -235.533203125 376.1669921875 -206.4189453125 374.8984375 -204.37109375C373.7021484375 -202.43359375 372.123046875 -185.2548828125 368.5244140625 -135.017578125C366.4326171875 -105.796875 366.435546875 -99.2724609375 368.541015625 -84.9375C369.87109375 -75.876953125 372.4033203125 -65.669921875 374.1669921875 -62.259765625C378.703125 -53.49609375 392.7607421875 -40.298828125 400.4990234375 -37.541015625Z"/>
</svg>