<svg xmlns="http://www.w3.org/2000/svg" viewBox="0 -1000 1000 1000">
	<path fill="#3c9202" d="M535.1142578125 -524.751953125C523.5341796875 -519.26953125 507.462890625 -519.2080078125 497.2470703125 -524.6123046875C482.16015625 -532.5888671875 478.5166015625 -549.89453125 487.7041015625 -569.9619140625C494.95703125 -585.8037109375 508.943359375 -597.869140625 520.1884765625 -597.9853515625C522.1435546875 -598.005859375 525.7080078125 -599.5673828125 528.1142578125 -601.4619140625C531.8984375 -604.4384765625 533.3642578125 -604.6640625 539.0078125 -603.1435546875C548.2705078125 -600.6513671875 556.4599609375 -594.7041015625 559.9970703125 -587.9091796875C562.373046875 -583.3466796875 562.8955078125 -579.2958984375 562.3828125 -569.4619140625C561.2587890625 -547.92578125 552.0029296875 -532.75 535.1142578125 -524.751953125ZM183.1796875 -476.818359375C176.0703125 -473.03125 157.015625 -472.6865234375 147.25 -476.1689453125C130.3037109375 -482.2080078125 120.880859375 -496.3310546875 119.6533203125 -517.51953125C118.7138671875 -533.7548828125 121.7900390625 -543.2333984375 131.3740234375 -553.6337890625C144.2080078125 -567.5556640625 168.6396484375 -573.2978515625 183.15625 -565.8056640625C189.5302734375 -562.513671875 191.6083984375 -560.0771484375 196.4248046875 -550.2333984375C200.5634765625 -541.7705078125 202.34765625 -535.5283203125 202.921875 -527.5244140625C204.4091796875 -506.7255859375 195.2724609375 -483.2578125 183.1796875 -476.818359375ZM291.98046875 -22.7177734375C287.3017578125 -19.439453125 266.099609375 -19.34375 255.822265625 -22.5537109375C240.947265625 -27.2021484375 222.9443359375 -42.2822265625 210.619140625 -60.4208984375C204.5458984375 -69.3583984375 187.8486328125 -108.0400390625 182.3359375 -125.9404296875C177.455078125 -141.7998046875 174.7548828125 -162.474609375 174.7548828125 -184.0048828125C174.7548828125 -197.830078125 175.7529296875 -204.37890625 180.4931640625 -221.7177734375C183.6484375 -233.2568359375 186.734375 -245.7255859375 187.349609375 -249.4208984375C190.361328125 -267.515625 198.875 -289.3466796875 213.5556640625 -316.6220703125C232.521484375 -351.857421875 239.4775390625 -361.7763671875 256.916015625 -378.4287109375C286.6591796875 -406.8349609375 319.884765625 -422.3740234375 367.61328125 -430.197265625C401.533203125 -435.7587890625 413.4931640625 -434.6611328125 443.0791015625 -423.265625C466.751953125 -414.1533203125 481.7978515625 -401.7939453125 497.38671875 -378.654296875C502.322265625 -371.3330078125 510.9736328125 -359.2841796875 516.61328125 -351.884765625C528.6787109375 -336.052734375 531.23828125 -330.1982421875 536.2216796875 -307.0546875C539.5615234375 -291.5478515625 539.9580078125 -284.7529296875 540.0498046875 -241.8603515625L540.15625 -193.9814453125L528.6240234375 -159.5419921875C522.2802734375 -140.599609375 513.9951171875 -119.052734375 510.2109375 -111.6630859375C494.3076171875 -80.5908203125 461.0400390625 -60.4208984375 425.6845703125 -60.4208984375C416.26171875 -60.4208984375 414.767578125 -60.8857421875 412.361328125 -64.5595703125C409.8115234375 -68.4501953125 409.8974609375 -69.2353515625 413.837890625 -77.8388671875C416.138671875 -82.8701171875 420.00390625 -93.8662109375 422.423828125 -102.2744140625C426.693359375 -117.1181640625 426.748046875 -117.8876953125 424.2939453125 -128.4755859375C418.9306640625 -151.5947265625 403.5400390625 -172.6708984375 385.595703125 -181.46484375C378.3017578125 -185.0400390625 374.8701171875 -185.580078125 359.5537109375 -185.580078125C344.4501953125 -185.580078125 340.1025390625 -184.9130859375 329.3154296875 -180.9384765625C314.8369140625 -175.6064453125 298.4443359375 -163.8583984375 290.0732421875 -152.822265625C280.00390625 -139.546875 269.0185546875 -118.7216796875 266.1748046875 -107.5244140625C260.8291015625 -86.4794921875 268.1953125 -62.1611328125 285.7939453125 -42.7392578125C296.5126953125 -30.9169921875 297.7880859375 -26.7841796875 291.98046875 -22.7177734375ZM305.7958984375 73.10546875C328.34765625 75.9052734375 325.1689453125 75.83984375 349.060546875 73.98046875C381.4326171875 71.46484375 408.697265625 65.2822265625 426.990234375 56.3134765625C435.5078125 52.1357421875 445.173828125 46.6982421875 448.4755859375 44.2275390625C461.73046875 34.3046875 493.3232421875 3.5126953125 502.404296875 -8.3408203125C507.7158203125 -15.2724609375 514.4873046875 -23.2099609375 517.4541015625 -25.9814453125C526.34765625 -34.2900390625 554.4052734375 -71.6796875 558.14453125 -80.2041015625C560.05859375 -84.5693359375 564.9736328125 -94.0634765625 569.0654296875 -101.3037109375C577.876953125 -116.8955078125 587.484375 -145.1005859375 601.21484375 -195.6630859375C609.9580078125 -227.8701171875 612.056640625 -238.7294921875 617.5390625 -280.1552734375L623.8310546875 -327.685546875L620.87109375 -349.875C615.73046875 -388.4267578125 611.7109375 -409.6865234375 608.306640625 -416.361328125C606.4921875 -419.9189453125 599.177734375 -429.171875 592.0546875 -436.9267578125C571.9326171875 -458.826171875 567.2265625 -472.689453125 574.837890625 -487.6298828125C576.8203125 -491.5185546875 585.7890625 -502.2646484375 594.771484375 -511.5107421875C621.99609375 -539.5419921875 632.4580078125 -559.7900390625 632.5234375 -584.580078125C632.5537109375 -596.6142578125 632.095703125 -598.1259765625 622.3173828125 -618.1826171875C611.3623046875 -640.6552734375 603.4873046875 -649.9931640625 588.0107421875 -658.8486328125C573.8095703125 -666.9736328125 540.0361328125 -675.3037109375 521.28515625 -675.3037109375C512.8359375 -675.3037109375 481.6162109375 -666.6826171875 471.314453125 -661.5048828125C467.595703125 -659.6357421875 456.4091796875 -649.9248046875 446.4521484375 -639.923828125C424.7822265625 -618.158203125 420.5615234375 -610.2451171875 414.2109375 -579.5419921875C409.64453125 -557.4658203125 407.265625 -552.5224609375 398.23828125 -546.3779296875C391.4228515625 -541.7392578125 384.2314453125 -539.640625 367.955078125 -537.5283203125C361.0234375 -536.6328125 346.2822265625 -534.6640625 335.1943359375 -533.1533203125C315.6025390625 -530.4873046875 314.3515625 -530.5146484375 290.6748046875 -534.0791015625C277.2763671875 -536.099609375 264.77734375 -538.123046875 262.900390625 -538.5771484375C260.07421875 -539.2607421875 259.1337890625 -541.6337890625 257.462890625 -552.3310546875C253.2685546875 -579.1455078125 236.1279296875 -604.2919921875 214.0234375 -616.0419921875C201.4970703125 -622.7041015625 166.0146484375 -631.6083984375 152.1171875 -631.6083984375C127.5556640625 -631.5771484375 107.0107421875 -625.2568359375 94.2890625 -613.8173828125C82.74609375 -603.4404296875 79.970703125 -598.3271484375 73.2822265625 -575.0810546875L67.474609375 -554.9052734375L68.8798828125 -532.3642578125C70.0859375 -513.021484375 71.0361328125 -507.9150390625 75.5859375 -496.3828125C82.9033203125 -477.8271484375 87.6171875 -470.26953125 100.2119140625 -456.9189453125C106.1865234375 -450.5849609375 111.87109375 -442.8876953125 112.8447265625 -439.8115234375C113.8193359375 -436.7392578125 115.01171875 -419.4072265625 115.494140625 -401.3017578125C116.328125 -370.0615234375 116.150390625 -367.4462890625 112.017578125 -350.0634765625C98.978515625 -295.201171875 95.802734375 -272.4375 92.1591796875 -207.6708984375C90.4130859375 -176.6142578125 90.515625 -170.513671875 93.0478515625 -153.9091796875C94.6201171875 -143.6103515625 96.96484375 -124.9755859375 98.2568359375 -112.5009765625C101.6787109375 -79.5166015625 109.669921875 -57.5048828125 131.50390625 -20.9404296875C146.5908203125 4.3330078125 151.59765625 9.6376953125 180.623046875 31.1494140625C207.697265625 51.216796875 217.5712890625 57.4443359375 226.833984375 60.2978515625C233.6083984375 62.3837890625 279.8779296875 69.8896484375 305.7958984375 73.10546875Z"/>
</svg>