<svg xmlns="http://www.w3.org/2000/svg" viewBox="0 -1000 1000 1000">
	<path fill="#964ffa" d="M367.61328125 -396.3154296875C355.490234375 -391.779296875 338.2431640625 -390.4912109375 330.1796875 -393.5185546875C311.326171875 -400.6005859375 296.7763671875 -422.6748046875 298.84765625 -441.0458984375C300.921875 -459.4521484375 318.353515625 -482.5673828125 334.7978515625 -488.7197265625C351.962890625 -495.1416015625 361.1328125 -492.486328125 379.0400390625 -475.9052734375C398.525390625 -457.869140625 402.6474609375 -441.66796875 392.7421875 -422.0595703125C385.1611328125 -407.0439453125 378.759765625 -400.4853515625 367.61328125 -396.3154296875ZM284.9736328125 -35.1650390625C277.119140625 -33.3642578125 269.1796875 -31.9111328125 267.333984375 -31.9462890625C260.53515625 -32.0556640625 241.330078125 -37.9716796875 238.0009765625 -40.9833984375C233.7763671875 -44.8076171875 233.4716796875 -53.9365234375 237.265625 -63.1005859375C240.5234375 -70.96875 260.7265625 -99.4306640625 271.52734375 -111.3662109375C275.82421875 -116.1162109375 282.6123046875 -124.5419921875 286.611328125 -130.0859375C290.6103515625 -135.6298828125 299.4970703125 -146.2158203125 306.3564453125 -153.6044921875C313.2197265625 -160.998046875 320.9345703125 -169.3759765625 323.5078125 -172.22265625C332.3056640625 -181.9599609375 346.5791015625 -183.3271484375 361.4130859375 -175.845703125C395.794921875 -158.5068359375 430.91796875 -125.7041015625 458.34375 -85.3134765625C468.6796875 -70.09375 469.978515625 -67.3291015625 469.158203125 -62.2705078125C468.2177734375 -56.4697265625 463.1455078125 -49.7060546875 457.423828125 -46.6220703125C455.71484375 -45.7001953125 446.2646484375 -43.5126953125 436.423828125 -41.7587890625C421.1357421875 -39.0341796875 409.8564453125 -38.5595703125 358.89453125 -38.5048828125C305.9326171875 -38.4462890625 297.654296875 -38.07421875 284.9736328125 -35.1650390625ZM220.2919921875 26.7275390625C245.0791015625 28.8798828125 243.75 28.9072265625 290.01171875 25.3154296875C318.248046875 23.12109375 348.8896484375 21.986328125 379.89453125 21.9482421875C407.0947265625 21.9287109375 438.9775390625 20.865234375 455.4931640625 19.4267578125C515.2080078125 14.2275390625 536.1328125 11.6474609375 542.97265625 8.6259765625C551.7568359375 4.7529296875 556.17578125 -3.8056640625 556.052734375 -16.6845703125C555.943359375 -28.1240234375 546.2333984375 -57.4951171875 536.447265625 -75.9931640625C528.134765625 -91.7060546875 499.314453125 -127.92578125 474.298828125 -154.107421875C464.3115234375 -164.5556640625 451.9140625 -179.6806640625 446.75 -187.7158203125C441.3154296875 -196.1650390625 429.140625 -210.8623046875 417.8642578125 -222.576171875C407.142578125 -233.7119140625 394.970703125 -247.2568359375 390.8115234375 -252.6708984375L383.25390625 -262.5146484375L383.4765625 -276.9423828125C383.7431640625 -294.06640625 385.5888671875 -323.37890625 386.744140625 -328.8408203125C387.3486328125 -331.6982421875 390.5205078125 -334.04296875 398.83984375 -337.775390625C405.0400390625 -340.5576171875 412.6591796875 -344.7724609375 415.765625 -347.1435546875C427.9609375 -356.4482421875 440.857421875 -383.5830078125 443.8681640625 -406.2783203125C444.494140625 -410.9912109375 445.0986328125 -414.8740234375 445.2080078125 -414.8740234375C445.3212890625 -414.8876953125 453.9990234375 -415.609375 464.49609375 -416.4775390625C495.3740234375 -419.0341796875 507.462890625 -424.9990234375 511.923828125 -439.8876953125C516.74609375 -455.982421875 505.2822265625 -468.970703125 481.4697265625 -474.384765625C473.287109375 -476.2470703125 466.2666015625 -476.7392578125 458.8251953125 -475.9775390625C446.9375 -474.7607421875 438.884765625 -476.982421875 436.0615234375 -482.2568359375C435.1455078125 -483.9658203125 432.896484375 -490.216796875 431.068359375 -496.1435546875C425.322265625 -514.7470703125 409.5830078125 -529.00390625 388.271484375 -534.9072265625C382.73828125 -536.4384765625 376.5478515625 -538.5087890625 374.5146484375 -539.5107421875C369.6201171875 -541.9130859375 367.1591796875 -549.470703125 368.3759765625 -558.34375C368.9873046875 -562.8115234375 368.3310546875 -569.0693359375 366.646484375 -574.8701171875C365.15234375 -580.0029296875 363.921875 -588.6240234375 363.921875 -594.0244140625C363.9013671875 -615.369140625 355.5 -628.20703125 341.5478515625 -628.20703125C322.8076171875 -628.20703125 311.931640625 -605.6044921875 311.876953125 -566.560546875C311.8564453125 -549.046875 311.5966796875 -547.5771484375 308.1201171875 -545.1396484375C306.06640625 -543.701171875 301.5068359375 -542.525390625 297.986328125 -542.525390625C282.41015625 -542.525390625 272.1669921875 -532.9716796875 258.01953125 -505.2626953125C252.509765625 -494.4716796875 246.015625 -484.0810546875 243.5888671875 -482.1708984375C238.19921875 -477.9287109375 231.9443359375 -476.189453125 210.212890625 -472.8837890625C181.0810546875 -468.4541015625 172.8544921875 -464.5986328125 165.984375 -452.154296875C158.205078125 -438.0654296875 161.2744140625 -422.2099609375 172.9296875 -416.2626953125C179.1572265625 -413.0869140625 181.470703125 -412.9091796875 202.54296875 -413.9990234375C236.6474609375 -415.7666015625 244.7685546875 -412.396484375 247.0859375 -395.525390625C249.201171875 -380.14453125 251.8671875 -374.18359375 261.0859375 -364.2275390625C271.2744140625 -353.2216796875 280.6025390625 -348.1904296875 302.703125 -341.7880859375C310.8583984375 -339.4228515625 317.9501953125 -337.0673828125 318.4697265625 -336.5478515625C320.5927734375 -334.42578125 319.0986328125 -303.9267578125 316.26171875 -291.3662109375C312.365234375 -274.1298828125 308.9951171875 -268.47265625 289.2294921875 -245.9990234375C280.294921875 -235.837890625 270.013671875 -223.2255859375 266.38671875 -217.96875C262.7568359375 -212.7158203125 259.0107421875 -207.93359375 258.060546875 -207.345703125C257.1103515625 -206.7578125 251.9189453125 -199.7197265625 246.521484375 -191.7021484375C241.125 -183.6826171875 227.86328125 -166.2236328125 217.0556640625 -152.9013671875C206.248046875 -139.5771484375 196.2333984375 -126.3466796875 194.80078125 -123.5029296875C193.369140625 -120.6552734375 187.435546875 -110.0087890625 181.6142578125 -99.8466796875C175.7939453125 -89.6826171875 167.2421875 -71.16015625 162.6103515625 -58.6845703125C157.9794921875 -46.2119140625 152.134765625 -31.470703125 149.6220703125 -25.9267578125C143.8974609375 -13.2900390625 142.16796875 6.2705078125 145.9755859375 15.3798828125C150.166015625 25.4150390625 156.755859375 27.3896484375 182.1337890625 26.23828125C193.8818359375 25.7021484375 211.0537109375 25.923828125 220.2919921875 26.7275390625Z"/>
</svg>