<svg xmlns="http://www.w3.org/2000/svg" viewBox="0 -1000 1000 1000">
	<path fill="#9b6f01" d="M349.1201171875 -169.2294921875C361.9921875 -162.4072265625 375.1279296875 -167.1376953125 382.03515625 -181.0830078125C384.0966796875 -185.2421875 387.927734375 -196.2041015625 390.5498046875 -205.4423828125C395.1259765625 -221.5517578125 395.3310546875 -223.8349609375 395.5361328125 -260.8857421875C395.751953125 -299.5732421875 396.595703125 -311.5361328125 402.642578125 -361.6845703125C404.4228515625 -376.4677734375 406.3916015625 -397.2587890625 407.017578125 -407.8857421875C407.642578125 -418.5087890625 409.2626953125 -434.0087890625 410.6162109375 -442.3251953125C413.5419921875 -460.2548828125 415.7158203125 -508.1201171875 417.216796875 -587.6435546875C418.1533203125 -637.248046875 417.927734375 -647.2392578125 415.658203125 -656.9599609375C410.8525390625 -677.5087890625 399.6552734375 -695.4384765625 387.1826171875 -702.5478515625C376.3203125 -708.73828125 371.6689453125 -709.2470703125 363.240234375 -705.1669921875C349.60546875 -698.56640625 340.72265625 -683.19921875 340.72265625 -666.2255859375C340.72265625 -661.7275390625 338.517578125 -643.5302734375 335.828125 -625.7880859375C333.134765625 -608.0419921875 330.4208984375 -587.4755859375 329.794921875 -580.0830078125C329.169921875 -572.6923828125 326.80078125 -552.2802734375 324.53125 -534.72265625C322.2587890625 -517.16796875 319.705078125 -494.486328125 318.8544921875 -484.3251953125C316.041015625 -450.736328125 310.572265625 -393.8857421875 308.4296875 -375.96484375C307.14453125 -365.205078125 306.3173828125 -336.69921875 306.3037109375 -302.8857421875L306.279296875 -247.4423828125L311.8681640625 -226.5068359375C314.9404296875 -214.9921875 318.5126953125 -203.0400390625 319.8046875 -199.9462890625C322.78125 -192.8193359375 341.3818359375 -173.3310546875 349.1201171875 -169.2294921875ZM340.0009765625 104.4853515625C344.5537109375 106.2666015625 350.8125 107.7568359375 353.9052734375 107.7978515625C361.025390625 107.896484375 370.4658203125 103.4736328125 373.712890625 98.517578125C375.6025390625 95.6328125 380.5517578125 69.806640625 380.986328125 60.5439453125C381.0166015625 59.921875 382.9990234375 57.0888671875 385.3916015625 54.2451171875C391.400390625 47.1005859375 397.8466796875 47.3642578125 409.6220703125 55.2353515625C414.6943359375 58.6259765625 422.5859375 64.7373046875 427.166015625 68.822265625C436.80859375 77.4248046875 446.9599609375 82.9150390625 460.5224609375 86.85546875C472.625 90.3759765625 478.5830078125 89.1181640625 485.1318359375 81.66015625C492.0185546875 73.8154296875 492.0322265625 64.7099609375 485.1826171875 49.6025390625C481.306640625 41.0576171875 477.3212890625 35.8564453125 468.1650390625 27.3828125C461.5849609375 21.2958984375 452.12109375 12.53515625 447.130859375 7.9169921875C440.25390625 1.5498046875 437.8134765625 -1.9873046875 437.0615234375 -6.6904296875C435.537109375 -16.2548828125 437.146484375 -19.8603515625 451.4375 -38.9052734375C464.9794921875 -56.9482421875 471.2412109375 -70.3984375 469.439453125 -77.5732421875C466.7841796875 -88.1474609375 453.4130859375 -96.9794921875 439.953125 -97.044921875C429.20703125 -97.099609375 419.263671875 -91.5595703125 409.150390625 -79.8896484375C394.1728515625 -62.5986328125 391.2265625 -59.857421875 388.2421875 -60.431640625C384.1103515625 -61.2275390625 381.392578125 -67.595703125 379.2529296875 -81.513671875C376.9287109375 -96.6513671875 372.1435546875 -104.4345703125 364.712890625 -105.1630859375C358.2119140625 -105.7978515625 350.087890625 -101.802734375 346.3828125 -96.142578125C342.486328125 -90.2021484375 339.0986328125 -74.5791015625 339.068359375 -62.427734375C339.037109375 -50.5498046875 336.8125 -47.6181640625 328.021484375 -47.8671875C318.0234375 -48.1513671875 311.1435546875 -54.1806640625 297.9912109375 -74.1787109375C285.060546875 -93.8388671875 279.140625 -98.958984375 266.6513671875 -101.2763671875C258.4794921875 -102.7939453125 249.2783203125 -98.7333984375 245.005859375 -91.7236328125C238.2822265625 -80.7001953125 241.0751953125 -70.439453125 258.755859375 -41.1708984375C268.6240234375 -24.8408203125 270.8623046875 -19.7958984375 271.4501953125 -12.59375C272.3388671875 -1.669921875 269.2900390625 1.666015625 252.6962890625 7.9111328125C228.6337890625 16.9677734375 209.6533203125 36.0400390625 209.69140625 51.1240234375C209.7216796875 63.3505859375 218.8203125 77.6923828125 229.3408203125 82.0869140625C241.2900390625 87.0810546875 253.2705078125 83.259765625 274.3623046875 67.7314453125C288.509765625 57.3173828125 297.1669921875 52.9599609375 306.7001953125 51.4521484375L313.83984375 50.3271484375V64.037109375C313.83984375 71.9833984375 314.8173828125 80.0166015625 316.1640625 83.150390625C319.5341796875 90.9814453125 330.455078125 100.759765625 340.0009765625 104.4853515625Z"/>
</svg>