<svg xmlns="http://www.w3.org/2000/svg" viewBox="0 -1000 1000 1000">
	<path fill="#3c9202" d="M340.4765625 135.787109375C349.8486328125 138.72265625 362.16015625 138.640625 369.451171875 135.595703125C378.7646484375 131.7021484375 392.228515625 119.3125 397.3349609375 109.92578125C401.958984375 101.4296875 415.5732421875 56.3974609375 417.75390625 42.3837890625C418.3994140625 38.224609375 421.126953125 27.2626953125 423.8134765625 18.0234375C426.4970703125 8.78125 430.509765625 -9.046875 432.7275390625 -21.59765625C435.458984375 -37.06640625 438.7705078125 -49.2421875 443.001953125 -59.396484375C446.4375 -67.63671875 450.265625 -77.0234375 451.505859375 -80.255859375C455.4365234375 -90.49609375 470.732421875 -145.9326171875 476.771484375 -171.81640625C482.1787109375 -195.0009765625 495.013671875 -234.2939453125 502.8369140625 -251.6162109375C507.21875 -261.3203125 512.4892578125 -275.681640625 514.55078125 -283.537109375C516.611328125 -291.390625 520.3642578125 -301.97265625 522.890625 -307.0556640625C531.4658203125 -324.31640625 552.75 -384.25 559.75 -410.845703125C560.7890625 -414.80078125 568.0927734375 -433.322265625 575.974609375 -452.0078125C583.8603515625 -470.69140625 593.7001953125 -495.046875 597.8427734375 -506.134765625C601.9853515625 -517.22265625 609.009765625 -533.478515625 613.4462890625 -542.255859375C617.8857421875 -551.033203125 622.8486328125 -562.375 624.47265625 -567.45703125C626.099609375 -572.5390625 629.2265625 -580.099609375 631.4208984375 -584.255859375C633.615234375 -588.416015625 640.0244140625 -602.7236328125 645.6572265625 -616.056640625L655.904296875 -640.296875L651.4091796875 -674.015625C646.6787109375 -709.5009765625 644.197265625 -717.916015625 636.0693359375 -726.0439453125C627.193359375 -734.923828125 618.04296875 -737.880859375 599.28515625 -737.931640625C583.275390625 -737.9765625 581.98046875 -737.703125 571.794921875 -732.1796875C558.6220703125 -725.0390625 550.0224609375 -715.3525390625 534.4296875 -690.09765625C520.8291015625 -668.064453125 515.3779296875 -655.3359375 507.810546875 -627.9375C504.8779296875 -617.3115234375 490.7373046875 -573.462890625 476.388671875 -530.4951171875C462.0400390625 -487.53125 448.8330078125 -445.677734375 447.0390625 -437.4921875C445.244140625 -429.302734375 442.63671875 -419.8828125 441.2451171875 -416.5537109375C439.8544921875 -413.224609375 436.453125 -401.025390625 433.6845703125 -389.4423828125C430.916015625 -377.859375 422.306640625 -348.3447265625 414.5546875 -323.8583984375C406.802734375 -299.3720703125 397.8271484375 -271.01953125 394.6103515625 -260.85546875C388.013671875 -240.01171875 383.2119140625 -225.57421875 377.5751953125 -209.6162109375C370.83203125 -190.513671875 366.630859375 -177.275390625 362.3896484375 -161.7373046875C360.1162109375 -153.421875 354.1279296875 -138.30078125 349.076171875 -128.134765625C344.0244140625 -117.9736328125 337.6845703125 -104.6640625 334.984375 -98.5625C327.3515625 -81.3056640625 319.3671875 -77.78515625 308.8369140625 -87.0341796875C305.1416015625 -90.27734375 301.146484375 -96.65625 297.8544921875 -104.564453125C287.6416015625 -129.091796875 266.6796875 -223.646484375 256.5009765625 -291.09765625C255.2431640625 -299.4130859375 253.0791015625 -312.2646484375 251.6845703125 -319.658203125C250.2939453125 -327.046875 247.5458984375 -345.5693359375 245.580078125 -360.81640625C242.6923828125 -383.2109375 240.2822265625 -394.0224609375 233.033203125 -417.09765625C228.09765625 -432.806640625 221.248046875 -455.86328125 217.81640625 -468.3359375C214.384765625 -480.8115234375 206.90234375 -503.11328125 201.19140625 -517.896484375C195.4794921875 -532.6796875 188.3125 -551.580078125 185.263671875 -559.896484375C177.716796875 -580.486328125 147.0712890625 -640.82421875 134.7763671875 -659.2978515625C110.6083984375 -695.6103515625 83.923828125 -710.509765625 61.3759765625 -700.2724609375C52.2568359375 -696.1298828125 45.4892578125 -686.046875 44.4296875 -675.02734375C43.2978515625 -663.2421875 44.771484375 -659.25390625 53.17578125 -651.37890625C59.150390625 -645.7763671875 61.998046875 -640.912109375 67.7197265625 -626.515625C71.6328125 -616.671875 77.251953125 -603.701171875 80.205078125 -597.6953125C83.158203125 -591.6904296875 93.712890625 -562.20703125 103.6630859375 -532.1767578125C113.609375 -502.146484375 123.4970703125 -473.0390625 125.6298828125 -467.4951171875C136.3525390625 -439.662109375 148.2880859375 -394.9765625 155.701171875 -354.9375C159.9775390625 -331.8359375 166.447265625 -302.3525390625 170.0810546875 -289.416015625C173.7138671875 -276.482421875 179.7841796875 -252.666015625 183.5712890625 -236.4951171875C187.35546875 -220.328125 192.359375 -200.2919921875 194.6865234375 -191.9765625C198.6962890625 -177.66796875 206.1435546875 -145.6796875 211.509765625 -119.7373046875C220.779296875 -74.904296875 233.466796875 -21.34765625 238.1904296875 -7.115234375C241.2666015625 2.158203125 247.6484375 18.7890625 252.3720703125 29.8466796875C279.052734375 92.2998046875 306.3173828125 125.087890625 340.4765625 135.787109375Z"/>
</svg>