<svg xmlns="http://www.w3.org/2000/svg" viewBox="0 -1000 1000 1000">
	<path fill="#964ffa" d="M312.5693359375 -478.2021484375C335.4560546875 -466.6025390625 366.6962890625 -498.583984375 388.263671875 -555.6884765625C394.091796875 -571.1201171875 395.185546875 -576.1279296875 395.9267578125 -590.7802734375C396.9658203125 -611.2646484375 394.1220703125 -621.2783203125 383.9951171875 -632.7841796875C375.51171875 -642.4189453125 370.0048828125 -645.0888671875 358.595703125 -645.0888671875C342.763671875 -645.0888671875 339.0283203125 -642.4873046875 325.8857421875 -622.2939453125C314.2919921875 -604.4833984375 308.2490234375 -590.4970703125 299.4375 -561.0888671875C294.2080078125 -543.6328125 292.2568359375 -513.2705078125 295.595703125 -501.345703125C298.3642578125 -491.4541015625 305.4296875 -481.8193359375 312.5693359375 -478.2021484375ZM503.248046875 -438.4208984375C511.4375 -435.8193359375 522.26171875 -438.099609375 535.4111328125 -445.1923828125C557.197265625 -456.9423828125 566.453125 -463.8330078125 583.7646484375 -481.1767578125C612.1201171875 -509.58984375 625.3857421875 -535.470703125 625.583984375 -562.7705078125C625.6689453125 -574.859375 625.0947265625 -578.0009765625 621.8203125 -583.2646484375C617.1513671875 -590.7705078125 608.6064453125 -596.3681640625 601.8115234375 -596.3681640625C587.5625 -596.3681640625 559.6748046875 -581.2138671875 544.044921875 -564.974609375C530.9091796875 -551.3271484375 511.1435546875 -521.7783203125 499.15625 -497.8701171875C487.4462890625 -474.5107421875 486.072265625 -469.0693359375 488.68359375 -456.4853515625C490.748046875 -446.5322265625 495.2431640625 -440.9599609375 503.248046875 -438.4208984375ZM161.884765625 -435.9287109375C166.5712890625 -434.6650390625 171.7529296875 -433.5771484375 173.400390625 -433.51953125C178.9443359375 -433.314453125 187.51953125 -438.03125 191.3271484375 -443.376953125C199.318359375 -454.5986328125 198.2451171875 -461.2626953125 178.828125 -521.115234375C166.68359375 -558.5380859375 163.005859375 -565.2919921875 143.5302734375 -585.974609375C124.82421875 -605.8369140625 115.3798828125 -609.8251953125 101.140625 -603.8779296875C77.3173828125 -593.9208984375 68.970703125 -568.2939453125 77.9052734375 -532.5283203125C82.4716796875 -514.2451171875 85.2470703125 -508.60546875 102.990234375 -481.5732421875C115.021484375 -463.2451171875 120.8798828125 -455.9111328125 126.6767578125 -451.921875C135.8984375 -445.578125 150.2021484375 -439.0810546875 161.884765625 -435.9287109375ZM322.447265625 -57.078125C293.3916015625 -54.904296875 285.6806640625 -55.13671875 261.7099609375 -58.9306640625C215.4208984375 -66.2490234375 174.50390625 -119.5751953125 178.6875 -167.1298828125C181.39453125 -197.8916015625 191.552734375 -231.8759765625 204.3017578125 -252.7978515625C230.353515625 -295.556640625 241.03515625 -308.107421875 260.5068359375 -318.8369140625C267.55859375 -322.72265625 274.2646484375 -327.0322265625 275.4130859375 -328.4169921875C276.5576171875 -329.7978515625 279.576171875 -330.9287109375 282.119140625 -330.9287109375C284.658203125 -330.9287109375 290.4248046875 -332.59375 294.9326171875 -334.630859375C301.7998046875 -337.734375 306.93359375 -338.4423828125 326.64453125 -338.9990234375C339.58203125 -339.3681640625 354.3232421875 -338.8720703125 359.40625 -337.8984375C406.1533203125 -328.9462890625 416.650390625 -324.4970703125 435.0048828125 -305.8486328125C458.1611328125 -282.322265625 466.7236328125 -262.443359375 468.1728515625 -228.8486328125C469.3583984375 -201.37109375 466.89453125 -187.1181640625 456.544921875 -161.5859375C437.5205078125 -114.650390625 417.2412109375 -88.9169921875 387.884765625 -74.455078125C367.126953125 -64.228515625 347.169921875 -58.9306640625 322.447265625 -57.078125ZM261.966796875 39.5615234375C300.138671875 46.7353515625 314.2275390625 46.85546875 353.52734375 40.3271484375C394.3994140625 33.5390625 409.263671875 28.9931640625 441.2255859375 13.5068359375C473.15625 -1.9638671875 479.5029296875 -6.0166015625 513.060546875 -32.359375C543.0361328125 -55.8916015625 550.2001953125 -64.4990234375 565.099609375 -94.8876953125C590.580078125 -146.8544921875 594.04296875 -181.5087890625 579.2705078125 -236.849609375C564.1796875 -293.396484375 554.185546875 -310.7734375 513.10546875 -351.8916015625C498.33984375 -366.6708984375 491.55859375 -372.0810546875 479.5068359375 -378.6884765625C471.201171875 -383.2451171875 452.91796875 -393.6552734375 438.8740234375 -401.8251953125C417.388671875 -414.3271484375 410.333984375 -417.5166015625 394.3544921875 -421.9599609375L375.3642578125 -427.2412109375L324.1259765625 -427.7666015625C262.38671875 -428.40625 252.748046875 -427.3779296875 235.3271484375 -418.3056640625C206.5849609375 -403.3349609375 182.3896484375 -378.9140625 161.779296875 -344.078125C132.4873046875 -294.55859375 129.38671875 -287.4560546875 128.173828125 -267.091796875C127.4013671875 -254.1513671875 123.6787109375 -223.6591796875 120.6845703125 -205.7705078125C115.158203125 -172.7529296875 121.43359375 -121.41796875 136.126953125 -79.4658203125C149.8056640625 -40.4091796875 180.916015625 4.431640625 205.8642578125 21.056640625C219.228515625 29.9599609375 230.26171875 33.5966796875 261.966796875 39.5615234375Z"/>
</svg>