<svg xmlns="http://www.w3.org/2000/svg" viewBox="0 -1000 1000 1000">
	<path fill="#d600e3" d="M381.912109375 -321.7353515625C413.1552734375 -313.34765625 499.3974609375 -321.1513671875 527.0009765625 -334.8642578125C532.5927734375 -337.642578125 548.5068359375 -348.6484375 562.3671875 -359.3193359375C607.3095703125 -393.9296875 612.6591796875 -399.7021484375 623.8564453125 -425.7060546875C632.763671875 -446.388671875 635.9521484375 -462.6279296875 635.1865234375 -483.34375C634.4482421875 -503.2880859375 631.884765625 -509.2548828125 620.673828125 -517.1376953125C606.9404296875 -526.7900390625 590.3359375 -525.015625 562.3671875 -510.9130859375C550.9677734375 -505.1640625 545.73828125 -500.8955078125 527.927734375 -482.7998046875C490.86328125 -445.1474609375 476.8935546875 -436.8486328125 441.763671875 -431.595703125C415.408203125 -427.6552734375 396.3701171875 -428.2255859375 379.7548828125 -433.4580078125C360.962890625 -439.375 360.40625 -439.703125 331.0283203125 -462.1357421875C284.87890625 -497.3779296875 263.728515625 -509.7548828125 231.0087890625 -520.6650390625C211.123046875 -527.298828125 200.0244140625 -526.2666015625 175.78125 -515.5244140625C127.13671875 -493.9775390625 114.96484375 -483.3193359375 93.021484375 -443.0595703125C84.1279296875 -426.7421875 82.1357421875 -421.3447265625 77.7705078125 -401.7294921875C73.32421875 -381.7275390625 72.9443359375 -377.9716796875 74.4521484375 -368.6123046875C76.49609375 -355.9287109375 79.23046875 -350.2548828125 86.076171875 -344.4921875C94.0166015625 -337.8134765625 101.3681640625 -337.13671875 110.1494140625 -342.2841796875C118.6083984375 -347.240234375 122.939453125 -352.5859375 133.166015625 -370.6943359375C143.8876953125 -389.6748046875 153.4755859375 -401.1650390625 162.068359375 -405.3251953125C168.138671875 -408.2646484375 172.5478515625 -408.9072265625 186.619140625 -408.9072265625C211.7314453125 -408.9072265625 217.3125 -406.4912109375 281.4853515625 -367.8369140625C321.044921875 -344.0107421875 352.1826171875 -329.7158203125 381.912109375 -321.7353515625ZM106.24609375 -76.0517578125C108.556640625 -75.2861328125 115.9560546875 -74.96484375 122.6865234375 -75.3369140625C137.7392578125 -76.1748046875 146.8203125 -80.966796875 156.103515625 -92.9736328125C162.3623046875 -101.0673828125 166.09765625 -103.5458984375 185.2080078125 -112.2685546875C190.2900390625 -114.5888671875 197.857421875 -118.38671875 202.0244140625 -120.7041015625C223.041015625 -132.400390625 264.412109375 -130.6640625 306.166015625 -116.3291015625C322.8837890625 -110.5908203125 373.6474609375 -96.3583984375 396.8857421875 -90.8994140625C401.0458984375 -89.921875 421.4580078125 -89.0947265625 442.24609375 -89.060546875C477.5703125 -88.9990234375 481.4228515625 -89.3037109375 501.048828125 -93.6708984375C512.59765625 -96.2451171875 527.0419921875 -100.0693359375 533.146484375 -102.1748046875C546.2548828125 -106.697265625 587.724609375 -129.734375 596.2939453125 -137.2568359375C602.3193359375 -142.5517578125 611.5859375 -154.4189453125 618.203125 -165.3193359375C621.716796875 -171.1162109375 630.408203125 -205.4697265625 630.408203125 -213.5810546875C630.408203125 -224.357421875 616.203125 -242.3564453125 604.0283203125 -247.0048828125C599.11328125 -248.884765625 591.4541015625 -250.0263671875 583.4794921875 -250.07421875L570.7685546875 -250.1455078125L541.3671875 -233.8115234375C512.638671875 -217.8525390625 505.259765625 -214.3427734375 478.9345703125 -204.123046875C463.875 -198.2783203125 432.9248046875 -188.9677734375 422.0869140625 -187.0224609375C409.666015625 -184.7939453125 383.2041015625 -185.2939453125 367.37890625 -188.0517578125C346.8369140625 -191.6337890625 331.6474609375 -197.1259765625 299.5048828125 -212.5927734375C258.751953125 -232.1982421875 228.609375 -240.4599609375 191.927734375 -242.0732421875C167.6669921875 -243.142578125 156.7568359375 -241.078125 136.7783203125 -231.64453125C119.34375 -223.4072265625 110.880859375 -216.072265625 93.6474609375 -194.2548828125C74.1787109375 -169.6083984375 71.6044921875 -165.1103515625 67.359375 -148.3212890625C63.3056640625 -132.2939453125 63.8837890625 -119.1767578125 69.1611328125 -107.2412109375C74.63671875 -94.8642578125 91.0048828125 -81.0966796875 106.24609375 -76.0517578125Z"/>
</svg>