<svg xmlns="http://www.w3.org/2000/svg" viewBox="0 -1000 1000 1000">
	<path fill="#964ffa" d="M367.9306640625 -84.3037109375C349.794921875 -83.9111328125 326.2626953125 -83.2177734375 315.6357421875 -82.7626953125C305.009765625 -82.3046875 294.0478515625 -82.3046875 291.2763671875 -82.7587890625C271.1787109375 -86.05078125 238.9677734375 -93.7138671875 234.5068359375 -96.263671875C227.4150390625 -100.3173828125 220.650390625 -113.8115234375 218.466796875 -128.2626953125C215.3359375 -148.99609375 213.6572265625 -179.7744140625 215.0078125 -191.6904296875C215.7421875 -198.16015625 216.3818359375 -211.0693359375 216.4296875 -220.376953125C216.4775390625 -229.6875 217.65625 -245.4345703125 219.05078125 -255.3701171875C220.4453125 -265.3095703125 222.2607421875 -289.5810546875 223.083984375 -309.3125C223.908203125 -329.0478515625 225.09765625 -346.0283203125 225.7294921875 -347.0498046875C226.3623046875 -348.0751953125 227.19921875 -372.50390625 227.5888671875 -401.3408203125C228.775390625 -489.0458984375 229.03515625 -493.4833984375 233.21875 -496.8701171875C250.5478515625 -510.9013671875 306.0419921875 -514.5029296875 378.6357421875 -506.3076171875C430.8115234375 -500.4150390625 442.490234375 -496.8525390625 449.96875 -484.55859375C454.0537109375 -477.8349609375 454.3408203125 -474.8486328125 457.625 -404.2119140625C460.0859375 -351.3505859375 460.7802734375 -344.1826171875 465.513671875 -322.7314453125C468.37109375 -309.7939453125 471.2802734375 -291.6513671875 471.9775390625 -282.4091796875C472.6708984375 -273.1708984375 474.5068359375 -250.4931640625 476.0478515625 -232.01171875C479.28515625 -193.2822265625 478.4033203125 -140.7109375 474.2705078125 -125.86328125C470.8251953125 -113.4873046875 462.7724609375 -103.5537109375 451.7158203125 -98.0478515625C435.5791015625 -90.0126953125 405.8017578125 -85.1279296875 367.9306640625 -84.3037109375ZM203.0751953125 4.5361328125C212.32421875 6.111328125 237.23828125 5.5673828125 262.7158203125 3.2373046875C289.392578125 0.7958984375 346.5615234375 -1.61328125 423.99609375 -3.5576171875C446.171875 -4.115234375 472.6884765625 -5.6669921875 482.91796875 -7.0107421875C503.439453125 -9.6962890625 544.701171875 -21.341796875 549.6845703125 -25.8505859375C556.1689453125 -31.7158203125 557.9287109375 -38.2021484375 559.3408203125 -61.373046875C560.1025390625 -73.91015625 561.5830078125 -88.3310546875 562.625 -93.4091796875C568.548828125 -122.3056640625 570.0283203125 -178.8828125 565.9853515625 -221.9326171875C564.9423828125 -233.0205078125 563.4970703125 -248.5166015625 562.7724609375 -256.3720703125C560.9541015625 -276.08984375 556.9169921875 -300.4501953125 547.3125 -349.6103515625C536.9189453125 -402.8310546875 535.7734375 -423.541015625 539.810546875 -485.3447265625C542.8623046875 -532.0302734375 542.294921875 -540.6982421875 535.294921875 -554.572265625C527.7958984375 -569.43359375 512.39453125 -583.8740234375 500.2880859375 -587.3984375C484.31640625 -592.046875 426.42578125 -602.4814453125 407.53125 -604.119140625C360.9072265625 -608.15234375 248.0390625 -602.328125 216.5009765625 -594.26171875C202.744140625 -590.7451171875 176.7607421875 -580.9755859375 164.130859375 -574.5771484375C154.0615234375 -569.474609375 144.884765625 -561.462890625 141.408203125 -554.7431640625C138.2333984375 -548.6044921875 138.2607421875 -550.662109375 140.109375 -453.76953125C141.7265625 -369.044921875 141.708984375 -374.158203125 140.6015625 -307.6103515625C139.716796875 -254.4609375 137.556640625 -199.4208984375 133.2529296875 -120.2919921875C129.541015625 -52.0927734375 131.98828125 -35.533203125 148.1591796875 -19.3623046875C158.611328125 -8.9111328125 180.810546875 0.751953125 203.0751953125 4.5361328125Z"/>
</svg>