<svg xmlns="http://www.w3.org/2000/svg" viewBox="0 -1000 1000 1000">
	<path fill="#9b6f01" d="M100.0009765625 -43.9765625C102.3115234375 -43.064453125 105.3330078125 -42.619140625 106.720703125 -42.9853515625C108.1044921875 -43.3515625 136.8330078125 -46.7451171875 170.5615234375 -50.525390625C215.5283203125 -55.5634765625 238.8251953125 -58.98828125 257.9208984375 -63.3671875C307.7177734375 -74.783203125 321.2490234375 -80.89453125 343.80078125 -102.146484375C357.5 -115.060546875 362.8046875 -125.8369140625 361.7216796875 -138.568359375C360.7060546875 -150.525390625 356.748046875 -157.736328125 343.8759765625 -171.0908203125C328.5703125 -186.970703125 322.39453125 -189.0283203125 289.841796875 -189.0283203125C276.443359375 -189.03125 260.525390625 -188.3828125 254.46875 -187.58203125C245.4013671875 -186.38671875 242.482421875 -186.6328125 237.95703125 -188.9736328125C228.833984375 -193.6904296875 225.201171875 -207.369140625 229.6337890625 -220.3232421875C231.91015625 -226.974609375 252.654296875 -264.55859375 260.1396484375 -275.595703125C271.4970703125 -292.3359375 331.7255859375 -350.77734375 358.0234375 -370.56640625C417.998046875 -415.705078125 483.3876953125 -423.234375 520.9169921875 -389.32421875C533.037109375 -378.373046875 539.5478515625 -366.4482421875 543.619140625 -347.751953125C548.3291015625 -326.099609375 554.064453125 -317.646484375 569.5615234375 -309.51171875C576.28125 -305.984375 580.337890625 -305.091796875 589.8505859375 -305.0478515625C600.193359375 -305 602.80078125 -305.65234375 609.859375 -310.03515625C631.2041015625 -323.2861328125 643.150390625 -358.7509765625 643.255859375 -409.15625C643.328125 -444.37109375 641.0517578125 -454.333984375 625.978515625 -484.8466796875C612.908203125 -511.298828125 600.6474609375 -526.4638671875 581.0185546875 -540.474609375C565.6611328125 -551.431640625 555.5986328125 -554.0400390625 519.9560546875 -556.2958984375C476.595703125 -559.041015625 460.15234375 -555.892578125 409.1220703125 -535.080078125C384.3583984375 -524.98046875 345.2470703125 -504.8349609375 328.615234375 -493.6103515625C317.5888671875 -486.169921875 292.9384765625 -466.2392578125 276.904296875 -451.798828125C264.3466796875 -440.4921875 226.2265625 -394.7490234375 216.43359375 -379.23828125C211.703125 -371.7421875 193.5849609375 -332.634765625 188.65625 -319.2734375C186.779296875 -314.19140625 179.751953125 -297.55859375 173.0390625 -282.314453125C166.326171875 -267.0673828125 159.17578125 -248.9248046875 157.1494140625 -241.9931640625C152.330078125 -225.501953125 146.79296875 -216.115234375 140.30859375 -213.4296875C119.8046875 -204.935546875 110.6884765625 -244.953125 122.484375 -291.6875C128.8994140625 -317.1201171875 129.40234375 -324.0859375 125.287109375 -330.6552734375C118.4306640625 -341.599609375 107.236328125 -341.248046875 96.39453125 -329.75C88.263671875 -321.1259765625 71.908203125 -295.822265625 68.83203125 -287.1103515625C62.0849609375 -267.9765625 55.1640625 -207.400390625 57.060546875 -184.03515625C60.6767578125 -139.515625 65.9443359375 -111.0029296875 75.6376953125 -83.51953125C86.1884765625 -53.59765625 89.5791015625 -48.095703125 100.0009765625 -43.9765625Z"/>
</svg>