<svg xmlns="http://www.w3.org/2000/svg" viewBox="0 -1000 1000 1000">
	<path fill="#9b6f01" d="M149.48046875 -182.2021484375C157.7587890625 -179.6181640625 166.939453125 -180.1650390625 181.4013671875 -184.109375C201.587890625 -189.6162109375 216.91015625 -202.5869140625 237.4111328125 -231.537109375C245.033203125 -242.296875 254.5322265625 -253.4873046875 259.1259765625 -257.1171875C269.9267578125 -265.6552734375 295.6572265625 -281.5107421875 308.2421875 -287.38671875C343.392578125 -303.79296875 372.6875 -299.6884765625 417.4189453125 -272.0810546875C422.9765625 -268.6533203125 432.009765625 -263.3759765625 437.49609375 -260.3544921875C442.9814453125 -257.3330078125 452.5419921875 -250.4970703125 458.73828125 -245.1650390625C464.935546875 -239.8291015625 476.0263671875 -231.5439453125 483.3857421875 -226.751953125C493.044921875 -220.4599609375 497.830078125 -216.087890625 500.60546875 -211.0224609375C513.5048828125 -187.4658203125 530.9462890625 -179.9091796875 555.5556640625 -187.2158203125C566.9755859375 -190.6064453125 583.1494140625 -207.3818359375 586.0302734375 -218.822265625C592.0458984375 -242.7177734375 585.001953125 -279.7197265625 569.4462890625 -305.8984375C561.400390625 -319.4443359375 534.6103515625 -349.1015625 514.8818359375 -366.3037109375C499.6240234375 -379.6103515625 469.6689453125 -395.3232421875 433.8349609375 -408.8134765625C403.248046875 -420.33203125 389.5693359375 -421.5625 346.615234375 -416.66796875C328.28125 -414.5791015625 309.5029296875 -411.71875 304.8818359375 -410.3134765625C294.5771484375 -407.1796875 270.04296875 -394.396484375 241.041015625 -377.046875C195.14453125 -349.5908203125 172.5859375 -331.259765625 156.0263671875 -307.9658203125C150.84765625 -300.6865234375 141.212890625 -287.1650390625 134.6162109375 -277.92578125C119.6455078125 -256.966796875 112.0986328125 -238.8544921875 111.85546875 -223.2822265625C111.6982421875 -213.2783203125 112.201171875 -211.5927734375 117.65234375 -203.9638671875C124.10546875 -194.9306640625 137.029296875 -186.0947265625 149.48046875 -182.2021484375Z"/>
</svg>