<svg xmlns="http://www.w3.org/2000/svg" viewBox="0 -1000 1000 1000">
	<path fill="#03868b" d="M197.517578125 -4.0302734375C204.107421875 -2.181640625 267.5146484375 -3.107421875 303.3583984375 -5.5751953125C315.833984375 -6.4365234375 347.54296875 -7.60546875 373.8203125 -8.17578125C400.1005859375 -8.7470703125 433.744140625 -10.2236328125 448.5810546875 -11.4541015625C473.78515625 -13.5458984375 477.216796875 -14.259765625 500.759765625 -22.34375C531.634765625 -32.9462890625 537.9306640625 -36.521484375 548.3076171875 -49.345703125C563.7294921875 -68.404296875 575.056640625 -92.53125 580.6787109375 -118.2861328125C586.345703125 -144.2490234375 592.8330078125 -205.2392578125 595.6767578125 -259.263671875C596.626953125 -277.283203125 598.4931640625 -302.986328125 599.830078125 -316.384765625C601.78515625 -336.0078125 601.9453125 -350.177734375 600.6669921875 -389.265625C598.8798828125 -443.84375 597.3896484375 -459.08203125 591.36328125 -484.333984375C586.4453125 -504.9404296875 582.0908203125 -513.10546875 570.4248046875 -523.595703125C554.6201171875 -537.8046875 535.244140625 -544.09375 517.5146484375 -540.767578125C500.978515625 -537.6640625 475.1357421875 -499.21875 464.369140625 -461.703125C460.6943359375 -448.90234375 460.5068359375 -445.5087890625 460.376953125 -390.3046875C460.1748046875 -305.05078125 456.1279296875 -230.37890625 450.26953125 -203.82421875C446.8486328125 -188.3271484375 435.8251953125 -166.873046875 426.20703125 -156.998046875C413.1884765625 -143.6337890625 389.9326171875 -133.1064453125 362.158203125 -128.0068359375C306.30859375 -117.755859375 271.2470703125 -115.240234375 246.7158203125 -119.7216796875C232.7978515625 -122.267578125 206.44921875 -132.18359375 201.6640625 -136.6748046875C190.2548828125 -147.396484375 181.357421875 -174.3203125 183.0908203125 -192.896484375C183.6923828125 -199.37109375 185.6708984375 -221.67578125 187.482421875 -242.46484375C189.79296875 -268.9296875 192.3056640625 -286.8125 195.8671875 -302.1044921875C202.6650390625 -331.26953125 207.830078125 -366.1640625 209.2998046875 -392.82421875C209.962890625 -404.8349609375 211.4423828125 -422.4306640625 212.5908203125 -431.921875C214.7412109375 -449.658203125 214.3994140625 -463.439453125 211.2373046875 -486.904296875C210.2431640625 -494.296875 208.2705078125 -510.73046875 206.859375 -523.4248046875C201.28125 -573.5732421875 185.927734375 -596.9453125 158.5595703125 -596.9453125C142.1259765625 -596.9453125 134.001953125 -592.0849609375 119.919921875 -573.8466796875L113.111328125 -565.025390625L112.6806640625 -486.486328125C112.44140625 -443.287109375 111.29296875 -394.3349609375 110.126953125 -377.703125C108.9619140625 -361.0712890625 108.1552734375 -340.6591796875 108.3330078125 -332.34375C108.5107421875 -324.02734375 107.447265625 -304.75 105.9677734375 -289.505859375C104.4873046875 -274.2578125 102.9599609375 -246.6650390625 102.5703125 -228.18359375C102.1806640625 -209.703125 101.0869140625 -190.0498046875 100.1396484375 -184.505859375C97.7236328125 -170.3623046875 98 -142.837890625 100.9296875 -105.564453125C103.728515625 -69.921875 105.24609375 -65.0546875 119.373046875 -46.3310546875C134.3232421875 -26.517578125 152.60546875 -16.6220703125 197.517578125 -4.0302734375Z"/>
</svg>