<svg xmlns="http://www.w3.org/2000/svg" viewBox="0 -1000 1000 1000">
	<path fill="#03868b" d="M321.5244140625 -102.845703125C344.9169921875 -94.474609375 376.5400390625 -105.958984375 386.9404296875 -126.603515625C391.6337890625 -135.91796875 392.306640625 -138.89453125 395.328125 -163.640625C397.37890625 -180.45703125 398.568359375 -184.6240234375 404.939453125 -197.2431640625C412.6572265625 -212.53125 414.4658203125 -214.5107421875 467.966796875 -266.2451171875C483.89453125 -281.646484375 492.83984375 -291.9482421875 501.5107421875 -304.884765625C527.1904296875 -343.1904296875 534.3642578125 -358.8828125 546.060546875 -402.328125C551.861328125 -423.87890625 553.9736328125 -440.5751953125 555.34375 -475.759765625C556.6630859375 -509.525390625 554.14453125 -527.75390625 543.1181640625 -564.28515625C533.294921875 -596.8203125 525.119140625 -615.9033203125 513.7509765625 -632.83203125C504.81640625 -646.12890625 473.4423828125 -676.9140625 461.431640625 -684.1669921875C444.109375 -694.6259765625 418.6767578125 -701.19140625 395.0517578125 -701.30859375C378.798828125 -701.38671875 329.115234375 -694.0078125 316.5068359375 -689.646484375C255.4140625 -668.501953125 220.669921875 -648.626953125 191.20703125 -617.95703125C162.578125 -588.16015625 144.244140625 -551.51171875 144.3369140625 -524.27734375C144.4150390625 -500.7177734375 155.0625 -474.05078125 170.046875 -459.8798828125C187.150390625 -443.703125 209.130859375 -441.7890625 240.51171875 -453.748046875C259.033203125 -460.806640625 259.2763671875 -465.478515625 242.6376953125 -494.63671875C230.8623046875 -515.267578125 228.8935546875 -522.5078125 230.6982421875 -538.4658203125C233.548828125 -563.646484375 241.427734375 -575.236328125 267.6943359375 -592.896484375C300.5341796875 -614.9736328125 319.8359375 -618.689453125 369.2802734375 -612.44140625C404.4921875 -607.994140625 419.7978515625 -604.2109375 435.099609375 -596.16796875C460.310546875 -582.923828125 483.6044921875 -548.986328125 488.5908203125 -518.2451171875C493.02734375 -490.880859375 488.916015625 -451.66015625 479.1884765625 -428.546875C469.443359375 -405.3974609375 452.9248046875 -374.8271484375 446.21875 -367.537109375C435.7734375 -356.1787109375 399.3583984375 -326.06640625 382.025390625 -314.4521484375C333.0732421875 -281.646484375 297.369140625 -245.306640625 280.310546875 -210.91796875C268.9560546875 -188.03125 267.1923828125 -159.4130859375 276.068359375 -142.06640625C285.0166015625 -124.583984375 302.1923828125 -109.767578125 321.5244140625 -102.845703125ZM326.37109375 96.986328125C338.12890625 101.17578125 341.775390625 101.744140625 352.6279296875 101.0703125C365.4345703125 100.27734375 388.4619140625 93.9130859375 400.3251953125 87.8837890625C416.6630859375 79.5849609375 431.1826171875 60.625 439.314453125 36.9765625C443.1494140625 25.830078125 443.9560546875 20.5634765625 444.05859375 5.9140625C444.2119140625 -15.390625 441.1806640625 -25.630859375 431.435546875 -36.697265625C414.6572265625 -55.759765625 379.9267578125 -60.94140625 346.35546875 -49.392578125C341.1982421875 -47.6181640625 335.0185546875 -46.158203125 332.6220703125 -46.158203125C318.6220703125 -46.1279296875 298.3984375 -33.953125 289.662109375 -20.298828125C280.8779296875 -6.5615234375 275.3642578125 11.6875 274.1923828125 30.9267578125L273.1943359375 47.3330078125L280.3447265625 61.076171875C289.8603515625 79.3662109375 300.7392578125 87.853515625 326.37109375 96.986328125Z"/>
</svg>