<svg xmlns="http://www.w3.org/2000/svg" viewBox="0 -1000 1000 1000">
	<path fill="#964ffa" d="M404.994140625 -358.3779296875C414.2734375 -356.484375 423.59765625 -360.86328125 440.7763671875 -375.18359375C458.4814453125 -389.943359375 466.021484375 -395.0048828125 480.4287109375 -401.810546875C498.4755859375 -410.3310546875 511.330078125 -413.208984375 521.337890625 -410.966796875C532.4912109375 -408.46875 537.4091796875 -405.04296875 553.91796875 -388.2890625C569.8662109375 -372.1044921875 577.4951171875 -367.326171875 587.3935546875 -367.326171875C596.22265625 -367.326171875 604.681640625 -374.5791015625 608.5205078125 -385.4375C612.8232421875 -397.609375 613.681640625 -419.7783203125 610.3486328125 -432.845703125C602.1318359375 -465.0732421875 577.2255859375 -500.04296875 554.205078125 -511.66015625C542.8203125 -517.4091796875 526.4140625 -521.8251953125 516.2998046875 -521.86328125C504.9794921875 -521.904296875 487.5859375 -515.556640625 473.759765625 -506.337890625C449.095703125 -489.890625 431.9482421875 -469.677734375 409.447265625 -430.5244140625C391.3251953125 -398.986328125 388.0205078125 -386.900390625 393.3935546875 -371.833984375C396.1787109375 -364.017578125 400.1982421875 -359.359375 404.994140625 -358.3779296875ZM106.1982421875 -328.234375C116.841796875 -325.7021484375 129.4404296875 -335.248046875 154.4599609375 -364.806640625C178.21484375 -392.875 189.2138671875 -400.927734375 203.794921875 -400.927734375C220.888671875 -400.927734375 228.759765625 -395.78125 249.4658203125 -371.0654296875C259.4189453125 -359.19140625 272.1611328125 -353.0703125 286.9541015625 -353.056640625C299.8056640625 -353.0458984375 306.115234375 -355.783203125 309.8447265625 -362.9921875C313.9462890625 -370.921875 314.4931640625 -387.017578125 311.173828125 -401.984375C308.1630859375 -415.546875 286.2060546875 -472.015625 279.2294921875 -484.1318359375C274.13671875 -492.9775390625 249.1826171875 -516.845703125 240.599609375 -521.080078125C230.9130859375 -525.8583984375 216.0625 -525.560546875 205.53515625 -520.37890625C193.609375 -514.5078125 178.2080078125 -499.2939453125 154.34375 -469.806640625C130.900390625 -440.8466796875 124.912109375 -432.3154296875 112.306640625 -409.9140625C107.548828125 -401.4609375 100.681640625 -390.947265625 97.0517578125 -386.552734375C88.77734375 -376.537109375 85.984375 -366.205078125 88.513671875 -354.9296875C91.7646484375 -340.423828125 98.6484375 -330.029296875 106.1982421875 -328.234375ZM321.240234375 -77.27734375C325.857421875 -76.0810546875 335.755859375 -75.3154296875 343.234375 -75.578125C359.6064453125 -76.15234375 366.7158203125 -79.70703125 381.2529296875 -94.576171875C392.8017578125 -106.388671875 398.14453125 -113.3984375 404.1123046875 -124.568359375C408.2373046875 -132.2861328125 408.5830078125 -134.462890625 408.4287109375 -151.447265625C408.09375 -187.9140625 396.7119140625 -201.8896484375 365.041015625 -204.716796875C356.6572265625 -205.46484375 346.2529296875 -206.521484375 341.921875 -207.064453125C335.3291015625 -207.888671875 332.625 -207.2763671875 325.3583984375 -203.322265625C310.2001953125 -195.0703125 300.3046875 -180.25 290.1640625 -150.6064453125C285.283203125 -136.33984375 284.8046875 -133.3115234375 285.6728515625 -122.0458984375C287.78125 -94.58984375 296.42578125 -83.7099609375 321.240234375 -77.27734375Z"/>
</svg>