<svg xmlns="http://www.w3.org/2000/svg" viewBox="0 -1000 1000 1000">
	<path fill="#3c9202" d="M204.1298828125 -60.5498046875C208.8330078125 -58.7041015625 221.46875 -61.1474609375 228.4931640625 -65.2666015625C242.140625 -73.2607421875 250.220703125 -84.7314453125 258.533203125 -107.90234375C266.708984375 -130.6826171875 269.744140625 -145.8251953125 273.080078125 -180.431640625C274.9091796875 -199.3740234375 277.5166015625 -221.6767578125 278.880859375 -229.9921875C280.244140625 -238.3076171875 282.47265625 -252.6708984375 283.830078125 -261.9130859375C286.66015625 -281.1494140625 298.1474609375 -324.2568359375 303.88671875 -337.1796875C309.2421875 -349.23828125 325.3515625 -372.6552734375 335.751953125 -383.5029296875C345.69140625 -393.8740234375 360.2216796875 -401.41015625 382.9853515625 -408.0068359375C400.830078125 -413.1787109375 401.4521484375 -413.1923828125 413.6474609375 -408.65625C421.1708984375 -405.8603515625 426.263671875 -402.1552734375 436.162109375 -392.27734375C446.8125 -381.6474609375 450.3974609375 -376.5546875 457.58203125 -361.8330078125C467.5322265625 -341.4423828125 473.9921875 -318.0908203125 476.3876953125 -293.8330078125C477.30078125 -284.5908203125 478.7666015625 -269.8486328125 479.6484375 -261.0712890625C480.60546875 -251.5048828125 480.677734375 -233.7412109375 479.830078125 -216.7275390625C477.08203125 -161.6123046875 482.5126953125 -140.3974609375 505.0576171875 -118.197265625C518.7060546875 -104.7607421875 532.37109375 -98.11328125 546.3330078125 -98.11328125C559.6259765625 -98.11328125 565.466796875 -100.5166015625 576.6201171875 -110.5791015625C590.7939453125 -123.3681640625 594.3759765625 -132.7275390625 605.05078125 -184.806640625L614.3095703125 -229.9921875L614.1318359375 -274.5107421875C613.9404296875 -323.1494140625 613.2568359375 -331.0341796875 604.7734375 -382.0341796875C599.9541015625 -410.9873046875 597.490234375 -420.892578125 589.296875 -444.23046875C581.421875 -466.6591796875 578.044921875 -473.9501953125 571.705078125 -482.1865234375C556.8330078125 -501.5126953125 533.259765625 -520.1708984375 516.9248046875 -525.5400390625C512.5947265625 -526.9619140625 497.12109375 -530.787109375 482.5439453125 -534.041015625C448.767578125 -541.57421875 429.4765625 -541.95703125 397.5419921875 -535.7294921875C363.6015625 -529.1123046875 353.3271484375 -524.9248046875 328.765625 -507.7021484375C310.03515625 -494.5673828125 302.1875 -487.091796875 288.0068359375 -468.8837890625C273.0595703125 -449.6923828125 260.62890625 -428.986328125 253.62890625 -411.6298828125C246.314453125 -393.4873046875 236.3544921875 -359.0751953125 234.3681640625 -345.068359375C233.50390625 -338.970703125 231.576171875 -328.73046875 230.08203125 -322.3076171875C228.5888671875 -315.8857421875 226.322265625 -304.2060546875 225.0439453125 -296.3525390625C221.646484375 -275.4482421875 206.583984375 -214.4404296875 202.427734375 -204.7431640625C192.1357421875 -180.7294921875 180.466796875 -178.9111328125 168.8427734375 -199.5068359375C158.52734375 -217.7861328125 144.11328125 -226.5400390625 124.330078125 -226.5439453125C111.5234375 -226.5439453125 105.7060546875 -224.3115234375 97.587890625 -216.2900390625C88.5205078125 -207.32421875 85.6904296875 -198.3935546875 85.6904296875 -178.7529296875C85.6904296875 -162.2236328125 86.0078125 -160.5595703125 90.728515625 -152.3330078125C97.2939453125 -140.892578125 129.9013671875 -106.3408203125 147.4833984375 -92.1904296875C159.0126953125 -82.9130859375 187.0087890625 -67.2724609375 204.1298828125 -60.5498046875Z"/>
</svg>