<svg xmlns="http://www.w3.org/2000/svg" viewBox="0 -1000 1000 1000">
	<path fill="#03868b" d="M344.2724609375 -213.2734375C352.755859375 -211.5478515625 371.5166015625 -211.1103515625 423.4287109375 -211.44140625L491.470703125 -211.8759765625L512.7509765625 -217.1083984375C524.45703125 -219.9892578125 537.025390625 -223.869140625 540.6787109375 -225.7353515625C548.9267578125 -229.9423828125 555.5029296875 -237.5791015625 557.68359375 -245.484375C562.0341796875 -261.2314453125 547.7099609375 -291.7802734375 533.8359375 -296.3505859375C526.3271484375 -298.8251953125 517.7138671875 -298.9658203125 469.6298828125 -297.396484375C424.365234375 -295.9169921875 408.328125 -297.1845703125 396.59765625 -303.1689453125C387.0478515625 -308.0400390625 386.111328125 -312.2197265625 384.7412109375 -356.1142578125C383.408203125 -398.8037109375 381.7705078125 -407.140625 372.51171875 -418.3720703125C365.169921875 -427.279296875 356.310546875 -430.79296875 341.1103515625 -430.8271484375C325.2646484375 -430.861328125 317.3388671875 -428.6845703125 311.2890625 -422.6337890625C305.2666015625 -416.6123046875 302.8671875 -408.9150390625 300.7685546875 -388.875C292.791015625 -312.7119140625 292.09375 -303.4501953125 293.1875 -288.1201171875C295.470703125 -256.0185546875 299.271484375 -245.1259765625 313.7734375 -229.0712890625C321.392578125 -220.6357421875 329.9853515625 -216.185546875 344.2724609375 -213.2734375ZM386.001953125 -54.4580078125C361.37890625 -47.4775390625 343.8515625 -48.5 297.31640625 -59.6220703125C267.7099609375 -66.697265625 251.689453125 -74.28515625 233.591796875 -89.802734375C197.5146484375 -120.7353515625 183.04296875 -137.9619140625 169.7509765625 -165.7880859375C156.341796875 -193.8564453125 154.5849609375 -202.9541015625 152.787109375 -253.6328125C151.9326171875 -277.6572265625 151.6904296875 -301.0947265625 152.2470703125 -305.7158203125C154.099609375 -321.1005859375 171.134765625 -383.3447265625 176.2890625 -393.5576171875C186.7958984375 -414.373046875 227.2099609375 -459.0966796875 252.8720703125 -478.3095703125C268.400390625 -489.9375 289.9609375 -501.1962890625 306.4521484375 -506.2861328125C323.0498046875 -511.4091796875 359.6083984375 -515.44921875 368.2734375 -513.1181640625C371.9853515625 -512.1201171875 381.5693359375 -510.240234375 389.5673828125 -508.94140625C416.794921875 -504.525390625 434.9267578125 -496.7021484375 467.1103515625 -475.486328125C490.76953125 -459.8896484375 496.771484375 -453.7861328125 521.39453125 -420.265625C559.8369140625 -367.9365234375 558.2509765625 -370.9208984375 567.0556640625 -334.3310546875C571.26953125 -316.8076171875 577.1552734375 -294.5048828125 580.1357421875 -284.7705078125C585.2392578125 -268.0869140625 585.54296875 -265.6337890625 585.451171875 -241.875C585.2763671875 -198.9423828125 577.5380859375 -175.0361328125 554.64453125 -146.7294921875C538.9765625 -127.3564453125 533.3232421875 -123.134765625 499.8720703125 -105.8232421875C484.1630859375 -97.6943359375 465.2412109375 -87.4853515625 457.82421875 -83.130859375C444.1552734375 -75.1083984375 408.1708984375 -60.7470703125 386.001953125 -54.4580078125ZM300.4814453125 28.4072265625C320.6748046875 31.330078125 326.7861328125 31.4228515625 369.6708984375 29.4638671875C409.4013671875 27.65234375 421.75390625 26.12109375 452.3623046875 19.2197265625C477.0673828125 13.6494140625 501.5087890625 4.4921875 519.111328125 -5.7890625C532.6669921875 -13.705078125 561.453125 -34.841796875 572.513671875 -45C579.9892578125 -51.8662109375 607.2578125 -86.931640625 621.4013671875 -107.8662109375C636.05078125 -129.5498046875 651.537109375 -165.5146484375 659.046875 -195.2841796875C664.556640625 -217.1259765625 664.1123046875 -270.5693359375 657.9599609375 -325.875C653.1748046875 -368.9033203125 649.1650390625 -386.3427734375 632.2666015625 -437.5947265625C616.0078125 -486.9091796875 598.6337890625 -514.90234375 557.92578125 -557.3740234375C547.0810546875 -568.6845703125 539.5615234375 -574.6591796875 526.005859375 -582.7255859375C516.2509765625 -588.5283203125 504.4892578125 -594.650390625 499.8720703125 -596.3251953125C495.2509765625 -598 485.7626953125 -602.2138671875 478.7861328125 -605.6904296875C461.59765625 -614.2587890625 427.7421875 -626.779296875 415.783203125 -628.9873046875C410.41015625 -629.9814453125 393.111328125 -630.7919921875 377.3408203125 -630.7919921875C350.837890625 -630.7880859375 347.2080078125 -630.4052734375 329.349609375 -625.7197265625C318.72265625 -622.9306640625 306.626953125 -619.2158203125 302.470703125 -617.4619140625C298.310546875 -615.7119140625 289.9951171875 -613.1484375 283.9892578125 -611.767578125C247.751953125 -603.4345703125 215.544921875 -584.6044921875 178.275390625 -549.95703125C165.7314453125 -538.2978515625 148.2890625 -522.7119140625 139.51171875 -515.326171875C118.81640625 -497.908203125 93.9775390625 -472.1533203125 81.009765625 -454.6611328125C63.0791015625 -430.478515625 47.83203125 -395.5400390625 44.6015625 -371.2353515625C43.986328125 -366.6142578125 41.92578125 -356.787109375 40.021484375 -349.3935546875C36.80859375 -336.9248046875 36.6376953125 -332.9814453125 37.66015625 -294.7958984375C38.736328125 -254.4326171875 40.134765625 -235.9931640625 43.7744140625 -214.1552734375C44.7763671875 -208.1494140625 46.259765625 -197.9443359375 47.0693359375 -191.4736328125C49.0009765625 -176.0693359375 62.45703125 -132.9541015625 70.0283203125 -117.9228515625C82.99609375 -92.1708984375 93.8271484375 -76.951171875 109.7451171875 -62.1142578125C139.6005859375 -34.2783203125 154.0859375 -25.4697265625 218.6689453125 4.1064453125C246.6552734375 16.9267578125 270.884765625 24.1220703125 300.4814453125 28.4072265625Z"/>
</svg>