<svg xmlns="http://www.w3.org/2000/svg" viewBox="0 -1000 1000 1000">
	<path fill="#854e28" d="M307.998046875 -82.5283203125C314.5 -79.162109375 318.21484375 -79.271484375 326.546875 -83.0556640625C346.78125 -92.24609375 353.53515625 -113.8447265625 356.03125 -177.3369140625C357.978515625 -226.9892578125 357.958984375 -508.3994140625 356 -527.537109375C355.197265625 -535.3916015625 352.14453125 -591.14453125 349.21484375 -622.09765625C343.5625 -681.830078125 340.5859375 -697.0166015625 332.689453125 -706.3984375C317.080078125 -724.951171875 293.4453125 -715.8046875 286.16015625 -688.392578125C283.0234375 -676.580078125 279.5234375 -545.48828125 281.27734375 -514.9384765625C282.53515625 -493.001953125 279.63671875 -344.62890625 275.72265625 -297.4580078125C271.375 -245.0703125 273.384765625 -150.2626953125 279.396484375 -124.3408203125C283.884765625 -104.98828125 294.45703125 -89.5390625 307.998046875 -82.5283203125ZM316.392578125 143.3115234375C304.00006103515625 149.1885986328125 283.63671875 151.9375 277 143C274.134765625 139.140625 272 127.6025390625 272 117C272 105.43359375 274.4921875 70.29296875 279 63C288.787109375 47.1669921875 322.169921875 41.01171875 331 49C335.2115173339844 52.81001281738281 356.5703125 97 348 120C342.783203125 134 333 135.435546875 316.392578125 143.3115234375ZM403.083984375 185.0009765625C438.990234375 253.1201171875 588 285.0439453125 704 285.0439453125C704 285.0439453125 749.31640625 276 749.31640625 214C749.31640625 148 704.646484375 140.0546875 704.646484375 140.0546875C581.9964904785156 140.0546875 526 126.5830078125 509 121C485.7236328125 113.3564453125 455.65234375 104.8466796875 440.18359375 71.2138671875C414.5087890625 15.3896484375 399 -22.664688110351562 321.427734375 -23.1025390625C309.447265625 -23.170166015625 288.5128631591797 -20.00177001953125 278 -15C263.18214416503906 -7.9500274658203125 238.02975463867188 -0.829864501953125 220 22C212.3822479248047 31.645843505859375 203.76377868652344 54 204.3203125 77.5595703125C204.7827606201172 97.13613891601562 197 188.28982543945312 226.802734375 208.8046875C241.54763793945312 218.9544219970703 279.75390625 225.0615234375 299.6796875 225.0615234375C317.052734375 225.0615234375 333.4833984375 218.71875 342 214C355.77734375 206.3662109375 372.607421875 186.66796875 377 178C383.5821533203125 165.01129150390625 392.9287109375 165.734375 403.083984375 185.0009765625Z"/>
</svg>