<svg xmlns="http://www.w3.org/2000/svg" viewBox="0 -1000 1000 1000">
	<path fill="#d600e3" d="M343.8115234375 -244.0556640625C380.27734375 -237.7021484375 407.8125 -244.2705078125 425.0458984375 -263.4384765625C434.390625 -273.8291015625 442.4814453125 -290.0849609375 444.9697265625 -303.4599609375C446.5419921875 -311.9189453125 446.31640625 -314.7490234375 443.25 -324.822265625C437.40234375 -344.0615234375 420.94140625 -368.1591796875 407.6318359375 -376.966796875C399.828125 -382.1279296875 373.8486328125 -391.0244140625 366.6435546875 -391.0244140625C363.7861328125 -391.0185546875 359.181640625 -389.5107421875 356.41015625 -387.6748046875C353.0908203125 -385.4775390625 348.50390625 -384.3466796875 342.970703125 -384.30859375C330.2490234375 -384.267578125 318.439453125 -377.9267578125 304.2822265625 -363.5380859375C296.2470703125 -355.3720703125 290.3134765625 -347.408203125 286.515625 -339.6904296875C281.23828125 -328.978515625 280.8115234375 -326.900390625 280.8115234375 -312.1103515625C280.8115234375 -298.134765625 281.3994140625 -294.8564453125 285.4765625 -286.1513671875C297.09765625 -261.3408203125 313.8017578125 -249.28515625 343.8115234375 -244.0556640625ZM437.3681640625 -202.0791015625C398.296875 -195.4150390625 388.2861328125 -196.333984375 335.13671875 -211.455078125C283.7783203125 -226.0673828125 263.3212890625 -235.5859375 223.6904296875 -263.3193359375C182.4150390625 -292.201171875 170.8828125 -305.2138671875 175.8759765625 -317.2685546875C179.8134765625 -326.77734375 207.3076171875 -350.3544921875 238.8115234375 -371.2314453125C289.294921875 -404.693359375 319.0478515625 -416.8173828125 359.212890625 -420.2861328125C409.8427734375 -424.6611328125 445.90234375 -416.0107421875 484.9287109375 -390.1220703125C503.1875 -378.0166015625 513.1748046875 -366.9248046875 521.1728515625 -349.8759765625C546.3564453125 -296.1865234375 544.3125 -268.6923828125 512.7890625 -237.1826171875C490.0048828125 -214.408203125 478.646484375 -209.1201171875 437.3681640625 -202.0791015625ZM382.451171875 -104.6708984375C390.31640625 -102.5615234375 431.5166015625 -109.6650390625 461.0888671875 -118.2294921875C480.669921875 -123.8974609375 521.630859375 -139.6669921875 536.1708984375 -147.1318359375C559.8095703125 -159.2724609375 607.48046875 -213.8232421875 625.25 -249.0771484375C644.3330078125 -286.9267578125 641.8173828125 -315.1220703125 615.95703125 -353.2353515625C611.568359375 -359.7021484375 605.1318359375 -369.5263671875 601.65625 -375.0595703125C594.65625 -386.2060546875 566.4267578125 -418.625 551.0869140625 -433.1337890625C539.6748046875 -443.931640625 525.3427734375 -453.939453125 510.970703125 -461.1552734375C496.4033203125 -468.4697265625 448.4384765625 -486.2294921875 439.5693359375 -487.5966796875C435.4130859375 -488.2353515625 427.47265625 -489.8994140625 421.9287109375 -491.2939453125C400.8876953125 -496.58203125 395.18359375 -496.8251953125 368.578125 -493.5634765625C354.49609375 -491.837890625 337.70703125 -489.2021484375 331.2705078125 -487.7119140625C303.787109375 -481.3349609375 253.8095703125 -457.1494140625 222.0185546875 -434.83984375C185.6650390625 -409.328125 128.2333984375 -365.5712890625 112.8115234375 -351.6328125C104.4951171875 -344.1162109375 92.3994140625 -333.544921875 85.9287109375 -328.1376953125C71.279296875 -315.89453125 69.3623046875 -313.0068359375 64.8876953125 -296.4189453125C60.9228515625 -281.7255859375 61.2646484375 -276.35546875 67.0546875 -262.5166015625C72.7900390625 -248.7958984375 75.7568359375 -245.7412109375 100.71875 -227.8408203125C113.8369140625 -218.4345703125 132.1298828125 -204.5400390625 141.3720703125 -196.962890625C162.4638671875 -179.6650390625 178.12890625 -169.154296875 194.271484375 -161.470703125C220.9287109375 -148.783203125 254.646484375 -135.7236328125 271.5693359375 -131.5361328125C281.2724609375 -129.1337890625 301.5615234375 -122.9677734375 316.6552734375 -117.830078125C339.306640625 -110.1220703125 347.2294921875 -108.21875 362.015625 -106.919921875C371.869140625 -106.0517578125 381.0634765625 -105.0400390625 382.451171875 -104.6708984375Z"/>
</svg>