<svg xmlns="http://www.w3.org/2000/svg" viewBox="0 -1000 1000 1000">
	<path fill="#854e28" d="M326.37109375 -225.9208984375C338.12890625 -221.7314453125 341.775390625 -221.1630859375 352.6279296875 -221.8369140625C365.4345703125 -222.6298828125 388.4619140625 -228.994140625 400.3251953125 -235.0234375C416.6630859375 -243.322265625 431.1826171875 -262.2822265625 439.314453125 -285.9306640625C443.1494140625 -297.0771484375 443.9560546875 -302.34375 444.05859375 -316.9931640625C444.2119140625 -338.2978515625 441.1806640625 -348.5380859375 431.435546875 -359.6044921875C414.6572265625 -378.6669921875 379.9267578125 -383.8486328125 346.35546875 -372.2998046875C341.1982421875 -370.525390625 335.0185546875 -369.0654296875 332.6220703125 -369.0654296875C318.6220703125 -369.03515625 298.3984375 -356.8603515625 289.662109375 -343.2060546875C280.8779296875 -329.46875 275.3642578125 -311.2197265625 274.1923828125 -291.98046875L273.1943359375 -275.57421875L280.3447265625 -261.8310546875C289.8603515625 -243.541015625 300.7392578125 -235.0537109375 326.37109375 -225.9208984375Z"/>
</svg>