<svg xmlns="http://www.w3.org/2000/svg" viewBox="0 -1000 1000 1000">
	<path fill="#d600e3" d="M532.3779296875 -267.2626953125C526.49609375 -262.5830078125 524.7080078125 -262.0908203125 512.2158203125 -261.7666015625C504.6787109375 -261.5712890625 493.9736328125 -262.4912109375 488.4296875 -263.8173828125C482.8857421875 -265.1435546875 474.6796875 -266.6845703125 470.19140625 -267.2451171875C459.599609375 -268.568359375 448.2001953125 -278.4833984375 445.41796875 -288.7919921875C442.5810546875 -299.2919921875 444.2939453125 -321.21875 448.603515625 -329.5654296875C452.6025390625 -337.3134765625 463.099609375 -347.072265625 473.3125 -352.5341796875C483.552734375 -358.0126953125 502.3818359375 -357.6103515625 513.736328125 -351.6767578125C538.513671875 -338.7216796875 553.7265625 -301.0224609375 542.7138671875 -279.8642578125C540.578125 -275.759765625 535.92578125 -270.0888671875 532.3779296875 -267.2626953125ZM398.55078125 -167.4443359375C407.2021484375 -166.1142578125 426.2265625 -166.2685546875 464.0771484375 -167.9775390625C487.462890625 -169.0302734375 515.6025390625 -175.6435546875 534.630859375 -184.5615234375C550.4013671875 -191.951171875 589.1435546875 -219.2568359375 597.708984375 -229.0185546875C607.6142578125 -240.3115234375 617.537109375 -266.0830078125 622.126953125 -292.4365234375C624.5234375 -306.2041015625 621.607421875 -348.2451171875 617.13671875 -364.3701171875C611.353515625 -385.2236328125 587.9267578125 -412.8095703125 568.00390625 -422.2236328125C544.3583984375 -433.396484375 510.0009765625 -436.4453125 476.1494140625 -430.375C458.5400390625 -427.216796875 453.556640625 -425.0087890625 433.60546875 -411.5009765625C409.8095703125 -395.3916015625 406.794921875 -391.6630859375 389.927734375 -357.4736328125C372.2119140625 -321.5634765625 365.3798828125 -312.0478515625 353.7109375 -307.0302734375C340.6201171875 -301.3974609375 318.7314453125 -298.8681640625 303.193359375 -301.189453125C282.6474609375 -304.2626953125 233.3740234375 -319.0341796875 210.3095703125 -329.0390625C164.283203125 -349.0029296875 151.8115234375 -356.8271484375 127.919921875 -380.71875C118.810546875 -389.8271484375 109.5546875 -397.7333984375 107.353515625 -398.287109375C97.240234375 -400.8232421875 81.69140625 -386.5361328125 77.8017578125 -371.1318359375C74.6298828125 -358.5634765625 81.0322265625 -341.2783203125 96.716796875 -320.0869140625C118.2744140625 -290.9599609375 155.072265625 -252.6572265625 174.0078125 -239.6279296875C186.0869140625 -231.3154296875 229.8876953125 -212.5302734375 244.90625 -209.21875C249.486328125 -208.2099609375 260.7900390625 -204.5087890625 270.0322265625 -200.9951171875C279.2705078125 -197.4775390625 294.3916015625 -192.6513671875 303.630859375 -190.2666015625C344.984375 -179.5888671875 390.0849609375 -168.7431640625 398.55078125 -167.4443359375Z"/>
</svg>