<svg xmlns="http://www.w3.org/2000/svg" viewBox="0 -1000 1000 1000">
	<path fill="#ee2304" d="M346.3154296875 -120.21484375C331.2041015625 -105.58203125 314.2236328125 -118.826171875 309.216796875 -149.150390625C304.90625 -175.236328125 312.8603515625 -278.8251953125 322.2119140625 -318.490234375C324.4501953125 -327.982421875 327.0341796875 -343.4794921875 327.9541015625 -352.9296875C332.1201171875 -395.7744140625 337.298828125 -416.94921875 348.2666015625 -436.013671875C358.376953125 -453.58984375 363.4599609375 -459.373046875 372.4384765625 -463.529296875C386.244140625 -469.919921875 395.5234375 -466.6015625 399.8232421875 -453.740234375C400.818359375 -450.759765625 402.140625 -433.748046875 402.7626953125 -415.9375C403.8017578125 -386.083984375 403.4775390625 -380.076171875 398.626953125 -339.0361328125C395.7353515625 -314.5498046875 391.5283203125 -286.197265625 389.279296875 -276.0361328125C387.0302734375 -265.87109375 384.4462890625 -251.0849609375 383.537109375 -243.1796875C381.4619140625 -225.1630859375 370.494140625 -180.8798828125 360.4658203125 -150.0361328125C353.8623046875 -129.7265625 351.9306640625 -125.65625 346.3154296875 -120.21484375ZM320.359375 0.994140625C337.080078125 4.9921875 352.1220703125 4.294921875 365.8349609375 -1.119140625C394.56640625 -12.4560546875 422.9326171875 -34.4541015625 437.6328125 -56.7939453125C443.6826171875 -65.98828125 460.423828125 -110.3056640625 463.96875 -126.513671875C464.9765625 -131.134765625 470.28125 -154.1923828125 475.75390625 -177.755859375C485.5732421875 -220.046875 485.7548828125 -221.2939453125 489.96875 -275.35546875C495.6669921875 -348.4287109375 496.0048828125 -423.78515625 490.7998046875 -461.26953125C485.4130859375 -500.09375 482.1279296875 -511.6572265625 469.7275390625 -535.484375C448.8232421875 -575.658203125 443.197265625 -581.4521484375 414.2236328125 -592.642578125C389.2890625 -602.2744140625 382.5283203125 -603.5458984375 355.6396484375 -603.5458984375C334.9814453125 -603.556640625 330.9375 -603.083984375 322.423828125 -599.68359375C313.02734375 -595.927734375 289.9189453125 -580.068359375 282.962890625 -572.603515625C278.57421875 -567.892578125 252.095703125 -506.751953125 247.29296875 -490.2333984375C245.2763671875 -483.3046875 239.9375 -466.2939453125 235.42578125 -452.43359375C230.1279296875 -436.158203125 225.7568359375 -418.3125 223.080078125 -402.0361328125C220.80078125 -388.17578125 217.3896484375 -368.140625 215.4990234375 -357.513671875C206.3291015625 -305.95703125 203.6728515625 -259.564453125 206.7216796875 -204.21484375C210.037109375 -143.986328125 214.251953125 -117.09375 225.74609375 -82.8359375C230.39453125 -68.9755859375 236.728515625 -53.4375 239.818359375 -48.306640625C254.2216796875 -24.40234375 279.904296875 -8.6796875 320.359375 0.994140625Z"/>
</svg>