<svg xmlns="http://www.w3.org/2000/svg" viewBox="0 -1000 1000 1000">
	<path fill="#ee2304" d="M406.435546875 -84.71875C415.9619140625 -80.39453125 420.1484375 -80.658203125 431.9169921875 -86.314453125C450.5751953125 -95.283203125 465.611328125 -115.1044921875 474.59375 -142.5712890625C482.2431640625 -165.9638671875 494.126953125 -215.12109375 499.828125 -246.9453125C508.14453125 -293.369140625 517.0205078125 -421.87109375 513.2607421875 -441.3291015625C512.4921875 -445.30078125 511.83203125 -452.55078125 511.791015625 -457.44140625C511.7021484375 -468.314453125 504.7744140625 -497.06640625 499.978515625 -506.46484375C495.3232421875 -515.587890625 487.9677734375 -519.939453125 477.1640625 -519.939453125C451.748046875 -519.958984375 437.798828125 -506.85546875 437.8232421875 -482.9873046875C437.830078125 -478.828125 436.349609375 -470.890625 434.5419921875 -465.34765625C432.73046875 -459.802734375 428.095703125 -437.125 424.236328125 -414.953125C420.380859375 -392.783203125 415.0556640625 -367.45703125 412.400390625 -358.671875C409.748046875 -349.8916015625 406.4189453125 -335.90234375 405.0068359375 -327.5859375C403.591796875 -319.26953125 400.9912109375 -306.41796875 399.2236328125 -299.025390625C397.45703125 -291.6357421875 394.8623046875 -279.5390625 393.4609375 -272.146484375C389.212890625 -249.724609375 384.0341796875 -224.212890625 380.677734375 -209.146484375C376.8974609375 -192.162109375 373.076171875 -143.7744140625 374.5390625 -131.404296875C376.6826171875 -113.3271484375 391.6328125 -91.44140625 406.435546875 -84.71875ZM222.986328125 -56.736328125C230.5849609375 -54.3056640625 234.4296875 -54.25390625 244.9365234375 -56.431640625C271.9150390625 -62.0302734375 288.5498046875 -83.6865234375 306.1083984375 -136.06640625C313.3505859375 -157.671875 314.1201171875 -161.568359375 315.572265625 -183.9453125C317.5341796875 -214.140625 317.3017578125 -262.056640625 315.1318359375 -275.505859375C314.236328125 -281.05078125 313.470703125 -293.90234375 313.4326171875 -304.06640625C313.357421875 -323.337890625 309.1435546875 -393.365234375 307.619140625 -400.666015625C307.13671875 -402.9765625 305.6396484375 -419.9873046875 304.29296875 -438.46875C301.873046875 -471.7080078125 296.1689453125 -506.3115234375 290.5869140625 -521.626953125C284.6943359375 -537.7841796875 275.75 -545.146484375 262.0126953125 -545.146484375C244.701171875 -545.146484375 232.40625 -534.541015625 219.1650390625 -508.1875C211.587890625 -493.1015625 210.31640625 -489.2080078125 210.39453125 -481.3056640625C210.5654296875 -464.30078125 207.4453125 -427.06640625 202.478515625 -386.8359375C198.4970703125 -354.5673828125 197.556640625 -340.4033203125 197.556640625 -312.5703125C197.556640625 -286.802734375 196.494140625 -268.7900390625 193.3154296875 -240.724609375C182.8837890625 -148.6484375 183.328125 -107.7734375 195.0107421875 -83.89453125C200.0556640625 -73.580078125 214.6669921875 -59.39453125 222.986328125 -56.736328125Z"/>
</svg>