<svg xmlns="http://www.w3.org/2000/svg" viewBox="0 -1000 1000 1000">
	<path fill="#ee2304" d="M409.2509765625 -364.5029296875C414.056640625 -363.255859375 422.93359375 -362.61328125 429.9951171875 -363.0068359375C450.8955078125 -364.171875 466.4541015625 -374.357421875 474.2509765625 -391.9833984375C476.0078125 -395.958984375 478.44140625 -399.2099609375 479.6611328125 -399.2099609375C480.8779296875 -399.2099609375 483.8759765625 -396.3173828125 486.3232421875 -392.7841796875C499.9912109375 -373.0654296875 529.875 -373.564453125 548.1748046875 -393.8193359375C555.9228515625 -402.3955078125 558.5654296875 -410.5361328125 558.654296875 -426.0888671875C558.736328125 -440.65234375 555.6533203125 -448.0927734375 547.8671875 -452.1201171875C537.408203125 -457.5263671875 519.4189453125 -463.046875 512.3681640625 -463.0126953125C497.619140625 -462.9375 487.0478515625 -455.0078125 482.3310546875 -440.4814453125L480.1875 -433.8740234375L474.9580078125 -439.8017578125C472.083984375 -443.0615234375 467.5546875 -448.568359375 464.8994140625 -452.0439453125C459.556640625 -459.02734375 447.775390625 -465.2412109375 434.0380859375 -468.32421875C426.2763671875 -470.0634765625 423.572265625 -469.8525390625 411.3564453125 -466.5400390625C385.80078125 -459.6083984375 380.1982421875 -454.0576171875 373.919921875 -429.4482421875C370.7548828125 -417.0380859375 371.4794921875 -407.1044921875 376.53125 -393.607421875C382.59765625 -377.40625 392.08984375 -368.9638671875 409.2509765625 -364.5029296875ZM303.314453125 -14.2158203125C310.9130859375 -10.6748046875 318.9931640625 -11.0751953125 325.4599609375 -15.3134765625C335.9765625 -22.2001953125 345.9228515625 -43.4052734375 350.291015625 -68.2470703125C351.67578125 -76.1025390625 356.7275390625 -101.0498046875 361.51953125 -123.6904296875C369.923828125 -163.3759765625 370.2626953125 -166.025390625 371.03125 -197.689453125C371.98828125 -237.078125 370.3955078125 -247.7216796875 362.3330078125 -255.78125C351.23828125 -266.8759765625 331.9228515625 -264.517578125 315.8994140625 -250.1103515625C308.8310546875 -243.7568359375 305.3759765625 -238.4150390625 296.578125 -220.2451171875L285.8623046875 -198.1162109375L279.064453125 -157.9619140625C275.328125 -135.87890625 271.9033203125 -116.7958984375 271.4560546875 -115.5595703125C270.21484375 -112.1337890625 273.623046875 -63.513671875 275.833984375 -53.08203125C279.40625 -36.2353515625 290.873046875 -20.0166015625 303.314453125 -14.2158203125ZM175.5166015625 -9.4248046875C186.283203125 -5.0771484375 203.1171875 -10.1689453125 210.6533203125 -20.05078125C222.1787109375 -35.1650390625 240.6083984375 -82.4931640625 246.09765625 -111.0888671875C261.109375 -189.294921875 262.3232421875 -199.2548828125 258.15625 -210.1650390625C254.7216796875 -219.154296875 248.576171875 -224.4892578125 241.6474609375 -224.4892578125C235.2763671875 -224.4892578125 208.5888671875 -210.513671875 199.220703125 -202.26953125C186.7314453125 -191.2802734375 170.533203125 -154.7841796875 162.8603515625 -120.3310546875C159.4970703125 -105.2333984375 158.9296875 -98.0830078125 158.9296875 -70.7705078125C158.9296875 -43.8427734375 159.4287109375 -37.4033203125 162.1044921875 -29.607421875C165.912109375 -18.533203125 170.6630859375 -11.3857421875 175.5166015625 -9.4248046875ZM428.8017578125 -6.3076171875C439.1103515625 -4.4072265625 446.30859375 -5.6298828125 458.2578125 -11.314453125C472.873046875 -18.2705078125 484.5419921875 -31.3740234375 489.0126953125 -45.849609375C492.79296875 -58.0830078125 495.72265625 -80.1318359375 495.7841796875 -96.8076171875C495.8046875 -102.8134765625 496.9287109375 -112.2646484375 498.2822265625 -117.8076171875C499.6357421875 -123.3525390625 502.2744140625 -141.9560546875 504.14453125 -159.1513671875C507.5517578125 -190.4814453125 511.8173828125 -211.552734375 516.640625 -220.8798828125C520.1572265625 -227.6826171875 527.3798828125 -233.33203125 550.6767578125 -247.5205078125C572.30859375 -260.6923828125 592.857421875 -277.8369140625 607.9306640625 -295.29296875C621.7119140625 -311.2509765625 637.93359375 -338.0283203125 640.9755859375 -349.8408203125C646.291015625 -370.4609375 649.25390625 -388.6416015625 648.884765625 -398.3681640625C647.99609375 -421.8974609375 638.849609375 -461.0205078125 627.830078125 -488.4150390625C618.400390625 -511.85546875 593.4248046875 -540.9931640625 572.2099609375 -553.3056640625C557.98046875 -561.5634765625 528.80859375 -574.1748046875 513.123046875 -578.8505859375C506.8134765625 -580.7314453125 491.822265625 -583.796875 479.80859375 -585.6591796875C467.7978515625 -587.5263671875 449.275390625 -590.6298828125 438.6494140625 -592.5537109375C422.2021484375 -595.5380859375 415.33203125 -595.9130859375 392.4482421875 -595.076171875C374.626953125 -594.4228515625 361.041015625 -592.9951171875 352.1298828125 -590.8310546875C336.650390625 -587.0751953125 299.0185546875 -574.3740234375 285.6435546875 -568.3916015625C257.923828125 -555.9912109375 236.3427734375 -529.5166015625 234.162109375 -505.23828125C232.4501953125 -486.1630859375 239.1904296875 -474.2685546875 256.296875 -466.1748046875C270.9052734375 -459.259765625 275.564453125 -458.7705078125 287.71484375 -462.8720703125C293.470703125 -464.8173828125 299.736328125 -466.4130859375 301.63671875 -466.423828125C303.537109375 -466.4345703125 309.248046875 -468.392578125 314.3310546875 -470.7783203125C319.4130859375 -473.1640625 328.8603515625 -477.033203125 335.3310546875 -479.3779296875C341.7978515625 -481.7197265625 356.62109375 -488.408203125 368.2734375 -494.2353515625C391.625 -505.9189453125 415.6396484375 -514.8291015625 435.9384765625 -519.3447265625C457.837890625 -524.2119140625 474.4931640625 -521.3193359375 514.7568359375 -505.6689453125C534.0107421875 -498.18359375 535.96875 -496.9833984375 547.138671875 -485.8349609375C564.2353515625 -468.7724609375 568.0634765625 -460.0185546875 570.20703125 -433.1220703125C571.6220703125 -415.3388671875 571.4580078125 -409.6474609375 569.21875 -398.7548828125C563.7333984375 -372.0908203125 547.3232421875 -347.6591796875 525.3154296875 -333.3896484375C515.7451171875 -327.1865234375 494.912109375 -319.5673828125 475.611328125 -315.2158203125C439.1376953125 -306.99609375 417.064453125 -279.0478515625 407.58984375 -229.107421875C406.1923828125 -221.7412109375 405.05078125 -211.279296875 405.05078125 -205.8544921875C405.05078125 -200.4306640625 404.3056640625 -190.8740234375 403.392578125 -184.619140625C402.48046875 -178.3642578125 399.74609375 -155.033203125 397.3154296875 -132.7685546875C391.921875 -83.392578125 392.126953125 -51.345703125 397.923828125 -36.6484375C404.490234375 -20.0029296875 416.0322265625 -8.662109375 428.8017578125 -6.3076171875ZM70.732421875 -6.296875C91.63671875 2.0400390625 113.357421875 -19.5927734375 127.78515625 -63.1171875C137.806640625 -93.3486328125 144.666015625 -123.3857421875 146.3681640625 -144.5126953125C148.07421875 -165.615234375 146.375 -199.8974609375 143.083984375 -210.9033203125C139.5224609375 -222.8046875 126.677734375 -236.2470703125 118.87109375 -236.2470703125C117.3837890625 -236.2470703125 114.9609375 -234.4052734375 113.484375 -232.15625C112.0107421875 -229.9033203125 108.640625 -227.5869140625 105.9990234375 -227.0048828125C98.732421875 -225.4091796875 87.083984375 -214.1640625 81.1328125 -203.0048828125C70.36328125 -182.7939453125 60.73828125 -154.5576171875 57.3369140625 -133.1923828125C50.8740234375 -92.607421875 49.9921875 -79.3798828125 52.1181640625 -54.9072265625C55.10546875 -20.5498046875 58.728515625 -11.08203125 70.732421875 -6.296875Z"/>
</svg>