<svg xmlns="http://www.w3.org/2000/svg" viewBox="0 -1000 1000 1000">
	<path fill="#9b6f01" d="M391.341796875 -315.642578125C373.455078125 -308.1669921875 359.3798828125 -315.9404296875 336.955078125 -345.6630859375C326.3486328125 -359.720703125 325.849609375 -365.0224609375 333.8037109375 -379.1923828125C348.630859375 -405.6142578125 379.4609375 -430.7568359375 397.0908203125 -430.8037109375C415.1337890625 -430.85546875 439.4736328125 -404.9951171875 439.681640625 -385.5576171875C439.876953125 -367.0927734375 409.5693359375 -323.2578125 391.341796875 -315.642578125ZM532.517578125 -167.8251953125C525.1484375 -160.453125 511.8896484375 -163.3037109375 494.0615234375 -176.09375C470.1904296875 -193.2177734375 444.712890625 -225.1240234375 438.9951171875 -245.0615234375C437.9150390625 -248.828125 438.3798828125 -251.7705078125 440.857421875 -256.8916015625C446.125 -267.7744140625 472.1865234375 -299.564453125 476.787109375 -300.7158203125C482.1943359375 -302.0771484375 489.7587890625 -297.9677734375 496.228515625 -290.158203125C505.4951171875 -278.9775390625 520.9267578125 -246.4462890625 525.5615234375 -228.3310546875C527.9169921875 -219.119140625 531.3720703125 -206.2919921875 533.2421875 -199.828125C538.009765625 -183.33984375 537.77734375 -173.0859375 532.517578125 -167.8251953125ZM420.5654296875 -140.697265625C413.322265625 -138.1572265625 401.8173828125 -138.25 384.205078125 -140.9814453125C368.4208984375 -143.431640625 361.9228515625 -146.822265625 361.9228515625 -152.6083984375C361.9228515625 -158.3095703125 378.8388671875 -180.537109375 387.30859375 -185.9619140625C400.1533203125 -194.1953125 409.83984375 -191.32421875 419.7822265625 -176.3427734375C423.1865234375 -171.2158203125 427.513671875 -163.5322265625 429.400390625 -159.2705078125C432.7978515625 -151.5830078125 432.8017578125 -151.4873046875 429.5576171875 -147.1123046875C427.759765625 -144.6865234375 423.712890625 -141.8017578125 420.5654296875 -140.697265625ZM207.3623046875 -136.9580078125C165.974609375 -131.810546875 157.4091796875 -134.2373046875 159.2548828125 -150.5986328125C161.845703125 -173.5751953125 182.517578125 -198.666015625 243.2412109375 -252.5498046875C277.591796875 -283.0283203125 283.275390625 -285.578125 296.130859375 -276.2646484375C308.7666015625 -267.1142578125 321.6015625 -245.232421875 321.6015625 -232.8486328125C321.6015625 -221.0576171875 306.517578125 -200.3310546875 287.28125 -185.69140625C280.4970703125 -180.5263671875 267.3857421875 -170.1533203125 258.146484375 -162.640625C237.2900390625 -145.6845703125 224.17578125 -139.0498046875 207.3623046875 -136.9580078125ZM135.7216796875 -55.4833984375C162.966796875 -50.955078125 229.4052734375 -54.27734375 306.4833984375 -64.025390625C318.033203125 -65.4853515625 334.6650390625 -67.2314453125 343.4423828125 -67.9052734375C352.2197265625 -68.578125 366.5849609375 -70.3310546875 375.3623046875 -71.8017578125C406.2197265625 -76.97265625 422.22265625 -77.779296875 496.3212890625 -77.8916015625C579.9619140625 -78.0224609375 590.74609375 -79.1220703125 613.0791015625 -89.7802734375C636.861328125 -101.130859375 644.0078125 -114.3212890625 645.392578125 -149.4228515625C646.400390625 -175.0302734375 643.8984375 -191.3173828125 635.8115234375 -211.77734375C627.892578125 -231.8232421875 607.5146484375 -269.5205078125 597.6025390625 -282.4638671875C592.7861328125 -288.7529296875 585.0654296875 -298.8154296875 580.4443359375 -304.8212890625C575.826171875 -310.8271484375 560.9921875 -334.9306640625 547.4814453125 -358.3837890625C533.9697265625 -381.8388671875 519.279296875 -406.0302734375 514.8359375 -412.1455078125C510.3896484375 -418.2607421875 500.5625 -433.0634765625 492.9921875 -445.046875C485.4248046875 -457.0263671875 477.064453125 -469.30078125 474.4150390625 -472.3154296875C471.7666015625 -475.3330078125 465.439453125 -484.1181640625 460.353515625 -491.8388671875C442.4814453125 -518.9775390625 417.19140625 -537.4580078125 388.8017578125 -544.126953125C365.3857421875 -549.6259765625 358.529296875 -546.8310546875 336.30859375 -522.7138671875C322.9619140625 -508.2275390625 276.07421875 -450.5869140625 255.904296875 -423.8720703125C252.6708984375 -419.58984375 246.4609375 -412.0322265625 242.1025390625 -407.0732421875C237.7451171875 -402.1171875 230.98046875 -393.818359375 227.0703125 -388.63671875C223.16015625 -383.4521484375 216.013671875 -374.376953125 211.18359375 -368.4736328125C206.3544921875 -362.5712890625 194.5556640625 -347.1591796875 184.96484375 -334.22265625C175.3701171875 -321.2861328125 162.1123046875 -304.6533203125 155.498046875 -297.2607421875C129.5048828125 -268.1982421875 86.49609375 -205.0947265625 69.84375 -171.5849609375C56.4287109375 -144.59375 51.376953125 -118.6748046875 56.1650390625 -101.431640625C61.78125 -81.2216796875 94.4599609375 -62.3466796875 135.7216796875 -55.4833984375Z"/>
</svg>