<svg xmlns="http://www.w3.org/2000/svg" viewBox="0 -1000 1000 1000">
	<path fill="#9b6f01" d="M433.228515625 -391.1376953125C421.087890625 -386.4794921875 417.43359375 -385.9013671875 395.4287109375 -385.1298828125C363.419921875 -384.0087890625 346.439453125 -385.6962890625 334.421875 -391.2001953125C312.5634765625 -401.2080078125 303.0107421875 -414.5888671875 303.0517578125 -435.1474609375C303.0751953125 -449.2841796875 306.841796875 -458.4580078125 318.1484375 -471.9189453125C328.8642578125 -484.677734375 338.017578125 -491.1748046875 352.099609375 -496.0185546875C363.224609375 -499.8466796875 366.970703125 -500.2470703125 392.91015625 -500.3486328125C424.48828125 -500.4794921875 436.4169921875 -498.2607421875 458.8359375 -488.095703125C477.5322265625 -479.619140625 480.533203125 -475.2236328125 482.169921875 -453.9296875C483.1884765625 -440.7060546875 482.939453125 -438.9423828125 478.888671875 -430.7080078125C473.6357421875 -420.0302734375 461.07421875 -405.3330078125 452.7177734375 -400.08984375C449.3916015625 -397.998046875 440.62109375 -393.9716796875 433.228515625 -391.1376953125ZM206.7060546875 11.5595703125C215.0283203125 14.6123046875 224.4619140625 14.7421875 231.263671875 11.8984375C243.1689453125 6.921875 260.2861328125 -15.0693359375 267.7197265625 -34.9384765625C269.69921875 -40.2294921875 274.3203125 -50.0146484375 277.984375 -56.6826171875C281.6513671875 -63.3515625 290.2001953125 -80.2060546875 296.984375 -94.1376953125C315.537109375 -132.23046875 334.9072265625 -156.1123046875 354.5400390625 -165.1005859375C362.8623046875 -168.912109375 365.439453125 -169.2705078125 380.0341796875 -168.6767578125C393.9560546875 -168.1083984375 397.8896484375 -167.2548828125 407.6513671875 -162.6748046875C426.5595703125 -153.8076171875 433.2763671875 -145.3583984375 452.5537109375 -106.1884765625C480.884765625 -48.6201171875 495.0869140625 -26.6455078125 510.59765625 -16.3720703125C531.6826171875 -2.4052734375 560.33203125 -2.689453125 571.5703125 -16.9736328125C577.9658203125 -25.1044921875 580.8095703125 -38.4755859375 579.58203125 -54.6494140625C578.7138671875 -66.1025390625 576.1572265625 -75.9541015625 566.921875 -103.4404296875C544.8076171875 -169.2470703125 532.11328125 -191.5830078125 496.228515625 -227.8486328125C475.5732421875 -248.7216796875 444.052734375 -270.2783203125 426.0810546875 -275.826171875C411.212890625 -280.4130859375 408.8681640625 -282.1181640625 408.8681640625 -288.349609375C408.8681640625 -291.78125 411.4970703125 -295.9267578125 418.4013671875 -303.3857421875C430.849609375 -316.8310546875 439.103515625 -322.3447265625 457.0859375 -329.2216796875C474.1005859375 -335.7255859375 495.36328125 -346.7314453125 506.3076171875 -354.6923828125C516.23046875 -361.9072265625 541.2158203125 -387.73046875 548.1298828125 -397.9130859375C557.8642578125 -412.2509765625 561.5146484375 -422.7060546875 566.18359375 -449.5927734375C570.33984375 -473.521484375 570.53515625 -476.6552734375 568.67578125 -489.5419921875C565.9853515625 -508.1826171875 559.798828125 -527.6591796875 550.6015625 -546.4501953125C544.0625 -559.8115234375 540.9453125 -563.9033203125 527.560546875 -576.689453125C505.115234375 -598.1376953125 497.44140625 -601.7568359375 465.599609375 -605.9091796875C451.494140625 -607.7490234375 433.9013671875 -610.0732421875 426.5087890625 -611.0712890625C386.890625 -616.43359375 366.642578125 -614.615234375 334.9482421875 -602.857421875C302.3408203125 -590.7607421875 286.939453125 -581.5908203125 259.25 -557.78125C232.931640625 -535.1435546875 219.5810546875 -518.4091796875 210.3837890625 -496.517578125C199.5791015625 -470.80078125 197.3955078125 -427.5361328125 205.9677734375 -408.9736328125C215.0078125 -389.3955078125 243.828125 -355.3857421875 272.7890625 -330.1240234375C317.2158203125 -291.3681640625 325.1484375 -279.517578125 319.693359375 -260.0380859375C316.7880859375 -249.6611328125 306.17578125 -239.2373046875 288.712890625 -229.6083984375C249.65625 -208.0712890625 235.6015625 -193.7841796875 219.71484375 -159.4716796875C215.5 -150.3701171875 211.2451171875 -141.25390625 210.2568359375 -139.216796875C209.26953125 -137.1796875 205.9541015625 -134.322265625 202.8876953125 -132.8662109375C198.0068359375 -130.548828125 196.6298828125 -130.5146484375 191.79296875 -132.5927734375C188.7548828125 -133.8984375 183.2451171875 -138.1435546875 179.5498046875 -142.0302734375C170.68359375 -151.34375 158.583984375 -157.3623046875 146.529296875 -158.4560546875C134.060546875 -159.5849609375 129.435546875 -156.703125 123.73828125 -144.2587890625C117.77734375 -131.2392578125 118.962890625 -122.0380859375 129.234375 -101.6025390625C133.6025390625 -92.91015625 141.552734375 -75.3447265625 146.8984375 -62.5654296875C152.244140625 -49.7861328125 159.134765625 -35.1259765625 162.2041015625 -29.9814453125C172.994140625 -11.9150390625 192.599609375 6.388671875 206.7060546875 11.5595703125Z"/>
</svg>